<?xml version="1.0" standalone="no"?>
<!DOCTYPE svg PUBLIC "-//W3C//DTD SVG 1.1//EN" "http://www.w3.org/Graphics/SVG/1.1/DTD/svg11.dtd" >
<svg xmlns="http://www.w3.org/2000/svg" xmlns:xlink="http://www.w3.org/1999/xlink" version="1.1">
<metadata></metadata>
<defs>
<font id="kg_fall_for_youitalic" horiz-adv-x="260" >
<font-face units-per-em="2048" ascent="1638" descent="-410" />
<missing-glyph horiz-adv-x="622" />
<glyph horiz-adv-x="0" />
<glyph unicode="&#xd;" horiz-adv-x="622" />
<glyph unicode=" "  horiz-adv-x="622" />
<glyph unicode="&#x09;" horiz-adv-x="622" />
<glyph unicode="&#xa0;" horiz-adv-x="622" />
<glyph unicode="!" horiz-adv-x="274" d="M100 60q0 4 4 15t14 24t27 24t45 17q34 -2 40 -19t-5 -38t-33 -41t-44 -27t-37 1t-11 44zM196 346l414 1104q12 18 32 26t39 8t32 -8t13 -26l-424 -1132q-8 -2 -27 -4t-37 -1t-31 9t-11 24z" />
<glyph unicode="&#x22;" horiz-adv-x="506" d="M408 882l108 378q6 18 23 36t39 28t42 11t32 -17q-24 -104 -48 -194t-53 -152t-64 -88t-79 -2zM606 874l106 378q6 18 23 36t39 28t43 11t33 -17q-24 -108 -49 -200t-55 -154t-64 -86t-76 4z" />
<glyph unicode="#" horiz-adv-x="1236" d="M252 513q18 35 76 51l244 10l58 160h-316l42 116h316l108 328q6 20 32 35t51 17t40 -14t3 -58q-6 -20 -16 -57t-20 -77t-20 -76t-16 -56h290q4 16 19 57t31 88t32 88t24 57q12 28 38 43t50 18t40 -5t10 -28l-102 -312l204 12q56 -18 -2 -104q-20 -22 -49 -32t-60 -15 t-62 -7t-53 -4q-6 -10 -18 -36t-21 -54t-10 -51t15 -27q6 -2 32 0t55 5t55 6t32 1q24 -6 31 -24t1 -39t-25 -43t-49 -36l-174 8l-84 -230q-10 -24 -35 -39t-51 -19t-44 3t-10 27l82 228q-6 18 -33 24t-65 4t-81 -7t-79 -11t-62 -10t-28 0l-82 -230h-116l82 230l-294 28 q-34 22 -16 57zM746 574q26 -2 64 -5t79 -1t82 9t75 25l54 146q-20 2 -60 4t-86 0t-89 -9t-67 -25z" />
<glyph unicode="$" horiz-adv-x="926" d="M182 264q-2 18 6 39t21 39t32 29t41 9l158 -198l144 400q-100 28 -152 81t-61 120t20 142t92 146t155 133t210 102q6 6 25 40t40 74t40 74t25 42q28 40 58 45t76 -11q16 -16 8 -43t-26 -58t-38 -64t-30 -60t-2 -46t46 -21l246 -116q14 -6 7 -28t-25 -43t-41 -36t-41 -9 q-20 6 -45 24t-54 36t-58 32t-58 11t-55 -27t-46 -80q-6 -16 -24 -61t-38 -96t-37 -96t-19 -61q162 -102 225 -188t30 -164t-159 -154t-340 -162l-60 -166q-16 -14 -42 -24t-50 -11t-38 9t-4 38l48 128q-18 24 -44 40t-54 39t-57 57t-55 94zM530 826q2 -38 30 -59t88 -11 q34 92 76 194t68 200q-56 -16 -105 -55t-85 -86t-55 -96t-17 -87zM632 234q208 74 242 158t-126 162z" />
<glyph unicode="%" horiz-adv-x="1446" d="M501 911q1 67 38 139t102 140t140 114t151 61t138 -17q88 -48 100 -122t-27 -152t-114 -150t-162 -117t-172 -53t-143 44q-52 46 -51 113zM523 40q3 18 31 48l922 1186q20 26 46 32t45 -4t23 -33t-18 -53l-948 -1186q-26 -12 -51 -16t-39 2t-11 24zM635 1012 q-15 -50 17 -98q18 -28 51 -35t73 4t82 35t76 56t56 69t24 73q2 56 -33 77t-86 15t-107 -34t-97 -70t-56 -92zM980 139q8 53 41 116t85 125t108 108t110 65t92 -3q72 -38 93 -100t3 -129t-68 -131t-120 -105t-153 -53t-167 26q-32 28 -24 81zM1134 174q4 -36 47 -37t92 29 t87 87t30 135q-10 42 -36 48t-58 -11t-64 -51t-57 -71t-38 -73t-3 -56z" />
<glyph unicode="&#x26;" horiz-adv-x="956" d="M163 199q-15 53 9 118t80 127t138 113t180 79q-52 62 -66 125t2 123t58 114t102 100t134 82t154 58q0 2 11 33t29 71t44 77t58 51q8 4 22 1t27 -8t22 -12t7 -11l-74 -202q-6 -16 13 -28t49 -23t62 -24t54 -34t25 -50t-27 -73q-24 -36 -51 -41t-53 7t-50 33t-44 39t-35 26 t-23 -8l-176 -354l176 -52q10 -22 5 -49t-21 -50t-41 -39t-53 -16q-4 0 -23 4t-42 9t-42 10t-21 7l-148 -292q8 2 28 11t41 18t41 17t28 12q88 42 134 43t61 -17t2 -44t-45 -40l-342 -144q-2 0 -14 -28t-33 -67t-48 -79t-54 -64t-55 -25t-50 41q-4 6 7 35t28 64t32 66t21 41 q-116 0 -177 33t-76 86zM284 271q4 -35 46 -58t134 -19l164 328q-66 -2 -130 -28t-113 -64t-77 -81t-24 -78zM650 845q-2 -63 62 -117l186 368q-52 -4 -111 -42t-97 -92t-40 -117z" />
<glyph unicode="'" d="M302 710q2 16 13 52t29 79t43 87t53 75t61 43t67 -8l-110 -298q-10 -30 -39 -53t-57 -31t-48 3t-12 51z" />
<glyph unicode="(" horiz-adv-x="568" d="M189 70q-17 112 3 244t72 276t126 283t167 266t193 225q38 32 77 64t76 49t74 12t71 -43q-118 -80 -238 -209t-221 -281t-171 -312t-89 -303t23 -253t168 -162q-14 -30 -36 -58t-52 -41t-70 -3t-92 60q-64 74 -81 186z" />
<glyph unicode=")" horiz-adv-x="488" d="M-82 -132q0 28 6 58q162 52 286 162t208 253t130 303t56 312t-16 281t-86 209q62 38 102 43t66 -12t41 -49t29 -64q30 -98 30 -225t-27 -266t-81 -283t-130 -276t-175 -244t-217 -186q-88 -50 -135 -60t-67 3t-20 41z" />
<glyph unicode="*" horiz-adv-x="1096" d="M455 818q-27 28 3 64q20 22 45 31t51 10t49 -4t39 -7q-4 8 -16 39t-17 67t6 71t53 53q30 12 57 -22t48 -83t36 -96t25 -59l106 290q48 20 68 9t26 -37t3 -59t-5 -57q30 34 81 56t92 25t57 -15t-26 -66q-16 -18 -47 -38t-62 -42t-53 -46t-18 -48q8 -2 40 -11t69 -22 t70 -30t45 -35t-5 -38t-81 -38q-30 -10 -57 -5t-53 14t-54 16t-58 3q-20 -24 -10 -44t35 -40t57 -40t53 -44t23 -54t-30 -66q-8 -8 -34 -19t-34 -9q-6 6 -22 18t-34 26t-34 26t-24 16q-14 6 -41 6t-31 -6l-72 -202q-2 -6 -26 -15t-51 -14t-46 0t-9 29l114 316 q-26 -22 -59 -49t-65 -51t-62 -41t-53 -19t-37 14t-14 60q14 12 44 36t62 52t62 59t48 55q-10 10 -57 25t-95 36t-75 49z" />
<glyph unicode="+" horiz-adv-x="902" d="M337 662q-1 20 7 45t23 45t33 20l270 6l92 252q6 18 32 26t53 8t47 -8t14 -26l-84 -246l286 -14q4 -4 2 -21t-10 -38t-20 -40t-26 -23h-288l-120 -314q-6 -16 -30 -25t-49 -11t-43 6t-10 30l120 314l-284 -6q-14 0 -15 20z" />
<glyph unicode="," horiz-adv-x="328" d="M10 -166q32 30 67 75t60 95t32 100t-19 90q40 54 81 46t54 -62t-16 -146t-127 -206q-26 -30 -52 -47t-45 -18t-29 16t-6 57z" />
<glyph unicode="-" horiz-adv-x="816" d="M326 614q0 2 5 15t11 28t12 28t10 17q30 -4 96 1t146 10t159 7t133 -6t70 -31t-30 -69q-146 0 -248 -1t-170 -2t-107 -1h-59t-24 1t-4 3z" />
<glyph unicode="." horiz-adv-x="246" d="M70 30q-12 34 6 63t46 44t56 12t38 -33q6 -24 -13 -51t-46 -45t-53 -19t-34 29z" />
<glyph unicode="/" horiz-adv-x="824" d="M52 30q2 26 34 78l1120 1306q18 28 44 34t44 -4t23 -34t-17 -54l-1134 -1322q-30 -24 -58 -35t-43 -3t-13 34z" />
<glyph unicode="0" horiz-adv-x="968" d="M256 485q24 145 96 301t170 294t213 243t227 149q110 30 178 2t100 -98t31 -173t-28 -223t-77 -247t-115 -245t-144 -218t-163 -164t-171 -85t-171 19q-108 64 -139 182t-7 263zM367 339q11 -103 71 -169q102 -38 192 -3t166 118t136 199t101 242t61 247t17 213t-32 141 t-85 29q-106 -38 -204 -122t-180 -194t-141 -235t-86 -244t-16 -222z" />
<glyph unicode="1" d="M64 58l472 1270q8 24 40 48t63 34t50 -1t3 -53l-492 -1326q-10 -24 -35 -31t-50 -1t-42 22t-9 38z" />
<glyph unicode="2" horiz-adv-x="882" d="M147 124q11 38 42 79t67 67l116 116t161 167t178 196t166 202t125 187t58 150q8 76 -24 92t-85 -2t-118 -61t-123 -87t-99 -78t-47 -36q-68 -16 -83 4t6 59t73 89t120 97t146 83t151 45t134 -17t97 -100q4 -42 -3 -88t-37 -110t-88 -150t-157 -207t-243 -281t-346 -372 h550q18 0 18 -20t-11 -45t-27 -45t-28 -20h-608q-58 -4 -75 22t-6 64z" />
<glyph unicode="3" horiz-adv-x="702" d="M71 73q7 23 26 47t41 45t28 27q56 -46 120 -49t126 25t117 78t93 107t54 114t1 98t-66 59t-149 -2q2 8 7 26t11 36t12 33t10 19q8 12 51 37t99 59t117 79t107 98t69 113t3 128q-14 46 -45 55t-71 -7t-87 -51t-92 -75t-85 -82t-66 -70q-12 -4 -36 -3t-40 12t-16 35t34 66 q140 154 250 233t190 101t130 -6t70 -87t11 -141t-48 -170t-107 -173t-166 -151q58 -48 69 -115t-12 -140t-74 -147t-118 -139t-144 -115t-152 -75t-142 -18t-113 55q-24 8 -17 31z" />
<glyph unicode="4" horiz-adv-x="976" d="M308 677q0 23 13 46t35 35q122 40 237 126t216 186t187 196t152 156t111 66t63 -74l-242 -646q72 12 98 3t28 -27t-10 -41t-14 -41q-6 -16 -28 -21t-48 -4t-50 3t-34 2l-220 -622q-6 -18 -27 -26t-44 -8t-41 9t-18 25l206 614l-512 -12q-30 0 -44 16t-14 39zM616 758 q78 -8 161 1t169 29q18 36 49 100t62 135t58 138t37 107q-52 -82 -111 -152t-125 -131t-141 -117t-159 -110z" />
<glyph unicode="5" horiz-adv-x="882" d="M124 86q-4 22 14 50t46 38q58 -18 138 -10t165 37t168 77t145 110t96 137t22 157q-12 38 -46 56t-81 22t-104 -1t-113 -11t-109 -10t-93 4q2 12 20 63t44 122t56 152t56 152t44 122t22 63q72 44 174 57t202 12t180 -7t108 -2q4 -8 15 -25t9 -35t-25 -36t-88 -29t-182 -13 t-303 12l-164 -468q168 26 271 21t160 -30t76 -62t17 -75q-2 -136 -59 -247t-145 -196t-195 -143t-211 -85t-192 -22t-138 43z" />
<glyph unicode="6" horiz-adv-x="748" d="M160 249q12 81 51 180t93 208t119 222t132 222t128 208t109 179l130 -4l-462 -750q178 102 283 118t153 -26t44 -126t-45 -184t-113 -200t-160 -172t-185 -103t-191 9q-60 24 -79 81t-7 138zM296 200q30 -52 81 -56t110 25t118 83t106 117t76 129t27 118q-10 56 -53 70 t-103 -4t-126 -65t-121 -112t-88 -144t-27 -161z" />
<glyph unicode="7" horiz-adv-x="756" d="M426 58q0 2 32 74t103 224t187 389t284 571q-22 0 -88 -3t-142 -7t-143 -7t-87 1q-26 0 -33 20t-1 44t24 43t42 17l634 16l-696 -1382q-10 -18 -30 -27t-39 -8t-33 10t-14 25z" />
<glyph unicode="8" horiz-adv-x="882" d="M160 204q-2 58 25 119t70 122t85 114t71 96t27 69q-16 170 11 299t83 220t131 146t155 78t156 14t133 -46t86 -101t15 -150q-16 -82 -55 -150t-79 -120t-71 -84t-29 -40q80 -44 104 -112t7 -145t-70 -158t-127 -152t-164 -124t-181 -75t-178 -7t-155 81q-48 48 -50 106z M316 286q-12 -58 22 -88q38 -50 108 -58t146 16t150 74t122 114t58 137t-38 143q-54 56 -125 54t-143 -39t-137 -100t-108 -129t-55 -124zM554 952q-4 -56 22 -96q134 -26 232 7t157 95t78 136t-8 131t-102 79t-201 -20q-48 -42 -87 -99t-63 -117t-28 -116z" />
<glyph unicode="9" horiz-adv-x="776" d="M400 1012q22 86 83 172t149 158t184 108t191 23t167 -99q18 -30 -3 -111t-65 -195t-104 -250t-121 -275t-114 -270t-85 -233q-16 -30 -34 -35t-37 2t-37 18t-32 15q10 34 32 94t50 133t59 151t61 149t55 128t39 87q-188 -34 -290 -7t-136 89t-12 148zM541 988 q-1 -42 35 -60q80 -42 155 -30t135 53t101 103t54 122t-6 107t-79 61q-42 12 -95 -9t-105 -61t-97 -92t-71 -102t-27 -92z" />
<glyph unicode=":" horiz-adv-x="348" d="M216 228q-12 34 6 63t46 44t56 12t38 -33q6 -24 -13 -51t-46 -45t-53 -19t-34 29zM408 740q-12 34 6 63t46 44t56 12t38 -33q8 -24 -11 -51t-46 -45t-54 -19t-35 29z" />
<glyph unicode=";" horiz-adv-x="360" d="M26 -234q30 30 65 75t60 95t32 100t-19 90q42 54 83 46t54 -62t-16 -146t-129 -206q-26 -30 -51 -47t-45 -18t-30 16t-4 57zM290 508q-12 34 6 63t46 44t56 12t38 -33q6 -24 -13 -51t-46 -45t-53 -19t-34 29z" />
<glyph unicode="&#x3c;" horiz-adv-x="954" d="M376 556q4 26 38 62q38 24 105 65t140 85t140 84t107 62q26 16 69 21t74 -2t33 -26t-52 -51q-34 -18 -97 -53t-132 -73t-132 -73t-97 -55l318 -226q20 -18 17 -42t-20 -44t-44 -30t-53 0q-66 48 -130 84t-117 64t-93 51t-59 47t-15 50z" />
<glyph unicode="=" horiz-adv-x="968" d="M334 360q0 2 4 15t11 28t13 28t10 17q28 -4 95 1t147 10t159 7t133 -6t70 -31t-30 -69q-146 0 -248 -1t-170 -2t-107 -1h-59t-24 1t-4 3zM430 616q0 2 4 15t11 28t13 28t10 17q28 -4 95 1t147 10t159 7t133 -6t70 -31t-30 -69q-146 0 -248 -1t-170 -2t-107 -1h-59t-24 1 t-4 3z" />
<glyph unicode="&#x3e;" horiz-adv-x="882" d="M263 290q-3 20 11 44t48 42l482 226q-18 20 -56 55t-80 73t-80 73t-58 53q-30 32 -14 51t51 26t75 2t56 -21q22 -22 60 -62t79 -84t78 -85t59 -65q20 -32 -18 -62t-123 -69t-212 -93t-283 -134q-34 -10 -53 0t-22 30z" />
<glyph unicode="?" horiz-adv-x="710" d="M214 30q6 60 52 91t102 13q20 -12 17 -32t-21 -39t-45 -35t-51 -23t-40 -2t-14 27zM405 772q3 36 33 60q62 22 135 54t141 68t127 75t95 75t42 66t-30 50t-120 27t-230 -3q-8 0 -11 13t-1 31t7 35t15 21q78 38 157 47t146 -4t117 -47t69 -83t3 -109t-81 -125t-185 -133 t-306 -134q24 -54 21 -111t-24 -97t-53 -54t-64 20q16 44 11 91t-11 89t-3 78z" />
<glyph unicode="@" horiz-adv-x="1202" d="M258 494q12 142 71 290t156 277t230 225t293 132q68 16 141 6t136 -38t109 -72t62 -98q40 -70 38 -168t-37 -198t-98 -189t-144 -143t-174 -60t-187 62q-50 -26 -94 -52t-85 -39t-80 -6t-77 45q-50 52 -43 126t51 150t116 146t152 113t159 50t139 -41q34 -28 29 -78 t-24 -108t-42 -117t-25 -101q64 -14 118 10t94 72t64 113t29 134t-12 135t-59 115t-111 74t-169 13q-120 -20 -222 -95t-178 -180t-125 -228t-65 -240t4 -214t83 -151t169 -50t264 88q24 -42 13 -78t-47 -64t-91 -46t-118 -24t-129 3t-126 35q-94 76 -132 199t-26 265z M601 632q-5 -32 15 -54q34 -30 82 -12t96 61t89 100t61 105t9 77t-67 17q-28 -6 -64 -29t-72 -55t-69 -69t-54 -73t-26 -68z" />
<glyph unicode="A" horiz-adv-x="1026" d="M58 34l336 574q18 28 20 60t8 61t27 51t77 30q56 92 95 162t75 136t74 137t96 165q28 44 61 62t64 18t58 -15t43 -33q2 -32 6 -72t7 -102q2 -46 2 -111v-45q-1 -94 -8 -235t-23 -340t-42 -471q-49 -46 -75 -46q-5 0 -9 2q-26 10 -33 58q-4 24 -3.5 54t3.5 67q7 73 19 148 t21 138q7 52 7 80v11h-464q-88 -138 -150 -268t-110 -216t-90 -110q-10 -6 -21 -6q-33 0 -71 56zM588 716q38 2 86 2h98t98 1t88 5l16 632z" />
<glyph unicode="B" horiz-adv-x="802" d="M116 82l460 1318q124 66 228 71q12 1 24 0q89 0 151 -33q71 -38 103 -109q21 -46 21 -99q0 -28 -6 -58q-17 -86 -91 -175t-216 -163q108 -18 154 -78q43 -56 43 -132v-10q-3 -82 -47 -175t-115 -179t-162 -155t-187 -101q-65 -22 -129 -22q-30 0 -60 5q-93 15 -171 95z M286 180q40 -50 99 -57q13 -2 26 -2q47 0 96 20q63 25 124 76t107 117t69 141q15 49 15 98q0 25 -4 51q-18 62 -74 83q-35 13 -73 13q-24 0 -48 -5q-65 -13 -123 -57t-82 -110q-6 -18 -26 -71t-42 -113t-40 -113t-24 -71zM516 816q148 50 241 115t140 130t52 124q1 8 1 16 q0 48 -27 80q-31 37 -94 45q-11 1 -24 1q-55 0 -125 -29z" />
<glyph unicode="C" horiz-adv-x="882" d="M228 203q-6 41 -6 88q0 63 11 136q19 127 66 263t121 268t169 239t208 178t239 83q66 12 129 14q9 0 17 1q51 0 84 -11q38 -12 38 -42t-56 -84q-66 16 -128 16q-64 0 -124 -17q-118 -33 -216 -110t-175 -185t-130 -226t-80 -235q-26 -113 -26 -204v-7q1 -94 33 -154 t97 -63h6q64 0 159 60q100 63 238 217q16 20 30 21t25 -12t17 -34t6 -41q-184 -180 -319 -264t-226 -93q-13 -1 -25 -1q-73 0 -117 47q-51 55 -65 152z" />
<glyph unicode="D" horiz-adv-x="1016" d="M126 30q44 138 103 293t125 324t135 350t135 373q4 48 62 69q45 16 104 16q17 0 35 -1q81 -6 173 -41t165 -100t113 -163q27 -65 27 -145q0 -40 -7 -83q-20 -122 -83 -244t-156 -232t-209 -201t-239 -149t-248 -78q-48 -8 -94 -8q-73 0 -141 20zM312 146q10 0 20 -1 q125 0 240 48q124 51 227 136t180 193t119 220t47 218q1 11 1 22q0 92 -38 161q-42 77 -136 118q-65 28 -159 28q-41 0 -87 -5z" />
<glyph unicode="E" horiz-adv-x="868" d="M148 88q42 156 84 310t89 308t102 311t121 319q18 48 67 80t115 50t144 23q50 3 98 3l58 -1q78 -3 148 -14t120 -27q14 -18 0 -42t-79 -44t-192 -27q-39 -2 -85 -2q-107 0 -256 11l-164 -478q52 -4 114 -5h42q42 0 86 1q66 2 132 9t128 23q10 -10 17 -28t6 -37t-14 -38 t-43 -31q-80 -22 -156 -31t-143 -9t-124 7t-99 13l-180 -562q-4 -26 38 -34q28 -5 67 -5q19 0 41 1q66 4 146 16t152 24t126 20q43 6 61 6h7q5 -12 5 -23q0 -27 -30 -53q-43 -36 -121 -63t-177 -43t-191 -16t-164 18t-96 60z" />
<glyph unicode="F" horiz-adv-x="648" d="M70 14l498 1410q66 38 147 51t162 15q23 1 46 1q57 0 111 -4q76 -5 132 -5l-42 -114l-460 -18q-52 -136 -94 -283t-94 -271l372 16q14 -6 17 -22t-4 -35t-21 -36t-34 -23l-364 -28q-38 -78 -68 -163t-58 -165t-54 -150t-55 -117t-63 -65q-15 -8 -30 -8q-21 0 -44 14z" />
<glyph unicode="G" horiz-adv-x="928" d="M210 346q-1 14 -1 28q0 129 50 269q55 155 147 299t211 265t243 194t243 86q19 2 37 2q96 0 174 -59q-2 -2 -15 -17t-28 -33t-29 -33t-16 -17q-56 16 -112 16t-111 -16q-111 -32 -211 -107t-184 -181t-145 -222t-94 -231q-29 -103 -29 -188v-20q4 -93 49 -151t139 -62 q16 -6 33 -6q26 0 56 12q51 20 104 61t102 99t85 121t54 125q11 37 11 71q0 22 -5 43q0 18 -26 20q-9 1 -19 1q-20 0 -45 -3q-38 -4 -79 -9q-21 -3 -38 -3t-31 3q-28 5 -36 23q-2 4 -2 9q0 19 22 53q8 8 38 19t74 20t94 15t97 6t85 -7t56 -25q-36 -182 -113 -332t-171 -257 t-196 -165t-190 -58q-72 0 -125 28t-88 74t-51 108q-14 55 -14 117v15z" />
<glyph unicode="H" horiz-adv-x="876" d="M96 6q66 160 127 337t122 362t123 372t130 369q10 18 28 26t37 9t36 -1t25 -4l-210 -648l462 14l202 602q6 18 26 34t43 21t41 -3t22 -36q-68 -160 -128 -334t-113 -351t-100 -348t-89 -325q-6 -24 -13 -45t-22 -34t-42 -16q-6 -1 -13 -1q-24 0 -58 8q4 20 20 74t37 127 t45 153t45 153t37 127t20 74l-462 -6q-20 -34 -43 -105t-49 -154t-56 -170t-65 -154t-76 -104q-30 -27 -63 -27q-13 0 -26 4z" />
<glyph unicode="I" horiz-adv-x="246" d="M64 58q48 132 111 299t133 347t140 361t134 341q18 32 42 49t44 20t33 -7t9 -32q-48 -144 -118 -323t-145 -365t-147 -365t-120 -325q-18 -34 -37 -47t-35 -11t-29 18t-15 40z" />
<glyph unicode="J" horiz-adv-x="654" d="M165 235q-3 28 -3 57q0 32 4 65q8 61 30 103t55 56q10 4 21 4q24 0 52 -22q-38 -102 -38 -174t23 -110t66 -44q7 -1 15 -1q36 0 76 24q48 29 97 94t85 165l334 974q8 22 29 37t43 19t41 -2t25 -26q-42 -98 -82 -217t-80 -245t-82 -252t-89 -241t-101 -211t-118 -159 t-139 -88q-35 -12 -74 -12q-43 0 -89 15q-46 26 -70 78t-31 113z" />
<glyph unicode="K" horiz-adv-x="854" d="M105 27q-11 15 5 61q122 344 241 680t255 682q8 10 29 19t42 12t36 -4t13 -27q-14 -52 -43 -135t-63 -174t-66 -179t-52 -148l168 94l512 570q26 24 50 21t33 -22t-3 -53t-56 -74q-22 -20 -62 -64t-90 -100t-106 -118t-106 -117t-92 -99t-64 -62l154 -658q14 -16 3 -43 t-34 -50t-49 -34t-44 5l-148 706l-114 -60l-212 -560q-22 -28 -50 -50t-52 -28t-35 9z" />
<glyph unicode="L" horiz-adv-x="736" d="M80 74q4 4 32 83t71 202t97 277t109 311t106 300t89 245q2 0 22 2t41 2t37 -6t10 -20l-462 -1324h107t137 1t143 6t123 13q18 -6 19 -28t-8 -47t-26 -45t-37 -20q-196 0 -317 -1h-57q-81 0 -132 2q-68 3 -89 13t-15 34z" />
<glyph unicode="M" horiz-adv-x="1350" d="M82 46q46 144 110 318t132 353t133 353t113 320q34 68 69 81q12 4 23 4q23 0 45 -17q33 -26 64 -82t59 -126t51 -145t42 -138t32 -107t19 -50l684 626q44 34 69 40t37 -8t11 -44t-9 -68t-21 -79t-27 -75q-10 -32 -40 -119t-70 -201t-86 -241t-88 -241t-73 -201t-41 -119 q-10 -42 -35 -63t-50 -26t-42 6t-11 33l422 1204q-200 -190 -329 -307t-208 -179t-117 -77t-57 -2t-29 46t-32 69q-6 12 -19 51t-31 91t-37 110t-37 108t-33 86t-23 46l-466 -1222q-10 -22 -27 -30t-34 -6t-30 10t-13 18z" />
<glyph unicode="N" horiz-adv-x="996" d="M76 48l470 1328q20 42 39 64t39 28t42 -1t46 -23q14 -66 31 -168t34 -222t34 -246t31 -240t26 -206t20 -140q6 14 26 71t49 140t64 186t72 209t72 208t63 185t47 139t25 70q18 42 43 54t48 6t39 -23t14 -31q-8 -22 -33 -89t-61 -164t-79 -215t-87 -240t-87 -240t-79 -215 t-62 -164t-34 -89q-46 -18 -75 -18q-16 0 -28 5q-33 15 -59 99q-20 62 -35 150t-28 189t-23 209t-22 210t-26 191t-32 155l-418 -1184q-6 -12 -26 -21t-39 -9t-33 12t-8 40z" />
<glyph unicode="O" horiz-adv-x="848" d="M172 254q0 120 44 264t122 296t174 284t201 230t201 134q44 17 85 17q47 0 89 -23q78 -42 122 -188v-21q0 -99 -33 -230q-37 -145 -104 -297t-161 -293t-204 -240t-231 -137q-50 -16 -100 -16q-72 0 -145 32q-60 68 -60 188zM315 345q-3 -24 -3 -45q0 -45 13 -77 q19 -47 71 -60q14 -3 31 -4q46 0 115 27q110 78 196 184t149 222t101 233t52 217q7 52 7 97q0 42 -6 77q-13 74 -51 104q-22 17 -52 17q-23 0 -52 -10q-66 -23 -158 -117q-46 -58 -99 -141t-104 -177t-96 -193t-75 -189t-39 -165z" />
<glyph unicode="P" horiz-adv-x="802" d="M104 46q30 94 75 222t95 266t99 276t89 255t65 202t27 117q194 90 326 98q19 1 37 1q106 0 170 -40q75 -47 98 -136q12 -45 12 -95q0 -47 -11 -98q-22 -104 -87 -208t-164 -182t-230 -115q-72 -20 -152 -20q-65 0 -135 13l-176 -494q-38 -90 -79 -106q-9 -3 -16 -3 q-29 0 -43 47zM480 734q60 -22 119 -22q31 0 61 6q88 18 162 68t130 122t84 147q26 70 26 133v9q-2 67 -46 107t-131 43h-9q-85 0 -220 -51q-24 -62 -51 -134t-52 -147t-45 -147t-28 -134z" />
<glyph unicode="Q" horiz-adv-x="1042" d="M213 463q19 127 77 265t152 268t222 241t286 185q104 53 181 53q27 0 50 -6q91 -25 133 -116q38 -83 38 -208v-24q-4 -141 -55 -304t-146 -331t-231 -312q-2 -6 6 -32t18 -57t18 -57t8 -30q0 -30 -14 -58t-35 -45t-46 -17t-49 28q-4 4 -13 21t-21 37t-22 37t-14 21 q-130 -45 -227 -45q-25 0 -47 3q-112 14 -178 79t-88 171q-12 57 -12 120q0 54 9 113zM337 346q1 -88 38 -145t112 -75q24 -6 53 -6q62 0 146 26q-14 30 -23 76t-15 95t-9 94t-5 73q52 50 82 55t47 -18t24 -63t13 -83t13 -78t25 -45q30 4 80 64t104 153t104 207t81 224 t35 206v18q0 83 -33 134q-37 56 -123 61h-12q-84 0 -224 -65q-80 -44 -157 -123t-142 -177t-114 -206t-75 -211q-25 -99 -25 -184v-7z" />
<glyph unicode="R" horiz-adv-x="928" d="M77 12q-4 5 -4 15q0 19 15 53q124 306 226 616t198 594q28 54 66 69q14 5 27 5q23 0 45 -16q48 20 89 42t80 41t80 35t91 26q19 2 36 1q88 0 130 -42q49 -50 49 -129q0 -82 -42 -178q-41 -94 -103 -172q-24 -32 -63 -63t-81 -61t-83 -58t-73 -54q38 -82 69 -168t52 -167 t32 -154t11 -131q2 -18 -7 -36t-24 -33t-34 -28t-35 -19q-24 30 -36 101t-24 159t-31 178t-54 159t-94 101q-31 17 -72 17q-36 0 -79 -13l-232 -608q-12 -32 -39 -57t-51 -33t-35 8zM470 816q0 -4 24 -5t55 -1t61 1t46 5q104 32 182 85t131 116t80 126q26 61 26 110 q0 54 -30 86q-26 28 -78 28h-10q-59 -3 -147 -47t-208 -144z" />
<glyph unicode="S" horiz-adv-x="762" d="M134 157q-2 14 -2 28q0 54 29 120q37 83 121 167q14 18 29 18t25 -12t12 -31t-10 -37q-51 -105 -51 -163v-10q5 -59 46 -76q19 -8 43 -7q28 0 63 10q65 20 127 66t109 112t53 140q1 6 1 12q0 28 -16 52q-19 30 -49 64t-67 74t-69 94t-53 124t-21 164q12 124 62 213 t119 139t147 62q23 4 46 3q52 0 98 -19q66 -28 111 -98t47 -182q-28 -48 -55 -71t-47 -27t-32 5t-10 25q-20 108 -55 163t-76 69q-16 5 -31 5q-25 0 -50 -14q-40 -23 -70 -71t-43 -117q-6 -33 -6 -69q0 -38 7 -78q14 -78 61 -161t137 -161q56 -54 63 -124q1 -14 2 -27 q0 -57 -24 -117q-29 -74 -86 -145t-127 -125t-145 -87q-67 -29 -127 -29h-14q-21 -2 -41 -2q-71 0 -115 29q-56 37 -66 102z" />
<glyph unicode="T" horiz-adv-x="816" d="M426 34q12 46 40 126t64 181t78 215t84 225t81 213t69 180t47 124l17 46l-340 -8q-24 0 -29 20t3 45t28 46t46 23l810 8q34 -12 28 -46t-30 -74l-384 -8l-486 -1302q12 12 0 -5t-36 -32t-50 -17t-40 40z" />
<glyph unicode="U" horiz-adv-x="956" d="M259 245q-1 21 -1 44q0 72 12 156q16 111 45 231t67 239t77 221t76 181t65 119q18 26 39 34t38 4t27 -17t8 -27q-38 -76 -84 -193t-89 -249t-77 -268t-48 -249q-7 -56 -7 -103.5t7 -86.5q14 -77 66 -92q10 -3 23 -3q49 0 125 48q96 60 250 220q76 108 127 232t91 253 t74 259t76 252q16 24 42 41t48 21t36 -7t8 -41q-58 -184 -107 -340t-99 -315t-107 -334t-131 -395q-24 -40 -54 -57t-52 -16t-29 22t17 57l102 262q-66 -60 -130 -122t-130 -110t-134 -74q-44 -17 -91 -17q-25 0 -51 5q-62 10 -91 68t-34 147z" />
<glyph unicode="V" horiz-adv-x="948" d="M504 42v1298q-2 22 18 50t45 49t46 29t21 -12l20 -1166l712 1156q20 24 37 32t30 5t24 -13t17 -20l-832 -1390q-6 -16 -28 -34t-47 -26t-44 -1t-19 43z" />
<glyph unicode="W" horiz-adv-x="1244" d="M284 30q2 50 17 148t39 220t52 260t55 271t51 250t40 199q0 30 24 53t51 34t48 6t15 -35l-220 -1176q128 162 250 340t204 354q14 18 34 27t38 9t31 -9t13 -27l80 -578q12 22 52 104t95 193t117 239t117 239t95 193t50 104q44 44 78 44q6 0 11 -1q35 -9 35 -56v-5 q-50 -88 -109 -201t-120 -238t-123 -257t-117 -257t-103 -239t-80 -204q-41 -18 -67 -18q-11 0 -20 3q-29 11 -41 52t-14 106t-7 144t-17 170t-46 183l-468 -660q-14 -14 -39 -21t-49 -5t-40 12t-12 30z" />
<glyph unicode="X" horiz-adv-x="842" d="M34 60l546 652l-60 704q48 48 78 48q5 0 10 -2q32 -10 48 -62t21 -132t7 -164t6 -159t18 -117l550 626q24 30 42 32t28 -10t10 -35t-14 -45q-24 -38 -69 -97t-100 -126t-116 -139t-117 -137t-103 -119t-73 -84q0 -46 18 -112t41 -139t43 -145t24 -129q1 -9 1 -18 q0 -45 -18 -77q-21 -38 -81 -40l-172 542q-42 -44 -100 -115t-120 -147t-123 -147t-110 -114t-81 -47h-4q-28 0 -30 54z" />
<glyph unicode="Y" horiz-adv-x="916" d="M446 42l264 732l-192 618q14 28 36 49t44 30t40 6t24 -21q2 -10 15 -49t30 -92t37 -113t37 -113t29 -92t16 -49q106 102 194 189t153 152t104 105t47 50q31 37 52 37h1q21 -1 29 -20t4 -48t-18 -49q-14 -18 -57 -64t-101 -106t-122 -127t-122 -127t-102 -106t-58 -64 l-248 -718q-10 -20 -32 -34t-45 -19t-41 5t-18 38z" />
<glyph unicode="Z" horiz-adv-x="828" d="M80 26q10 64 40 118t84 119t134 150t190 208t252 296t322 413h-40t-100 -1t-132 -2t-135 -1t-109 1t-56 3q-12 6 -13 19t5 28t21 28t37 17q60 12 133 21t149 13t149 4t131 -4t94 -11t40 -19q8 -22 5 -45t-33 -57l-1030 -1218q66 4 146 8t162 7t162 3t144 -4 q12 -28 -14 -47t-77 -33t-119 -21t-142 -11q-59 -3 -117 -3h-29q-72 1 -129 4t-91 7t-34 10z" />
<glyph unicode="[" horiz-adv-x="602" d="M116 -176q46 188 110 402t142 443t169 469t191 484q18 6 66 7t102 2t103 3t67 6q30 6 50 -6t24 -32t-10 -43t-48 -35l-272 -8q-76 -210 -163 -430t-168 -429t-145 -398t-90 -339l282 6q24 -54 -14 -81t-104 -35t-147 -2t-145 16z" />
<glyph unicode="\" horiz-adv-x="768" d="M524 1384q-6 0 8 24t35 47t42 30t33 -29l136 -1356q-14 -40 -49 -71t-79 -23z" />
<glyph unicode="]" horiz-adv-x="428" d="M-111 -114q5 24 47 60l276 -6q30 62 72 165t91 234t103 282t109 308t111 312t108 295l-266 8q-24 12 -21 35t21 43t47 32t55 6q14 -4 61 -6t101 -3t101 -2t61 -7q-78 -244 -162 -484t-173 -469t-180 -443t-183 -402q-48 -6 -102 -11t-105 -6t-93 4t-63 18t-16 37z" />
<glyph unicode="^" horiz-adv-x="534" d="M346 631q-4 21 18 59q38 38 62 59t41 34t29 24t27 27t36 42t53 72q30 42 56 24t44 -66t26 -112t-1 -117t-36 -81t-77 0l-18 192l-164 -166q-14 -16 -37 -22t-39 2t-20 29z" />
<glyph unicode="_" horiz-adv-x="942" d="M65 33q-1 27 26 54t70 46t77 7l626 -2q26 0 41 -20t14 -45t-22 -49t-65 -30l-714 8q-52 4 -53 31z" />
<glyph unicode="`" horiz-adv-x="328" d="M480 1084q-10 38 3 59t34 27t45 -3t36 -31l32 -132q2 -42 -23 -64t-89 -10z" />
<glyph unicode="a" horiz-adv-x="768" d="M135 286q27 108 121 240t272 262q60 46 123 62q42 11 81 11q19 0 38 -3q56 -8 103 -35t77 -69q-14 -74 -38 -155t-52 -167t-57 -176t-53 -182q-52 -46 -78 -53t-36 11t-7 54t12 76t21 75t18 51q-130 -158 -242 -219q-94 -51 -162 -51q-13 0 -26 2q-76 12 -109 85 q-18 40 -18 91q0 41 12 90zM249 191q5 -41 41 -57q15 -7 32 -7q28 0 63 18q57 29 117 86t119 131t101 142t60 121q9 26 9 44t-9 27q-33 35 -78 35h-3q-47 -1 -100 -29t-106 -76t-99 -105t-82 -119t-53 -116q-13 -42 -13 -76q0 -10 1 -19z" />
<glyph unicode="b" horiz-adv-x="788" d="M98 106q26 72 67 181t90 236t101 262t99 258t84 225t57 164q20 20 44 35t47 20t40 0t21 -23l-320 -802q168 150 300 196q67 23 117 23q49 0 82 -22q57 -38 57 -138q0 -18 -2 -38q-12 -131 -128 -335q-42 -64 -107 -126t-140 -111t-154 -81t-149 -37q-11 -1 -22 -1 q-57 0 -103 22q-55 26 -81 92zM238 140q47 -29 101 -30q12 0 24 2q67 8 135 45t131 96t114 126t86 135t43 122q2 14 2 27q0 36 -16 61q-21 32 -75 32h-7q-56 -8 -115 -44t-115 -88t-107 -116t-92 -130t-70 -128t-39 -110z" />
<glyph unicode="c" horiz-adv-x="736" d="M144 308q22 88 81 179t138 169t167 133t168 72q28 6 53 6q48 0 88 -21q61 -32 87 -128q0 -8 -13 -28t-31 -40t-38 -30t-36 2q-24 68 -66 90q-27 14 -58 14q-17 0 -34 -4q-50 -12 -104 -52t-103 -94t-88 -116t-59 -119q-17 -50 -18 -91q0 -6 1 -12q3 -46 39 -68 q50 -28 97 -29h6q44 0 84 13q43 14 83 38t77 46t70 37q26 12 50 12q6 0 13 -1q2 -9 2 -19q0 -32 -22 -64q-28 -41 -78 -76t-114 -61t-126 -41t-116 -17h-12q-46 0 -72 14q-90 46 -114 122q-13 40 -13 83q0 39 11 81z" />
<glyph unicode="d" horiz-adv-x="742" d="M125 255q21 105 107 236t258 263q88 66 176 71q11 1 21 0q75 0 137 -31l266 646q48 36 72 37t44 -33q-94 -222 -158 -380t-108 -276t-74 -207t-55 -173t-51 -173t-62 -207q-4 -12 -23 -22t-39 -10t-34 13t-10 45q4 26 15 59t23 64t21 56t13 35q-118 -156 -225 -217 q-92 -52 -161 -52q-11 0 -22 1q-76 10 -114 80q-24 45 -24 105q0 33 7 70zM248 225v-5q0 -57 44 -78q16 -7 34 -7q26 0 58 15q54 26 111 78t110 120t90 132t52 114q7 23 7 39q0 19 -10 29q-36 37 -82 37q-14 0 -28 -3q-64 -14 -130 -64t-125 -124t-94 -148t-37 -135z" />
<glyph unicode="e" horiz-adv-x="728" d="M154 169q-2 17 -2 34q0 47 12 101q16 74 46 150t85 148t122 129t138 92t133 36h3q60 0 104 -41q45 -42 61 -136q6 -32 6 -61q0 -51 -20 -90q-32 -61 -92 -99t-137 -58t-146 -28t-119 -8h-58q-11 -50 -11 -87q0 -24 5 -42q12 -45 45 -61q22 -11 50 -10q14 0 30 2 q47 8 99 30t104 54t94 64q28 6 48 5t25 -14t-12 -39t-65 -70q-146 -88 -248 -122q-85 -28 -143 -28q-12 0 -23 1q-64 7 -96 47t-38 101zM356 474q-4 -18 21 -25q16 -4 38 -4q13 0 28 1q41 4 91 17t95 34t76 50t35 63q1 12 1 24q0 41 -17 63q-22 29 -60 34q-9 1 -18 1 q-31 0 -67 -13q-47 -17 -92 -52t-81 -84t-50 -109z" />
<glyph unicode="f" horiz-adv-x="648" d="M253 766q15 36 85 58q14 4 35 5t46 1t52 1t53 5q36 128 92 242t121 202t131 141t123 59q6 1 12 1q49 0 86 -44q41 -49 55 -167q2 -28 -14 -44t-37 -22t-42 -3t-27 15q0 78 -22 104t-56 12t-76 -61t-83 -114t-74 -148t-51 -161l258 20q30 0 32 -22t-9 -46t-29 -42t-28 -10 q-24 -2 -69 -6l-90 -8t-78 -8l-33 -4l-232 -658q-14 -36 -38 -50t-45 -11t-33 20t-6 41q6 18 24 68t42 116t51 140t49 141t38 119t18 74l-212 -12q-24 14 -24 35q0 10 5 21z" />
<glyph unicode="g" horiz-adv-x="688" d="M-52 -351q10 31 33 50t55 18t64 -39q41 -53 85 -53h2q45 1 88 35t82 94t72 126t57 129t36 105q-142 -76 -229 -81q-9 -1 -17 -1q-74 0 -111 40q-40 43 -40 119q0 80 36 175q35 92 100 184t150 162t188 105q61 21 125 21q43 0 88 -10q32 -10 57 -44q19 -26 19 -54 q0 -9 -2 -18q-130 -356 -240 -623t-218 -420t-223 -179q-19 -4 -39 -4q-99 0 -216 108q-12 24 -2 55zM265 261v-11q0 -45 23 -68q28 -28 61 -28q17 0 35 7q54 21 109 77t104 132t80 145t35 118v10q0 39 -28 39q-27 10 -54 10q-30 0 -60 -12q-58 -22 -111 -69t-96 -110 t-69 -125t-29 -115z" />
<glyph unicode="h" horiz-adv-x="776" d="M68 6l534 1430q26 24 51 31t43 1t26 -22t0 -36l-306 -780q166 152 272 201q69 32 117 32q25 0 45 -9q56 -26 68 -111q4 -31 4 -66q0 -61 -13 -133q-21 -114 -70 -244t-113 -246q-6 -22 -25 -34t-40 -12t-37 12t-16 42q30 64 68 153t67 179t43 168q6 35 6 63q0 33 -9 55 q-14 32 -51 32q-9 0 -20 -2q-54 -10 -162 -96q-88 -80 -142 -163t-88 -157t-56 -137t-47 -103t-58 -55q-13 -6 -31 -6q-26 0 -60 13z" />
<glyph unicode="i" d="M54 30q10 12 29 61t45 119t57 153t64 165t67 155t65 121t59 65t50 -13q-26 -78 -69 -194t-91 -236t-91 -228t-69 -168q-12 -16 -31 -24t-37 -8t-32 7t-16 25zM470 1036q-2 2 14 20t36 32t39 11t25 -43q-6 -30 -26 -41t-42 -11t-37 9t-9 23z" />
<glyph unicode="j" horiz-adv-x="294" d="M-406 -210q18 26 41 41t43 17t33 -10t11 -40q6 -72 36 -99q22 -20 52 -20q10 0 21 2q43 9 94 54t101 117q42 60 87 172t93 249t96 287t94 290l114 6q-52 -178 -99 -340t-95 -301t-101 -252t-119 -191q-88 -106 -175 -160t-159 -54t-118 57t-50 175zM518 1190q6 38 29 60 t48 27t45 -9t22 -48q0 -28 -24 -47t-52 -25t-50 3t-18 39z" />
<glyph unicode="k" horiz-adv-x="662" d="M74 40q38 74 92 215t120 327t142 405t156 451q22 48 47 55t45 -4t30 -25t2 -8l-274 -770q50 30 89 55t76 49t77 51t92 63q20 14 34 8t20 -23t4 -41t-14 -46l-350 -228q14 -38 42 -102t59 -130t59 -121t44 -73q6 -8 7 -30t-10 -45t-35 -40q-19 -14 -52 -14q-8 0 -16 1 l-206 442l-156 -432q-58 -46 -94 -49h-3q-28 0 -28 43q0 7 1 16z" />
<glyph unicode="l" horiz-adv-x="280" d="M114 58q50 176 115 350t133 346t135 345t123 347q14 24 36 32t41 3t28 -21t1 -42l-506 -1388q-6 -18 -25 -24t-38 -2t-33 18t-10 36z" />
<glyph unicode="m" horiz-adv-x="1242" d="M52 30q22 60 43 110t41 99t42 105t48 127t58 164t72 217q18 26 38 33t36 1t26 -23t4 -41q-4 -10 -14 -39t-22 -61t-22 -60t-14 -40q76 128 167 192q79 55 143 55q10 0 20 -1q72 -10 110 -99q21 -50 21 -127q0 -61 -13 -140q78 114 167 202t168 131q62 34 111 33 q14 0 27 -2q59 -12 76 -97q5 -27 5 -63q0 -76 -24 -191q-36 -169 -144 -441q-8 -24 -31 -35t-46 -11t-38 10t-7 28q84 226 120 365q35 135 35 203q0 71 -32 79q-5 1 -11 1q-28 0 -68 -30q-48 -36 -108 -106t-120 -155t-112 -177t-84 -172q-12 -30 -32 -44t-38 -15t-32 11 t-16 34q86 232 109 375q12 73 12 125q0 50 -11 80q-18 52 -62 52q-8 0 -18 -2q-58 -12 -134 -89t-161 -216t-159 -327q-10 -26 -31 -42t-43 -21t-38 4t-14 31z" />
<glyph unicode="n" horiz-adv-x="782" d="M82 46l280 794q40 22 72 34q28 10 49 10t17 -22l-110 -248q132 140 225 201t153 64h7q55 0 84 -43q31 -46 40 -120q4 -37 4 -78.5t-4 -87.5q-9 -92 -30 -184t-50 -171t-60 -127t-59 -55q-3 -1 -6 -1q-24 0 -40 48q82 226 112 368q23 109 23 179q0 21 -2 38q-9 75 -49 90 q-13 5 -29 5q-30 0 -68 -20q-57 -30 -124 -97t-129 -157t-113 -196t-75 -210q-10 -18 -29 -30t-38 -15t-34 4t-17 27z" />
<glyph unicode="o" horiz-adv-x="708" d="M191 418q27 80 77 156t109 137t124 100t125 48q15 2 28 3q43 0 80 -22q48 -28 74 -104q33 -82 33 -169q0 -23 -2 -45q-11 -110 -57 -206t-119 -170t-154 -108q-59 -25 -118 -25q-23 0 -46 4q-83 13 -147 91q-35 66 -35 145q0 82 28 165zM276 325q-1 -14 -1 -28 q0 -60 22 -101q27 -50 85 -63q16 -4 34 -4q47 0 106 25q64 28 106 85t65 125t27 138q1 16 1 30q0 52 -11 96q-14 56 -46 90q-26 28 -62 28q-9 0 -18 -2q-48 -8 -112 -64t-142 -178q-48 -98 -54 -177z" />
<glyph unicode="p" horiz-adv-x="702" d="M-92 -440l408 1202q20 60 48 83t52 22t39 -20t13 -41q130 52 215 52q10 0 20 -1q89 -7 131 -58q41 -50 41 -129q0 -83 -36 -178q-35 -92 -100 -183t-151 -160t-189 -103q-63 -21 -128 -21q-42 0 -85 9q-22 -48 -44 -115t-41 -133t-35 -122l-24 -84q-10 -16 -31 -33 t-42 -25t-39 -1t-22 39zM224 154q53 -18 102 -18q32 0 62 7q78 19 142 69t113 121t73 142q23 68 23 129v5q-1 63 -35 97q-30 30 -87 30q-9 0 -18 -1q-71 -5 -183 -67q-4 -14 -18 -53t-35 -92t-44 -113t-43 -112t-35 -92t-17 -52z" />
<glyph unicode="q" horiz-adv-x="694" d="M146 241q14 95 62 197t121 196t159 155t175 72q13 2 26 2q75 0 143 -55q-6 4 7 18t31 26t36 16t26 -13t-2 -61t-46 -126q-142 -346 -218 -567t-106 -350q-24 -102 -24 -158q0 -14 2 -26q8 -55 32 -68t56 -2t52 15q6 -22 3 -46t-12 -45t-26 -38t-37 -23q-38 -11 -71 -11 q-29 0 -54 8q-55 17 -74 95q-8 34 -8 83q0 60 13 143q24 148 112 388q-130 -54 -212 -54q-15 0 -29 2q-87 12 -119 72q-22 42 -22 100q0 26 4 55zM285 280q-4 -22 -4 -41q0 -39 16 -64q20 -32 71 -32q8 0 17 1q65 6 183 76q4 12 18 46t32 81t38 100t37 100t29 82t14 45 q-40 55 -92 55h-5q-55 -3 -112 -46t-109 -114t-87 -146t-46 -143z" />
<glyph unicode="r" horiz-adv-x="682" d="M106 30l254 812q34 30 62 30t38 -30l-80 -234q62 86 127 147t131 89q56 24 112 24l20 -1q66 -5 128 -51q36 -27 36 -54q0 -29 -22 -55q-20 -23 -45 -34t-31 -5q-54 62 -116 62h-4q-64 -2 -126 -48t-120 -125t-104 -168t-78 -177t-40 -152q-10 -20 -30 -37t-41 -25t-41 -2 t-30 34z" />
<glyph unicode="s" horiz-adv-x="682" d="M145 136q-1 14 -1 27q0 47 14 82q18 45 50 59q9 4 17 4q23 0 43 -28v-11q0 -68 23 -107q25 -42 62 -58q26 -11 54 -11q13 0 26 2q43 7 79 27t58 50q17 24 17 48q0 7 -1 14q4 24 -36 44t-93 45t-107 60t-80 88q-16 32 -16 72q0 26 7 55q17 74 105 180q48 42 106 66t116 33 q33 5 64 5q25 0 49 -3q55 -7 95 -27q12 -6 32 -39t31 -74q7 -25 7 -49q0 -15 -3 -30q-7 -38 -51 -54q-43 -23 -62 -23h-4q-18 3 -25 20t-10 43t-19 50t-52 38q-25 10 -69 10q-19 0 -41 -2q-66 -12 -94 -51q-29 -40 -29 -88q0 -43 19 -79q20 -38 50 -46q144 -38 203 -98 q57 -58 57 -121q0 -67 -55 -131q-53 -62 -132 -101t-173 -47q-16 -1 -31 -1q-77 0 -149 33q-46 60 -51 124z" />
<glyph unicode="t" horiz-adv-x="628" d="M272 46l296 750h-204q-38 0 -52 17t-7 38t36 41t79 26q18 2 47 4t57 3t50 2t22 3l202 514q59 29 84 29q6 0 10 -1q22 -8 16 -56l-180 -486q10 -6 40 -5t66 2h24q23 0 45 -1q33 -2 50 -14t10 -38t-51 -72h-232l-286 -742q-14 -34 -35 -47t-41 -12t-34 14t-12 31z" />
<glyph unicode="u" horiz-adv-x="756" d="M161 324q15 108 60 236t113 256q22 40 44 51t38 2t25 -30t7 -43q-96 -206 -133 -337q-34 -121 -34 -190v-11q3 -70 41 -87q17 -7 37 -8q26 0 58 13q57 22 124 75t129 123q28 32 57 94t53 133t42 139t28 112q12 18 33 24t40 3t34 -14t15 -29l-264 -810q-28 -32 -72 -35h-7 q-39 0 -69 29l66 172q-142 -114 -239 -149q-55 -20 -96 -20q-32 0 -56 12q-55 27 -72 104q-9 41 -9 91q0 43 7 94z" />
<glyph unicode="v" horiz-adv-x="816" d="M297 660q-1 15 -1 29q0 65 12 104q14 47 34 66t39 16t29 -19l122 -624q56 56 111 136t106 165t97 167t84 140q20 28 45 34t44 -4t24 -34t-17 -54q-16 -22 -48 -73t-74 -118t-87 -141t-87 -141t-75 -119t-49 -74q-36 -52 -65 -73t-52 -18t-41 29t-36 72q-60 186 -86 317 t-29 217z" />
<glyph unicode="w" horiz-adv-x="1056" d="M224 58l88 764q40 38 64 38q7 0 13 -3q25 -15 30 -72q2 -22 2 -48q0 -41 -5 -93q-8 -84 -19 -171t-21 -163q-7 -54 -7 -90q0 -14 1 -26q16 16 55 69t89 119t105 133t101 110t78 50q4 1 7 1q26 0 31 -48l32 -388l334 594q20 30 44 36t42 -5t23 -35t-13 -54l-410 -718 q-8 -12 -28 -23t-41 -16t-38 -3t-17 14l-58 404q-12 -16 -41 -53t-62 -79t-64 -78t-43 -50q-26 -36 -65 -76t-79 -64q-38 -23 -72 -23h-3q-35 1 -53 47z" />
<glyph unicode="x" horiz-adv-x="716" d="M54 60l400 372l-190 340q6 36 29 57t49 29t49 4t31 -18l154 -290q6 6 30 29t56 55t68 67t69 67t56 55t31 29q22 18 45 12t36 -25t10 -47t-33 -54l-334 -334q-2 -2 10 -48t28 -104t33 -112t27 -70q-52 -54 -82 -54h-4q-30 4 -50 46t-37 112t-43 142q-106 -84 -184 -166 t-131 -129q-52 -46 -82 -46h-1q-30 1 -40 81z" />
<glyph unicode="y" horiz-adv-x="828" d="M-64 -584l500 664l-130 678q-12 36 3 61t41 34t54 0t40 -37q6 -14 16 -57t22 -101t24 -123t24 -122t21 -101t15 -58q10 14 43 58t76 103t92 125t92 125t76 102t45 55q28 32 55 38t45 -4t24 -30t-6 -38l-1036 -1396q-4 -10 -27 -20t-49 -13t-46 9t-14 48z" />
<glyph unicode="z" horiz-adv-x="788" d="M64 48q4 34 22 62q76 74 178 153t209 158t210 154t179 141l-516 -22q-22 0 -35 13t-13 32t14 42t46 41q28 2 93 11t145 17t162 10h27q66 0 117 -8q62 -10 92 -36q16 -14 16 -34q0 -18 -12 -40q-52 -86 -148 -168t-207 -161t-220 -152t-187 -141q14 -5 40 -5q17 0 38 2 q56 5 124 12t138 10q19 1 37 1q47 0 83 -6q50 -8 68 -33q6 -9 6 -21q0 -22 -20 -54q-64 -6 -150 -13t-179 -12t-185 -8q-39 -1 -75 -1q-48 0 -89 2q-12 20 -8 54z" />
<glyph unicode="{" horiz-adv-x="514" d="M113 17q23 69 82 154t131 203q18 32 11 54t-25 38t-41 29t-36 28t-10 35t39 50q90 46 138 86t68 78t21 75t-5 78t-10 87t8 103t46 124t106 151q12 14 51 42t89 60t105 61t100 47t74 18t29 -28q8 -42 -29 -67t-94 -51t-124 -59t-121 -89t-84 -143t-14 -219q12 -40 41 -48 t56 -12t40 -19t-5 -67q-20 -30 -51 -60t-67 -57t-72 -50t-66 -41q52 -14 61 -45t-9 -72t-55 -88t-76 -94t-73 -90t-44 -75q-54 -88 -60 -136t18 -72t68 -32t88 -14t78 -18t40 -46q4 -34 -14 -52t-48 -25t-67 -6t-70 6t-57 11t-28 8q-102 64 -129 122t-4 127z" />
<glyph unicode="|" d="M94 58q50 176 115 350t133 346t135 345t123 347q14 24 36 32t41 3t28 -21t1 -42l-506 -1388q-6 -18 -25 -24t-38 -2t-33 18t-10 36z" />
<glyph unicode="}" horiz-adv-x="622" d="M-111 -226q-5 18 25 52t73 46t91 18t97 14t91 32t72 72t38 136q12 32 10 75t-7 90t-8 94t9 88t43 72t93 45q-16 18 -35 41t-35 50t-26 57t-8 60q18 52 42 67t54 19t66 12t78 48q84 100 122 173t44 126t-12 89t-47 63t-61 46t-54 38t-26 41t24 52q18 28 48 28t63 -18 t66 -47t60 -61t44 -60t19 -42q16 -112 -13 -196t-76 -150t-97 -119t-77 -103t-17 -101t84 -113q12 -30 2 -50t-34 -35t-56 -28t-62 -29t-53 -38t-27 -54q-10 -78 -14 -142t-11 -117t-24 -98t-54 -86t-99 -81t-162 -82q-6 -2 -34 -8t-65 -11t-74 -6t-61 6t-29 25z" />
<glyph unicode="~" horiz-adv-x="936" d="M398 573q-18 17 4 87q6 36 38 70t76 60t93 40t89 11t63 -26t17 -73q2 -12 18 -31t43 -22t62 18t75 87q16 26 44 32t48 -2t23 -27t-29 -43q-52 -88 -118 -137t-123 -60t-97 14t-42 87q-16 58 -54 65t-96 -69q2 -20 -26 -48t-59 -39t-49 6z" />
<glyph unicode="&#xa1;" horiz-adv-x="274" d="M614 1354q0 -4 4 -15t14 -24t27 -24t45 -17q34 2 40 19t-5 38t-33 41t-44 27t-37 -1t-11 -44zM710 1068l414 -1104q12 -18 32 -26t39 -8t32 8t13 26l-424 1132q-8 2 -27 4t-37 1t-31 -9t-11 -24z" />
<glyph unicode="&#xa3;" horiz-adv-x="1042" d="M241 74q9 38 45 110t88 177t104 241q-82 18 -131 42t-49 47t57 42t187 25q40 84 99 181t129 188t150 168t164 124t168 54t164 -43l-106 -140q-30 36 -79 35t-107 -32t-122 -87t-123 -127t-110 -154t-83 -167q24 -2 75 9t110 24t116 23t92 4t38 -33t-45 -85l-432 -86 q-24 -34 -54 -97t-58 -130t-52 -127t-38 -86q56 -6 128 -18t151 -16t159 8t154 56q12 -6 11 -32t-14 -58t-39 -64t-62 -50l-656 30q-38 6 -29 44z" />
<glyph unicode="&#xa5;" horiz-adv-x="916" d="M260 292q0 2 4 15t11 28t13 28t10 17q32 -4 108 2t166 10l56 154q-98 0 -153 -1t-82 -1h-33t-6 4q0 2 5 15t11 28t12 28t10 17q32 -4 107 2t165 10l46 126l-192 618q14 28 36 49t44 30t40 6t24 -21q2 -10 15 -49t30 -92t37 -113t37 -113t29 -92t16 -49q106 102 194 189 t153 152t104 105t47 50q32 38 53 37t29 -20t4 -48t-18 -49q-14 -18 -57 -64t-101 -106t-122 -127t-122 -127t-102 -106t-58 -64l-40 -116q58 0 106 -3t76 -15t29 -33t-35 -55q-70 0 -117 -1t-97 -1l-52 -148q56 2 103 -2t74 -16t28 -33t-33 -55q-66 0 -113 -1t-97 -1 l-80 -238q-10 -20 -32 -34t-45 -19t-41 5t-18 38l88 248q-96 0 -152 -1t-83 -1h-33t-6 4z" />
<glyph unicode="&#xa8;" horiz-adv-x="542" d="M438 950q-12 34 6 63t46 44t56 12t38 -33q8 -24 -11 -51t-46 -45t-54 -19t-35 29zM684 950q-12 34 6 63t46 44t56 12t38 -33q8 -24 -11 -51t-46 -45t-54 -19t-35 29z" />
<glyph unicode="&#xad;" horiz-adv-x="816" d="M326 614q0 2 5 15t11 28t12 28t10 17q30 -4 96 1t146 10t159 7t133 -6t70 -31t-30 -69q-146 0 -248 -1t-170 -2t-107 -1h-59t-24 1t-4 3z" />
<glyph unicode="&#xaf;" horiz-adv-x="816" d="M440 948q0 2 4 15t11 28t13 28t10 17q28 -4 95 1t147 10t159 7t133 -6t70 -31t-30 -69q-146 0 -248 -1t-170 -2t-107 -1h-59t-24 1t-4 3z" />
<glyph unicode="&#xb4;" horiz-adv-x="328" d="M418 940q-10 22 22 64l128 132q30 22 60 31t47 3t14 -27t-39 -59l-150 -154q-72 -12 -82 10z" />
<glyph unicode="&#xb8;" horiz-adv-x="634" d="M-19 -391q-7 57 9 93t46 43t58 -31q4 -74 34 -101t66 -22t72 33t52 62q32 66 33 97t-17 42t-48 8t-62 -5t-61 3t-42 32t-6 83t47 154l112 -6q-40 -82 -38 -118t22 -45t46 -3t36 6q96 -2 126 -47t14 -109t-66 -134t-116 -118t-137 -63t-127 29q-46 60 -53 117z" />
<glyph unicode="&#xbf;" horiz-adv-x="748" d="M186 268q16 60 81 125t185 133t306 134q-24 54 -21 111t24 97t53 54t64 -20q-16 -44 -11 -91t11 -89t3 -78t-33 -60q-62 -22 -135 -54t-141 -68t-127 -75t-95 -75t-42 -66t30 -50t120 -27t230 3q8 0 11 -13t1 -31t-7 -35t-15 -21q-78 -38 -157 -47t-146 4t-117 47t-69 83 t-3 109zM901 1314q3 20 21 39t45 35t51 23t40 2t14 -27q-6 -60 -52 -91t-102 -13q-20 12 -17 32z" />
<glyph unicode="&#xc0;" horiz-adv-x="1026" d="M58 34l336 574q18 28 20 60t8 61t27 51t77 30q56 92 95 162t75 136t74 137t96 165q28 44 61 62t64 18t58 -15t43 -33q2 -32 6 -72t7 -102t2 -156t-8 -235t-23 -340t-42 -471q-58 -54 -84 -44t-33 58t0 121t19 148t21 138t7 91h-464q-88 -138 -150 -268t-110 -216 t-90 -110t-92 50zM588 716q38 2 86 2h98t98 1t88 5l16 632zM1062 1708q-10 38 3 59t34 27t45 -3t36 -31l32 -132q2 -42 -23 -64t-89 -10z" />
<glyph unicode="&#xc1;" horiz-adv-x="1026" d="M58 34l336 574q18 28 20 60t8 61t27 51t77 30q56 92 95 162t75 136t74 137t96 165q28 44 61 62t64 18t58 -15t43 -33q2 -32 6 -72t7 -102t2 -156t-8 -235t-23 -340t-42 -471q-58 -54 -84 -44t-33 58t0 121t19 148t21 138t7 91h-464q-88 -138 -150 -268t-110 -216 t-90 -110t-92 50zM588 716q38 2 86 2h98t98 1t88 5l16 632zM970 1564q-10 22 22 64l128 132q30 22 60 31t47 3t14 -27t-39 -59l-150 -154q-72 -12 -82 10z" />
<glyph unicode="&#xc2;" horiz-adv-x="1026" d="M58 34l336 574q18 28 20 60t8 61t27 51t77 30q56 92 95 162t75 136t74 137t96 165q28 44 61 62t64 18t58 -15t43 -33q2 -32 6 -72t7 -102t2 -156t-8 -235t-23 -340t-42 -471q-58 -54 -84 -44t-33 58t0 121t19 148t21 138t7 91h-464q-88 -138 -150 -268t-110 -216 t-90 -110t-92 50zM588 716q38 2 86 2h98t98 1t88 5l16 632zM833 1583q-3 21 19 59q38 38 62 59t40 34t29 24t28 27t35 42t54 72q30 42 56 24t44 -66t26 -112t-1 -117t-36 -81t-77 0l-18 192l-166 -166q-14 -16 -36 -22t-39 2t-20 29z" />
<glyph unicode="&#xc3;" horiz-adv-x="1026" d="M58 34l336 574q18 28 20 60t8 61t27 51t77 30q56 92 95 162t75 136t74 137t96 165q28 44 61 62t64 18t58 -15t43 -33q2 -32 6 -72t7 -102t2 -156t-8 -235t-23 -340t-42 -471q-58 -54 -84 -44t-33 58t0 121t19 148t21 138t7 91h-464q-88 -138 -150 -268t-110 -216 t-90 -110t-92 50zM588 716q38 2 86 2h98t98 1t88 5l16 632zM774 1555q-18 17 4 87q6 36 38 70t76 60t93 40t89 11t63 -26t17 -73q2 -12 18 -31t43 -22t62 18t75 87q16 26 44 32t48 -2t23 -27t-29 -43q-52 -88 -117 -137t-123 -60t-98 14t-42 87q-16 58 -54 65t-96 -69 q2 -20 -26 -48t-59 -39t-49 6z" />
<glyph unicode="&#xc4;" horiz-adv-x="1026" d="M66 56l336 574q18 28 20 60t8 61t27 51t77 30q56 92 95 162t75 136t74 137t96 165q28 44 61 62t64 18t58 -15t43 -33q2 -32 6 -72t7 -102t2 -156t-8 -235t-23 -340t-42 -471q-58 -54 -84 -44t-33 58t0 121t19 148t21 138t7 91h-464q-88 -138 -150 -268t-110 -216 t-90 -110t-92 50zM596 738q38 2 86 2h98t98 1t88 5l16 632zM880 1602q-12 34 6 63t46 44t56 12t38 -33q8 -24 -11 -51t-46 -45t-54 -19t-35 29zM1126 1602q-12 34 6 63t46 44t56 12t38 -33q8 -24 -11 -51t-46 -45t-54 -19t-35 29z" />
<glyph unicode="&#xc5;" horiz-adv-x="1026" d="M58 34l336 574q18 28 20 60t8 61t27 51t77 30q56 92 95 162t75 136t74 137t96 165q28 44 61 62t64 18t58 -15t43 -33q2 -32 6 -72t7 -102t2 -156t-8 -235t-23 -340t-42 -471q-58 -54 -84 -44t-33 58t0 121t19 148t21 138t7 91h-464q-88 -138 -150 -268t-110 -216 t-90 -110t-92 50zM588 716q38 2 86 2h98t98 1t88 5l16 632zM911 1584q-19 40 3 108q28 58 73 96t97 56t103 16t87 -22t51 -58t-3 -92q-14 -50 -55 -88t-94 -60t-108 -26t-95 13t-59 57zM1006 1680q-12 -20 4 -41t50 -29t80 5t98 59q20 38 13 61t-30 32t-57 6t-67 -15 t-59 -33t-32 -45z" />
<glyph unicode="&#xc6;" horiz-adv-x="1730" d="M76 42l440 572q20 26 28 59t20 62t37 51t81 28q72 90 123 160t98 136t98 136t125 164q36 44 72 62t67 17t55 -16t36 -35q-6 -40 -10 -92t-20 -144l42 102q18 48 67 80t115 50t144 23t156 2t148 -14t122 -27q12 -18 -2 -42t-78 -44t-191 -27t-341 9l-164 -478 q52 -4 113 -5t127 1t132 9t128 23q10 -10 17 -28t6 -37t-14 -38t-43 -31q-80 -22 -156 -31t-143 -9t-124 7t-99 13l-180 -562q-4 -28 38 -35t108 -3t146 16t152 24t126 20t70 6q16 -36 -20 -70t-104 -60t-157 -44t-177 -22t-165 5t-121 37q-48 -26 -61 -2t-6 76t28 123 t44 140t42 127t21 84l-460 10q-74 -92 -136 -181t-114 -165t-93 -134t-76 -88t-64 -25t-53 55zM724 718q40 2 88 1t97 -3t97 -2t88 2l130 638z" />
<glyph unicode="&#xc7;" horiz-adv-x="882" d="M191 -399q-7 57 9 93t46 43t58 -31q4 -74 34 -101t66 -22t72 33t52 62q32 66 33 97t-17 42t-48 8t-62 -5t-61 3t-42 32t-6 83t47 154l112 -6q-40 -82 -38 -118t22 -45t46 -3t36 6q96 -2 126 -47t14 -109t-66 -134t-116 -118t-137 -63t-127 29q-46 60 -53 117zM228 203 q-14 97 5 224t66 263t121 268t169 239t208 178t239 83q66 12 129 14t101 -10t38 -42t-56 -84q-134 32 -252 -1t-216 -110t-175 -185t-130 -226t-80 -235t-26 -211t33 -154t97 -63t165 60t238 217q16 20 30 21t25 -12t17 -34t6 -41q-184 -180 -319 -264t-226 -93t-142 46 t-65 152z" />
<glyph unicode="&#xc8;" horiz-adv-x="868" d="M148 88q42 156 84 310t89 308t102 311t121 319q18 48 67 80t115 50t144 23t156 2t148 -14t120 -27q14 -18 0 -42t-79 -44t-192 -27t-341 9l-164 -478q52 -4 114 -5t128 1t132 9t128 23q10 -10 17 -28t6 -37t-14 -38t-43 -31q-80 -22 -156 -31t-143 -9t-124 7t-99 13 l-180 -562q-4 -26 38 -34t108 -4t146 16t152 24t126 20t68 6q18 -40 -25 -76t-121 -63t-177 -43t-191 -16t-164 18t-96 60zM984 1708q-10 38 3 59t34 27t45 -3t36 -31l32 -132q2 -42 -23 -64t-89 -10z" />
<glyph unicode="&#xc9;" horiz-adv-x="868" d="M148 88q42 156 84 310t89 308t102 311t121 319q18 48 67 80t115 50t144 23t156 2t148 -14t120 -27q14 -18 0 -42t-79 -44t-192 -27t-341 9l-164 -478q52 -4 114 -5t128 1t132 9t128 23q10 -10 17 -28t6 -37t-14 -38t-43 -31q-80 -22 -156 -31t-143 -9t-124 7t-99 13 l-180 -562q-4 -26 38 -34t108 -4t146 16t152 24t126 20t68 6q18 -40 -25 -76t-121 -63t-177 -43t-191 -16t-164 18t-96 60zM892 1564q-10 22 22 64l128 132q30 22 60 31t47 3t14 -27t-39 -59l-150 -154q-72 -12 -82 10z" />
<glyph unicode="&#xca;" horiz-adv-x="868" d="M148 88q42 156 84 310t89 308t102 311t121 319q18 48 67 80t115 50t144 23t156 2t148 -14t120 -27q14 -18 0 -42t-79 -44t-192 -27t-341 9l-164 -478q52 -4 114 -5t128 1t132 9t128 23q10 -10 17 -28t6 -37t-14 -38t-43 -31q-80 -22 -156 -31t-143 -9t-124 7t-99 13 l-180 -562q-4 -26 38 -34t108 -4t146 16t152 24t126 20t68 6q18 -40 -25 -76t-121 -63t-177 -43t-191 -16t-164 18t-96 60zM755 1583q-3 21 19 59q38 38 62 59t40 34t29 24t28 27t35 42t54 72q30 42 56 24t44 -66t26 -112t-1 -117t-36 -81t-77 0l-18 192l-166 -166 q-14 -16 -36 -22t-39 2t-20 29z" />
<glyph unicode="&#xcb;" horiz-adv-x="868" d="M148 88q42 156 84 310t89 308t102 311t121 319q18 48 67 80t115 50t144 23t156 2t148 -14t120 -27q14 -18 0 -42t-79 -44t-192 -27t-341 9l-164 -478q52 -4 114 -5t128 1t132 9t128 23q10 -10 17 -28t6 -37t-14 -38t-43 -31q-80 -22 -156 -31t-143 -9t-124 7t-99 13 l-180 -562q-4 -26 38 -34t108 -4t146 16t152 24t126 20t68 6q18 -40 -25 -76t-121 -63t-177 -43t-191 -16t-164 18t-96 60zM834 1574q-12 34 6 63t46 44t56 12t38 -33q8 -24 -11 -51t-46 -45t-54 -19t-35 29zM1080 1574q-12 34 6 63t46 44t56 12t38 -33q8 -24 -11 -51 t-46 -45t-54 -19t-35 29z" />
<glyph unicode="&#xcc;" horiz-adv-x="246" d="M64 58q48 132 111 299t133 347t140 361t134 341q18 32 42 49t44 20t33 -7t9 -32q-48 -144 -118 -323t-145 -365t-147 -365t-120 -325q-18 -34 -37 -47t-35 -11t-29 18t-15 40zM674 1708q-10 38 3 59t34 27t45 -3t36 -31l32 -132q2 -42 -23 -64t-89 -10z" />
<glyph unicode="&#xcd;" horiz-adv-x="246" d="M64 58q48 132 111 299t133 347t140 361t134 341q18 32 42 49t44 20t33 -7t9 -32q-48 -144 -118 -323t-145 -365t-147 -365t-120 -325q-18 -34 -37 -47t-35 -11t-29 18t-15 40zM582 1564q-10 22 22 64l128 132q30 22 60 31t47 3t14 -27t-39 -59l-150 -154q-72 -12 -82 10z " />
<glyph unicode="&#xce;" horiz-adv-x="246" d="M64 58q48 132 111 299t133 347t140 361t134 341q18 32 42 49t44 20t33 -7t9 -32q-48 -144 -118 -323t-145 -365t-147 -365t-120 -325q-18 -34 -37 -47t-35 -11t-29 18t-15 40zM445 1583q-3 21 19 59q38 38 62 59t40 34t29 24t28 27t35 42t54 72q30 42 56 24t44 -66 t26 -112t-1 -117t-36 -81t-77 0l-18 192l-166 -166q-14 -16 -36 -22t-39 2t-20 29z" />
<glyph unicode="&#xcf;" horiz-adv-x="246" d="M64 58q48 132 111 299t133 347t140 361t134 341q18 32 42 49t44 20t33 -7t9 -32q-48 -144 -118 -323t-145 -365t-147 -365t-120 -325q-18 -34 -37 -47t-35 -11t-29 18t-15 40zM524 1574q-12 34 6 63t46 44t56 12t38 -33q8 -24 -11 -51t-46 -45t-54 -19t-35 29zM770 1574 q-12 34 6 63t46 44t56 12t38 -33q8 -24 -11 -51t-46 -45t-54 -19t-35 29z" />
<glyph unicode="&#xd0;" horiz-adv-x="1016" d="M126 30q44 138 103 293t125 324t135 350t135 373q4 48 62 69t139 15t173 -41t165 -100t113 -163t20 -228q-20 -122 -83 -244t-156 -232t-209 -201t-239 -149t-248 -78t-235 12zM170 630q0 2 4 15t11 28t13 28t10 17q28 -4 95 1t147 10t159 7t133 -6t70 -31t-30 -69 q-146 0 -248 -1t-170 -2t-107 -1h-59t-24 1t-4 3zM312 146q136 -4 260 47t227 136t180 193t119 220t47 218t-37 183t-136 118t-246 23z" />
<glyph unicode="&#xd1;" horiz-adv-x="996" d="M76 48l470 1328q20 42 39 64t39 28t42 -1t46 -23q14 -66 31 -168t34 -222t34 -246t31 -240t26 -206t20 -140q6 14 26 71t49 140t64 186t72 209t72 208t63 185t47 139t25 70q18 42 43 54t48 6t39 -23t14 -31q-8 -22 -33 -89t-61 -164t-79 -215t-87 -240t-87 -240t-79 -215 t-62 -164t-34 -89q-70 -28 -103 -13t-59 99q-20 62 -35 150t-28 189t-23 209t-22 210t-26 191t-32 155l-418 -1184q-6 -12 -26 -21t-39 -9t-33 12t-8 40zM758 1555q-18 17 4 87q6 36 38 70t76 60t93 40t89 11t63 -26t17 -73q2 -12 18 -31t43 -22t62 18t75 87q16 26 44 32 t48 -2t23 -27t-29 -43q-52 -88 -117 -137t-123 -60t-98 14t-42 87q-16 58 -54 65t-96 -69q2 -20 -26 -48t-59 -39t-49 6z" />
<glyph unicode="&#xd2;" horiz-adv-x="848" d="M172 254q0 120 44 264t122 296t174 284t201 230t201 134t174 -6t122 -188q4 -106 -33 -251t-104 -297t-161 -293t-204 -240t-231 -137t-245 16q-60 68 -60 188zM315 345q-9 -75 10 -122t71 -60t146 23q110 78 196 184t149 222t101 233t52 217t1 174t-51 104t-104 7 t-158 -117q-46 -58 -99 -141t-104 -177t-96 -193t-75 -189t-39 -165zM974 1708q-10 38 3 59t34 27t45 -3t36 -31l32 -132q2 -42 -23 -64t-89 -10z" />
<glyph unicode="&#xd3;" horiz-adv-x="848" d="M172 254q0 120 44 264t122 296t174 284t201 230t201 134t174 -6t122 -188q4 -106 -33 -251t-104 -297t-161 -293t-204 -240t-231 -137t-245 16q-60 68 -60 188zM315 345q-9 -75 10 -122t71 -60t146 23q110 78 196 184t149 222t101 233t52 217t1 174t-51 104t-104 7 t-158 -117q-46 -58 -99 -141t-104 -177t-96 -193t-75 -189t-39 -165zM882 1564q-10 22 22 64l128 132q30 22 60 31t47 3t14 -27t-39 -59l-150 -154q-72 -12 -82 10z" />
<glyph unicode="&#xd4;" horiz-adv-x="848" d="M172 254q0 120 44 264t122 296t174 284t201 230t201 134t174 -6t122 -188q4 -106 -33 -251t-104 -297t-161 -293t-204 -240t-231 -137t-245 16q-60 68 -60 188zM315 345q-9 -75 10 -122t71 -60t146 23q110 78 196 184t149 222t101 233t52 217t1 174t-51 104t-104 7 t-158 -117q-46 -58 -99 -141t-104 -177t-96 -193t-75 -189t-39 -165zM745 1583q-3 21 19 59q38 38 62 59t40 34t29 24t28 27t35 42t54 72q30 42 56 24t44 -66t26 -112t-1 -117t-36 -81t-77 0l-18 192l-166 -166q-14 -16 -36 -22t-39 2t-20 29z" />
<glyph unicode="&#xd5;" horiz-adv-x="848" d="M172 254q0 120 44 264t122 296t174 284t201 230t201 134t174 -6t122 -188q4 -106 -33 -251t-104 -297t-161 -293t-204 -240t-231 -137t-245 16q-60 68 -60 188zM315 345q-9 -75 10 -122t71 -60t146 23q110 78 196 184t149 222t101 233t52 217t1 174t-51 104t-104 7 t-158 -117q-46 -58 -99 -141t-104 -177t-96 -193t-75 -189t-39 -165zM684 1555q-18 17 4 87q6 36 38 70t76 60t93 40t89 11t63 -26t17 -73q2 -12 18 -31t43 -22t62 18t75 87q16 26 44 32t48 -2t23 -27t-29 -43q-52 -88 -117 -137t-123 -60t-98 14t-42 87q-16 58 -54 65 t-96 -69q2 -20 -26 -48t-59 -39t-49 6z" />
<glyph unicode="&#xd6;" horiz-adv-x="848" d="M172 254q0 120 44 264t122 296t174 284t201 230t201 134t174 -6t122 -188q4 -106 -33 -251t-104 -297t-161 -293t-204 -240t-231 -137t-245 16q-60 68 -60 188zM315 345q-9 -75 10 -122t71 -60t146 23q110 78 196 184t149 222t101 233t52 217t1 174t-51 104t-104 7 t-158 -117q-46 -58 -99 -141t-104 -177t-96 -193t-75 -189t-39 -165zM824 1574q-12 34 6 63t46 44t56 12t38 -33q8 -24 -11 -51t-46 -45t-54 -19t-35 29zM1070 1574q-12 34 6 63t46 44t56 12t38 -33q8 -24 -11 -51t-46 -45t-54 -19t-35 29z" />
<glyph unicode="&#xd8;" horiz-adv-x="848" d="M52 30q2 26 34 78l1120 1306q18 28 44 34t44 -4t23 -34t-17 -54l-1134 -1322q-30 -24 -58 -35t-43 -3t-13 34zM172 254q0 120 44 264t122 296t174 284t201 230t201 134t174 -6t122 -188q4 -106 -33 -251t-104 -297t-161 -293t-204 -240t-231 -137t-245 16q-60 68 -60 188 zM315 345q-9 -75 10 -122t71 -60t146 23q110 78 196 184t149 222t101 233t52 217t1 174t-51 104t-104 7t-158 -117q-46 -58 -99 -141t-104 -177t-96 -193t-75 -189t-39 -165z" />
<glyph unicode="&#xd9;" horiz-adv-x="956" d="M259 245q-5 89 11 200t45 231t67 239t77 221t76 181t65 119q18 26 39 34t38 4t27 -17t8 -27q-38 -76 -84 -193t-89 -249t-77 -268t-48 -249t0 -190t66 -92t148 45t250 220q76 108 127 232t91 253t74 259t76 252q16 24 42 41t48 21t36 -7t8 -41q-58 -184 -107 -340 t-99 -315t-107 -334t-131 -395q-24 -40 -54 -57t-52 -16t-29 22t17 57l102 262q-66 -60 -130 -122t-130 -110t-134 -74t-142 -12q-62 10 -91 68t-34 147zM1028 1708q-10 38 3 59t34 27t45 -3t36 -31l32 -132q2 -42 -23 -64t-89 -10z" />
<glyph unicode="&#xda;" horiz-adv-x="956" d="M259 245q-5 89 11 200t45 231t67 239t77 221t76 181t65 119q18 26 39 34t38 4t27 -17t8 -27q-38 -76 -84 -193t-89 -249t-77 -268t-48 -249t0 -190t66 -92t148 45t250 220q76 108 127 232t91 253t74 259t76 252q16 24 42 41t48 21t36 -7t8 -41q-58 -184 -107 -340 t-99 -315t-107 -334t-131 -395q-24 -40 -54 -57t-52 -16t-29 22t17 57l102 262q-66 -60 -130 -122t-130 -110t-134 -74t-142 -12q-62 10 -91 68t-34 147zM936 1564q-10 22 22 64l128 132q30 22 60 31t47 3t14 -27t-39 -59l-150 -154q-72 -12 -82 10z" />
<glyph unicode="&#xdb;" horiz-adv-x="956" d="M259 245q-5 89 11 200t45 231t67 239t77 221t76 181t65 119q18 26 39 34t38 4t27 -17t8 -27q-38 -76 -84 -193t-89 -249t-77 -268t-48 -249t0 -190t66 -92t148 45t250 220q76 108 127 232t91 253t74 259t76 252q16 24 42 41t48 21t36 -7t8 -41q-58 -184 -107 -340 t-99 -315t-107 -334t-131 -395q-24 -40 -54 -57t-52 -16t-29 22t17 57l102 262q-66 -60 -130 -122t-130 -110t-134 -74t-142 -12q-62 10 -91 68t-34 147zM799 1583q-3 21 19 59q38 38 62 59t40 34t29 24t28 27t35 42t54 72q30 42 56 24t44 -66t26 -112t-1 -117t-36 -81 t-77 0l-18 192l-166 -166q-14 -16 -36 -22t-39 2t-20 29z" />
<glyph unicode="&#xdc;" horiz-adv-x="956" d="M259 245q-5 89 11 200t45 231t67 239t77 221t76 181t65 119q18 26 39 34t38 4t27 -17t8 -27q-38 -76 -84 -193t-89 -249t-77 -268t-48 -249t0 -190t66 -92t148 45t250 220q76 108 127 232t91 253t74 259t76 252q16 24 42 41t48 21t36 -7t8 -41q-58 -184 -107 -340 t-99 -315t-107 -334t-131 -395q-24 -40 -54 -57t-52 -16t-29 22t17 57l102 262q-66 -60 -130 -122t-130 -110t-134 -74t-142 -12q-62 10 -91 68t-34 147zM878 1574q-12 34 6 63t46 44t56 12t38 -33q8 -24 -11 -51t-46 -45t-54 -19t-35 29zM1124 1574q-12 34 6 63t46 44 t56 12t38 -33q8 -24 -11 -51t-46 -45t-54 -19t-35 29z" />
<glyph unicode="&#xdd;" horiz-adv-x="916" d="M446 42l264 732l-192 618q14 28 36 49t44 30t40 6t24 -21q2 -10 15 -49t30 -92t37 -113t37 -113t29 -92t16 -49q106 102 194 189t153 152t104 105t47 50q32 38 53 37t29 -20t4 -48t-18 -49q-14 -18 -57 -64t-101 -106t-122 -127t-122 -127t-102 -106t-58 -64l-248 -718 q-10 -20 -32 -34t-45 -19t-41 5t-18 38zM916 1564q-10 22 22 64l128 132q30 22 60 31t47 3t14 -27t-39 -59l-150 -154q-72 -12 -82 10z" />
<glyph unicode="&#xde;" horiz-adv-x="788" d="M-112 -380q44 96 95 218t105 256t107 274t103 272t93 250t75 208q20 20 45 35t47 20t39 0t21 -23l-190 -468q168 150 300 196t199 1t55 -176t-128 -335q-78 -114 -178 -198t-198 -132t-182 -55t-128 37l-154 -368q-4 -10 -17 -27t-31 -26t-39 -2t-39 43zM238 140 q58 -36 125 -28t135 45t131 96t114 126t86 135t43 122t-14 88t-82 32q-56 -8 -115 -44t-115 -88t-107 -116t-92 -130t-70 -128t-39 -110z" />
<glyph unicode="&#xdf;" horiz-adv-x="802" d="M20 -344q-14 18 2 76q136 484 271 815t258 537t226 301t175 107t107 -44t21 -153t-84 -219t-206 -242q108 -36 143 -112t18 -168t-78 -188t-146 -171t-184 -119t-193 -30l80 128q76 14 154 60t136 109t88 137t10 144q-22 70 -72 97t-124 1l16 154q142 80 219 169t103 161 t5 113t-76 24t-138 -106t-183 -277t-209 -488t-217 -740q-8 -28 -34 -53t-50 -33t-38 10z" />
<glyph unicode="&#xe0;" horiz-adv-x="768" d="M135 286q27 108 121 240t272 262q60 46 123 62t119 8t103 -35t77 -69q-14 -74 -38 -155t-52 -167t-57 -176t-53 -182q-52 -46 -78 -53t-36 11t-7 54t12 76t21 75t18 51q-130 -158 -242 -219t-188 -49t-109 85t-6 181zM249 191q5 -41 41 -57q38 -18 95 11t117 86t119 131 t101 142t60 121t0 71q-34 36 -81 35t-100 -29t-106 -76t-99 -105t-82 -119t-53 -116t-12 -95zM708 1084q-10 38 3 59t34 27t45 -3t36 -31l32 -132q2 -42 -23 -64t-89 -10z" />
<glyph unicode="&#xe1;" horiz-adv-x="768" d="M135 286q27 108 121 240t272 262q60 46 123 62t119 8t103 -35t77 -69q-14 -74 -38 -155t-52 -167t-57 -176t-53 -182q-52 -46 -78 -53t-36 11t-7 54t12 76t21 75t18 51q-130 -158 -242 -219t-188 -49t-109 85t-6 181zM249 191q5 -41 41 -57q38 -18 95 11t117 86t119 131 t101 142t60 121t0 71q-34 36 -81 35t-100 -29t-106 -76t-99 -105t-82 -119t-53 -116t-12 -95zM616 940q-10 22 22 64l128 132q30 22 60 31t47 3t14 -27t-39 -59l-150 -154q-72 -12 -82 10z" />
<glyph unicode="&#xe2;" horiz-adv-x="768" d="M135 286q27 108 121 240t272 262q60 46 123 62t119 8t103 -35t77 -69q-14 -74 -38 -155t-52 -167t-57 -176t-53 -182q-52 -46 -78 -53t-36 11t-7 54t12 76t21 75t18 51q-130 -158 -242 -219t-188 -49t-109 85t-6 181zM249 191q5 -41 41 -57q38 -18 95 11t117 86t119 131 t101 142t60 121t0 71q-34 36 -81 35t-100 -29t-106 -76t-99 -105t-82 -119t-53 -116t-12 -95zM595 963q-3 21 19 59q38 38 62 59t40 34t29 24t28 27t35 42t54 72q30 42 56 24t44 -66t26 -112t-1 -117t-36 -81t-77 0l-18 192l-166 -166q-14 -16 -36 -22t-39 2t-20 29z" />
<glyph unicode="&#xe3;" horiz-adv-x="768" d="M135 286q27 108 121 240t272 262q60 46 123 62t119 8t103 -35t77 -69q-14 -74 -38 -155t-52 -167t-57 -176t-53 -182q-52 -46 -78 -53t-36 11t-7 54t12 76t21 75t18 51q-130 -158 -242 -219t-188 -49t-109 85t-6 181zM249 191q5 -41 41 -57q38 -18 95 11t117 86t119 131 t101 142t60 121t0 71q-34 36 -81 35t-100 -29t-106 -76t-99 -105t-82 -119t-53 -116t-12 -95zM422 931q-18 17 4 87q6 36 38 70t76 60t93 40t89 11t63 -26t17 -73q2 -12 18 -31t43 -22t62 18t75 87q16 26 44 32t48 -2t23 -27t-29 -43q-52 -88 -117 -137t-123 -60t-98 14 t-42 87q-16 58 -54 65t-96 -69q2 -20 -26 -48t-59 -39t-49 6z" />
<glyph unicode="&#xe4;" horiz-adv-x="768" d="M135 286q27 108 121 240t272 262q60 46 123 62t119 8t103 -35t77 -69q-14 -74 -38 -155t-52 -167t-57 -176t-53 -182q-52 -46 -78 -53t-36 11t-7 54t12 76t21 75t18 51q-130 -158 -242 -219t-188 -49t-109 85t-6 181zM249 191q5 -41 41 -57q38 -18 95 11t117 86t119 131 t101 142t60 121t0 71q-34 36 -81 35t-100 -29t-106 -76t-99 -105t-82 -119t-53 -116t-12 -95zM558 950q-12 34 6 63t46 44t56 12t38 -33q8 -24 -11 -51t-46 -45t-54 -19t-35 29zM804 950q-12 34 6 63t46 44t56 12t38 -33q8 -24 -11 -51t-46 -45t-54 -19t-35 29z" />
<glyph unicode="&#xe5;" horiz-adv-x="768" d="M135 286q27 108 121 240t272 262q60 46 123 62t119 8t103 -35t77 -69q-14 -74 -38 -155t-52 -167t-57 -176t-53 -182q-52 -46 -78 -53t-36 11t-7 54t12 76t21 75t18 51q-130 -158 -242 -219t-188 -49t-109 85t-6 181zM249 191q5 -41 41 -57q38 -18 95 11t117 86t119 131 t101 142t60 121t0 71q-34 36 -81 35t-100 -29t-106 -76t-99 -105t-82 -119t-53 -116t-12 -95zM555 960q-19 40 3 108q28 58 73 96t97 56t103 16t87 -22t51 -58t-3 -92q-14 -50 -55 -88t-94 -60t-108 -26t-95 13t-59 57zM650 1056q-12 -20 4 -41t50 -29t80 5t98 59 q20 38 13 61t-30 32t-57 6t-67 -15t-59 -33t-32 -45z" />
<glyph unicode="&#xe6;" horiz-adv-x="1272" d="M135 286q27 108 121 240t272 262q60 46 123 62t119 8t103 -35t77 -69q-14 -74 -38 -155t-52 -167t-57 -176t-53 -182q-52 -46 -78 -53t-36 11t-7 54t12 76t21 75t18 51q-130 -158 -242 -219t-188 -49t-109 85t-6 181zM249 191q5 -41 41 -57q38 -18 95 11t117 86t119 131 t101 142t60 121t0 71q-34 36 -81 35t-100 -29t-106 -76t-99 -105t-82 -119t-53 -116t-12 -95zM708 159q-6 61 10 135t46 150t85 148t122 129t138 92t133 36t107 -41t61 -136q18 -90 -14 -151t-92 -99t-137 -58t-146 -28t-119 -8h-58q-18 -84 -6 -129t45 -61t80 -8t99 30 t104 54t94 64q28 6 48 5t25 -14t-12 -39t-65 -70q-146 -88 -248 -122t-166 -27t-96 47t-38 101zM910 464q-4 -18 21 -25t66 -3t91 17t95 34t76 50t35 63q6 58 -16 87t-60 34t-85 -12t-92 -52t-81 -84t-50 -109z" />
<glyph unicode="&#xe7;" horiz-adv-x="736" d="M135 -391q-7 57 9 93t46 43t58 -31q4 -74 34 -101t66 -22t72 33t52 62q32 66 33 97t-17 42t-48 8t-62 -5t-61 3t-42 32t-6 83t47 154l112 -6q-40 -82 -38 -118t22 -45t46 -3t36 6q96 -2 126 -47t14 -109t-66 -134t-116 -118t-137 -63t-127 29q-46 60 -53 117zM144 308 q22 88 81 179t138 169t167 133t168 72t141 -15t87 -128q0 -8 -13 -28t-31 -40t-38 -30t-36 2q-24 68 -66 90t-92 10t-104 -52t-103 -94t-88 -116t-59 -119t-17 -103t39 -68q50 -28 97 -29t90 13t83 38t77 46t70 37t63 11q8 -42 -20 -83t-78 -76t-114 -61t-126 -41t-116 -17 t-84 14q-90 46 -114 122t-2 164z" />
<glyph unicode="&#xe8;" horiz-adv-x="728" d="M154 169q-6 61 10 135t46 150t85 148t122 129t138 92t133 36t107 -41t61 -136q18 -90 -14 -151t-92 -99t-137 -58t-146 -28t-119 -8h-58q-18 -84 -6 -129t45 -61t80 -8t99 30t104 54t94 64q28 6 48 5t25 -14t-12 -39t-65 -70q-146 -88 -248 -122t-166 -27t-96 47t-38 101 zM356 474q-4 -18 21 -25t66 -3t91 17t95 34t76 50t35 63q6 58 -16 87t-60 34t-85 -12t-92 -52t-81 -84t-50 -109zM688 1084q-10 38 3 59t34 27t45 -3t36 -31l32 -132q2 -42 -23 -64t-89 -10z" />
<glyph unicode="&#xe9;" horiz-adv-x="728" d="M154 169q-6 61 10 135t46 150t85 148t122 129t138 92t133 36t107 -41t61 -136q18 -90 -14 -151t-92 -99t-137 -58t-146 -28t-119 -8h-58q-18 -84 -6 -129t45 -61t80 -8t99 30t104 54t94 64q28 6 48 5t25 -14t-12 -39t-65 -70q-146 -88 -248 -122t-166 -27t-96 47t-38 101 zM356 474q-4 -18 21 -25t66 -3t91 17t95 34t76 50t35 63q6 58 -16 87t-60 34t-85 -12t-92 -52t-81 -84t-50 -109zM596 940q-10 22 22 64l128 132q30 22 60 31t47 3t14 -27t-39 -59l-150 -154q-72 -12 -82 10z" />
<glyph unicode="&#xea;" horiz-adv-x="728" d="M154 169q-6 61 10 135t46 150t85 148t122 129t138 92t133 36t107 -41t61 -136q18 -90 -14 -151t-92 -99t-137 -58t-146 -28t-119 -8h-58q-18 -84 -6 -129t45 -61t80 -8t99 30t104 54t94 64q28 6 48 5t25 -14t-12 -39t-65 -70q-146 -88 -248 -122t-166 -27t-96 47t-38 101 zM356 474q-4 -18 21 -25t66 -3t91 17t95 34t76 50t35 63q6 58 -16 87t-60 34t-85 -12t-92 -52t-81 -84t-50 -109zM459 959q-3 21 19 59q38 38 62 59t40 34t29 24t28 27t35 42t54 72q30 42 56 24t44 -66t26 -112t-1 -117t-36 -81t-77 0l-18 192l-166 -166q-14 -16 -36 -22 t-39 2t-20 29z" />
<glyph unicode="&#xeb;" horiz-adv-x="728" d="M154 169q-6 61 10 135t46 150t85 148t122 129t138 92t133 36t107 -41t61 -136q18 -90 -14 -151t-92 -99t-137 -58t-146 -28t-119 -8h-58q-18 -84 -6 -129t45 -61t80 -8t99 30t104 54t94 64q28 6 48 5t25 -14t-12 -39t-65 -70q-146 -88 -248 -122t-166 -27t-96 47t-38 101 zM356 474q-4 -18 21 -25t66 -3t91 17t95 34t76 50t35 63q6 58 -16 87t-60 34t-85 -12t-92 -52t-81 -84t-50 -109zM538 950q-12 34 6 63t46 44t56 12t38 -33q8 -24 -11 -51t-46 -45t-54 -19t-35 29zM784 950q-12 34 6 63t46 44t56 12t38 -33q8 -24 -11 -51t-46 -45t-54 -19 t-35 29z" />
<glyph unicode="&#xec;" d="M54 30q10 12 29 61t45 119t57 153t64 165t67 155t65 121t59 65t50 -13q-26 -78 -69 -194t-91 -236t-91 -228t-69 -168q-12 -16 -31 -24t-37 -8t-32 7t-16 25zM456 1084q-10 38 3 59t34 27t45 -3t36 -31l32 -132q2 -42 -23 -64t-89 -10z" />
<glyph unicode="&#xed;" d="M54 30q10 12 29 61t45 119t57 153t64 165t67 155t65 121t59 65t50 -13q-26 -78 -69 -194t-91 -236t-91 -228t-69 -168q-12 -16 -31 -24t-37 -8t-32 7t-16 25zM364 940q-10 22 22 64l128 132q30 22 60 31t47 3t14 -27t-39 -59l-150 -154q-72 -12 -82 10z" />
<glyph unicode="&#xee;" d="M54 30q10 12 29 61t45 119t57 153t64 165t67 155t65 121t59 65t50 -13q-26 -78 -69 -194t-91 -236t-91 -228t-69 -168q-12 -16 -31 -24t-37 -8t-32 7t-16 25zM301 977q-3 21 19 59q38 38 62 59t40 34t29 24t28 27t35 42t54 72q30 42 56 24t44 -66t26 -112t-1 -117 t-36 -81t-77 0l-18 192l-166 -166q-14 -16 -36 -22t-39 2t-20 29z" />
<glyph unicode="&#xef;" d="M54 30q10 12 29 61t45 119t57 153t64 165t67 155t65 121t59 65t50 -13q-26 -78 -69 -194t-91 -236t-91 -228t-69 -168q-12 -16 -31 -24t-37 -8t-32 7t-16 25zM308 950q-12 34 6 63t46 44t56 12t38 -33q8 -24 -11 -51t-46 -45t-54 -19t-35 29zM554 950q-12 34 6 63t46 44 t56 12t38 -33q8 -24 -11 -51t-46 -45t-54 -19t-35 29z" />
<glyph unicode="&#xf0;" horiz-adv-x="736" d="M150 278q2 100 33 200t88 184t135 126t171 26t197 -118l24 266q-28 0 -55 -7t-57 -16t-65 -16t-75 -7q-26 18 -15 39t49 41t98 39t132 35l50 376l132 4q-10 -76 -19 -148t-21 -172q26 10 61 32t70 46t68 45t57 27t35 -6t3 -52q-86 -82 -168 -134t-138 -58 q-20 -156 -51 -322t-83 -310t-128 -248t-186 -138q-122 -40 -198 -9t-111 103t-33 172zM273 351q1 -63 21 -117t57 -83t91 -25t124 56q66 82 90 161t17 144t-40 112t-79 65t-100 4t-104 -70q-40 -52 -59 -118t-18 -129z" />
<glyph unicode="&#xf1;" horiz-adv-x="782" d="M82 46l280 794q40 22 72 34q28 10 49 10t17 -22l-110 -248q132 140 225 201t153 64t91 -43t40 -120t0 -166t-30 -184t-50 -171t-60 -127t-59 -55t-46 47q82 226 112 368t21 217t-49 90t-97 -15t-124 -97t-129 -157t-113 -196t-75 -210q-10 -18 -29 -30t-38 -15t-34 4 t-17 27zM428 931q-18 17 4 87q6 36 38 70t76 60t93 40t89 11t63 -26t17 -73q2 -12 18 -31t43 -22t62 18t75 87q16 26 44 32t48 -2t23 -27t-29 -43q-52 -88 -117 -137t-123 -60t-98 14t-42 87q-16 58 -54 65t-96 -69q2 -20 -26 -48t-59 -39t-49 6z" />
<glyph unicode="&#xf2;" horiz-adv-x="708" d="M163 257q1 81 28 161t77 156t109 137t124 100t125 48t108 -19t74 -104q42 -104 31 -214t-57 -206t-119 -170t-154 -108t-164 -21t-147 91q-36 68 -35 149zM276 325q-6 -79 21 -129t85 -63t140 21q64 28 106 85t65 125t27 138t-10 126t-46 90t-80 26t-112 -64t-142 -178 q-48 -98 -54 -177zM678 1084q-10 38 3 59t34 27t45 -3t36 -31l32 -132q2 -42 -23 -64t-89 -10z" />
<glyph unicode="&#xf3;" horiz-adv-x="708" d="M163 257q1 81 28 161t77 156t109 137t124 100t125 48t108 -19t74 -104q42 -104 31 -214t-57 -206t-119 -170t-154 -108t-164 -21t-147 91q-36 68 -35 149zM276 325q-6 -79 21 -129t85 -63t140 21q64 28 106 85t65 125t27 138t-10 126t-46 90t-80 26t-112 -64t-142 -178 q-48 -98 -54 -177zM586 940q-10 22 22 64l128 132q30 22 60 31t47 3t14 -27t-39 -59l-150 -154q-72 -12 -82 10z" />
<glyph unicode="&#xf4;" horiz-adv-x="708" d="M163 257q1 81 28 161t77 156t109 137t124 100t125 48t108 -19t74 -104q42 -104 31 -214t-57 -206t-119 -170t-154 -108t-164 -21t-147 91q-36 68 -35 149zM276 325q-6 -79 21 -129t85 -63t140 21q64 28 106 85t65 125t27 138t-10 126t-46 90t-80 26t-112 -64t-142 -178 q-48 -98 -54 -177zM449 959q-3 21 19 59q38 38 62 59t40 34t29 24t28 27t35 42t54 72q30 42 56 24t44 -66t26 -112t-1 -117t-36 -81t-77 0l-18 192l-166 -166q-14 -16 -36 -22t-39 2t-20 29z" />
<glyph unicode="&#xf5;" horiz-adv-x="708" d="M163 257q1 81 28 161t77 156t109 137t124 100t125 48t108 -19t74 -104q42 -104 31 -214t-57 -206t-119 -170t-154 -108t-164 -21t-147 91q-36 68 -35 149zM276 325q-6 -79 21 -129t85 -63t140 21q64 28 106 85t65 125t27 138t-10 126t-46 90t-80 26t-112 -64t-142 -178 q-48 -98 -54 -177zM392 931q-18 17 4 87q6 36 38 70t76 60t93 40t89 11t63 -26t17 -73q2 -12 18 -31t43 -22t62 18t75 87q16 26 44 32t48 -2t23 -27t-29 -43q-52 -88 -117 -137t-123 -60t-98 14t-42 87q-16 58 -54 65t-96 -69q2 -20 -26 -48t-59 -39t-49 6z" />
<glyph unicode="&#xf6;" horiz-adv-x="708" d="M163 257q1 81 28 161t77 156t109 137t124 100t125 48t108 -19t74 -104q42 -104 31 -214t-57 -206t-119 -170t-154 -108t-164 -21t-147 91q-36 68 -35 149zM276 325q-6 -79 21 -129t85 -63t140 21q64 28 106 85t65 125t27 138t-10 126t-46 90t-80 26t-112 -64t-142 -178 q-48 -98 -54 -177zM528 950q-12 34 6 63t46 44t56 12t38 -33q8 -24 -11 -51t-46 -45t-54 -19t-35 29zM774 950q-12 34 6 63t46 44t56 12t38 -33q8 -24 -11 -51t-46 -45t-54 -19t-35 29z" />
<glyph unicode="&#xf7;" horiz-adv-x="956" d="M348 490q0 2 5 15t11 28t12 28t10 17q30 -4 96 1t146 10t159 7t133 -6t70 -31t-30 -69q-146 0 -248 -1t-170 -2t-107 -1h-59t-24 1t-4 3zM500 224q-12 34 6 63t46 44t56 12t38 -33q6 -24 -13 -51t-46 -45t-53 -19t-34 29zM692 736q-12 34 6 63t46 44t56 12t38 -33 q8 -24 -11 -51t-46 -45t-54 -19t-35 29z" />
<glyph unicode="&#xf8;" horiz-adv-x="708" d="M-22 8q2 16 33 48l1082 800q17 17 42.5 21t42.5 -2t22 -21t-16 -33l-1096 -810q-29 -15 -56 -21.5t-41.5 -2t-12.5 20.5zM163 257q1 81 28 161t77 156t109 137t124 100t125 48t108 -19t74 -104q42 -104 31 -214t-57 -206t-119 -170t-154 -108t-164 -21t-147 91 q-36 68 -35 149zM276 325q-6 -79 21 -129t85 -63t140 21q64 28 106 85t65 125t27 138t-10 126t-46 90t-80 26t-112 -64t-142 -178q-48 -98 -54 -177z" />
<glyph unicode="&#xf9;" horiz-adv-x="756" d="M161 324q15 108 60 236t113 256q22 40 44 51t38 2t25 -30t7 -43q-96 -206 -133 -337t-34 -201t41 -87t95 5t124 75t129 123q28 32 57 94t53 133t42 139t28 112q12 18 33 24t40 3t34 -14t15 -29l-264 -810q-28 -32 -72 -35t-76 29l66 172q-142 -114 -239 -149t-152 -8 t-72 104t-2 185zM662 1106q-10 38 3 59t34 27t45 -3t36 -31l32 -132q2 -42 -23 -64t-89 -10z" />
<glyph unicode="&#xfa;" horiz-adv-x="756" d="M161 324q15 108 60 236t113 256q22 40 44 51t38 2t25 -30t7 -43q-96 -206 -133 -337t-34 -201t41 -87t95 5t124 75t129 123q28 32 57 94t53 133t42 139t28 112q12 18 33 24t40 3t34 -14t15 -29l-264 -810q-28 -32 -72 -35t-76 29l66 172q-142 -114 -239 -149t-152 -8 t-72 104t-2 185zM610 940q-10 22 22 64l128 132q30 22 60 31t47 3t14 -27t-39 -59l-150 -154q-72 -12 -82 10z" />
<glyph unicode="&#xfb;" horiz-adv-x="756" d="M161 324q15 108 60 236t113 256q22 40 44 51t38 2t25 -30t7 -43q-96 -206 -133 -337t-34 -201t41 -87t95 5t124 75t129 123q28 32 57 94t53 133t42 139t28 112q12 18 33 24t40 3t34 -14t15 -29l-264 -810q-28 -32 -72 -35t-76 29l66 172q-142 -114 -239 -149t-152 -8 t-72 104t-2 185zM473 959q-3 21 19 59q38 38 62 59t40 34t29 24t28 27t35 42t54 72q30 42 56 24t44 -66t26 -112t-1 -117t-36 -81t-77 0l-18 192l-166 -166q-14 -16 -36 -22t-39 2t-20 29z" />
<glyph unicode="&#xfc;" horiz-adv-x="756" d="M161 324q15 108 60 236t113 256q22 40 44 51t38 2t25 -30t7 -43q-96 -206 -133 -337t-34 -201t41 -87t95 5t124 75t129 123q28 32 57 94t53 133t42 139t28 112q12 18 33 24t40 3t34 -14t15 -29l-264 -810q-28 -32 -72 -35t-76 29l66 172q-142 -114 -239 -149t-152 -8 t-72 104t-2 185zM552 950q-12 34 6 63t46 44t56 12t38 -33q8 -24 -11 -51t-46 -45t-54 -19t-35 29zM798 950q-12 34 6 63t46 44t56 12t38 -33q8 -24 -11 -51t-46 -45t-54 -19t-35 29z" />
<glyph unicode="&#xfd;" horiz-adv-x="828" d="M-64 -584l500 664l-130 678q-12 36 3 61t41 34t54 0t40 -37q6 -14 16 -57t22 -101t24 -123t24 -122t21 -101t15 -58q10 14 43 58t76 103t92 125t92 125t76 102t45 55q28 32 55 38t45 -4t24 -30t-6 -38l-1036 -1396q-4 -10 -27 -20t-49 -13t-46 9t-14 48zM646 940 q-10 22 22 64l128 132q30 22 60 31t47 3t14 -27t-39 -59l-150 -154q-72 -12 -82 10z" />
<glyph unicode="&#xfe;" horiz-adv-x="702" d="M46 26l506 1424q60 22 88 20t34 -23t-6 -59t-32 -86t-42 -104t-38 -112q146 58 235 51t131 -58t41 -133t-36 -174t-100 -183t-151 -160t-189 -103t-213 -12q-22 -48 -36 -86t-24 -69t-17 -58t-15 -55q-10 -16 -31 -33t-43 -25t-40 -1t-22 39zM310 434q86 -30 164 -11 t143 69t113 121t73 142t24 134t-35 97t-105 29t-183 -67q-4 -12 -18 -52t-35 -93t-44 -113t-44 -112t-36 -92t-17 -52z" />
<glyph unicode="&#xff;" horiz-adv-x="828" d="M-64 -584l500 664l-130 678q-12 36 3 61t41 34t54 0t40 -37q6 -14 16 -57t22 -101t24 -123t24 -122t21 -101t15 -58q10 14 43 58t76 103t92 125t92 125t76 102t45 55q28 32 55 38t45 -4t24 -30t-6 -38l-1036 -1396q-4 -10 -27 -20t-49 -13t-46 9t-14 48zM588 950 q-12 34 6 63t46 44t56 12t38 -33q8 -24 -11 -51t-46 -45t-54 -19t-35 29zM834 950q-12 34 6 63t46 44t56 12t38 -33q8 -24 -11 -51t-46 -45t-54 -19t-35 29z" />
<glyph unicode="&#x152;" horiz-adv-x="1540" d="M172 254q0 120 44 264t122 296t174 284t201 230t201 134t174 -6t122 -188q4 -106 -33 -251t-104 -297t-161 -293t-204 -240t-231 -137t-245 16q-60 68 -60 188zM315 345q-9 -75 10 -122t71 -60t146 23q110 78 196 184t149 222t101 233t52 217t1 174t-51 104t-104 7 t-158 -117q-46 -58 -99 -141t-104 -177t-96 -193t-75 -189t-39 -165zM790 98q42 156 84 310t89 308t102 311t121 319q18 48 67 80t115 50t144 23t156 2t148 -14t120 -27q14 -18 0 -42t-79 -44t-192 -27t-341 9l-164 -478q52 -4 114 -5t128 1t132 9t128 23q10 -10 17 -28 t6 -37t-14 -38t-43 -31q-80 -22 -156 -31t-143 -9t-124 7t-99 13l-180 -562q-4 -26 38 -34t108 -4t146 16t152 24t126 20t68 6q18 -40 -25 -76t-121 -63t-177 -43t-191 -16t-164 18t-96 60z" />
<glyph unicode="&#x153;" horiz-adv-x="1218" d="M163 257q1 81 28 161t77 156t109 137t124 100t125 48t108 -19t74 -104q42 -104 31 -214t-57 -206t-119 -170t-154 -108t-164 -21t-147 91q-36 68 -35 149zM276 325q-6 -79 21 -129t85 -63t140 21q64 28 106 85t65 125t27 138t-10 126t-46 90t-80 26t-112 -64t-142 -178 q-48 -98 -54 -177zM674 167q-6 61 10 135t46 150t85 148t122 129t138 92t133 36t107 -41t61 -136q18 -90 -14 -151t-92 -99t-137 -58t-146 -28t-119 -8h-58q-18 -84 -6 -129t45 -61t80 -8t99 30t104 54t94 64q28 6 48 5t25 -14t-12 -39t-65 -70q-146 -88 -248 -122t-166 -27 t-96 47t-38 101zM876 472q-4 -18 21 -25t66 -3t91 17t95 34t76 50t35 63q6 58 -16 87t-60 34t-85 -12t-92 -52t-81 -84t-50 -109z" />
<glyph unicode="&#x178;" horiz-adv-x="916" d="M446 42l264 732l-192 618q14 28 36 49t44 30t40 6t24 -21q2 -10 15 -49t30 -92t37 -113t37 -113t29 -92t16 -49q106 102 194 189t153 152t104 105t47 50q32 38 53 37t29 -20t4 -48t-18 -49q-14 -18 -57 -64t-101 -106t-122 -127t-122 -127t-102 -106t-58 -64l-248 -718 q-10 -20 -32 -34t-45 -19t-41 5t-18 38zM858 1574q-12 34 6 63t46 44t56 12t38 -33q8 -24 -11 -51t-46 -45t-54 -19t-35 29zM1104 1574q-12 34 6 63t46 44t56 12t38 -33q8 -24 -11 -51t-46 -45t-54 -19t-35 29z" />
<glyph unicode="&#x2c6;" horiz-adv-x="534" d="M439 959q-3 21 19 59q38 38 62 59t40 34t29 24t28 27t35 42t54 72q30 42 56 24t44 -66t26 -112t-1 -117t-36 -81t-77 0l-18 192l-166 -166q-14 -16 -36 -22t-39 2t-20 29z" />
<glyph unicode="&#x2dc;" horiz-adv-x="722" d="M432 931q-18 17 4 87q6 36 38 70t76 60t93 40t89 11t63 -26t17 -73q2 -12 18 -31t43 -22t62 18t75 87q16 26 44 32t48 -2t23 -27t-29 -43q-52 -88 -117 -137t-123 -60t-98 14t-42 87q-16 58 -54 65t-96 -69q2 -20 -26 -48t-59 -39t-49 6z" />
<glyph unicode="&#x2000;" horiz-adv-x="964" />
<glyph unicode="&#x2001;" horiz-adv-x="1929" />
<glyph unicode="&#x2002;" horiz-adv-x="964" />
<glyph unicode="&#x2003;" horiz-adv-x="1929" />
<glyph unicode="&#x2004;" horiz-adv-x="643" />
<glyph unicode="&#x2005;" horiz-adv-x="482" />
<glyph unicode="&#x2006;" horiz-adv-x="321" />
<glyph unicode="&#x2007;" horiz-adv-x="321" />
<glyph unicode="&#x2008;" horiz-adv-x="241" />
<glyph unicode="&#x2009;" horiz-adv-x="385" />
<glyph unicode="&#x200a;" horiz-adv-x="107" />
<glyph unicode="&#x2010;" horiz-adv-x="816" d="M326 614q0 2 5 15t11 28t12 28t10 17q30 -4 96 1t146 10t159 7t133 -6t70 -31t-30 -69q-146 0 -248 -1t-170 -2t-107 -1h-59t-24 1t-4 3z" />
<glyph unicode="&#x2011;" horiz-adv-x="816" d="M326 614q0 2 5 15t11 28t12 28t10 17q30 -4 96 1t146 10t159 7t133 -6t70 -31t-30 -69q-146 0 -248 -1t-170 -2t-107 -1h-59t-24 1t-4 3z" />
<glyph unicode="&#x2012;" horiz-adv-x="816" d="M326 614q0 2 5 15t11 28t12 28t10 17q30 -4 96 1t146 10t159 7t133 -6t70 -31t-30 -69q-146 0 -248 -1t-170 -2t-107 -1h-59t-24 1t-4 3z" />
<glyph unicode="&#x2013;" horiz-adv-x="816" d="M326 614q0 2 5 15t11 28t12 28t10 17q30 -4 96 1t146 10t159 7t133 -6t70 -31t-30 -69q-146 0 -248 -1t-170 -2t-107 -1h-59t-24 1t-4 3z" />
<glyph unicode="&#x2014;" horiz-adv-x="928" d="M326 614q0 2 5 15t11 28t12 28t10 17q28 -4 104 -1t168 6t186 3t161 -11t91 -35t-22 -70q-220 0 -361 2t-222 5t-112 6t-31 7z" />
<glyph unicode="&#x2018;" d="M302 710q2 16 13 53t29 80t41 88t52 76t61 43t66 -8l-106 -302q-10 -30 -39 -53t-57 -31t-48 3t-12 51z" />
<glyph unicode="&#x2019;" d="M302 710q2 16 13 53t30 80t43 88t53 76t62 43t67 -8l-112 -302q-10 -30 -39 -53t-57 -31t-48 3t-12 51z" />
<glyph unicode="&#x201a;" horiz-adv-x="334" d="M98 16q2 16 14 54t31 84t44 92t55 80t63 47t67 -7l-116 -320q-12 -30 -40 -53t-57 -31t-48 3t-13 51z" />
<glyph unicode="&#x201c;" horiz-adv-x="506" d="M408 882l108 378q6 18 23 36t39 28t42 11t32 -17q-24 -104 -48 -194t-53 -152t-64 -88t-79 -2zM606 874l106 378q6 18 23 36t39 28t43 11t33 -17q-24 -108 -49 -200t-55 -154t-64 -86t-76 4z" />
<glyph unicode="&#x201d;" horiz-adv-x="506" d="M408 882l108 378q6 18 23 36t39 28t42 11t32 -17q-24 -104 -48 -194t-53 -152t-64 -88t-79 -2zM606 874l106 378q6 18 23 36t39 28t43 11t33 -17q-24 -108 -49 -200t-55 -154t-64 -86t-76 4z" />
<glyph unicode="&#x201e;" horiz-adv-x="506" d="M116 8l108 378q4 18 22 36t39 28t42 11t33 -17q-24 -104 -48 -194t-53 -152t-64 -88t-79 -2zM314 0l106 378q6 18 23 36t39 28t43 11t33 -17q-24 -108 -49 -200t-55 -154t-64 -86t-76 4z" />
<glyph unicode="&#x2026;" horiz-adv-x="738" d="M70 30q-12 34 6 63t46 44t56 12t38 -33q6 -24 -13 -51t-46 -45t-53 -19t-34 29zM316 30q-12 34 6 63t46 44t56 12t38 -33q6 -24 -13 -51t-46 -45t-53 -19t-34 29zM562 30q-12 34 6 63t46 44t56 12t38 -33q6 -24 -13 -51t-46 -45t-53 -19t-34 29z" />
<glyph unicode="&#x202f;" horiz-adv-x="385" />
<glyph unicode="&#x205f;" horiz-adv-x="482" />
<glyph unicode="&#x20ac;" horiz-adv-x="1182" d="M226 504q0 2 5 15t11 28t12 28t10 17q26 -4 75 -1t111 7l28 80t30 80q-66 0 -103 -1t-56 -1h-23t-4 4q0 2 4 15t11 28t13 28t10 17q24 -4 77 0t117 8q54 108 124 208t154 178t179 128t199 60q44 8 94 9t97 -5t84 -18t56 -33t14 -49t-43 -64q-138 52 -265 37t-234 -76 t-188 -158t-127 -209q44 2 100 2t112 -3t105 -9t81 -18t40 -30t-18 -44h-114t-138 -1t-130 -2t-90 -1q-16 -38 -29 -75t-23 -75q46 2 103 2t114 -2t107 -9t83 -19t41 -30t-18 -44h-108t-133 -1t-126 -2t-87 -1q-22 -126 16 -214t123 -109t213 42t286 239q16 20 30 17t25 -21 t18 -43t7 -45q-166 -162 -302 -248t-241 -111t-178 5t-114 99t-48 170t21 219q-70 0 -110 -1t-60 -1h-25t-5 4z" />
<glyph unicode="&#x25fc;" horiz-adv-x="870" d="M0 0v870h870v-870h-870z" />
</font>
</defs>
</svg>
