<?xml version="1.0" standalone="no"?>
<!DOCTYPE svg PUBLIC "-//W3C//DTD SVG 1.1//EN" "http://www.w3.org/Graphics/SVG/1.1/DTD/svg11.dtd" >
<svg>
<metadata>
Created by FontForge 20090914 at Thu Jul  7 12:34:50 2016
 By www-data
Copyright 1995 Image Club Graphics, Inc.
</metadata>
<defs>
<font id="LemonadeICGBold" horiz-adv-x="445" >
  <font-face 
    font-family="Lemonade ICG"
    font-weight="700"
    font-stretch="normal"
    units-per-em="1000"
    panose-1="0 0 7 0 0 0 0 0 0 0"
    ascent="800"
    descent="-200"
    x-height="444"
    cap-height="700.995"
    bbox="-121.002 -298 898.865 921.998"
    underline-thickness="20"
    underline-position="-123"
    unicode-range="U+0020-U+F002"
  />
<missing-glyph horiz-adv-x="500" 
d="M63 0v800h375v-800h-375zM125 63h250v675h-250v-675z" />
    <glyph glyph-name=".notdef" horiz-adv-x="500" 
d="M63 0v800h375v-800h-375zM125 63h250v675h-250v-675z" />
    <glyph glyph-name="space" unicode=" " horiz-adv-x="211" 
 />
    <glyph glyph-name="exclam" unicode="!" horiz-adv-x="192" 
d="M73 86c13.333 0 25.167 -4.33301 35.5 -13s15.5 -19.667 15.5 -33c0 -16 -6.16699 -29 -18.5 -39s-26.833 -15 -43.5 -15c-28 0 -42 17.333 -42 52c0 14 5.16699 25.5 15.5 34.5s22.833 13.5 37.5 13.5zM72.001 115c-10.667 0.666992 -19.166 5.83398 -25.499 15.501
s-8.83301 19.834 -7.5 30.501c8 83.333 20.333 189.666 37 318.999c2.66699 18 6.33398 47 11.001 87c1.33301 22.667 4.33301 56.667 9 102c3.33301 22 11.666 33 24.999 33c26.667 0 42.667 -11.333 48 -34c2 -5.33301 1.66699 -12.333 -1 -21
c-3.33301 -12 -5.33301 -19.333 -6 -22l-13 -119c-2 -19.333 -14.333 -103 -37 -251c-2 -10.667 -2.33301 -26.334 -1 -47.001c1.33301 -24 2 -39.333 2 -46c-0.666992 -14 -4.83398 -25.667 -12.501 -35s-17.167 -13.333 -28.5 -12z" />
    <glyph glyph-name="quotedbl" unicode="&#x22;" horiz-adv-x="315" 
d="M134 641c0 -61.333 -5.33301 -119.998 -16 -175.998c-2 -10 -12.333 -12.333 -31 -7c-8 2.66699 -14 5.66699 -18 9c-6 7.33301 -9.33301 19.166 -10 35.499s-2 39.833 -4 70.5c-2 28 -3 50 -3 66c0 11.333 4.33301 21.666 13 30.999s19 14 31 14
c25.333 0 38 -14.333 38 -43zM258 656.002c0 -68 -4 -122.332 -12 -162.999c-2.66699 -14 -11.667 -21 -27 -21c-2.66699 0 -5 0.333008 -7 1c-22 6 -31.667 20.667 -29 44c2.66699 20.667 3 44.667 1 72c-2.66699 37.333 -4 59.666 -4 66.999
c0 11.333 3.66699 21.333 11 30s17 13 29 13c25.333 0 38 -14.333 38 -43z" />
    <glyph glyph-name="numbersign" unicode="#" horiz-adv-x="394" 
d="M178 643c0 -3.33301 1.33008 -13.667 3.99707 -31c2 -10.667 1 -20 -3 -28l53 9c0 6 -0.5 14.667 -1.5 26s-1.5 20.333 -1.5 27v28c2.66699 8.66699 11.334 13 26.001 13c8.66699 0 15.834 -3.83301 21.501 -11.5s8.5 -16.834 8.5 -27.501v-44
c3.33301 0 8.33301 0.666992 15 2s12 1.66602 16 0.999023c22 -1.33301 33 -9.66602 33 -24.999c0 -9.33301 -4.66699 -17.666 -14 -24.999c-6 -4 -20.667 -6 -44 -6v-50c19.333 6 32.666 6.66699 39.999 2s11.333 -10.667 12 -18c2 -11.333 -1.33301 -22 -10 -32
c-4.66699 -5.33301 -12 -8.33301 -22 -9c-13.333 -1.33301 -20.666 -2.33301 -21.999 -3c0 -4.66699 1 -14 3 -28c2 -11.333 2.66699 -21 2 -29c-2.66699 -24.667 -12.334 -37.667 -29.001 -39c-8.66699 0 -16.5 3.16699 -23.5 9.5s-10.5 13.5 -10.5 21.5
c0 6.66699 0.5 15 1.5 25s1.5 18.333 1.5 25l-55 -7c-0.666992 -13.333 0 -35 2 -65c2 -10 0 -19.5 -6 -28.5s-13.667 -13.5 -23 -13.5c-20 0 -30.667 14.5 -32 43.5s-1.66602 45.167 -0.999023 48.5c-7.33301 -2.66699 -18.666 -3.33398 -33.999 -2.00098
c-16.667 2 -25.667 10.333 -27 25c-2 14.667 3.66699 25.334 17 32.001c6.66699 3.33301 15.834 5.33301 27.501 6s19.167 1.66699 22.5 3l4 47c-6 -1.33301 -17 -5 -33 -11c-12.667 -4.66699 -23.334 -7 -32.001 -7c-18 0 -27.333 9.66699 -28 29
c-0.666992 24 11.333 36 36 36c10.667 0 28.667 3 54 9c0 7.33301 -1.33301 18.333 -4 33s-4 26.667 -4 36c0 22 8.66699 33 26 33c22.667 0 34 -10 34 -30zM228.997 537.999l-47 -6l-3 -57l52 10z" />
    <glyph glyph-name="dollar" unicode="$" horiz-adv-x="438" 
d="M192 -129c-10.667 0 -20.999 5.33594 -30.999 16.0029s-15 22.334 -15 35.001c0 5.33301 3.83301 14.666 11.5 27.999s12.167 24.666 13.5 33.999c0.666992 11.333 0.666992 22.333 0 33l-16 1c-36.667 2.66699 -67.5 17.5 -92.5 44.5s-36.5 58.5 -34.5 94.5
c1.33301 20.667 7.66602 39.834 18.999 57.501s24.333 26.167 39 25.5c24 -0.666992 36.667 -13.334 38 -38.001c0.666992 -7.33301 -5 -14.5 -17 -21.5s-18.333 -13.833 -19 -20.5c0 -10.667 3.16699 -23.5 9.5 -38.5s14.333 -25.833 24 -32.5
s22.167 -9.33398 37.5 -8.00098l14 1l18 220l-12 5c-53.333 24.667 -86.333 43.334 -99 56.001c-16.667 17.333 -25 46.666 -25 87.999c0 47.333 12 91 36 131s55.333 67 94 81l20 8l2 72c0.666992 24 10.667 36.667 30 38c9.33301 0.666992 17.333 -2.5 24 -9.5
s10.334 -15.5 11.001 -25.5l3 -64l17 -1c35.333 -2 64 -19.333 86 -52c20 -30 28.667 -64.667 26 -104c-2 -26.667 -7.66699 -50.334 -17 -71.001c-11.333 -24 -25 -36 -41 -36c-8 0 -15.667 3 -23 9s-11 12.333 -11 19c0 10.667 6.66699 26.167 20 46.5s19 37.5 17 51.5
c-2 22 -9 40.667 -21 56c-14 17.333 -30.333 24 -49 20l-11 -2l-15 -286c60 -33.333 90 -88.666 90 -165.999c0 -34.667 -7 -62 -21 -82s-41 -40 -81 -60l-10 -5c-0.666992 -16 -3 -43.667 -7 -83c-6.66699 -44.667 -17.334 -66.334 -32.001 -65.001zM241.001 94.0029
c25.333 12.667 39 34.667 41 66c2 25.333 -6.66699 52 -26 80zM189.001 363.003l10 238.999c-20.667 -8 -39 -24 -55 -48c-20.667 -30.667 -31 -67 -31 -109c0 -37.333 25.333 -64.666 76 -81.999z" />
    <glyph glyph-name="percent" unicode="%" horiz-adv-x="511" 
d="M482 108c0 -7.33301 -0.667969 -14.668 -2.00098 -22.001c-9.33301 -52.667 -37.333 -79 -84 -79c-7.33301 0 -15 0.666992 -23 2c-62.667 11.333 -94 51.333 -94 120c0 10 1 20.333 3 31c4 24 14.333 42.833 31 56.5s36.334 20.5 59.001 20.5
c32 0 58.333 -13.167 79 -39.5s31 -56.166 31 -89.499zM121.999 646.998c29.333 0 55.666 -13.334 78.999 -40.001s35 -56.667 35 -90c0 -63.333 -31 -95 -93 -95c-37.333 0 -66.666 13.667 -87.999 41c-18.667 24.667 -28 55.334 -28 92.001
c0 27.333 9.16699 49.5 27.5 66.5s40.833 25.5 67.5 25.5zM374.999 662.997c-5.33301 -36.667 -19.667 -92.666 -43 -167.999c-29.333 -94.667 -48.666 -162 -57.999 -202c-17.333 -69.333 -39.333 -165 -66 -287c-3.33301 -18.667 -16.666 -28 -39.999 -28
c-24 0 -35 8.33301 -33 25c1.33301 14.667 5.66602 32 12.999 52c10 26 16 43.333 18 52l45 190c7.33301 32 19.666 75 36.999 129c16 50 28.333 94 37 132l14 91c8 33.333 22.333 50 43 50c8.66699 0 16.5 -3.83301 23.5 -11.5s10.167 -15.834 9.5 -24.501z
M101.998 543.998c0 -16 4.66699 -30.3311 14 -42.998s20.333 -19 33 -19c14 0 22 10.667 24 32c-0.666992 -1.33301 -2 6 -4 22c-3.33301 -0.666992 -7 1.66602 -11 6.99902c-6.66699 8.66699 -10.5 13.334 -11.5 14.001s-4.83301 6.66699 -11.5 18
c-4.66699 7.33301 -10 10.666 -16 9.99902c-11.333 -0.666992 -17 -14.334 -17 -41.001zM352.998 124c0 -33.333 12 -52.333 36 -57c13.333 -2 23 7.33301 29 28c0 4.66699 0.333008 12 1 22c-4 -0.666992 -7.5 1.83301 -10.5 7.5l-8.5 15.5
c-1.33301 1.33301 -4.33301 8.33301 -9 21c-3.33301 8 -8 12.333 -14 13c-16 0.666992 -24 -16 -24 -50z" />
    <glyph glyph-name="ampersand" unicode="&#x26;" horiz-adv-x="498" 
d="M400 129c3.33301 -2 7.66699 -5.33398 13 -10.001l34 -29c11.333 -10 17 -21.333 17 -34c0 -11.333 -4.83301 -20.666 -14.5 -27.999s-20.5 -11 -32.5 -11c-9.33301 0 -17.666 5 -24.999 15c-11.333 16.667 -17.666 25.667 -18.999 27l-16 15l-9 -6l-55 -52
c-30.667 -26 -63 -39 -97 -39c-46.667 0 -86.834 17.167 -120.501 51.5s-50.5 75.5 -50.5 123.5c0 30.667 10.333 63 31 97c1.33301 1.33301 24.666 34 69.999 98l11 15l-8 10c-48 62 -72 132 -72 210c0 32.667 11.167 60 33.5 82s50.5 33 84.5 33
c118 0 177 -43.333 177 -130c0 -26.667 -8 -51.667 -24 -75l-53 -65l-53 -66l70 -93l67 -90l24 20c2.66699 18.667 13.667 28 33 28c18.667 0 29.667 -13.333 33 -40c2 -12 -2 -22.667 -12 -32c-0.666992 -0.666992 -13 -9 -37 -25zM177.001 311.999l-60 -92.001
c-9.33301 -14 -15.333 -24 -18 -30c-5.33301 -11.333 -8 -22.666 -8 -33.999c-1.33301 -30 8.5 -56 29.5 -78s46.167 -33 75.5 -33c25.333 0 60.333 24.333 105 73l13 14zM188.001 424.998l65.999 83c22 28 33 49 33 63c0 14.667 -12.667 29.667 -38 45s-47.333 23 -66 23
s-33.667 -9 -45 -27s-16.666 -38.333 -15.999 -61c0.666992 -34 8 -64.667 22 -92l29 -55z" />
    <glyph glyph-name="quotesingle" unicode="'" horiz-adv-x="200" 
d="M142 635c0 -61.333 -5.33398 -120 -16.001 -176c-2 -10 -12 -12.333 -30 -7c-6 0.666992 -12 1.5 -18 2.5s-9.83301 3.33301 -11.5 7s-2.16699 8.83398 -1.5 15.501c1.33301 11.333 2 17.666 2 18.999c0.666992 19.333 0.333984 43.333 -0.999023 72
c-1.33301 32 -2 54.333 -2 67c0 11.333 3.66699 21.333 11 30s17 13 29 13c25.333 0 38 -14.333 38 -43z" />
    <glyph glyph-name="parenleft" unicode="(" horiz-adv-x="273" 
d="M248 658c0 -6.66699 -2.33691 -12.335 -7.00391 -17.002c-41.333 -39.333 -74.666 -88.666 -99.999 -147.999c-27.333 -63.333 -41 -129.666 -41 -198.999c0 -17.333 1 -34.666 3 -51.999c5.33301 -49.333 14.5 -91.333 27.5 -126s33.833 -71.334 62.5 -110.001
c3.33301 -4.66699 15.333 -14 36 -28c14.667 -10 21.334 -21.333 20.001 -34c-2 -30.667 -16.333 -46 -43 -46c-9.33301 0 -18.666 4.66699 -27.999 14c-0.666992 0.666992 -8.33398 10 -23.001 28c-30 36 -56.333 80.333 -79 133c-25.333 57.333 -40 111 -44 161
c-2 15.333 -3 31.333 -3 48c0 78 15 156 45 234c26.667 70 58.334 125 95.001 165c10.667 11.333 24.334 17 41.001 17c10.667 0 19.667 -4 27 -12s11 -17.333 11 -28z" />
    <glyph glyph-name="parenright" unicode=")" horiz-adv-x="292" 
d="M20 -84c0 8 2.66602 14.3359 7.99902 19.0029c51.333 39.333 92.666 92.333 123.999 159c34 72 50.333 147.333 49 226c-0.666992 49.333 -6.16699 91.666 -16.5 126.999s-27.833 73.666 -52.5 114.999c-3.33301 5.33301 -14.666 16 -33.999 32
c-13.333 11.333 -19 23 -17 35c4.66699 25.333 17.334 39.666 38.001 42.999c12 1.33301 23 -3 33 -13c2 -2 10 -13.333 24 -34c26 -38 48.333 -84.333 67 -139c20 -59.333 30 -114 30 -164c0 -85.333 -19.333 -171.333 -58 -258c-34 -75.333 -73.667 -134 -119 -176
c-10 -8.66699 -22.333 -13 -37 -13c-14 0 -24 4.66699 -30 14s-9 18.333 -9 27z" />
    <glyph glyph-name="asterisk" unicode="*" horiz-adv-x="334" 
d="M108 401c-12.667 4.66699 -18.9971 13.998 -18.9971 27.998c0 4 1 7.33301 3 10c9.33301 18.667 24.666 43 45.999 73c-12.667 2.66699 -20 4 -22 4c-4.66699 0 -11.5 -1 -20.5 -3s-16.833 -2.66699 -23.5 -2c-22.667 0.666992 -34 11.334 -34 32.001
c0 22.667 8.66699 34 26 34h50c-1.33301 2 -8.33301 8.66699 -21 20c-8.66699 8 -12.667 16 -12 24c1.33301 24 13.666 36.333 36.999 37c14.667 0.666992 26 -4.66602 34 -15.999s15.333 -25 22 -41c4.66699 10.667 12.667 30.334 24 59.001c4.66699 12.667 19 19 43 19
c18.667 0 28 -9 28 -27c0 -10 -5.33301 -21.333 -16 -34l-22 -23c12.667 3.33301 22.667 4.66602 30 3.99902c28.667 -2.66699 43 -12 43 -28c0 -20.667 -10.667 -31 -32 -31c-27.333 0 -46 -0.666992 -56 -2c8 -13.333 22.333 -27.666 43 -42.999
c16.667 -12.667 25 -23.334 25 -32.001c0 -9.33301 -4 -17.333 -12 -24s-17.667 -10 -29 -10c-13.333 0 -26 7.33301 -38 22c-4.66699 8 -13.334 22 -26.001 42c0 -0.666992 -3.33301 -13.667 -10 -39c-3.33301 -14 -8.33301 -25.667 -15 -35c-10 -14 -20 -21 -30 -21
c-4.66699 0 -10 1 -16 3z" />
    <glyph glyph-name="plus" unicode="+" horiz-adv-x="429" 
d="M241 327c-2 -14.667 -2.66602 -29.6699 -1.99902 -45.0029c1.33301 -26 2 -40.333 2 -43c24 -2.66699 40 -3.33398 48 -2.00098c8.66699 1.33301 22.667 5 42 11c15.333 4.66699 29 7 41 7c8 0 15 -3.5 21 -10.5s9 -14.5 9 -22.5c0 -19.333 -11 -32.333 -33 -39
c-9.33301 -2.66699 -33.333 -5.66699 -72 -9l-59 -6c-1.33301 -9.33301 -3 -24.666 -5 -45.999c-4 -49.333 -6 -85.666 -6 -108.999c0 -27.333 -12.667 -41 -38 -41c-24 0 -36 15.333 -36 46c0 12 2.33301 26.667 7 44c5.33301 20 8.33301 35 9 45
c2.66699 23.333 4 43.666 4 60.999c-17.333 -1.33301 -44 -6.66602 -80 -15.999c-14.667 -6 -26.667 -9 -36 -9c-14.667 0 -23.334 7.66699 -26.001 23c-1.33301 5.33301 -2 10.333 -2 15c0 14 5.66699 23 17 27c4 1.33301 15.5 3.5 34.5 6.5s50.167 7.16699 93.5 12.5
c0 15.333 -1 32.333 -3 51c-3.33301 24.667 -5.33301 43.334 -6 56.001s2.83301 24.5 10.5 35.5s18.5 16.5 32.5 16.5c24 0 36 -11.333 36 -34c0 -5.33301 -1 -13.666 -3 -24.999z" />
    <glyph glyph-name="comma" unicode="," horiz-adv-x="154" 
d="M131 32c1.33301 -24.667 -4.66797 -47.333 -18.001 -68c-15.333 -21.333 -34.333 -32 -57 -32c-24 0 -36 8 -36 24c0 10 8.33301 16 25 18c12.667 0.666992 18.334 6.66699 17.001 18c-26.667 2.66699 -40 20 -40 52c0 14.667 6 26.667 18 36s25.667 14 41 14
c30 0 46.667 -20.667 50 -62z" />
    <glyph glyph-name="hyphen" unicode="-" horiz-adv-x="407" 
d="M29 229c0 20.667 19.665 35.001 58.998 43.001c8 1.33301 17.333 0.666016 28 -2.00098c14 -2.66699 23.667 -4 29 -4c24.667 0 56 3.16699 94 9.5s65.667 9.5 83 9.5c41.333 0 62 -14.667 62 -44c0 -30 -18.667 -45 -56 -45c-5.33301 0 -12.666 0.333008 -21.999 1
s-16.333 1 -21 1c-22 0 -44.667 -1.5 -68 -4.5s-46.333 -4.5 -69 -4.5c-4 0 -12.167 -0.333008 -24.5 -1s-22.166 -1 -29.499 -1c-43.333 0 -65 14 -65 42z" />
    <glyph glyph-name="hyphen" unicode="&#x2010;" horiz-adv-x="407" 
d="M29 229c0 20.667 19.665 35.001 58.998 43.001c8 1.33301 17.333 0.666016 28 -2.00098c14 -2.66699 23.667 -4 29 -4c24.667 0 56 3.16699 94 9.5s65.667 9.5 83 9.5c41.333 0 62 -14.667 62 -44c0 -30 -18.667 -45 -56 -45c-5.33301 0 -12.666 0.333008 -21.999 1
s-16.333 1 -21 1c-22 0 -44.667 -1.5 -68 -4.5s-46.333 -4.5 -69 -4.5c-4 0 -12.167 -0.333008 -24.5 -1s-22.166 -1 -29.499 -1c-43.333 0 -65 14 -65 42z" />
    <glyph glyph-name="period" unicode="." horiz-adv-x="164" 
d="M129 60c0 -17.333 -5.33105 -32.499 -15.998 -45.499s-24 -19.5 -40 -19.5c-12 0 -21.5 5.66699 -28.5 17s-10.5 24.666 -10.5 39.999c-0.666992 18 5.16602 34.167 17.499 48.5s27.166 21.5 44.499 21.5c22 0 33 -20.667 33 -62z" />
    <glyph glyph-name="slash" unicode="/" horiz-adv-x="303" 
d="M277 642c-15.333 -36 -30.333 -85.001 -45 -147.001l-40 -173l-42 -144c-15.333 -52.667 -27.666 -103.667 -36.999 -153c-4.66699 -24 -8 -37.667 -10 -41c-6 -14.667 -17.333 -22 -34 -22c-23.333 0 -35 10.333 -35 31c0 5.33301 1 12 3 20
c9.33301 47.333 23.666 101.333 42.999 162c22 70 37.333 123.333 46 160c5.33301 20.667 28.333 129 69 325c2 10.667 7.5 19.834 16.5 27.501s19.167 11.167 30.5 10.5c25.333 -2 38 -15 38 -39c0 -5.33301 -1 -11 -3 -17z" />
    <glyph glyph-name="zero" unicode="0" horiz-adv-x="484" 
d="M452 313c-3.33301 -103.333 -13.668 -178.001 -31.001 -224.001c-28.667 -74.667 -80.667 -112 -156 -112c-81.333 0 -141.666 32 -180.999 96c-32 52 -48 120.333 -48 205c0 102 18.667 189.667 56 263c44.667 86.667 106.667 130 186 130c68.667 0 117 -31.333 145 -94
c20 -45.333 30 -112 30 -200c0 -17.333 -0.333008 -38.666 -1 -63.999zM105.998 274.999c0 -61.333 13.333 -113.669 40 -157.002c29.333 -49.333 70 -74 122 -74c30.667 0 58 14.333 82 43c22.667 26.667 34 54.334 34 83.001c0 6 -0.5 11.5 -1.5 16.5s-5.5 11 -13.5 18
s-12 13.5 -12 19.5c0 16 4.83301 37.667 14.5 65s14.5 50 14.5 68c0 16 -3.5 36.833 -10.5 62.5s-10.167 46.834 -9.5 63.501c0 3.33301 1 8.66602 3 15.999c1.33301 6 1.33301 11.333 0 16c-2.66699 17.333 -15 35.5 -37 54.5s-44.333 28.5 -67 28.5
c-45.333 0 -84.333 -41.333 -117 -124c-28 -69.333 -42 -135.666 -42 -198.999z" />
    <glyph glyph-name="one" unicode="1" horiz-adv-x="484" 
d="M281 618c-0.666992 -46.667 0.000976562 -123.331 2.00098 -229.998c4.66699 -95.333 2 -206 -8 -332c8.66699 0 20 0.666992 34 2s25 2 33 2c25.333 0 38 -7.66699 38 -23c0 -18.667 -6.66699 -31 -20 -37c-1.33301 -0.666992 -15 -3.33398 -41 -8.00098
c-9.33301 1.33301 -24 2 -44 2c-6.66699 -4.66699 -18 -9.66699 -34 -15c-6.66699 -0.666992 -14.334 0.833008 -23.001 4.5s-15.667 5.5 -21 5.5c-9.33301 0.666992 -20.333 0 -33 -2c-14.667 -2.66699 -25 -4 -31 -4c-18 0 -27 9.33301 -27 28c0 12.667 4.66699 22 14 28
c1.33301 0.666992 10.666 4 27.999 10c5.33301 2 12 3 20 3c12.667 0 27 -2 43 -6c2.66699 47.333 6 117.666 10 210.999c2 58 2.33301 92.667 1 104c-4 42.667 -6 86.667 -6 132c1.33301 90 2 132.667 2 128c-4.66699 -1.33301 -16.667 -5.33301 -36 -12
c-13.333 -4.66699 -25.333 -6.66699 -36 -6c-20 0.666992 -30.333 10.667 -31 30c-0.666992 16 5.66602 26 18.999 30c16 1.33301 41 6.66602 75 15.999c12.667 11.333 27.334 17 44.001 17c10.667 0 19.334 -3.33301 26.001 -10c10 -8.66699 15 -20 15 -34
c0 -13.333 -4.33301 -24.666 -13 -33.999z" />
    <glyph glyph-name="two" unicode="2" horiz-adv-x="484" 
d="M364 15c-5.33301 -1.33301 -32.6621 -4.33691 -81.9951 -9.00391c-16.667 -1.33301 -38.834 -7.16602 -66.501 -17.499s-65.834 -17.833 -114.501 -22.5c-16 -1.33301 -24.667 7.33398 -26 26.001c-1.33301 14 3.66699 30 15 48c11.333 14.667 22.333 29.667 33 45
c7.33301 11.333 18.666 25.333 33.999 42c17.333 19.333 28.666 32.333 33.999 39c64 87.333 105.5 154 124.5 200s28.5 92.667 28.5 140c0 91.333 -26 136.666 -78 135.999c-23.333 0 -48.166 -12.5 -74.499 -37.5s-40.833 -49.5 -43.5 -73.5
c-0.666992 -9.33301 1.5 -21 6.5 -35s7.83301 -24.667 8.5 -32c4 -38.667 -8.66699 -60 -38 -64c-14.667 -2 -25 6.66699 -31 26c-2.66699 9.33301 -5.33398 28.333 -8.00098 57c-4.66699 54.667 8.83301 103 40.5 145s73.5 65.333 125.5 70
c38 3.33301 73.167 -7.16699 105.5 -31.5s50.166 -54.166 53.499 -89.499c0.666992 -14 1 -26.667 1 -38c0 -26 -3.66699 -50.167 -11 -72.5s-10.333 -41.833 -9 -58.5c2.66699 -6.66699 5.66699 -18.667 9 -36c0 -11.333 -5 -22.333 -15 -33c-16 -16 -25 -25.333 -27 -28
l-112 -167c-15.333 -20 -39 -52.667 -71 -98c35.333 10.667 92.333 23 171 37c50.667 4.66699 77 -5.66602 79 -30.999c2 -18.667 -4.16699 -29.167 -18.5 -31.5s-28.833 -4.16602 -43.5 -5.49902z" />
    <glyph glyph-name="three" unicode="3" horiz-adv-x="484" 
d="M268 694c40.667 -3.33301 74.666 -19.5 101.999 -48.5s41 -63.5 41 -103.5c0 -65.333 -21.667 -117.333 -65 -156c-16.667 -15.333 -26 -23.666 -28 -24.999c-11.333 -9.33301 -23 -16.666 -35 -21.999c15.333 -7.33301 35 -23.333 59 -48
c36.667 -37.333 55.334 -76 56.001 -116c0.666992 -52.667 -18.5 -97.334 -57.5 -134.001s-85.167 -55 -138.5 -55c-37.333 0 -70 10 -98 30c-30.667 21.333 -46 48.666 -46 81.999c0 21.333 8 40.833 24 58.5s34 26.5 54 26.5c7.33301 0 13.833 -2.66699 19.5 -8
s8.5 -11.666 8.5 -18.999c0 -10 -8 -20.667 -24 -32s-23.333 -22 -22 -32c2 -16.667 11.667 -28 29 -34c10 -4 27.333 -7 52 -9c34.667 -2 64.834 9.66699 90.501 35s38.5 55.666 38.5 90.999c0 45.333 -28.333 87.333 -85 126c-4 3.33301 -10.333 5 -19 5
c-2 0 -5.33301 -0.333008 -10 -1h-10c-14.667 0 -22 7 -22 21c0 16.667 10.667 31 32 43l59 30c49.333 35.333 74 83.333 74 144c0 26 -8 46.833 -24 62.5s-36.333 24.834 -61 27.501c-24 2 -46.333 -3 -67 -15c-22.667 -12.667 -34 -28.334 -34 -47.001
c0 -53.333 -10.667 -78 -32 -74c-19.333 4 -29 21 -29 51c0 42.667 17.167 78.5 51.5 107.5s73.166 41.833 116.499 38.5z" />
    <glyph glyph-name="four" unicode="4" horiz-adv-x="484" 
d="M171 498c-8 -56.667 -14.6689 -107.333 -20.002 -152c12 6.66699 31.333 15.334 58 26.001c11.333 3.33301 29.666 7.33301 54.999 12l33 157c11.333 50.667 24.333 93 39 127c10.667 26 25.334 39 44.001 39s28 -8.33301 28 -25c0 -4.66699 -1 -9.33398 -3 -14.001
c-12 -30.667 -29.333 -81 -52 -151c-6 -22 -14.667 -58 -26 -108c3.33301 2 10 6.66699 20 14c6.66699 4 12.334 6 17.001 6c17.333 0 28.333 -9.33301 33 -28s-5.33301 -34.667 -30 -48c0 -0.666992 -12.667 -3.66699 -38 -9l-10 -61c-4.66699 -32 -7 -65.667 -7 -101
c0 -12.667 1 -40.667 3 -84c0.666992 -34.667 0.666992 -63.334 0 -86.001c-1.33301 -33.333 -14.666 -50 -39.999 -50c-27.333 0 -38.666 17.333 -33.999 52c12.667 89.333 19 191 19 305c-27.333 -6 -55.333 -16.667 -84 -32
c-3.33301 -1.33301 -10.666 -7.33301 -21.999 -18c-8 -7.33301 -16.333 -11 -25 -11c-14.667 0 -26.667 6.33301 -36 19s-13.333 26.667 -12 42c2 24 6.33301 53.667 13 89c7.33301 38 12 68 14 90c8 84 11.667 138.667 11 164
c-0.666992 8.66699 2.66602 16.834 9.99902 24.501s15.333 11.5 24 11.5c27.333 0 41 -18 41 -54c0 -16.667 -3 -40.667 -9 -72c-8.66699 -42 -13.334 -66.667 -14.001 -74z" />
    <glyph glyph-name="five" unicode="5" horiz-adv-x="484" 
d="M148 46c24 -1.33301 53.6699 -1.00391 89.0029 0.996094c26.667 9.33301 49.167 33 67.5 71s25.5 77 21.5 117c-4 44.667 -42.333 67 -115 67c-26.667 0 -49 -3.33301 -67 -10c-20.667 -8 -36.334 -4.66699 -47.001 10c-3.33301 4.66699 -5 9.66699 -5 15
c0 4 1.5 10.333 4.5 19s4.83301 15 5.5 19l44 270c-12.667 6 -18.667 17.333 -18 34c1.33301 13.333 13.333 22.666 36 27.999c6.66699 3.33301 14.667 4 24 2c13.333 -2.66699 21.666 -4 24.999 -4c17.333 0.666992 49.333 4.33398 96 11.001
c21.333 6.66699 53.333 14.334 96 23.001c7.33301 0.666992 14.666 -1.66602 21.999 -6.99902s11.333 -11.666 12 -18.999c2.66699 -32.667 -34 -51.667 -110 -57l-117 -9l-45 -263l40 -2c58 -2.66699 97.333 -9.33398 118 -20.001c34.667 -18 55.334 -54.667 62.001 -110
c1.33301 -11.333 2 -22.666 2 -33.999c0 -63.333 -19 -116 -57 -158c-40.667 -43.333 -91.667 -62.666 -153 -57.999c-42.667 3.33301 -73.334 8.33301 -92.001 15c-31.333 10.667 -46.333 28.667 -45 54c2.66699 32.667 13.667 48 33 46
c14 -1.33301 27.167 -10.333 39.5 -27s23.5 -24.667 33.5 -24z" />
    <glyph glyph-name="six" unicode="6" horiz-adv-x="484" 
d="M231 418c62 0 111.664 -23.999 148.997 -71.999c34.667 -44.667 52 -99 52 -163c0 -66.667 -14.333 -116.334 -43 -149.001c-35.333 -39.333 -94.666 -59 -177.999 -59c-22 0 -45 21 -69 63c-21.333 38 -37 80.667 -47 128l-20 91c-8 0 -14.833 3 -20.5 9
s-8.5 12.667 -8.5 20c0 17.333 9 30 27 38c0 15.333 -0.666992 34.5 -2 57.5s-2 39.167 -2 48.5c0 32.667 5.33301 64 16 94c20 55.333 40.333 96 61 122c29.333 36.667 65.333 55 108 55s82.334 -18.333 119.001 -55c34 -35.333 51 -70.333 51 -105
c0 -24 -0.333008 -37.333 -1 -40c-4 -14 -15.667 -21 -35 -21c-30.667 0 -46 21.667 -46 65c0 33.333 -7 56.666 -21 69.999c-11.333 11.333 -29.666 17 -54.999 17c-34.667 0 -62 -16 -82 -48c-10.667 -17.333 -23.334 -50.666 -38.001 -99.999
c-9.33301 -33.333 -12.666 -67 -9.99902 -101c23.333 16 36.333 24.333 39 25c13.333 6.66699 32 10 56 10zM158.997 189.001l24 -93c14.667 -40.667 35 -61 61 -61c28 0 55.167 15.167 81.5 45.5s39.5 62.5 39.5 96.5c0 44 -12.5 83.667 -37.5 119s-55.833 53 -92.5 53
s-67.667 -14 -93 -42c0 -36 5.66699 -75.333 17 -118z" />
    <glyph glyph-name="seven" unicode="7" horiz-adv-x="484" 
d="M411 662c-3.33301 -18 -14 -53.668 -32 -107.001c-21.333 -62.667 -36 -109 -44 -139c-12 -45.333 -36 -152.666 -72 -321.999c-2 -14.667 -5.66699 -38.667 -11 -72c-8.66699 -42.667 -26 -63.667 -52 -63c-21.333 0.666992 -30.333 19 -27 55
c2 28 8.33301 62.333 19 103l128 501l-88 -32l-48 -18c-16 -6 -31 -9 -45 -9c-40 0 -60 14 -60 42c0 14 7.66699 23.167 23 27.5s44 9.83301 86 16.5c35.333 6.66699 67 15.334 95 26.001c2 0.666992 16 7 42 19c16.667 8 30 12 40 12c11.333 0 21.333 -3.66699 30 -11
c12 -10.667 17.333 -20.334 16 -29.001z" />
    <glyph glyph-name="eight" unicode="8" horiz-adv-x="484" 
d="M404 561c0 -42 -21 -94.666 -63 -157.999l-19 -28l22 -23c26 -27.333 44 -50.333 54 -69c13.333 -24 20.666 -51.333 21.999 -82c2 -60.667 -21.667 -112 -71 -154c-46.667 -40 -102 -60 -166 -60c-32 0 -60 15 -84 45s-36 63.667 -36 101
c0 73.333 44.333 146.666 133 219.999l24 20l-21 23c-45.333 50 -68 95 -68 135c0 44 15.667 82.5 47 115.5s69 49.5 113 49.5c32.667 0 60.334 -16 83.001 -48c20 -28 30 -57 30 -87zM189 536.001c-0.666992 -29.333 17.334 -59.667 54.001 -91l22 -19l19 22
c15.333 18 29.166 41 41.499 69s18.5 50.333 18.5 67c0 14.667 -7 25.667 -21 33s-30 11 -48 11c-24 0 -44.167 -9 -60.5 -27s-24.833 -39.667 -25.5 -65zM238.001 303c-72.667 -65.333 -109 -118.667 -109 -160c0 -26.667 2 -45.667 6 -57
c6.66699 -18 20.667 -30.333 42 -37c8 -2 15.667 -3 23 -3c12 0 30.667 5.33301 56 16c47.333 20.667 77.666 46 90.999 76v24l7 28.5c4 16.333 6 27.166 6 32.499c-0.666992 4.66699 -3.16699 9.83398 -7.5 15.501s-8.5 11.5 -12.5 17.5l-19 29
c-7.33301 11.333 -14.666 19.333 -21.999 24c-12 9.33301 -25 14 -39 14z" />
    <glyph glyph-name="nine" unicode="9" horiz-adv-x="484" 
d="M422 571l-20.002 -150.998c-9.33301 -62.667 -21 -121.334 -35 -176.001c-2.66699 -12 -9.66699 -32.333 -21 -61c-18.667 -49.333 -37.667 -92 -57 -128c-33.333 -64.667 -60.666 -97 -81.999 -97c-20 0 -30 7.66699 -30 23c0 10 5.66699 25.333 17 46l30 51
c20.667 40 35.334 71.667 44.001 95c8 20 29.333 80.333 64 181l-19 -9c-29.333 -12.667 -59 -18.334 -89 -17.001c-108 6.66699 -162 58.667 -162 156c0 56 20.333 105 61 147c37.333 40 78 60 122 60c32 0 66.333 -20.667 103 -62l21 -23c2 0.666992 7.66699 2.66699 17 6
c5.33301 2 10.333 2.33301 15 1c6.66699 -2.66699 12.167 -8.66699 16.5 -18s5.83301 -17.333 4.5 -24zM124.998 478.002c0 -30 6.33301 -52.333 19 -67s34.334 -22 65.001 -22c40 0 73.667 10 101 30s41 43 41 69c0 30 -13.833 61.5 -41.5 94.5s-53.167 49.5 -76.5 49.5
c-24.667 0 -48.834 -17.5 -72.501 -52.5s-35.5 -68.833 -35.5 -101.5z" />
    <glyph glyph-name="colon" unicode=":" horiz-adv-x="170" 
d="M134 60c0 -17.333 -5.49707 -32.499 -16.4971 -45.499s-24.5 -19.5 -40.5 -19.5c-12 0 -21.333 5.66699 -28 17s-10.334 24.666 -11.001 39.999c-0.666992 18 5.16602 34.167 17.499 48.5s27.166 21.5 44.499 21.5c22.667 0 34 -20.667 34 -62zM137.003 272.001
c0 -18 -5.33008 -33.501 -15.9971 -46.501s-24.334 -19.5 -41.001 -19.5c-12 0 -21.667 6.33301 -29 19c-6 10.667 -9.33301 23.334 -10 38.001c-0.666992 18.667 5.16602 35.167 17.499 49.5s27.166 21.5 44.499 21.5c22.667 0 34 -20.667 34 -62z" />
    <glyph glyph-name="semicolon" unicode=";" horiz-adv-x="170" 
d="M140 32c2 -24.667 -4.16797 -47.5 -18.501 -68.5s-33.166 -31.5 -56.499 -31.5c-24 0 -36 8 -36 24c0 10 8.66699 16 26 18c12 0.666992 17.667 6.66699 17 18c-26.667 2.66699 -40 20 -40 52c0 14.667 5.83301 26.667 17.5 36s25.5 14 41.5 14
c30 0 46.333 -20.667 49 -62zM132.999 272c0 -18 -5.49805 -33.501 -16.498 -46.501s-24.5 -19.5 -40.5 -19.5c-12 0 -21.667 6.33301 -29 19c-6 10.667 -9.33301 23.334 -10 38.001c-0.666992 18.667 5.16602 35.167 17.499 49.5s27.166 21.5 44.499 21.5
c22.667 0 34 -20.667 34 -62z" />
    <glyph glyph-name="less" unicode="&#x3c;" horiz-adv-x="350" 
d="M237 313c-10 -10 -29.001 -34.0039 -57.001 -72.0039l-63 -88c6.66699 -5.33301 18 -13.333 34 -24c12 -7.33301 56 -30.333 132 -69c22.667 -11.333 34 -24 34 -38c0 -10.667 -4 -19.667 -12 -27s-17 -10.666 -27 -9.99902c-22 2.66699 -47 13.334 -75 32.001l-82 56
l-60 29c-22 11.333 -33 26 -33 44c0 10.667 5 20.334 15 29.001c15.333 12.667 24 20.667 26 24l51 78c14.667 17.333 37.334 46 68.001 86c26 35.333 50.667 53 74 53c7.33301 0 14 -3.16699 20 -9.5s9 -13.166 9 -20.499c0 -23.333 -7 -40.333 -21 -51z" />
    <glyph glyph-name="equal" unicode="=" horiz-adv-x="423" 
d="M34 244c0 20.667 19.668 34.667 59.001 42c7.33301 2 17.166 1.66699 29.499 -1s21.166 -4 26.499 -4c24.667 0 56 3.16699 94 9.5s65.667 9.5 83 9.5c41.333 0 62 -14.667 62 -44c0 -30 -18.667 -45 -56 -45c-5.33301 0 -12.666 0.333008 -21.999 1s-16.333 1 -21 1
c-22 0 -44.667 -1.5 -68 -4.5s-46 -4.5 -68 -4.5c-4 0 -12.333 -0.333008 -25 -1s-22.667 -1 -30 -1c-42.667 0 -64 14 -64 42zM377.001 117c0 -20 -18.667 -33.333 -56 -40c-7.33301 -1.33301 -16.333 -1 -27 1c-12.667 2.66699 -22 4 -28 4c-22.667 0 -52 -3 -88 -9
s-62.333 -9 -79 -9c-39.333 0 -59 14 -59 42c0 28.667 18 43 54 43c4.66699 0 11.5 -0.333008 20.5 -1s15.5 -1 19.5 -1c21.333 0 43 1.5 65 4.5s43.333 4.5 64 4.5c4 0 11.833 0.333008 23.5 1s21.167 1 28.5 1c41.333 0 62 -13.667 62 -41z" />
    <glyph glyph-name="greater" unicode="&#x3e;" horiz-adv-x="356" 
d="M111 93c9.33301 9.33301 27.999 32.998 55.999 70.998l64 89c-7.33301 4.66699 -18.666 12.334 -33.999 23.001c-12.667 7.33301 -57 30.333 -133 69c-22 11.333 -33 24 -33 38c0 10.667 4 19.834 12 27.501s16.667 10.834 26 9.50098c22 -2.66699 47.667 -13 77 -31
l80 -56l62 -31c20.667 -10.667 31 -25 31 -43c0 -10 -5 -19.333 -15 -28c-15.333 -13.333 -24 -21.666 -26 -24.999l-51 -78c-14 -16.667 -36.667 -45.334 -68 -86.001c-26 -35.333 -50.667 -53 -74 -53c-7.33301 0 -13.833 3.16699 -19.5 9.5s-8.5 13.166 -8.5 20.499
c0 23.333 6.66699 40.333 20 51z" />
    <glyph glyph-name="question" unicode="?" horiz-adv-x="369" 
d="M334 523c0.666992 -30 -5.32812 -61.998 -17.9951 -95.998c-10 -24.667 -29.667 -47.667 -59 -69c-13.333 -9.33301 -39 -24.333 -77 -45c-26.667 -14 -41.334 -25 -44.001 -33c-1.33301 -3.33301 -2 -7 -2 -11c0 4 3.33301 -7.66699 10 -35
c3.33301 -12.667 10.166 -28 20.499 -46s17.166 -33.333 20.499 -46c8 -26 5.33301 -43.667 -8 -53c-6 -4 -13 -6 -21 -6c-16.667 0 -27.667 6.66699 -33 20c-10 26.667 -19 56 -27 88c-2 7.33301 -8 23 -18 47c-8 18.667 -12 34 -12 46c0 10 2.33301 19.667 7 29
c10 20.667 28 35.667 54 45c17.333 6.66699 34.666 13 51.999 19c65.333 48 98 101 98 159c0 25.333 -4.33301 46.666 -13 63.999c-10 22 -24.333 33 -43 33c-24.667 0 -50.334 -5.66699 -77.001 -17s-40 -23.333 -40 -36c0 -9.33301 3 -21.333 9 -36s9 -27 9 -37
c0 -14.667 -1.33301 -24.667 -4 -30c-5.33301 -9.33301 -16.333 -14 -33 -14c-36 0 -54 37.333 -54 112c0 39.333 19.333 70.666 58 93.999c33.333 20 73 30 119 30c48 0 82 -18.667 102 -56c14 -26.667 22 -66.667 24 -120zM186.005 76.002
c12.667 0 23.6699 -3.83203 33.0029 -11.499s14.666 -17.5 15.999 -29.5c0.666992 -14 -2.83301 -25.667 -10.5 -35s-17.834 -15 -30.501 -17c-13.333 -1.33301 -25.5 2.16699 -36.5 10.5s-16.833 19.166 -17.5 32.499s3.66602 25 12.999 35s20.333 15 33 15z" />
    <glyph glyph-name="at" unicode="@" horiz-adv-x="587" 
d="M380 99c0 -25.333 -17.667 -37.998 -53 -37.998c-6 0 -16.333 0.333008 -31 1s-26.334 1 -35.001 1c-71.333 0 -127.333 27 -168 81c-36 48.667 -53.333 109 -52 181c1.33301 68.667 28.5 129.334 81.5 182.001s113.167 79 180.5 79c58.667 0 113.667 -18.333 165 -55
c56.667 -41.333 85 -90.666 85 -147.999c0 -54.667 -17.333 -105.334 -52 -152.001c-30 -41.333 -64 -62 -102 -62c-8 0 -14.667 1.33301 -20 4c-11.333 4.66699 -27.333 13.667 -48 27c-20.667 -18 -46 -27 -76 -27c-28.667 0 -52.167 9.66699 -70.5 29
s-27.166 42.666 -26.499 69.999c1.33301 54 17.166 100 47.499 138s67.833 57 112.5 57c8 0 26.333 -6.33301 55 -19c10.667 8.66699 21.667 11.667 33 9c15.333 -4 23 -16 23 -36c0 -6 -4 -18.333 -12 -37c-10 -22.667 -16.333 -39 -19 -49
c-12.667 -46.667 -19 -76.334 -19 -89.001c0 -18 7.33301 -27 22 -27c18.667 0 37.5 17.667 56.5 53s27.167 69.666 24.5 102.999c-3.33301 44.667 -19.666 80.667 -48.999 108s-68.333 41 -117 41c-56 0 -105.333 -21.833 -148 -65.5s-63.667 -92.167 -63 -145.5
c0.666992 -56 13 -100.667 37 -134c28.667 -38.667 71 -58.334 127 -59.001c23.333 0.666992 46.333 1 69 1c28 -1.33301 42 -8.66602 42 -21.999zM303 408.002c-24 -0.666992 -45.668 -17.335 -65.001 -50.002c0.666992 -3.33301 1 -9 1 -17c-2 -6 -5.5 -11.667 -10.5 -17
s-8.16699 -9.33301 -9.5 -12c-6 -16 -8.66699 -27.333 -8 -34c0 -15.333 6.33301 -27.166 19 -35.499s27.334 -11.833 44.001 -10.5c30.667 2 48 23.667 52 65v19c0.666992 4.66699 3 10.834 7 18.501s6 14.167 6 19.5c0 37.333 -12 55.333 -36 54z" />
    <glyph glyph-name="A" unicode="A" horiz-adv-x="527" 
d="M467 -30c-20.667 0 -33.832 11.665 -39.499 34.998s-13.834 51.333 -24.501 84c-14 38.667 -23.333 67 -28 85c-7.33301 22 -18 58.333 -32 109c-2.66699 9.33301 -6 24 -10 44c-101.333 0 -124.666 0.333008 -69.999 1c-27.333 0 -50 -3 -68 -9
c-7.33301 -20.667 -16.333 -51.667 -27 -93c-13.333 -52 -23 -88.333 -29 -109c-8.66699 -30 -24 -76.333 -46 -139c-6 -14 -15.667 -21 -29 -21c-10 0 -18.833 3.16699 -26.5 9.5s-11.5 14.5 -11.5 24.5c0 7.33301 4 21 12 41l17 43
c8.66699 25.333 18.334 59.333 29.001 102s20.667 77.334 30 104.001l10 32c-2.66699 0 -7 -0.666992 -13 -2s-10.333 -2 -13 -2c-13.333 0 -20.666 11 -21.999 33c-1.33301 16.667 8 30 28 40c13.333 6.66699 27.333 7.33398 42 2.00098c19.333 52 35.333 99.333 48 142
c7.33301 26 17.666 68 30.999 126c-18.667 16 -26.667 31.667 -24 47c3.33301 21.333 15 33.333 35 36c19.333 2 34.666 -14 45.999 -48l57 -170l44 -121h28c4.66699 0.666992 8.66699 1 12 1c13.333 0 22 -8.66699 26 -26c4 -14.667 -0.333008 -27 -13 -37
c-10 -8 -21 -11 -33 -9c4 -22 12 -57.333 24 -106c6.66699 -18 21 -53.333 43 -106c16 -38.667 25.333 -65.667 28 -81c3.33301 -26 0.666016 -43.667 -8.00098 -53c-5.33301 -6 -13 -9 -23 -9zM263.002 520.998c-10.667 -29.333 -25.667 -74 -45 -134h44
c-3.33301 0 14 1.33301 52 4c-12 28.667 -29 72 -51 130z" />
    <glyph glyph-name="B" unicode="B" horiz-adv-x="457" 
d="M146 691l19.001 1c84 4.66699 148.333 -12.666 193 -51.999c42 -35.333 62.667 -84 62 -146c0 -55.333 -26.333 -105 -79 -149l-13 -10l12 -15c30 -38 50.333 -67.667 61 -89c14.667 -29.333 22 -60 22 -92c0 -47.333 -15 -84.666 -45 -111.999
c-33.333 -30 -81 -43.333 -143 -40c-13.333 1.33301 -43 2.66602 -89 3.99902c-2 -4.66699 -5.66699 -10.334 -11 -17.001c-14.667 -13.333 -26.334 -20 -35.001 -20c-18 0 -29.333 14.333 -34 43c-0.666992 4 -0.666992 9.33301 0 16c1.33301 8 2 13.333 2 16
c-4 2 -9.66699 5.66699 -17 11c-16.667 11.333 -25 22.333 -25 33c0 18 7 28.333 21 31c-3.33301 -0.666992 3 -1 19 -1l3 175c-7.33301 8.66699 -11 18 -11 28c0 4 1.66699 9 5 15s5.33301 10 6 12l-2 261c-15.333 8 -22.333 21.333 -21 40
c1.33301 12.667 8.33301 23 21 31c0 5.33301 0.666992 12 2 20c5.33301 18 16.333 28 33 30c24 2.66699 38.667 -5.33301 44 -24zM141.001 355c8 2 20.333 4.66797 37 8.00098c11.333 0 30 1.33301 56 4c35.333 8 63 24.333 83 49s29.667 53.667 29 87
c0 30 -9.66699 55.667 -29 77c-17.333 19.333 -35.333 30.666 -54 33.999c-6 0 -15.667 0.666992 -29 2c-4.66699 2.66699 -11.667 6 -21 10c-0.666992 0 -12.667 -1 -36 -3l-35 -3zM137.001 74.001c13.333 -14.667 46.668 -21.335 100.001 -20.002
c34.667 0.666992 59.667 4.66699 75 12c21.333 10.667 35.333 31.334 42 62.001c1.33301 8.66699 -1.33398 25.334 -8.00098 50.001c-22 81.333 -59.667 125 -113 131c-22.667 2.66699 -46.667 -0.333008 -72 -9l-21 -7z" />
    <glyph glyph-name="C" unicode="C" horiz-adv-x="568" 
d="M473 534c-7.33301 0 -13.666 2.83398 -18.999 8.50098s-10.333 11.5 -15 17.5l-28 41c-12.667 13.333 -37.334 20 -74.001 20c-59.333 0 -113.5 -32.5 -162.5 -97.5s-73.5 -135.5 -73.5 -211.5c0 -82.667 10 -143.667 30 -183c22.667 -46 60.334 -69 113.001 -69
c120.667 0 195.667 65 225 195c5.33301 22.667 16 34 32 34c24 0 36 -9.66699 36 -29c0 -68 -26 -128.667 -78 -182c-56.667 -59.333 -127.334 -89 -212.001 -89c-88.667 0 -149 35.667 -181 107c-19.333 44 -30 117.333 -32 220c-2 97.333 25.333 183 82 257
c60 76.667 135 115 225 115c70.667 0 124 -29.333 160 -88c8.66699 -14.667 13 -27.334 13 -38.001c0 -18.667 -13.667 -28 -41 -28z" />
    <glyph glyph-name="D" unicode="D" horiz-adv-x="530" 
d="M141 692c4.66699 0 13.332 -0.331055 25.999 -0.998047c8 -0.666992 34.667 -7.33398 80 -20.001c92 -26.667 158 -71.667 198 -135c28.667 -46 43 -100 43 -162c0 -70.667 -12.667 -135 -38 -193c-28 -62.667 -68.333 -110.334 -121 -143.001
c-39.333 -24.667 -102.333 -39.334 -189 -44.001l-20 -1c-6.66699 -11.333 -17.667 -16.666 -33 -15.999c-20 0.666992 -30 18.667 -30 54c-14 2 -21 10.667 -21 26c0 12 8.66699 21.333 26 28c0 97.333 1 186 3 266c2.66699 20 5.66699 49 9 87
c0.666992 32.667 3 84.667 7 156v31c-5.33301 0 -11.666 2 -18.999 6c-13.333 6.66699 -20 15.667 -20 27c0 7.33301 4 13 12 17s15.667 7.33301 23 10c5.33301 6.66699 8.66602 10.667 9.99902 12c4.66699 4 11 6.33301 19 7c14.667 1.33301 26.334 -2.66699 35.001 -12z
M148.998 624.002c0 10 -3.00098 -52.3311 -9.00098 -186.998c-3.33301 -34 -7 -89 -11 -165v-72c0 -2 -1.33301 -31.667 -4 -89c-0.666992 -22.667 5.33301 -37.334 18 -44.001c6.66699 -3.33301 24 -5 52 -5c32.667 0 66.334 12 101.001 36c80 55.333 120 141.333 120 258
c0 47.333 -7 88 -21 122c-26 61.333 -84 105.666 -174 132.999c-14.667 4 -34 7.66699 -58 11c-1.33301 0 -3.5 0.333008 -6.5 1s-5.5 1 -7.5 1z" />
    <glyph glyph-name="E" unicode="E" horiz-adv-x="438" 
d="M381 634h-52.9971c-12.667 -2.66699 -33 -6.33398 -61 -11.001l-109 -20c-8 -73.333 -12 -141 -12 -203c21.333 0 51.666 -1 90.999 -3c13.333 -0.666992 33.333 -3 60 -7c24 -4 43 -6 57 -6c10.667 0 20.5 -3.5 29.5 -10.5s13.167 -15.833 12.5 -26.5
c-0.666992 -8.66699 -4.83398 -16.167 -12.501 -22.5s-16.167 -9.5 -25.5 -9.5c-18.667 0 -46.667 3.66699 -84 11c-33.333 6 -61.666 8.33301 -84.999 7c-9.33301 0 -24.333 -2.33301 -45 -7c-6 -18 -11.333 -56 -16 -114c2 -27.333 1.66699 -70 -1 -128
c-1.33301 -4 -3.66602 -10 -6.99902 -18c30.667 -2.66699 67 -3.66699 109 -3c16 0.666992 36.5 3.33398 61.5 8.00098s44.167 7 57.5 7c31.333 0 47.666 -10.333 48.999 -31c0.666992 -10.667 -3.33301 -20 -12 -28s-18 -12 -28 -12c-8.66699 0 -21.667 0.333008 -39 1h-42
c-56 0 -97.667 -0.666992 -125 -2c-8.66699 -2 -21.667 -5.33301 -39 -10c-1.33301 -20.667 -11.333 -31 -30 -31c-8.66699 0 -16.334 3.16699 -23.001 9.5s-10 13.833 -10 22.5c-12 2.66699 -19.333 11.334 -22 26.001c-1.33301 8.66699 1.66699 17.667 9 27
c6 7.33301 12 12 18 14l23 267c-14.667 6 -22 17 -22 33c0 14 9.33301 25.333 28 34l2 195c-14.667 5.33301 -22 15 -22 29c0 17.333 9.66699 30.666 29 39.999c-2 8 -3 13.333 -3 16c1.33301 19.333 8.66602 29 21.999 29c10 0 18.667 -4.33301 26 -13
c11.333 -14.667 17.666 -22.334 18.999 -23.001c20.667 2.66699 54 8.33398 100 17.001c22.667 6.66699 45.5 13 68.5 19s43.167 8.33301 60.5 7c22 -2.66699 35 -13 39 -31c2.66699 -11.333 -0.666016 -22 -9.99902 -32s-20.333 -15.667 -33 -17z" />
    <glyph glyph-name="F" unicode="F" horiz-adv-x="413" 
d="M358 625c-10.667 0.666992 -28.335 0.671875 -53.002 0.00488281l-61 -10c-30 -5.33301 -65.667 -8 -107 -8c-5.33301 -49.333 -8.66602 -87.333 -9.99902 -114c-1.33301 -34.667 -2 -67.334 -2 -98.001c22.667 -0.666992 52.667 -1 90 -1
c15.333 0 35.333 1.16699 60 3.5s43.334 3.5 56.001 3.5c11.333 0 21.166 -3.5 29.499 -10.5s12.5 -15.833 12.5 -26.5c-0.666992 -9.33301 -4.83398 -17 -12.501 -23s-16.167 -9 -25.5 -9c-13.333 0 -32.333 0.333008 -57 1c-22 0.666992 -39 1 -51 1
c-18.667 -0.666992 -37.334 -2.33398 -56.001 -5.00098c-10.667 0 -26.667 -2.66699 -48 -8c-6.66699 -18 -12 -56.333 -16 -115c2 -25.333 1.66699 -66 -1 -122c0.666992 -18 -1.66602 -46.667 -6.99902 -86c-4 -16 -16.333 -24 -37 -24
c-19.333 0 -30.666 7.66699 -33.999 23c-1.33301 9.33301 -1.33301 20.333 0 33c2.66699 20.667 4.33398 32 5.00098 34c3.33301 62.667 11 149.667 23 261c-14.667 3.33301 -22 14.666 -22 33.999c0 13.333 9.33301 24.666 28 33.999l2 204c-14.667 5.33301 -22 15 -22 29
c0 17.333 9.66699 30.666 29 39.999c-1.33301 6.66699 -2 12 -2 16c2.66699 14.667 12.667 22 30 22c21.333 0 33.333 -9.66699 36 -29c50 0 82.667 1.66699 98 5l68 18.5c23.333 6.33301 43.666 8.5 60.999 6.5c22 -2 35 -12 39 -30
c2.66699 -12 -0.666016 -22.833 -9.99902 -32.5s-20.333 -15.5 -33 -17.5z" />
    <glyph glyph-name="G" unicode="G" horiz-adv-x="701" 
d="M512 553c-6.66699 0 -16 6.66699 -28 20c-14 16 -22.667 24.667 -26 26l-52 26c-20 7.33301 -48.333 10.333 -85 9c-65.333 -2.66699 -119 -34 -161 -94s-62 -135.667 -60 -227c2 -79.333 18 -141.166 48 -185.499s72.333 -66.5 127 -66.5c65.333 0 118 19.667 158 59
c29.333 28.667 54.333 72.667 75 132l-40 -14c-38.667 -16.667 -64.334 -27.334 -77.001 -32.001c-6 -2 -12 -3 -18 -3c-18 0 -31 8.33301 -39 25c-4.66699 9.33301 -4.66699 20 0 32s12.334 19.333 23.001 22l140 42c77.333 22 127.333 32.667 150 32
c7.33301 -0.666992 14.333 -5 21 -13s10 -16.333 10 -25c0 -7.33301 -2.33301 -13.333 -7 -18c-9.33301 -8 -26 -14.333 -50 -19l-36 -7c-10 -72 -41.333 -136 -94 -192c-60.667 -63.333 -132.334 -95 -215.001 -95c-86 0 -150.667 35.667 -194 107
c-36 58.667 -54 134.667 -54 228c0 102 27 190 81 264c58.667 80 132 117.333 220 112c61.333 -3.33301 98 -6.33301 110 -9c42.667 -8 74.334 -24.333 95.001 -49c12 -15.333 18 -32.333 18 -51c0 -24 -13.333 -36 -40 -36z" />
    <glyph glyph-name="H" unicode="H" horiz-adv-x="540" 
d="M508 69l-2.00098 -54.002c-4 -19.333 -16.667 -30.666 -38 -33.999c-22 -3.33301 -34.333 8.66699 -37 36c-2 19.333 -3 39.666 -3 60.999c0 18.667 1.16699 47.334 3.5 86.001s3.5 69 3.5 91c0 14 -0.333008 28 -1 42l-2 42h-107c-6.66699 0 -22.667 0.333008 -48 1
c-22 1.33301 -40.333 1.66602 -55 0.999023c-28 -0.666992 -58.333 -2 -91 -4l-3 -32c-2 -31.333 -3 -116 -3 -254c0 -47.333 -13.333 -71 -40 -71c-13.333 0 -23.666 7 -30.999 21s-10 29 -8 45c10 81.333 15 134 15 158c0 40 -2.66699 80.333 -8 121
c-21.333 4 -31.333 17.667 -30 41c1.33301 21.333 12 33 32 35c0 31.333 -0.333008 81.666 -1 150.999c0 8.66699 0.333008 21.667 1 39c2 20.667 3 34.667 3 42c0.666992 24 3 41 7 51c6 14 17 20.333 33 19c26 -1.33301 39 -18.666 39 -51.999
c0 -9.33301 -1.33301 -23.333 -4 -42c-2.66699 -20.667 -4.33398 -34.667 -5.00098 -42c-3.33301 -60 -4.66602 -113 -3.99902 -159c20.667 -2.66699 45.667 -3 75 -1c41.333 3.33301 68 5 80 5c44.667 0 97 -1.33301 157 -4c0 26 -0.333008 56.833 -1 92.5
s-1 65.834 -1 90.501c0 36 2 61.667 6 77c8 26 23.333 39 46 39c20.667 0 31 -13.333 31 -40c0 6.66699 -2.66699 -16 -8 -68c-5.33301 -56.667 -8 -122.667 -8 -198c4.66699 -5.33301 9.66699 -14.666 15 -27.999c0.666992 -16 -4.33301 -28 -15 -36
c6.66699 -64 9 -153.333 7 -268z" />
    <glyph glyph-name="I" unicode="I" horiz-adv-x="360" 
d="M22 652c0 16 4.99707 25.3281 14.9971 27.9951c0.666992 0.666992 10.334 1 29.001 1c52 0.666992 81.667 0.666992 89 0c6 12 16 18.667 30 20c16.667 2 29.667 -2.66699 39 -14c18.667 -0.666992 38.334 -0.666992 59.001 0c14.667 0.666992 27.834 -2.33301 39.501 -9
s16.834 -16.667 15.501 -30s-16 -23.666 -44 -30.999c-12.667 -3.33301 -34.667 -1.33301 -66 6c-8 -68.667 -12 -105 -12 -109c0 -39.333 2 -90.166 6 -152.499s6 -113.5 6 -153.5v-140c3.33301 0.666992 12 3.33398 26 8.00098
c9.33301 2.66699 17.666 3.33398 24.999 2.00098c33.333 -6 50 -18.333 50 -37s-13.333 -31 -40 -37c-4 -0.666992 -20.667 1.66602 -50 6.99902c-2 -1.33301 -9.33301 -7 -22 -17c-8 -6 -16 -9 -24 -9c-15.333 0 -28.333 5 -39 15c-22.667 -11.333 -49 -17 -79 -17
c-29.333 0 -45 10.667 -47 32c-0.666992 11.333 4.16602 20.666 14.499 27.999s21.833 11 34.5 11c38 0 64 0.666992 78 2c2 30 4.66699 78.667 8 146c0.666992 20.667 1 41.334 1 62.001c0 28.667 -1.16699 69.834 -3.5 123.501s-3.5 97.834 -3.5 132.501v107
c-25.333 -7.33301 -50.666 -11.333 -75.999 -12c-20.667 -0.666992 -34 0 -40 2c-12.667 4 -19 15.667 -19 35z" />
    <glyph glyph-name="J" unicode="J" horiz-adv-x="470" 
d="M395 632c-1.33301 -0.666992 -11.999 -1 -31.999 -1c-13.333 0 -23.333 -3.16699 -30 -9.5s-11 -37.833 -13 -94.5l-4 -156c1.33301 -42.667 -0.333984 -106.334 -5.00098 -191.001c-8.66699 -56.667 -25 -102.334 -49 -137.001c-28.667 -42 -65.667 -63 -111 -63
c-30.667 0 -59.834 13.333 -87.501 40s-41.5 54 -41.5 82c0 31.333 13.667 63.5 41 96.5s48.666 46.5 63.999 40.5c17.333 -6 26.333 -19.667 27 -41c0 -14 -9.83301 -30.5 -29.5 -49.5s-29.5 -33.167 -29.5 -42.5c0 -35.333 19 -53 57 -53c37.333 0 63 31.667 77 95
c8.66699 36.667 14.334 78.667 17.001 126l6 137l10 197l-23 -3c-36 -4.66699 -62 -7 -78 -7c-8 0 -14.833 3.83301 -20.5 11.5s-7.83398 16.167 -6.50098 25.5c2 18 12.333 27 31 27c6 0 15.667 -1 29 -3c11.333 -2 21.333 -2.66699 30 -2l47 14
c-2.66699 8 -1.66699 15.667 3 23s11.334 11.333 20.001 12c18 2.66699 28 -4.66602 30 -21.999l22 5l35.5 11.5c11.667 3.66699 22.834 4.83398 33.501 3.50098c20 -2.66699 30 -10.667 30 -24c0 -16.667 -4.66699 -28.667 -14 -36
c-6.66699 -5.33301 -18.667 -9.33301 -36 -12z" />
    <glyph glyph-name="K" unicode="K" horiz-adv-x="423" 
d="M121 567c-1.33301 -16 -3.33301 -64.6709 -6 -146.004l19 14c-2.66699 3.33301 -4 7 -4 11c0 8.66699 4.16699 16 12.5 22s16.833 9 25.5 9s14.334 -3.33301 17.001 -10c10.667 14.667 26.667 38.667 48 72c25.333 44 46 86 62 126c6 15.333 18.333 22.333 37 21
c8.66699 0 16.334 -3 23.001 -9s9.66699 -13 9 -21c-2 -28.667 -26 -77.667 -72 -147c-24 -35.333 -50.667 -66.666 -80 -93.999c15.333 -28.667 39 -76 71 -142c12.667 -29.333 32.667 -65.666 60 -108.999c25.333 -41.333 44.666 -78.666 57.999 -111.999
c1.33301 -3.33301 2 -7 2 -11c0 -8.66699 -3.33301 -16.5 -10 -23.5s-14.667 -10.5 -24 -10.5c-20.667 1.33301 -45 28.333 -73 81c-16 28 -39.333 78.333 -70 151c-9.33301 22 -20.666 44.667 -33.999 68c-24.667 42.667 -37 64.667 -37 66c-5.33301 -6 -13 -13 -23 -21
c-4.66699 -4 -11.334 -9 -20.001 -15c0.666992 -25.333 2 -65.666 4 -120.999c0 -16.667 1.33301 -49.667 4 -99c1.33301 -36.667 2 -68 2 -94c0 -30 -10 -45 -30 -45c-29.333 0 -44 13.333 -44 40c0 20 0.5 42.833 1.5 68.5s1.5 46.5 1.5 62.5
c0 21.333 0.333008 48.333 1 81s1 59.667 1 81c-8 0 -15.167 2.66699 -21.5 8s-9.5 11.666 -9.5 18.999s4.33301 15 13 23l21 18c1.33301 96.667 2 160.667 2 192c0 12 -0.333008 28 -1 48v48c0 30 11.333 46.333 34 49c26 2.66699 39 -15.666 39 -54.999
c0 -11.333 -1.33301 -27 -4 -47c-2.66699 -26 -4.33398 -41.667 -5.00098 -47z" />
    <glyph glyph-name="L" unicode="L" horiz-adv-x="517" 
d="M436 -9c-24.667 3.33301 -67.335 11.999 -128.002 25.999c-52 12.667 -96.333 20.334 -133 23.001c-7.33301 0.666992 -15.333 0.333984 -24 -0.999023c-12.667 -2 -21 -3 -25 -3c-2 -30 -16.667 -45 -44 -45c-14 0 -21 9.66699 -21 29
c-10 -0.666992 -18.833 2.5 -26.5 9.5s-11.5 15.5 -11.5 25.5c0 9.33301 5.66699 17 17 23c10 4 19.667 7.66699 29 11c16.667 96 24.667 192 24 288c-0.666992 43.333 -5 93.666 -13 150.999c-5.33301 41.333 -11 82.666 -17 123.999c-1.33301 12.667 2.5 25 11.5 37
s19.833 17.333 32.5 16c17.333 -1.33301 29.333 -15.666 36 -42.999c1.33301 -6 1.33301 -13.333 0 -22c-2 -10 -2.66699 -17.667 -2 -23c0 -0.666992 4 -44 12 -130c4.66699 -48.667 7 -93.334 7 -134.001c0 -37.333 -2.66699 -78.333 -8 -123
c-7.33301 -65.333 -11.666 -106.666 -12.999 -123.999c30.667 -5.33301 81.334 -13.333 152.001 -24c30 -2 80.333 -7.66699 151 -17c42 -7.33301 59.667 -22.333 53 -45c-6 -21.333 -18.667 -32 -38 -32c-4 0 -11 1 -21 3z" />
    <glyph glyph-name="M" unicode="M" horiz-adv-x="672" 
d="M207 597c5.33301 -6 11.3301 -16.666 17.9971 -31.999c0.666992 -6 2.66699 -15.333 6 -28c5.33301 -16.667 14 -37 26 -61c14.667 -29.333 24.334 -50 29.001 -62l80 -212c18 54.667 38 111.334 60 170.001c37.333 97.333 70 173.333 98 228c0 14 0.666992 35.667 2 65
c3.33301 32 17.333 48.667 42 50c29.333 1.33301 45.666 -14 48.999 -46c0.666992 -8 -1.33301 -16.667 -6 -26c-8 -13.333 -12.167 -22 -12.5 -26s-1.16602 -11.667 -2.49902 -23l-10 -26c0 -2 0.333008 -5 1 -9s1 -7.33301 1 -10c8 -53.333 19.333 -141.333 34 -264
c6.66699 -48 14 -130.333 22 -247c1.33301 -42 -8.66699 -63 -30 -63c-12 0 -24 10 -36 30c-10.667 17.333 -15.334 31.666 -14.001 42.999c4.66699 35.333 7 65.666 7 90.999c0 28 -3 56 -9 84c-1.33301 6 -4.33301 15 -9 27c-4.66699 9.33301 -7 17.666 -7 24.999
c0 3.33301 1.16699 8.33301 3.5 15s3.83301 11.667 4.5 15c0.666992 8.66699 -0.666016 21 -3.99902 37c-5.33301 24.667 -8.33301 38.667 -9 42c-2 13.333 -4.66699 33.666 -8 60.999c-5.33301 -9.33301 -13.666 -25.666 -24.999 -48.999
c-27.333 -60.667 -51.333 -124.667 -72 -192c-8 -21.333 -20.333 -56.333 -37 -105c8 -10.667 11.333 -23.667 10 -39c-2 -24.667 -13.667 -38.667 -35 -42c-20.667 -3.33301 -37 7 -49 31c-0.666992 8 -2.33398 20.667 -5.00098 38c-6.66699 42.667 -19.667 90 -39 142
l-55 137l-45 115l-28 -160c-2.66699 -14.667 -11 -52 -25 -112c-8.66699 -40.667 -14.334 -77.667 -17.001 -111c0 -14 -0.833008 -37 -2.5 -69s-14.167 -48 -37.5 -48c-11.333 0 -21.166 4 -29.499 12s-13.166 17.667 -14.499 29c0 6.66699 1.66699 13.667 5 21
c4 10 6.33301 16.333 7 19l53 264l30 133c10 46.667 15 92 15 136c0 4 -3.66699 15.333 -11 34s-11 33.334 -11 44.001c0 26.667 8.33301 41.667 25 45c22 4 38.667 -9.66699 50 -41c2.66699 -7.33301 8.33398 -34 17.001 -80z" />
    <glyph glyph-name="N" unicode="N" horiz-adv-x="508" 
d="M440 709c11.333 0 20.998 -5.33594 28.998 -16.0029s12.333 -22.667 13 -36c0.666992 -14 -1.83301 -31 -7.5 -51s-8.66699 -36.167 -9 -48.5s-2.33301 -29.166 -6 -50.499s-5.16699 -38 -4.5 -50c0.666992 -41.333 -2.66602 -92.333 -9.99902 -153
c-8 -64.667 -12 -115.334 -12 -152.001c0 -11.333 -2 -25.166 -6 -41.499s-6 -30.166 -6 -41.499c13.333 -16.667 20.333 -33.667 21 -51c-1.33301 -28 -8.33301 -43.667 -21 -47c-4.66699 -1.33301 -9.33398 -2 -14.001 -2c-23.333 0 -38.666 9.33301 -45.999 28l-44 105
c-8.66699 19.333 -18.167 46.666 -28.5 81.999s-20.166 63 -29.499 83c-2 5.33301 -28 67.666 -78 186.999l-37 -202c-6 -27.333 -15 -78 -27 -152l-2 -57c-1.33301 -25.333 -6 -43.333 -14 -54c-10.667 -13.333 -22.334 -19.333 -35.001 -18
c-9.33301 0 -17.5 4.83301 -24.5 14.5s-9.83301 19.834 -8.5 30.501c-0.666992 4.66699 1.83301 10.834 7.5 18.501s8.5 11.834 8.5 12.501c0.666992 38 5.33398 77.667 14.001 119c13.333 63.333 21 101.333 23 114c6.66699 53.333 17.667 136 33 248
c5.33301 13.333 11 32.333 17 57l-27 50c-6.66699 14 -10 25.667 -10 35c0 27.333 9.66699 41 29 41c6 0 12 -2.33301 18 -7c4 -4 8 -7.66699 12 -11c4.66699 4 13.334 8.33301 26.001 13c17.333 1.33301 27.333 -6 30 -22c6.66699 -22.667 2.66699 -56.667 -12 -102
l56 -137c21.333 -58.667 56.333 -148.667 105 -270c0 31.333 4.16699 72.166 12.5 122.499s12.166 91.5 11.499 123.5c0 26.667 2.66699 61.167 8 103.5s8 74.5 8 96.5c0 10.667 -0.333008 21.334 -1 32.001c-2.66699 37.333 10 56 38 56z" />
    <glyph glyph-name="O" unicode="O" horiz-adv-x="628" 
d="M573 527c7.33301 -22.667 13.3369 -75.3311 18.0039 -157.998c4 -80 -16 -158.333 -60 -235c-36 -62 -72.333 -103.667 -109 -125c-31.333 -17.333 -69 -26.666 -113 -27.999c-36 -0.666992 -81.333 12.666 -136 39.999c-16.667 8 -33.334 16.5 -50.001 25.5
s-29.334 21.833 -38.001 38.5c-2 5.33301 -5.5 12.666 -10.5 21.999s-11.833 24.333 -20.5 45c-17.333 42.667 -26 84.667 -26 126c0 98 26 187.667 78 269c65.333 102.667 148.333 154 249 154c45.333 0 89.666 -18.833 132.999 -56.5s71.666 -76.834 84.999 -117.501z
M96.0039 312.003c-0.666992 -12.667 -1.00098 -27.3311 -1.00098 -43.998c0 -41.333 10.167 -79 30.5 -113s49.166 -58.333 86.499 -73c8 -3.33301 17.333 -5 28 -5c4.66699 0 11 0.333008 19 1s13.667 1 17 1c12.667 0 21.834 -2.66699 27.501 -8
s10.834 -15.333 15.501 -30c24 1.33301 41.333 5 52 11c46.667 25.333 85.334 76.333 116.001 153c26.667 67.333 40 133.666 40 198.999c0 43.333 -10 85.666 -30 126.999c-15.333 29.333 -38.333 53.333 -69 72c-30 16.667 -60.667 25 -92 25
c-60.667 0 -116.334 -37.667 -167.001 -113c-44.667 -67.333 -69 -135 -73 -203z" />
    <glyph glyph-name="P" unicode="P" horiz-adv-x="502" 
d="M125 701l13.001 -22.001l14 3c36 8.66699 64 13 84 13c54 0 105 -18.333 153 -55c51.333 -39.333 76.666 -85.333 75.999 -138c-0.666992 -62.667 -22.667 -110.667 -66 -144c-31.333 -24 -81.666 -44 -150.999 -60l-67 -16l-5 -94
c-1.33301 -24.667 -2 -47.334 -2 -68.001c0 -8 0.666992 -22.333 2 -43c0.666992 -16 0.666992 -30.333 0 -43c-2.66699 -40 -17 -60 -43 -60c-25.333 0 -38 17 -38 51c0 16.667 1.83301 41.834 5.5 75.501s5.5 59.167 5.5 76.5c0 14.667 0.666992 32 2 52l3 52
c-21.333 2.66699 -31.333 15.667 -30 39c1.33301 17.333 11.666 28 30.999 32c0.666992 36.667 -2 74.334 -8 113.001l-26 106c-10 -6.66699 -20.667 -9.33398 -32 -8.00098c-20 3.33301 -30 14 -30 32c0 14 8 26.333 24 37c0.666992 0 8 2.66699 22 8
c-7.33301 12 -10 24.667 -8 38c3.33301 24.667 15 37.667 35 39c14 0.666992 26 -4.66602 36 -15.999zM182.001 352.999l25.999 2c53.333 4 97.333 17.667 132 41c41.333 28 60 63.333 56 106c-3.33301 38.667 -21.666 69.334 -54.999 92.001
c-30.667 21.333 -67 31.666 -109 30.999c-13.333 0 -33.333 -4 -60 -12l-25 -8c15.333 -76.667 27 -160.667 35 -252z" />
    <glyph glyph-name="Q" unicode="Q" horiz-adv-x="641" 
d="M357 684c6 -2.66699 12.833 -8.00391 20.5 -16.0039s13.834 -13 18.501 -15c6.66699 -4 27.334 -12.333 62.001 -25c25.333 -10 46.333 -21.667 63 -35c28.667 -24 48.334 -45.667 59.001 -65c14.667 -25.333 22 -58.666 22 -99.999c0 -130 -27 -237.667 -81 -323
l-22 -34l22 -12c4 -1.33301 12.333 -7.66602 25 -18.999c7.33301 -6 14.666 -11.667 21.999 -17c8 -7.33301 12 -15 12 -23c0 -28.667 -11.667 -43 -35 -43c-12.667 0 -25.334 4.5 -38.001 13.5l-36 26.5l-35 22c-42.667 -23.333 -87 -35 -133 -35
c-85.333 0 -153 30 -203 90c-45.333 54.667 -68 124 -68 208c0 94.667 26 186.334 78 275.001c57.333 97.333 122.666 144 195.999 140c18.667 -1.33301 35.667 -5.66602 51 -12.999zM164 522.996c-44 -92 -66.002 -179.667 -66.002 -263
c0 -55.333 18.833 -103.166 56.5 -143.499s83.167 -60.5 136.5 -60.5c32 0 54 4 66 12l-38 31c-12.667 10 -19 23.667 -19 41c0 26 11 39 33 39c14 0 30.333 -8.33301 49 -25l44 -39l21 20c10.667 9.33301 22.667 27 36 53c26 50 39.667 111.333 41 184
c0 7.33301 0.5 18.5 1.5 33.5s1.5 25.833 1.5 32.5c0 31.333 -7.16699 57.666 -21.5 78.999s-35.833 37 -64.5 47c-1.33301 0.666992 -26.333 7 -75 19c-12 2 -29.667 7 -53 15c-5.33301 2.66699 -10.666 5.5 -15.999 8.5s-9.33301 7.16699 -12 12.5
c-22.667 -0.666992 -45.167 -10 -67.5 -28s-40.166 -40.667 -53.499 -68z" />
    <glyph glyph-name="R" unicode="R" horiz-adv-x="505" 
d="M313 294c14.667 -46 29.3311 -87.498 43.998 -124.498l44 -109.5c2 -6 11 -25.333 27 -58c10 -21.333 15 -37 15 -47s-4 -18.833 -12 -26.5s-17 -11.5 -27 -11.5c-7.33301 0 -14.333 2.83301 -21 8.5s-10.667 12.167 -12 19.5c0.666992 5.33301 -0.333008 13 -3 23
c-7.33301 14.667 -17.333 38.334 -30 71.001c-17.333 47.333 -28.666 77 -33.999 89c-14 29.333 -34.667 77.333 -62 144c0 2 -1.33301 5.66699 -4 11h-16l-69 -4l-21 -91c-5.33301 -21.333 -10 -43.666 -14 -66.999c-2 -17.333 -6.66699 -45.666 -14 -84.999
c-9.33301 -38.667 -26.666 -56 -51.999 -52c-20.667 3.33301 -31 17.333 -31 42c0 10 1.66699 20 5 30c13.333 40 32.333 118.333 57 235c-15.333 4 -23 15 -23 33c0 24 12.333 36 37 36c8 43.333 12 81 12 113c0 14 -1.33301 32.167 -4 54.5s-4 40.166 -4 53.499
c-10.667 -4 -21.667 -4.33301 -33 -1c-16 5.33301 -24 13.666 -24 24.999c-4 17.333 6.33301 31.666 31 42.999c2 0 5.66699 0.833008 11 2.5s9.33301 2.5 12 2.5c-5.33301 13.333 -6 26.333 -2 39c6.66699 20.667 20.667 31 42 31c13.333 0 24.333 -7 33 -21
c5.33301 -9.33301 8 -17.333 8 -24l15 1c31.333 2 59.333 1 84 -3c48.667 -8.66699 92.667 -32.334 132 -71.001c42 -40.667 63 -85 63 -133c0 -8.66699 -0.666992 -17.334 -2 -26.001c-16 -83.333 -68.667 -134 -158 -152zM288.997 355.002
c71.333 16 109.001 50.668 113.001 104.001c3.33301 38.667 -9.33398 72 -38.001 100c-26.667 26 -60.667 42.333 -102 49c-9.33301 2 -19.333 2.33301 -30 1c-15.333 -2 -25.666 -3 -30.999 -3l-25 -3v-126c0 -11.333 -3.33301 -54.333 -10 -129l27 -2h25
c0 5.33301 -1 10.666 -3 15.999c0 13.333 8.33301 20 25 20c21.333 0 37.666 -9 48.999 -27z" />
    <glyph glyph-name="S" unicode="S" horiz-adv-x="457" 
d="M346 487c-4 6.66699 -6.6709 19.002 -8.00391 37.002s-4.66602 31.667 -9.99902 41c-21.333 38.667 -45 58 -71 58c-22.667 0 -48.667 -16.667 -78 -50c-31.333 -36 -45.333 -71.333 -42 -106c3.33301 -40 39.666 -87.333 108.999 -142c38.667 -30 64.667 -52.333 78 -67
c22 -24.667 33.333 -49.667 34 -75c0.666992 -56.667 -15.333 -103.834 -48 -141.501s-75 -56.5 -127 -56.5c-49.333 0 -88.666 13.667 -117.999 41c-28 25.333 -42 57.666 -42 96.999c0 6 0.333008 12 1 18c7.33301 64 23 96 47 96c11.333 0 22.5 -5.5 33.5 -16.5
s15.833 -22.5 14.5 -34.5c-1.33301 -11.333 -5.66602 -22.666 -12.999 -33.999s-10.333 -21.666 -9 -30.999c2 -18.667 11 -33.5 27 -44.5s34.667 -17.167 56 -18.5c29.333 -1.33301 53.833 9.33398 73.5 32.001s27.834 50 24.501 82
c-2.66699 19.333 -11.667 37.666 -27 54.999c-6 6.66699 -22.667 21.334 -50 44.001c-43.333 35.333 -75 64.666 -95 87.999c-30.667 36 -46 69.667 -46 101c0 56.667 23.333 111 70 163c44.667 49.333 86.667 73.666 126 72.999c68.667 -1.33301 119.334 -45 152.001 -131
c1.33301 -3.33301 6.66602 -12 15.999 -26c6.66699 -10 9.66699 -19.333 9 -28c-1.33301 -12.667 -6.16602 -23.834 -14.499 -33.501s-18.833 -14.5 -31.5 -14.5c-18 0 -31.667 8 -41 24z" />
    <glyph glyph-name="T" unicode="T" horiz-adv-x="581" 
d="M471 614c-10.667 0 -24.1641 0.832031 -40.4971 2.49902s-29.5 2.5 -39.5 2.5c-10.667 0 -24.667 -0.333008 -42 -1h-41c0 -2.66699 0.333008 -6.33398 1 -11.001v-10c0 -6.66699 -0.833008 -15 -2.5 -25l-3.5 -21c-1.33301 -20.667 -1.33301 -43.667 0 -69
c1.33301 -37.333 2 -60 2 -68c0 -18 1 -51 3 -99c0.666992 -37.333 0.666992 -70.333 0 -99c0 -12.667 -1.33301 -34 -4 -64c-2.66699 -24 -3.33398 -45.333 -2.00098 -64c0 -4 1.66699 -12.333 5 -25c2 -9.33301 2.33301 -17.666 1 -24.999c-6 -36 -19.333 -54 -40 -54
c-12 0 -22.167 4.16699 -30.5 12.5s-13.166 18.5 -14.499 30.5c0 4.66699 1.16699 10.667 3.5 18s3.83301 12.333 4.5 15c1.33301 16 2.66602 33 3.99902 51c7.33301 112.667 9.66602 209 6.99902 289c0 8.66699 -0.666992 22 -2 40c-1.33301 15.333 -2 28.666 -2 39.999
s1 28.666 3 51.999c1.33301 19.333 1.66602 36.333 0.999023 51c-0.666992 6.66699 -1.66699 17.334 -3 32.001c-16.667 -0.666992 -59 -4 -127 -10c-34.667 -2.66699 -49 -4 -43 -4c-12 0 -23 4 -33 12s-14.667 17.667 -14 29c1.33301 24 18.666 36 51.999 36
c8.66699 0 20 -1.5 34 -4.5s25.667 -4.5 35 -4.5c14 0 30 1 48 3c23.333 2.66699 39.333 4.33398 48 5.00098c4.66699 18.667 17.334 27.334 38.001 26.001c5.33301 0 10.333 -2.33301 15 -7l13 -13c33.333 -2.66699 67 -3 101 -1c10 0.666992 24.667 2.66699 44 6
c17.333 3.33301 32 5 44 5c38.667 0 57 -12 55 -36c-2 -28.667 -28 -43 -78 -43z" />
    <glyph glyph-name="U" unicode="U" horiz-adv-x="467" 
d="M383 695c10 0 18.998 -3.66406 26.998 -10.9971s11.667 -15.666 11 -24.999c-1.33301 -38.667 -0.333008 -93.334 3 -164.001c3.33301 -82 5 -142.333 5 -181c0 -138.667 -29.333 -235 -88 -289c-31.333 -28.667 -66.666 -42.334 -105.999 -41.001
c-58 2 -103.667 16.333 -137 43c-39.333 32 -60.666 85.333 -63.999 160c-3.33301 64.667 3.66699 130 21 196c8.66699 28.667 20.667 75.667 36 141c2.66699 17.333 7.33398 45.333 14.001 84c4 23.333 8.33301 43.666 13 60.999c5.33301 21.333 20.666 32 45.999 32
c26 0 40 -8.66699 42 -26c0.666992 -5.33301 -0.666016 -11 -3.99902 -17c-4.66699 -8.66699 -7.33398 -14 -8.00098 -16c-18.667 -57.333 -31 -97.666 -37 -120.999c-11.333 -40 -20.666 -81.667 -27.999 -125c-10 -64.667 -17 -127.334 -21 -188.001
c-5.33301 -98 36.667 -147 126 -147c40.667 0 73 25.667 97 77c19.333 42 27.666 83.667 24.999 125c0 33.333 -0.666992 87.333 -2 162c-0.666992 18.667 -2.66699 52.667 -6 102c-3.33301 43.333 -5 77.333 -5 102c0 21.333 1.33301 35.666 4 42.999c6 15.333 18 23 36 23
z" />
    <glyph glyph-name="V" unicode="V" horiz-adv-x="524" 
d="M61 699c20 2.66699 34.335 -8.66602 43.002 -33.999c8 -22 14.333 -52.333 19 -91c0.666992 -29.333 2 -73.666 4 -132.999c2 -29.333 8 -78.333 18 -147c8.66699 -58 18.667 -108 30 -150c14 34 38 88 72 162c6.66699 13.333 20.667 36.666 42 69.999
c16 26 26.333 47.333 31 64c6.66699 25.333 17.334 52.666 32.001 81.999c8.66699 12 21 31.667 37 59c5.33301 14 14 35 26 63c10 24.667 24.333 37 43 37c8.66699 0 16.667 -3.66699 24 -11s11 -15.333 11 -24c0 -6.66699 -4.33301 -17.334 -13 -32.001l-18 -31l-123 -255
l-140 -269c3.33301 -7.33301 5.66602 -24 6.99902 -50c1.33301 -20 -8 -31.333 -28 -34c-10.667 -2 -20.334 0 -29.001 6c-14 -8 -27 -7.16699 -39 2.5s-15 22.834 -9 39.501l20 35c-24.667 117.333 -41.334 220.333 -50.001 309l-12 122
c-5.33301 44.667 -12 84.667 -20 120c-6 25.333 -9 42.666 -9 51.999c0 22.667 10.333 35.334 31 38.001z" />
    <glyph glyph-name="W" unicode="W" horiz-adv-x="720" 
d="M689 654c-2 -20.667 -8 -52.6689 -18 -96.002c-20 -58 -43.667 -142.667 -71 -254l-51 -212c6 -16 8.33301 -31.667 7 -47c-4.66699 -40 -18 -60 -40 -60c-26.667 0 -41.667 17 -45 51c-1.33301 7.33301 -0.333008 15.666 3 24.999c5.33301 13.333 8.33301 21.333 9 24
c-4 7.33301 -9.66699 19 -17 35c-14.667 34.667 -37 106.334 -67 215.001l-46 179c-3.33301 -22 -8 -56.333 -14 -103c-2 -14.667 -12.333 -129 -31 -343c6 -12.667 8 -27 6 -43c-4 -27.333 -15.333 -42.666 -34 -45.999c-22 -4 -40 12.667 -54 50
c-0.666992 2.66699 -2.66699 14.667 -6 36l-39 117l-118 343c-0.666992 2.66699 -7 18.334 -19 47.001c-7.33301 16.667 -10.666 31.334 -9.99902 44.001c0 11.333 3.66699 21.166 11 29.499s16.666 12.5 27.999 12.5c17.333 0 31 -10.333 41 -31
c3.33301 -6.66699 11.666 -36 24.999 -88l39.5 -146.5c15.667 -56.333 41.167 -133.166 76.5 -230.499c4.66699 90.667 13.334 194.667 26.001 312c3.33301 29.333 9.33301 75.333 18 138c6 34.667 24.333 55 55 61c17.333 3.33301 31.666 -10 42.999 -40l22 -82l49 -189
c10 -30 25.333 -79 46 -147c6.66699 36 18.334 94.667 35.001 176c11.333 34.667 27.666 91.667 48.999 171c0.666992 3.33301 3 21.666 7 54.999c2.66699 20.667 8.33398 37.667 17.001 51c5.33301 9.33301 11 18.333 17 27s13.333 13 22 13c24 0 33.333 -18 28 -54z" />
    <glyph glyph-name="X" unicode="X" horiz-adv-x="568" 
d="M542 663c1.33301 -10 -1.83008 -19.4932 -9.49707 -28.4932s-14.834 -17.833 -21.501 -26.5c-12.667 -19.333 -30 -40.333 -52 -63c-25.333 -26.667 -43.333 -47.334 -54 -62.001l-66 -89l52 -121l54 -116c1.33301 -2.66699 10 -19 26 -49c9.33301 -18 16.333 -36 21 -54
c3.33301 -15.333 5 -28 5 -38c0 -22.667 -8 -35.334 -24 -38.001c-18.667 -3.33301 -33.667 3 -45 19c-20.667 29.333 -35.334 63.666 -44.001 102.999c-5.33301 25.333 -9 41.666 -11 48.999c-4.66699 15.333 -10.667 30.666 -18 45.999l-61 124l-28 -36
c-24 -32 -66.667 -98 -128 -198c-3.33301 -5.33301 -6 -13.333 -8 -24s-4.33301 -18.667 -7 -24c-20.667 -40 -39 -60 -55 -60c-9.33301 0 -17.333 4 -24 12c-9.33301 10.667 -12.333 28.667 -9 54c2.66699 25.333 12 49.666 28 72.999l48 68
c13.333 22 33.166 48.5 59.499 79.5s46.5 57.167 60.5 78.5l31 51l-42 65c-9.33301 14.667 -43.666 66 -102.999 154c-15.333 22 -23 36.333 -23 43c0 23.333 11 36.333 33 39c16 2 30 -5 42 -21c16.667 -21.333 40.667 -58 72 -110l61 -101l67 86
c20.667 29.333 55.667 72.666 105 129.999c16.667 16.667 31 23.667 43 21c13.333 -3.33301 21.666 -15.333 24.999 -36z" />
    <glyph glyph-name="Y" unicode="Y" horiz-adv-x="549" 
d="M224 -14c-6.66699 7.33301 -8.33691 25.999 -5.00391 55.999c2 15.333 3.33301 114 4 296c-6.66699 16 -17 34.333 -31 55c-6 8 -31.667 49.333 -77 124c-7.33301 14.667 -21 37.667 -41 69l-26 23c-12.667 11.333 -19 23 -19 35c0 18.667 1 30.334 3 35.001
c4 11.333 13.667 17.666 29 18.999s27.5 -2 36.5 -10s20.833 -23.333 35.5 -46c10 -15.333 19.667 -33.666 29 -54.999c12.667 -28.667 21.334 -47.334 26.001 -56.001c18.667 -35.333 44.334 -77.333 77.001 -126l72 123c38 64.667 71 117 99 157
c13.333 19.333 30 28.666 50 27.999c10 -0.666992 17 -3 21 -7c0.666992 -1.33301 2.66699 -6.33301 6 -15s5 -16.334 5 -23.001c0 -9.33301 -4 -18.333 -12 -27c-12 -13.333 -18.667 -20.666 -20 -21.999l-87 -126c-36.667 -53.333 -63 -98.666 -79 -135.999
c-3.33301 -8.66699 -5.66602 -19.667 -6.99902 -33c-1.33301 -18.667 -3.33301 -33 -6 -43c0.666992 -58 0.333984 -130.667 -0.999023 -218c0 -0.666992 1.16699 -5.66699 3.5 -15s3.5 -17.666 3.5 -24.999c0 -6.66699 -1.16699 -12.834 -3.5 -18.501l-7.5 -18.5
c-4 -4 -15.667 -8 -35 -12c-4 -2 -11.5 -1.16699 -22.5 2.5s-17.833 6.83398 -20.5 9.50098z" />
    <glyph glyph-name="Z" unicode="Z" horiz-adv-x="511" 
d="M446 559l-148.001 -251.996c-24 -38.667 -62 -104 -114 -196c35.333 -13.333 57.666 -21 66.999 -23c20 -6 45 -10 75 -12c16 0 31.667 -0.333008 47 -1c18.667 0 33.334 -3.33301 44.001 -10c19.333 -10.667 29 -16.334 29 -17.001c10 -7.33301 14.333 -16.333 13 -27
c-3.33301 -24 -14 -36 -32 -36c-6 0 -12.333 1.33301 -19 4c-21.333 9.33301 -46.666 15 -75.999 17c-36 2.66699 -62 6 -78 10c-2.66699 0.666992 -13.334 1.66699 -32.001 3c-12.667 1.33301 -22.334 4.66602 -29.001 9.99902c-2 2 -14 9.66699 -36 23
c-3.33301 -20.667 -16.666 -31 -39.999 -31c-8 0 -14.667 2 -20 6c-14.667 11.333 -19 26.333 -13 45c-8 0 -19.667 2.33301 -35 7c-18 10.667 -25.667 24.667 -23 42c2 12.667 10.667 21 26 25c6 2 28.333 -2 67 -12l120 213l146 242l-22 10
c-31.333 13.333 -76.666 22.666 -135.999 27.999c-20.667 2 -42.667 2.33301 -66 1c-22.667 -2 -45 -3.66699 -67 -5c-13.333 -0.666992 -23.5 2.16602 -30.5 8.49902s-10.167 16.166 -9.5 29.499c0 19.333 8.66699 30.333 26 33c4.66699 0.666992 22.667 1 54 1
c28.667 0 78.667 -3.33301 150 -10c25.333 -1.33301 68.333 -7.33301 129 -18c39.333 -9.33301 60.333 -25.666 63 -48.999c0.666992 -10 -2.5 -20 -9.5 -30z" />
    <glyph glyph-name="bracketleft" unicode="[" horiz-adv-x="309" 
d="M158 667c-21.333 0 -38 4.00098 -50 12.001c-7.33301 -12.667 -7.66602 -41.334 -0.999023 -86.001c0.666992 -1.33301 9 -84.666 25 -249.999c2 -46 6 -121.333 12 -226c0.666992 -18 1.16699 -36.667 1.5 -56s2.16602 -31.333 5.49902 -36
c1.33301 -2 6.66602 -4 15.999 -6c8 -2 18.333 0.166992 31 6.5s22.667 9.16602 30 8.49902c35.333 -5.33301 54.666 -20.333 57.999 -45c2.66699 -17.333 -7 -29.333 -29 -36c-10 -2.66699 -31 -5.33398 -63 -8.00098c-13.333 -0.666992 -24 -1 -32 -1
c-34 0 -58.667 10.667 -74 32c-10.667 15.333 -16.334 40.333 -17.001 75c0 26.667 0.333008 53.334 1 80.001c0 39.333 -2.66699 104.333 -8 195c-3.33301 17.333 -7.66602 45 -12.999 83c-1.33301 22 -3.33301 57.333 -6 106c-6.66699 95.333 -9.66699 144.666 -9 147.999
c0.666992 13.333 1.83398 26.833 3.50098 40.5s7.16699 23.834 16.5 30.501c5.33301 4 11.666 6.33301 18.999 7c4.66699 0.666992 11.334 1 20.001 1c10.667 -0.666992 18.334 -1 23.001 -1c18.667 0.666992 38 0.666992 58 0c30.667 -1.33301 46 -15.333 46 -42
c0 -20 -21.333 -30.667 -64 -32z" />
    <glyph glyph-name="backslash" unicode="\" horiz-adv-x="306" 
d="M69 704c11.333 1.33301 21.498 -1.83496 30.498 -9.50195s14.833 -17.167 17.5 -28.5c12.667 -66.667 35.334 -175 68.001 -325c8.66699 -36.667 24 -89.667 46 -159c19.333 -61.333 34 -115.666 44 -162.999c1.33301 -8 2 -14.667 2 -20c0 -20.667 -11.667 -31 -35 -31
c-16 0 -27.333 7.33301 -34 22c-1.33301 3.33301 -4.33301 17.333 -9 42c-9.33301 48.667 -21.666 99.334 -36.999 152.001l-42 144l-40 173c-14.667 62.667 -29.667 111.667 -45 147c-2.66699 6 -4 11.667 -4 17c0 24 12.667 37 38 39z" />
    <glyph glyph-name="bracketright" unicode="]" horiz-adv-x="274" 
d="M37 693c-2 26.667 12.665 40.666 43.998 41.999c20 0.666992 39.333 0.666992 58 0c4.66699 -0.666992 11.667 -0.666992 21 0s16.333 0.666992 21 0c7.33301 -0.666992 14 -3.33398 20 -8.00098c9.33301 -6 15.333 -15.833 18 -29.5s4.66699 -27.167 6 -40.5
c4 -28 6.66699 -69.667 8 -125c0 -28 -1.33301 -70.333 -4 -127c-1.33301 -17.333 -3.66602 -45 -6.99902 -83c-1.33301 -28 -1 -60.667 1 -98c3.33301 -44 4.66602 -76.667 3.99902 -98c0 -12 1.16699 -29.333 3.5 -52s3.5 -39 3.5 -49
c0 -22.667 -4.33301 -40.334 -13 -53.001c-13.333 -21.333 -37.333 -32 -72 -32c-7.33301 0 -17.666 0.333008 -30.999 1c-32 2.66699 -53.333 5.33398 -64 8.00098c-22 6.66699 -32.333 18.667 -31 36c2.66699 24.667 20.667 39.334 54 44.001
c8 1.33301 18.5 -1.16699 31.5 -7.5s23.5 -8.5 31.5 -6.5c4.66699 0.666992 10.334 2.66699 17.001 6c2 4.66699 2.66699 17 2 37c-0.666992 18 -1.16699 36.333 -1.5 55s-1.83301 56.334 -4.5 113.001c-1.33301 42 -1.33301 79.667 0 113l13 195
c1.33301 15.333 0 41.666 -4 78.999c-4 35.333 -7 55.333 -9 60c-12 -8.66699 -28.667 -12.667 -50 -12c-42.667 0.666992 -64.667 11.334 -66 32.001z" />
    <glyph glyph-name="asciicircum" unicode="^" horiz-adv-x="527" 
d="M317 668l33.001 -31.998c12 -14 18 -26.333 18 -37c0 -11.333 -4.33301 -20.833 -13 -28.5s-19.334 -11.5 -32.001 -11.5c-16 0 -25.667 5.16699 -29 15.5s-6.33301 20.166 -9 29.499c-6.66699 12.667 -14 23.667 -22 33c-8.66699 -8 -17.667 -19.333 -27 -34
c-6 -10.667 -12.5 -21.334 -19.5 -32.001s-17.167 -16 -30.5 -16c-25.333 0 -37 13.333 -35 40c0 8 6.66699 18.333 20 31c12 10.667 23.667 21.667 35 33c2 2 14.667 16.667 38 44c12 14 20.333 21 25 21s11 -5.66699 19 -17c12 -18 21.667 -31 29 -39z" />
    <glyph glyph-name="underscore" unicode="_" horiz-adv-x="447" 
d="M-12 -89c0 10 3.33594 16.333 10.0029 19c4 2 10.333 3 19 3c74.667 -3.33301 142.667 -5 204 -5c98 0 168 1 210 3c24 0.666992 35.333 -8 34 -26c-0.666992 -11.333 -4.33398 -18.333 -11.001 -21c-2.66699 -1.33301 -9.33398 -2 -20.001 -2
c-30 0 -65.667 0.666992 -107 2c-48 1.33301 -84 2 -108 2c-44 -1.33301 -111 -1.33301 -201 0c-6 0.666992 -12.333 1 -19 1c-6.66699 2.66699 -10.334 10.667 -11.001 24z" />
    <glyph glyph-name="grave" unicode="`" horiz-adv-x="471" 
d="M238 704c40.667 -18.667 69.668 -34.668 87.001 -48.001c4 -4 6 -10 6 -18s-1.33301 -14.333 -4 -19c-4.66699 -15.333 -14.334 -21.666 -29.001 -18.999c-7.33301 1.33301 -19.333 7 -36 17c-18.667 10.667 -33.667 17.667 -45 21c-42.667 12 -68 23.333 -76 34
c-4.66699 8 -7 16.333 -7 25c0 9.33301 3.33301 19 10 29s14.667 15 24 15c8 0 19.333 -4.66699 34 -14c19.333 -13.333 31.333 -21 36 -23z" />
    <glyph glyph-name="a" unicode="a" horiz-adv-x="543" 
d="M460 458c10 0.666992 19.833 -1.33496 29.5 -6.00195s14.167 -10.667 13.5 -18c0 -7.33301 -2.83301 -20.666 -8.5 -39.999s-8.5 -35.333 -8.5 -48c0 -12 2.16699 -26.833 6.5 -44.5s6.83301 -32.167 7.5 -43.5c0.666992 -18.667 -1.5 -41.334 -6.5 -68.001
s-7.5 -48.334 -7.5 -65.001c0 -15.333 3.33301 -48.666 10 -99.999c1.33301 -11.333 -0.5 -22.666 -5.5 -33.999s-12.833 -17 -23.5 -17c-20 -1.33301 -33 8.33398 -39 29.001c-1.33301 5.33301 -2 16.666 -2 33.999l-69 -34c-28.667 -11.333 -64 -17 -106 -17
c-42.667 3.33301 -79 11.333 -109 24c-72 30 -108 81.333 -108 154c0 78.667 18.667 144.667 56 198c40 57.333 93.667 86 161 86c68.667 0.666992 126 -24.333 172 -75c0 5.33301 -0.333008 13 -1 23s-1 17.333 -1 22c0.666992 6.66699 2.33398 13.334 5.00098 20.001
c5.33301 12 16.666 18.667 33.999 20zM404 321.998c-20 10.667 -38.333 16.334 -55 17.001s-28 2.33398 -34 5.00098c-12 5.33301 -19.333 19.666 -22 42.999c-18.667 1.33301 -36 0.333008 -52 -3c-84 -16 -129.333 -83.333 -136 -202c-2.66699 -49.333 11.333 -84 42 -104
c21.333 -14.667 56 -23.334 104 -26.001c40.667 -3.33301 77.167 7.5 109.5 32.5s51.833 57.5 58.5 97.5c2 12.667 2 30.667 0 54c0 47.333 0.333008 63 1 47c-0.666992 16 -6 29 -16 39z" />
    <glyph glyph-name="b" unicode="b" horiz-adv-x="540" 
d="M501 168c0 -54.667 -20.3379 -98.1621 -61.0049 -130.495s-94.334 -48.5 -161.001 -48.5c-62.667 0 -117 12 -163 36c0.666992 -11.333 -2.66602 -21.333 -9.99902 -30s-16.666 -13 -27.999 -13c-23.333 0 -35 18.667 -35 56c0 11.333 1.33301 27.166 4 47.499
s4 37.166 4 50.499c0 19.333 -1.33301 41.666 -4 66.999c-3.33301 30 -5.33301 52 -6 66c-1.33301 36 -0.666016 82.5 2.00098 139.5s3.33398 102.5 2.00098 136.5c-0.666992 16.667 -3 33 -7 49c-7.33301 27.333 -12 46.666 -14 57.999c-1.33301 8.66699 2 16.667 10 24
s16.667 10.666 26 9.99902c14.667 -0.666992 24.334 -11.167 29.001 -31.5s10 -52.5 16 -96.5c0.666992 -14 0.333984 -29.667 -0.999023 -47c-1.33301 -22 -2 -38 -2 -48c0 -4.66699 -0.5 -13.5 -1.5 -26.5s-1.16699 -22.167 -0.5 -27.5c0.666992 -8 3 -13.333 7 -16
s9 -4 15 -4c6.66699 0 23.667 5.16699 51 15.5s52.333 15.833 75 16.5c69.333 2.66699 128.333 -19.333 177 -66c50.667 -48.667 76 -111 76 -187zM261.995 345.005c-6.66699 -6 -19.333 -8.99707 -38 -8.99707c-6.66699 0 -17.334 0.5 -32.001 1.5s-25.667 1.5 -33 1.5
c-16 0 -28.167 -2.33301 -36.5 -7s-12.166 -15 -11.499 -31l2 -82c-0.666992 -10.667 0 -27.334 2 -50.001c6 -39.333 17.667 -67 35 -83c23.333 -21.333 64.333 -32 123 -32c105.333 0 158 38 158 114c0 53.333 -18.333 100 -55 140c-32 35.333 -64.333 54 -97 56
c-6.66699 -2.66699 -11 -6.33398 -13 -11.001s-3.33301 -7.33398 -4 -8.00098z" />
    <glyph glyph-name="c" unicode="c" horiz-adv-x="492" 
d="M431 263c-22.667 0 -37.6689 8.33008 -45.002 24.9971l-19 45c-24 30 -60 45.333 -108 46c-48.667 0 -87.5 -18 -116.5 -54s-43.5 -82.667 -43.5 -140c0 -38.667 11.333 -69.667 34 -93c24 -25.333 58.667 -38 104 -38c30.667 0 53.834 5.16699 69.501 15.5
s28.334 29.833 38.001 58.5s23.834 43 42.501 43c11.333 0 21.666 -4.66699 30.999 -14s14 -19.666 14 -30.999c0 -39.333 -23.667 -73.666 -71 -102.999c-40.667 -26 -82 -39 -124 -39c-69.333 0 -122.333 20 -159 60c-32.667 36 -49 83.667 -49 143
c0 72.667 19 132.334 57 179.001c41.333 52 98.333 78 171 78c46.667 0 90 -10 130 -30c50.667 -25.333 76 -59 76 -101c0 -33.333 -10.667 -50 -32 -50z" />
    <glyph glyph-name="d" unicode="d" horiz-adv-x="533" 
d="M473 686c28 -2.66699 39.6641 -13.666 34.9971 -32.999c-8 -36.667 -14.333 -76.667 -19 -120c-2 -24.667 -3 -49.667 -3 -75c0 -21.333 1.16699 -51.833 3.5 -91.5s3.5 -70.834 3.5 -93.501c0 -18 -0.333008 -36 -1 -54c-3.33301 -21.333 -7 -55.666 -11 -102.999
l-4 -89v-30c-2 -10 -11.333 -15 -28 -15c-10 0 -18.667 4.33301 -26 13s-9.66602 18 -6.99902 28c-47.333 -28 -98.666 -40.667 -153.999 -38c-70 4 -123.333 17 -160 39c-49.333 29.333 -74 76.666 -74 141.999c0 68 22.833 127.167 68.5 177.5s101.5 75.5 167.5 75.5
c14.667 0 56.334 -8.33301 125.001 -25c6 -1.33301 18.333 -2 37 -2v132c0 16.667 1.33301 35.667 4 57c4 30.667 6.33301 49 7 55c2.66699 30 14.667 46.667 36 50zM84.9971 166.001c0 -41.333 19.666 -73 58.999 -95c33.333 -18 74.666 -27 123.999 -27
c104 0 156.667 49.333 158 148l2 115c0.666992 12 -4.66602 21.333 -15.999 28s-23.666 10 -36.999 10c-26 0 -46 -2.83301 -60 -8.5s-23.333 -8.5 -28 -8.5c-10 0.666992 -15.667 3.66699 -17 9c0.666992 -2 1 4.33301 1 19c0 10 -6.33301 15 -19 15
c-40.667 0 -78.667 -21.667 -114 -65s-53 -90 -53 -140z" />
    <glyph glyph-name="e" unicode="e" horiz-adv-x="470" 
d="M254 459c47.333 0 86.3311 -21.001 116.998 -63.001c28.667 -38 44.334 -83.333 47.001 -136c0.666992 -10.667 -2 -20.667 -8 -30s-14 -14 -24 -14c-7.33301 0 -17.166 1 -29.499 3s-22.166 3 -29.499 3c-19.333 0.666992 -41.666 0 -66.999 -2
c-32.667 -2.66699 -55 -4 -67 -4c-58 -1.33301 -88.333 -2 -91 -2l-2 -30c-2 -30 13.167 -61.333 45.5 -94s66.166 -49 101.499 -49c44 0 82 24 114 72c16.667 24.667 32.667 35.667 48 33c10.667 -1.33301 19.5 -6.16602 26.5 -14.499s9.5 -17.5 7.5 -27.5
c-5.33301 -34 -29.5 -64.167 -72.5 -90.5s-86.833 -39.5 -131.5 -39.5c-54 0 -103 22.167 -147 66.5s-66 95.833 -66 154.5c0 64 21.667 123 65 177c45.333 58 99.666 87 162.999 87zM116.998 280.999c31.333 -2.66699 67 -3.33203 107 -1.99902c22 2.66699 58 6 108 10
l-3 24c-1.33301 21.333 -11 40.166 -29 56.499s-36.333 24.5 -55 24.5c-28 0 -55.5 -11.5 -82.5 -34.5s-42.167 -49.167 -45.5 -78.5z" />
    <glyph glyph-name="f" unicode="f" horiz-adv-x="375" 
d="M243 761c30 0 55.5 -15.165 76.5 -45.498s31.5 -63.5 31.5 -99.5c0 -22 -4.33301 -41 -13 -57c-10 -18.667 -23.667 -28 -41 -28c-10 0 -18.667 3.66699 -26 11s-11.333 16 -12 26c-0.666992 7.33301 3.83301 15 13.5 23s14.5 15.333 14.5 22
c0 13.333 -5.16699 29.333 -15.5 48s-20.833 29 -31.5 31c-18 2.66699 -38 -8.5 -60 -33.5s-34.333 -49.833 -37 -74.5c-6.66699 -58 -2.66699 -110.667 12 -158c9.33301 -32 14 -53 14 -63l65 22c10.667 5.33301 28.334 11.666 53.001 18.999
c18 2.66699 27.667 3.66699 29 3c12 -3.33301 19.333 -12.666 22 -27.999c2 -12.667 -1.66699 -23.667 -11 -33s-20.666 -15.333 -33.999 -18c-22.667 -4.66699 -64 -13.667 -124 -27l2 -55c0 -30.667 2 -72.667 6 -126c4 -60.667 10.333 -112.334 19 -155.001
c0.666992 -4 1 -7.66699 1 -11c0 -24.667 -12 -37 -36 -37c-34.667 0 -50.334 20.333 -47.001 61c0.666992 12.667 1 25.334 1 38.001c0 19.333 -1.83301 47.5 -5.5 84.5s-5.5 67.833 -5.5 92.5v50c-0.666992 6 -3.66699 18.333 -9 37c-1.33301 0 -8 -2.33301 -20 -7
c-7.33301 -2 -14.333 -2.33301 -21 -1c-23.333 4 -35 13.333 -35 28c0 7.33301 7.33301 16.666 22 27.999c18.667 15.333 37.667 23 57 23l-13 91l-12 64.5c-4 21.667 -5.33301 42.167 -4 61.5c3.33301 47.333 21.666 90.666 54.999 129.999c35.333 42 75 63 119 63z" />
    <glyph glyph-name="g" unicode="g" horiz-adv-x="521" 
d="M487 422c-4 -14 -11.666 -44.999 -22.999 -92.999c7.33301 -24 11 -47.333 11 -70c0 -8 -1 -17.5 -3 -28.5s-3.33301 -19.5 -4 -25.5c-6 -98 -3 -164.667 9 -200c6 -18.667 9 -28.334 9 -29.001c0 -1.33301 -0.333008 -22.333 -1 -63
c-0.666992 -56.667 -22.334 -105 -65.001 -145c-44.667 -42 -100.667 -63 -168 -63c-99.333 0 -150 30 -152 90c-1.33301 32.667 4.66699 64.667 18 96c12.667 29.333 28.334 43.333 47.001 42c20 -2 32 -12.333 36 -31c2 -10 -4 -25.333 -18 -46s-21 -36.334 -21 -47.001
c0 -13.333 6.83301 -24 20.5 -32s31.167 -11.333 52.5 -10c72 5.33301 122 25.333 150 60c22 27.333 33 64.333 33 111c0 22 -2.33301 48.667 -7 80l-8 47l-18 -12c-54.667 -38.667 -110.334 -58 -167.001 -58c-52 0 -97.167 17.667 -135.5 53s-57.5 78.333 -57.5 129
c0 70.667 20 132.334 60 185.001c42.667 56 96 84 160 84c29.333 0 57 -4 83 -12l87 -32c11.333 34 30 49.667 56 47c5.33301 0 9.83301 -3 13.5 -9s4.5 -12 2.5 -18zM403.001 329.001c-7.33301 14.667 -24.334 22.6699 -51.001 24.0029c-32.667 2 -51.667 4.5 -57 7.5
s-10.666 9.83301 -15.999 20.5c-16.667 1.33301 -29 1.66602 -37 0.999023c-45.333 -3.33301 -82 -26.333 -110 -69c-25.333 -38.667 -38 -82.667 -38 -132c0 -74.667 43.333 -112 130 -112c30.667 0 60.334 6 89.001 18c39.333 15.333 65.166 38.166 77.499 68.499
s18.5 74.166 18.5 131.499c0 20.667 -2 34.667 -6 42z" />
    <glyph glyph-name="h" unicode="h" horiz-adv-x="451" 
d="M248 455c93.333 -4 148.336 -64.668 165.003 -182.001c1.33301 -10 2 -27 2 -51v-135c0 -60 -12.667 -90 -38 -90c-30.667 0 -46 19 -46 57c0 6.66699 0.666992 17.667 2 33c5.33301 76.667 7.66602 124.667 6.99902 144c-1.33301 48 -6.33301 83 -15 105
c-13.333 34.667 -38 52 -74 52c-46.667 0 -81 -6.33301 -103 -19c-17.333 -10 -28.333 -25.333 -33 -46c0 -1.33301 -2 -21 -6 -59c-1.33301 -15.333 -2 -31.333 -2 -48c0 -15.333 1.33301 -41.333 4 -78c2.66699 -33.333 3.66699 -61.333 3 -84
c-0.666992 -19.333 -4.66699 -35.666 -12 -48.999c-8 -16.667 -19.667 -24.334 -35 -23.001c-12 1.33301 -22.167 6.83301 -30.5 16.5s-12.166 20.5 -11.499 32.5l16 141.5c5.33301 47.667 7.66602 90.167 6.99902 127.5c0 6 -2.66699 13.667 -8 23s-8 17 -8 23
c0 5.33301 2.33301 11.833 7 19.5s7 13.834 7 18.501c0.666992 36 -0.5 81.167 -3.5 135.5s-4.5 94.833 -4.5 121.5c0 21.333 3.66699 40 11 56c9.33301 20 21.666 28 36.999 24c24 -5.33301 36 -23 36 -53c0 -15.333 -2 -38.333 -6 -69c-4 -28 -5.33301 -52 -4 -72
c1.33301 -28.667 6.66602 -63 15.999 -103c34 22 74 32.333 120 31z" />
    <glyph glyph-name="i" unicode="i" horiz-adv-x="189" 
d="M55 598c0 11.333 3.83105 21.5 11.498 30.5s16.834 13.5 27.501 13.5c14 0 27.333 -5 40 -15s18.334 -21.667 17.001 -35c-2 -14.667 -5.66699 -24.667 -11 -30c-8 -6.66699 -21.667 -10 -41 -10c-12 0 -22.333 4.66699 -31 14s-13 20 -13 32zM132.998 415
c0.666992 -15.333 1 -32.334 1 -51.001c0 -19.333 -1.33301 -61.666 -4 -126.999c-2 -52.667 -2.33301 -93.667 -1 -123c0.666992 -6.66699 3.16699 -15.5 7.5 -26.5s6.5 -20.167 6.5 -27.5c-0.666992 -50 -17 -76 -49 -78c-10.667 -0.666992 -20 4 -28 14
s-11.667 20 -11 30c1.33301 13.333 3 35 5 65c0.666992 19.333 0.666992 41.333 0 66c-0.666992 34.667 -1 57.334 -1 68.001v178c2.66699 42 17.667 62 45 60c14 -0.666992 22.667 -6.33398 26 -17.001c0.666992 -2.66699 1.66699 -13 3 -31z" />
    <glyph glyph-name="j" unicode="j" horiz-adv-x="224" 
d="M203 564c0 -12.667 -5.16797 -24.165 -15.501 -34.498s-22.166 -15.5 -35.499 -15.5c-34.667 -1.33301 -53.667 12.334 -57 41.001c-2 15.333 3.33301 28.666 16 39.999s27.334 16.666 44.001 15.999c13.333 -1.33301 24.666 -6.33301 33.999 -15s14 -19.334 14 -32.001z
M187.999 396.002c-0.666992 -10 -5.33398 -55 -14.001 -135l-42 -373c-0.666992 -10 -3 -26.667 -7 -50c-12 -43.333 -26.667 -73 -44 -89c-23.333 -21.333 -61.333 -32 -114 -32c-27.333 0 -48.166 7.5 -62.499 22.5s-20.833 33.833 -19.5 56.5
c1.33301 15.333 0.666016 32.666 -2.00098 51.999c-2.66699 23.333 -4 39.333 -4 48c0 9.33301 0.833008 19.166 2.5 29.499s7 19.333 16 27s18.833 10.834 29.5 9.50098c12 -1.33301 23.333 -15.333 34 -42c8.66699 -21.333 8.66699 -46.666 0 -75.999
c-2.66699 -10 -4 -19 -4 -27c0 -19.333 8.33301 -28.666 25 -27.999c27.333 2 47.333 18.667 60 50c8 20 14.667 51.333 20 94l38 315c1.33301 9.33301 2.66602 24.666 3.99902 45.999c0 8 -1 18.5 -3 31.5s-3 22.5 -3 28.5c0 20 5 40.333 15 61c12 24.667 26.667 37 44 37
c10.667 0 18.834 -6.16699 24.501 -18.5s7.83398 -24.833 6.50098 -37.5z" />
    <glyph glyph-name="k" unicode="k" horiz-adv-x="438" 
d="M135 657c4.66699 -11.333 6.99805 -29.667 6.99805 -55c0 -41.333 -2 -62 -6 -62c-0.666992 0.666992 -1 3.66699 -1 9c0 -30.667 0.333008 -65 1 -103c1.33301 -53.333 2 -87.333 2 -102l38 10c1.33301 18 10.666 28.333 27.999 31
c4.66699 0.666992 9.33398 0.333984 14.001 -0.999023c7.33301 -2.66699 12.333 -4.33398 15 -5.00098l38 41c8.66699 12 23.334 31 44.001 57l20.5 33.5c7 11.667 15.833 17.167 26.5 16.5c12 0 22.167 -4.5 30.5 -13.5s12.5 -19.5 12.5 -31.5
c0 -11.333 -7 -25.833 -21 -43.5s-39.333 -44.834 -76 -81.501l-41 -41l45 -76c12 -21.333 24 -47 36 -77c15.333 -38.667 26.333 -65 33 -79c2 -4 6.83301 -9.16699 14.5 -15.5s12.167 -11.833 13.5 -16.5s2 -9 2 -13c0 -14 -4.83301 -26.5 -14.5 -37.5
s-21.167 -16.833 -34.5 -17.5c-19.333 -0.666992 -32 14 -38 44c2 6 2 15.667 0 29c-10 24 -28.333 62 -55 114l-68 120c-14.667 -4.66699 -37 -11 -67 -19c-3.33301 -38 -5.33301 -70.667 -6 -98c2.66699 -32 5 -85.667 7 -161
c-0.666992 -16 -2.33398 -26.667 -5.00098 -32c-5.33301 -11.333 -16.333 -17 -33 -17c-28 0 -42.667 14 -44 42c-1.33301 14.667 -0.666016 30.334 2.00098 47.001c2.66699 22 4.33398 37 5.00098 45c2 54 2.66699 108.667 2 164c-9.33301 0.666992 -17 4.83398 -23 12.501
s-8.66699 16.167 -8 25.5c0 11.333 12.333 22 37 32v47l-4 208c-1.33301 19.333 -3.33301 51 -6 95c-1.33301 37.333 12.667 56.333 42 57c24.667 0.666992 37 -12 37 -38c0 -5.33301 -0.333008 -12.833 -1 -22.5s-1 -16.834 -1 -21.501z" />
    <glyph glyph-name="l" unicode="l" horiz-adv-x="161" 
d="M127 637c0 -23.333 -2.66602 -59.167 -7.99902 -107.5s-7.66602 -84.833 -6.99902 -109.5l3 -181c0 -11.333 0.666992 -29.333 2 -54c0.666992 -21.333 1 -40 1 -56c0 -30 -0.333008 -67 -1 -111c-0.666992 -24 -10.334 -36 -29.001 -36c-26 0 -40 17 -42 51
c0 17.333 -0.333008 46.333 -1 87c-2 70.667 -3 101.667 -3 93v207c0 27.333 1 71 3 131c-0.666992 19.333 1.66602 53.333 6.99902 102c7.33301 32.667 21 49 41 49c22.667 0 34 -21.667 34 -65z" />
    <glyph glyph-name="m" unicode="m" horiz-adv-x="565" 
d="M141 408l53.999 31.5059c18 10.333 37 15.5 57 15.5c39.333 0 67 -23.667 83 -71c10 19.333 20 33 30 41c12.667 10 30 15 52 15c35.333 0 63.833 -14.833 85.5 -44.5s32.167 -63.167 31.5 -100.5c-0.666992 -29.333 -5 -61 -13 -95c0 -9.33301 -0.333008 -24.333 -1 -45
c-0.666992 -11.333 -5 -27.333 -13 -48c-6.66699 -17.333 -9.33398 -33 -8.00098 -47c2.66699 -24 4 -33 4 -27c0 -12.667 -4.33301 -23.5 -13 -32.5s-19 -13.5 -31 -13.5c-23.333 0 -36.666 10 -39.999 30c-2 8.66699 -2 17.667 0 27l6 28.5
c2 9.66699 6.33301 22.667 13 39s11 30.166 13 41.499c0.666992 4.66699 2 26.667 4 66c3.33301 66.667 5 97.667 5 93c0 11.333 -3.83301 23 -11.5 35s-15.5 18 -23.5 18c-14.667 0 -29.334 -12.333 -44.001 -37c-6 -10 -11 -30 -15 -60c1.33301 -16.667 1.33301 -44 0 -82
c-2 -8.66699 -4.66699 -22.667 -8 -42c-2 -22 -6 -57 -12 -105c-4.66699 -30 -19 -45 -43 -45c-11.333 0 -21.166 4.16699 -29.499 12.5s-11.833 17.833 -10.5 28.5c7.33301 26 17 69.333 29 130c0.666992 18.667 2.33398 49 5.00098 91c-14 7.33301 -21 21.666 -21 42.999
c0 6 2 12 6 18c6.66699 10 10.334 15.333 11.001 16l-28 31.5c-9.33301 10.333 -17.666 14.833 -24.999 13.5c-14 -2.66699 -33.667 -11 -59 -25l-46 -27c-2.66699 -13.333 -6 -35 -10 -65c-6 -72.667 -9 -127.334 -9 -164.001v-80
c-1.33301 -14 -6.66602 -26.167 -15.999 -36.5s-20.333 -14.833 -33 -13.5c-10.667 1.33301 -20 6.66602 -28 15.999s-11.333 19.333 -10 30c5.33301 16.667 12.666 44.667 21.999 84c3.33301 21.333 5 64.666 5 129.999c0 17.333 -0.666992 40.666 -2 69.999
c-13.333 5.33301 -20 15 -20 29c0 22.667 10.333 35 31 37c-6 14 -7.33301 27.667 -4 41s6.66602 22 9.99902 26c5.33301 7.33301 14.666 11 27.999 11c24.667 0 38.667 -11 42 -33z" />
    <glyph glyph-name="n" unicode="n" horiz-adv-x="442" 
d="M107 404c34.667 35.333 79.666 52.9971 134.999 52.9971c46 0 84 -13 114 -39c7.33301 -6.66699 17 -20.334 29 -41.001c10 -16.667 16.333 -34.334 19 -53.001c2 -10.667 2 -23 0 -37c-2.66699 -20.667 -4 -33.667 -4 -39
c-2.66699 -82.667 -2.66699 -141.334 0 -176.001c0 -2.66699 1.33301 -10 4 -22c1.33301 -7.33301 1.33301 -14.333 0 -21c-5.33301 -23.333 -18 -36.666 -38 -39.999c-14.667 -2 -25.667 5.66699 -33 23c-3.33301 8.66699 -7 25.667 -11 51
c-1.33301 10.667 0 23.834 4 39.501s6.33301 27.834 7 36.501l2 143c0 -3.33301 -0.666992 9.33398 -2 38.001c0 6.66699 -1.66699 16.334 -5 29.001c-3.33301 8 -9.66602 18 -18.999 30c-15.333 12 -34.333 18 -57 18c-13.333 0 -36.333 -7.33301 -69 -22
c-16 -7.33301 -32 -20 -48 -38c-6.66699 -4 -15.334 -11.667 -26.001 -23c-4 -10 -6.33301 -21.333 -7 -34c0.666992 -12 1 -24 1 -36l-4 -215c0.666992 -10 0 -24.667 -2 -44c-5.33301 -14 -16 -21 -32 -21c-19.333 0 -30.666 7.66699 -33.999 23c-2 6 -2 13.667 0 23
c2 12.667 3 21.334 3 26.001l2 303c0 14.667 0.666992 37.667 2 69c2 24 12.333 36 31 36c10 0 19.167 -4.16699 27.5 -12.5s11.833 -17.5 10.5 -27.5z" />
    <glyph glyph-name="o" unicode="o" horiz-adv-x="568" 
d="M368 440c2.66699 -0.666992 21.332 -5.99902 55.999 -15.999c22.667 -6 40.667 -14.667 54 -26c24.667 -21.333 42.334 -49.333 53.001 -84c4.66699 -17.333 7 -34.333 7 -51c0 -18 -4.66699 -45.333 -14 -82c-16 -64.667 -46 -114.334 -90 -149.001
c-48 -38 -103 -57 -165 -57c-75.333 0 -133.333 19.667 -174 59c-24.667 23.333 -42 49.666 -52 78.999c-7.33301 24 -12 56.667 -14 98c-2 69.333 10.667 124 38 164c24.667 34.667 60 61.334 106 80.001c38 15.333 74.667 21.666 110 18.999c20.667 -2 36 -5 46 -9
c7.33301 -3.33301 20.333 -11.666 39 -24.999zM355.998 379.001c-13.333 -3.33301 -28 -4.00195 -44 -2.00195c-22 2.66699 -40.333 12.334 -55 29.001c-13.333 -3.33301 -33 -11 -59 -23c-24.667 -14 -46 -38.667 -64 -74c-18.667 -37.333 -28 -75.666 -28 -114.999
c0 -42.667 15.667 -78.5 47 -107.5s68.666 -43.833 111.999 -44.5c60 -0.666992 112 33.666 156 102.999c22 34.667 33.667 82.334 35 143.001c0.666992 46.667 -32.666 77 -99.999 91z" />
    <glyph glyph-name="p" unicode="p" horiz-adv-x="524" 
d="M261 3c-23.333 1.33301 -48.499 7.1709 -75.499 17.5039s-43.833 15.5 -50.5 15.5c-6 0 -11 -1.33301 -15 -4s-6.33301 -8.33398 -7 -17.001c-0.666992 -5.33301 -0.666992 -14 0 -26c1.33301 -14.667 2 -24.667 2 -30c0 -10 0.666992 -26.333 2 -49
c1.33301 -18.667 1.66602 -35 0.999023 -49c-1.33301 -20.667 -6.66602 -53.667 -15.999 -99c-4.66699 -22 -14.334 -33.667 -29.001 -35c-10 0 -19 3.66699 -27 11s-11 15.666 -9 24.999c4 22.667 6 43.667 6 63c-0.666992 34.667 -1 52.667 -1 54l12 281
c0.666992 14.667 2.33398 37.667 5.00098 69c2.66699 26.667 4 50 4 70c0 13.333 -1.16699 30.666 -3.5 51.999s-3.5 37.666 -3.5 48.999c0 18.667 1.33301 31.667 4 39c4.66699 12.667 15 19 31 19c11.333 0 20.666 -4.5 27.999 -13.5s10.333 -19.167 9 -30.5
c46 24.667 100.667 37 164 37c64 0 113.333 -18.833 148 -56.5s52 -86.5 52 -146.5c0 -79.333 -22 -141.333 -66 -186c-41.333 -42.667 -96.333 -62.667 -165 -60zM292.001 59.0049c34.667 0 64.332 16.666 88.999 49.999c26.667 36 40 82.667 40 140
c0 90.667 -45.333 136 -136 136c-58 0 -98.667 -11 -122 -33c-17.333 -16.667 -29.333 -45.667 -36 -87c-2.66699 -18 -3.66699 -47.333 -3 -88c1.33301 -47.333 5.33301 -74.666 12 -81.999c7.33301 -9.33301 24.333 -14 51 -14h19c8 0.666992 14 1 18 1
c22.667 0 37.334 -3.33301 44.001 -10c2.66699 -2.66699 10.667 -7 24 -13z" />
    <glyph glyph-name="q" unicode="q" horiz-adv-x="505" 
d="M32 263c0 58 17.999 103.832 53.999 137.499s86.333 50.5 151 50.5c61.333 0 114.333 -12 159 -36c-1.33301 11.333 1.83398 21.5 9.50098 30.5s17.167 13.5 28.5 13.5c22.667 0 34 -19.333 34 -58c0 -12 -1.16699 -28.667 -3.5 -50s-3.5 -38.333 -3.5 -51
c0 -75.333 0.333008 -122 1 -140c1.33301 -37.333 0.5 -85.666 -2.5 -144.999s-3.83301 -106.333 -2.5 -141c0 -4 1 -16.667 3 -38c14 6 31.333 18.667 52 38l54 58c26.667 26 48 39 64 39c21.333 0 33.333 -5 36 -15s4 -15.667 4 -17c0 -12 -6.33301 -24.333 -19 -37
c-6 -5.33301 -20 -14.666 -42 -27.999c-19.333 -12 -33.666 -23.333 -42.999 -34l-63 -79c-13.333 -9.33301 -31.666 -23 -54.999 -41c-8.66699 -7.33301 -17.334 -11 -26.001 -11c-11.333 0 -19.833 6 -25.5 18s-8.5 23 -8.5 33c0 12.667 4.33301 23 13 31
c0 -2 -1.33301 21 -4 69c-0.666992 14 -0.333984 30.333 0.999023 49c2 22.667 3 39 3 49c0 4 0.333008 14 1 30c1.33301 12 1.33301 20.667 0 26c-0.666992 8.66699 -3 14.667 -7 18c-13.333 -6 -27 -11.333 -41 -16c-33.333 -10.667 -65 -16.667 -95 -18
c-66 -2.66699 -120.333 20.666 -163 69.999s-64 114.333 -64 195zM244.999 81.999c5.33301 5.33301 15.0068 7.99902 29.0068 7.99902c7.33301 0 19.166 -0.833008 35.499 -2.5s28.166 -2.5 35.499 -2.5c17.333 0 29 3.33301 35 10c9.33301 10 15.333 37.333 18 82
c2 39.333 1.66699 68.333 -1 87c-6.66699 41.333 -18.334 70.333 -35.001 87c-22.667 22 -62.334 33 -119.001 33c-104 0 -156 -39.667 -156 -119c0 -55.333 16.667 -103.666 50 -144.999c29.333 -37.333 59.666 -57 90.999 -59c7.33301 2.66699 11.666 6 12.999 10
s2.66602 7.66699 3.99902 11z" />
    <glyph glyph-name="r" unicode="r" horiz-adv-x="407" 
d="M285 343c-10 28.667 -24.002 43.0039 -42.002 43.0039c-32 0 -61.5 -15 -88.5 -45s-40.167 -63.667 -39.5 -101l1 -178c0 -30 -0.666992 -47.667 -2 -53c-5.33301 -18 -19.333 -27 -42 -27c-19.333 0 -31 8.66699 -35 26c-0.666992 3.33301 -1 19.666 -1 48.999v287
c0 18 1 30.667 3 38c6.66699 23.333 10.334 35.666 11.001 36.999c7.33301 12 20.333 17.667 39 17c14 -0.666992 23 -3.66699 27 -9c1.33301 -2.66699 3 -10.334 5 -23.001c27.333 18.667 48 31 62 37c20.667 9.33301 43.334 14 68.001 14
c41.333 0 73.666 -21.667 96.999 -65c20 -38.667 28.667 -82.334 26 -131.001c-0.666992 -11.333 -4.5 -21.5 -11.5 -30.5s-15.833 -13.5 -26.5 -13.5c-28 0 -41.167 14.833 -39.5 44.5s-2.16602 57.5 -11.499 83.5z" />
    <glyph glyph-name="s" unicode="s" horiz-adv-x="442" 
d="M237 -23c-54 0 -100.001 12 -138.001 36c-43.333 27.333 -65 64.666 -65 111.999c0 11.333 3.33301 21.5 10 30.5s15 13.5 25 13.5c20 0 33 -15 39 -45c11.333 -52.667 53.333 -79 126 -79c36.667 0 63 5 79 15s24 27 24 51c0 22 -9.33301 46.333 -28 73
c-17.333 24.667 -34.666 40.334 -51.999 47.001c-12.667 4 -30 7 -52 9c-35.333 2 -55.333 3.33301 -60 4c-66.667 8.66699 -101.667 40.667 -105 96c-2 32 15.333 59.667 52 83c34 22 71 33 111 33c42 0 78.333 -7.33301 109 -22c35.333 -16 53 -38.333 53 -67
c0 -23.333 -12.667 -35 -38 -35c-11.333 0 -21 5 -29 15c-11.333 14.667 -20 24 -26 28c-15.333 10.667 -38.333 16 -69 16c-22.667 0 -43 -5 -61 -15c-20 -11.333 -30 -25.666 -30 -42.999c0 -14 25.667 -22.667 77 -26c63.333 -4 101.666 -9 114.999 -15
c30.667 -14.667 55.334 -38.834 74.001 -72.501s28 -70.5 28 -110.5c0 -88 -56.333 -132 -169 -132z" />
    <glyph glyph-name="t" unicode="t" horiz-adv-x="423" 
d="M255 659c0 -14 -2.33008 -30.335 -6.99707 -49.002c-5.33301 -21.333 -8.33301 -37.666 -9 -48.999v-73l68 -6c8 -0.666992 17.833 0.333008 29.5 3s20.834 3.66699 27.501 3c17.333 0 28.666 -4 33.999 -12c3.33301 -5.33301 4.66602 -15 3.99902 -29
c-0.666992 -24 -16.334 -36 -47.001 -36c-6 0 -13.833 1.33301 -23.5 4s-17.834 4 -24.501 4l-71 3c0 -23.333 -1 -53.666 -3 -90.999c0.666992 -37.333 1.33398 -88.333 2.00098 -153c-0.666992 -12.667 1.33301 -59 6 -139c2 -30.667 -10.667 -46.667 -38 -48
c-20 -1.33301 -33.333 5 -40 19c-3.33301 8 -4.66602 22 -3.99902 42c1.33301 58 2.66602 152 3.99902 282v82l-76 -2c-14.667 -0.666992 -27.667 2.5 -39 9.5s-17 17.167 -17 30.5c0 25.333 21.333 36.333 64 33l71 -5c0.666992 17.333 1.66699 45.666 3 84.999
c-0.666992 18.667 0.666016 49.334 3.99902 92.001c4 24 18.667 37.333 44 40c24 2 36.667 -11.333 38 -40z" />
    <glyph glyph-name="u" unicode="u" horiz-adv-x="457" 
d="M398 461c0 -4 2.66602 -73.333 7.99902 -208c13.333 -16.667 19.666 -28.334 18.999 -35.001c-4.66699 -19.333 -10 -51 -16 -95c0 -8.66699 1.33301 -19.667 4 -33s4 -23 4 -29c0 -8 -1.33301 -15.667 -4 -23c-2 -10.667 -4.5 -21 -7.5 -31s-13.167 -15.333 -30.5 -16
c-22 -1.33301 -34.667 9 -38 31c-35.333 -31.333 -83.333 -47 -144 -47c-64.667 0 -110 17.667 -136 53c-20 27.333 -30 68.666 -30 123.999c0 42 5 79.667 15 113c6.66699 23.333 20.667 57 42 101l16.5 36c5.66699 12 12.834 22.333 21.501 31l11.5 14
c3.66699 4.66699 10.5 7.33398 20.5 8.00098c11.333 0.666992 21.833 -3.5 31.5 -12.5s13.167 -18.5 10.5 -28.5c-4.66699 -19.333 -14.667 -39.666 -30 -60.999c-16.667 -23.333 -27.334 -41.666 -32.001 -54.999c-12.667 -34 -20.667 -58 -24 -72
c-5.33301 -22.667 -8.33301 -50 -9 -82c-0.666992 -34.667 2 -57.334 8 -68.001c10.667 -20 37.334 -30 80.001 -30c78 0 124 35.667 138 107c3.33301 16 5.66602 39.667 6.99902 71c0.666992 40.667 -2.66602 99.667 -9.99902 177c0 2.66699 -2 11.667 -6 27
c-2 10 -2 19 0 27c8.66699 31.333 23.334 46 44.001 44c22 -2 34 -14.667 36 -38z" />
    <glyph glyph-name="v" unicode="v" horiz-adv-x="461" 
d="M107 425c0.666992 -0.666992 10.0029 -19.6709 28.0029 -57.0039l113 -233l91 221c2 5.33301 3.66699 15.333 5 30c1.33301 12.667 4.66602 22.334 9.99902 29.001c13.333 17.333 27.333 25.666 42 24.999c11.333 -0.666992 20.5 -6 27.5 -16s10.5 -21.667 10.5 -35
c0 -7.33301 -4.33301 -18 -13 -32c-12 -21.333 -19 -34.333 -21 -39l-114 -263c4 -13.333 3.33301 -26.666 -2 -39.999c-10 -26 -26 -38 -48 -36c-20 2 -32.667 16.667 -38 44c-0.666992 4.66699 -0.666992 10.334 0 17.001c1.33301 8 2 13.667 2 17l-25 55l-99 212
c-6 10 -14.333 26.333 -25 49c-0.666992 0.666992 -6.33398 8.33398 -17.001 23.001c-6 8.66699 -8.33301 17 -7 25c5.33301 25.333 20.666 37 45.999 35c16.667 -1.33301 28 -11.666 34 -30.999z" />
    <glyph glyph-name="w" unicode="w" horiz-adv-x="761" 
d="M109 414c11.333 -14 23.6689 -35.333 37.002 -64c24 -51.333 36 -77.333 36 -78l70 -136l72 192c6 11.333 12.667 29.333 20 54c1.33301 14 6.5 26.5 15.5 37.5s19.5 16.5 31.5 16.5c18 -0.666992 29.333 -11.334 34 -32.001c3.33301 -13.333 1.33301 -26 -6 -38
c10.667 -18.667 29.667 -54.334 57 -107.001c14.667 -27.333 36.667 -71.666 66 -132.999l55 143c8 24 22.333 62.667 43 116c3.33301 8 6 17.667 8 29c0.666992 8 3.33398 14.333 8.00098 19c11.333 10.667 23 16 35 16c26.667 0 40 -15 40 -45
c0 -9.33301 -2 -17.666 -6 -24.999c-18 -36 -43.333 -90.667 -76 -164l-72 -168c4 -15.333 1.66699 -30.166 -7 -44.499s-21 -21.5 -37 -21.5c-20 0 -33.667 11.667 -41 35c-4 11.333 -4 23 0 35c-28 65.333 -64 140 -108 224l-28 -63l-70 -158c2 -13.333 1 -26 -3 -38
c-8.66699 -26.667 -23.334 -40 -44.001 -40c-24 0 -37.333 14.333 -40 43c-0.666992 4 -2.33398 12.667 -5.00098 26c-2.66699 10 -3.33398 19.333 -2.00098 28l-133 293c-24 6.66699 -36 23.667 -36 51c0 12.667 3.83301 24 11.5 34s17.5 15.333 29.5 16
c16 1.33301 27 -4.33398 33 -17.001z" />
    <glyph glyph-name="x" unicode="x" horiz-adv-x="467" 
d="M427 423c-4 -17.333 -19.3311 -40.6641 -45.998 -69.9971c-36 -38.667 -59 -65.667 -69 -81l-26 -38l57 -74c15.333 -19.333 39 -52.333 71 -99c12.667 -22 18.334 -37.333 17.001 -46c-4.66699 -24 -18.667 -36 -42 -36c-10 0 -23.667 10.667 -41 32
c-5.33301 6.66699 -10 15.667 -14 27c-4.66699 14 -8.66699 23.667 -12 29c-10.667 19.333 -21 35.666 -31 48.999l-49 61l-82 -93l-36 -44c1.33301 -20 -5.33398 -36 -20.001 -48s-31.667 -16.333 -51 -13c-12 2 -19 11 -21 27c-1.33301 9.33301 2 21.333 10 36
c2 4 13 13.667 33 29c4 6 10.667 15.333 20 28c14 16 35.333 42.333 64 79l39 58l-32 82c-6 8 -14.667 21.667 -26 41l-14 26c-4.66699 8.66699 -7 16.667 -7 24c0 12 4.33301 23.167 13 33.5s18.667 15.166 30 14.499s22.666 -14 33.999 -40l55 -126l37 58
c11.333 18 28.333 42.333 51 73c19.333 28 37.666 40.333 54.999 37c10 -2 18.5 -6.33301 25.5 -13s9.5 -14.334 7.5 -23.001z" />
    <glyph glyph-name="y" unicode="y" horiz-adv-x="454" 
d="M414 415c2 -14.667 2.66602 -31.999 1.99902 -51.999c-1.33301 -18.667 -2.33301 -37.334 -3 -56.001c-0.666992 -28.667 -3.66699 -75 -9 -139c-1.33301 -9.33301 -4 -25.333 -8 -48c6.66699 -9.33301 10 -19 10 -29c0 -6 -1.66699 -11.667 -5 -17
c-6 -9.33301 -9 -14.333 -9 -15l-5 -46c0 -9.33301 -1.33301 -23.333 -4 -42c-25.333 -156 -103.333 -233.333 -234 -232c-39.333 0 -72.5 10.667 -99.5 32s-40.5 48 -40.5 80c0 24 4.33301 45.333 13 64c11.333 24 28 35.333 50 34c11.333 0 18 -4.33301 20 -13
c0 -8 0.333008 -16 1 -24c0.666992 -7.33301 -1.83301 -15.666 -7.5 -24.999s-8.16699 -17.333 -7.5 -24c2.66699 -36.667 24.334 -55.667 65.001 -57c47.333 -0.666992 88 16.333 122 51s51 76 51 124v36c-36.667 -28.667 -78 -41.334 -124 -38.001
c-69.333 4.66699 -115.333 28.334 -138 71.001c-14 26.667 -21.333 73 -22 139c-1.33301 116 20.334 195.333 65.001 238c18.667 18 33.334 26.333 44.001 25c19.333 -3.33301 29.666 -15.333 30.999 -36c0 -12 -4 -21.333 -12 -28c-12 -9.33301 -19 -16 -21 -20
c-14 -26 -24 -66 -30 -120c-9.33301 -84 -6.33301 -141 9 -171c6 -12.667 26.333 -21.334 61 -26.001c9.33301 -1.33301 18.666 -2 27.999 -2c44.667 0 78 16 100 48c12.667 18 20.667 41 24 69l10 108c2 21.333 2.33301 49 1 83c0 4 -1.33301 12.333 -4 25
c-2.66699 9.33301 -3 17.333 -1 24c7.33301 31.333 20 47 38 47c22 0 35 -12.667 39 -38z" />
    <glyph glyph-name="z" unicode="z" horiz-adv-x="407" 
d="M179 419c21.333 -1.33301 45.667 0.333984 73 5.00098c20 3.33301 40 7 60 11c13.333 2 25.833 -1.66699 37.5 -11s17.5 -20.666 17.5 -33.999c0 -6 -1.66699 -14 -5 -24c-4 -13.333 -6.33301 -22.333 -7 -27c-1.33301 -7.33301 -9.33301 -25.666 -24 -54.999
c-16 -24.667 -40.667 -66 -74 -124l-51 -98c21.333 -2 40.333 -2 57 0c5.33301 0.666992 15.333 3.33398 30 8.00098c11.333 3.33301 21.333 4.66602 30 3.99902c16.667 -2.66699 28 -5 34 -7c10.667 -4.66699 17.334 -12.334 20.001 -23.001
c4.66699 -21.333 -13 -36 -53 -44c-18.667 -4 -37 -6 -55 -6c-10.667 0 -27.167 1.16699 -49.5 3.5s-40.833 3.5 -55.5 3.5c-0.666992 -8 -4.5 -17.333 -11.5 -28s-11.833 -17.334 -14.5 -20.001c-5.33301 -5.33301 -12.333 -8.33301 -21 -9
c-28 -2.66699 -42 11.666 -42 42.999c-3.33301 -0.666992 -6.33301 -1 -9 -1c-18 0 -29 9.33301 -33 28c-5.33301 20 4.66699 34.667 30 44c19.333 7.33301 36.333 5.33301 51 -6l25 36c6.66699 11.333 16.667 27.333 30 48c10 14 24.667 37 44 69
c16 32 30.667 66.333 44 103c4 10.667 9.66699 26.667 17 48c-10.667 1.33301 -27.334 2.66602 -50.001 3.99902c-12 -1.33301 -31 -2 -57 -2c-23.333 -0.666992 -46 0.333008 -68 3c-32 4.66699 -49.667 16.334 -53 35.001c-2 14 0.666992 25.5 8 34.5s18 13.5 32 13.5
c10 0 25 -4 45 -12s36 -12.333 48 -13z" />
    <glyph glyph-name="braceleft" unicode="{" horiz-adv-x="344" 
d="M298 617c-4.66699 -2 -10.9971 -2.33105 -18.9971 -0.998047c-8.66699 1.33301 -15 1.66602 -19 0.999023c-10 -1.33301 -16.667 -2.66602 -20 -3.99902c-6.66699 -2.66699 -12 -6.66699 -16 -12c-8.66699 -12.667 -16 -44.334 -22 -95.001
c0 -2 -0.666992 -38.333 -2 -109c0.666992 -14 0 -36.667 -2 -68c-2.66699 -13.333 -6.33398 -23.333 -11.001 -30s-9.66699 -13.334 -15 -20.001c0.666992 -24.667 0.666992 -49.667 0 -75c-0.666992 -19.333 -4 -44.833 -10 -76.5s-9 -56.834 -9 -75.501
s3.66699 -34.667 11 -48c8 -15.333 19.667 -23 35 -23c7.33301 0 20 3.33301 38 10s32.667 10.334 44 11.001c9.33301 0.666992 16.833 -3.16602 22.5 -11.499s8.5 -17.5 8.5 -27.5c0 -18 -10.667 -31 -32 -39c-11.333 -4 -32 -7.66699 -62 -11
c-35.333 -4 -65.333 6.66699 -90 32s-39.334 58.666 -44.001 99.999c-3.33301 32.667 -2.66602 65.667 2.00098 99c2.66699 11.333 6 27.333 10 48c0.666992 8.66699 0.333984 18.667 -0.999023 30c-0.666992 14.667 -1 25.334 -1 32.001c-3.33301 -0.666992 -15 2 -35 8
c-14.667 4.66699 -23.334 7.66699 -26.001 9c-7.33301 4.66699 -11 12.334 -11 23.001c0 14 14.667 23.333 44 28c11.333 1.33301 22 2.66602 32 3.99902s18.167 5.5 24.5 12.5s10.166 15.333 11.499 25s2.83301 20 4.5 31s2.16699 28.667 1.5 53s0 42.5 2 54.5
c2 18 4.33301 41 7 69c1.33301 10.667 4.66602 28 9.99902 52c17.333 49.333 49.666 73.666 96.999 72.999c42.667 -0.666992 65 -11 67 -31c2.66699 -24 -5.66602 -40 -24.999 -48z" />
    <glyph glyph-name="bar" unicode="|" horiz-adv-x="224" 
d="M104 697c20 0 33.667 -16.335 41 -49.002c4 -17.333 6.33301 -34.666 7 -51.999v-48c2 -58 3 -100.667 3 -128v-203v-119c-0.666992 -43.333 -2 -97.333 -4 -162c-2 -33.333 -16.333 -50 -43 -50c-18 0 -27.333 12 -28 36c0 18.667 1.33301 54.834 4 108.501
s4 86.5 4 98.5c0 14 -1 32.833 -3 56.5s-3 42.5 -3 56.5l3 178c0.666992 24.667 -1.83301 60.5 -7.5 107.5s-8.5 82.167 -8.5 105.5c0 42.667 11.667 64 35 64z" />
    <glyph glyph-name="braceright" unicode="}" horiz-adv-x="372" 
d="M95 665c4.66699 20 28.333 30.332 71 30.999c46.667 0.666992 76 -23.333 88 -72c-0.666992 -10.667 -0.333984 -27.334 0.999023 -50.001c-0.666992 -5.33301 -0.166992 -15.666 1.5 -30.999s2.5 -24.666 2.5 -27.999c0.666992 -8 -0.666016 -23.667 -3.99902 -47
c-4 -29.333 -6.66699 -52.333 -8 -69c-1.33301 -26 1.66699 -43.667 9 -53c5.33301 -6.66699 13.166 -10.834 23.499 -12.501s20.833 -3.16699 31.5 -4.5c27.333 -4 41 -13.333 41 -28c0 -9.33301 -4.66699 -16.333 -14 -21c-2 -1.33301 -11 -4.33301 -27 -9
c-20.667 -6.66699 -32.667 -9.66699 -36 -9c-3.33301 -12.667 -6.66602 -33 -9.99902 -61c0 -4.66699 0.666992 -14.334 2 -29.001c1.33301 -16.667 2 -26.667 2 -30c0.666992 -27.333 -2.33301 -55.333 -9 -84c-10 -40.667 -28.833 -73.5 -56.5 -98.5
s-59.167 -35.833 -94.5 -32.5c-58.667 6 -88 21.333 -88 46c0 5.33301 1 11.333 3 18c6.66699 18 17.667 26.333 33 25c11.333 -1.33301 25.666 -5.16602 42.999 -11.499s29.666 -9.5 36.999 -9.5c14.667 0 27.334 7.66699 38.001 23c8.66699 12.667 14.334 28 17.001 46
c2 19.333 2 43.666 0 72.999c-2 32 -2 57.667 0 77c0.666992 14.667 3.33398 39 8.00098 73c-4.66699 6.66699 -9 13.167 -13 19.5s-6.33301 16.5 -7 30.5c-0.666992 20 2.5 49.333 9.5 88s10.5 66.334 10.5 83.001c0 48.667 -4.66699 80.334 -14 95.001
c-4 7.33301 -15.333 12.333 -34 15c-8.66699 -2 -21.334 -2 -38.001 0c-14 6.66699 -21 18 -21 34c0 4 0.666992 8.33301 2 13z" />
    <glyph glyph-name="asciitilde" unicode="~" horiz-adv-x="524" 
d="M299 440.5c5.33301 -5.66699 9.66602 -10.501 12.999 -14.501c8.66699 6 16.334 14.333 23.001 25c2 6.66699 6.33301 16 13 28c9.33301 10.667 19.333 16 30 16s20 -3.66699 28 -11s11 -15.666 9 -24.999c-2 -10 -12 -26.667 -30 -50
c-14.667 -18.667 -30.334 -33.667 -47.001 -45c-14 -9.33301 -27.667 -11 -41 -5c-11.333 4.66699 -20.333 11.667 -27 21c-9.33301 12.667 -18.333 25.667 -27 39l-35 -25c-3.33301 -12 -10.166 -21.833 -20.499 -29.5s-21.166 -10.5 -32.499 -8.5
c-20 3.33301 -30 14.333 -30 33c0 5.33301 5 14.333 15 27c6.66699 4.66699 17.334 12.667 32.001 24c5.33301 8.66699 15.666 20.667 30.999 36c20 14 34.333 20.667 43 20c9.33301 -1.33301 16.666 -5.83301 21.999 -13.5l15.5 -22.5
c5 -7.33301 10.167 -13.833 15.5 -19.5z" />
    <glyph glyph-name="nonbreakingspace" unicode="&#xa0;" horiz-adv-x="420" 
 />
    <glyph glyph-name="exclamdown" unicode="&#xa1;" horiz-adv-x="230" 
d="M126 337c-13.333 0 -25.167 4.33301 -35.5 13s-15.5 19.667 -15.5 33c0 16 6.16699 29 18.5 39s26.833 15 43.5 15c28 0 42 -17.333 42 -52c0 -14 -5.33301 -25.5 -16 -34.5s-23 -13.5 -37 -13.5zM126.999 308c10.667 -0.666992 19.1641 -5.66992 25.4971 -15.0029
s8.83301 -19.666 7.5 -30.999c-8 -83.333 -20.333 -189.666 -37 -318.999c-2.66699 -18 -6.33398 -47 -11.001 -87c-1.33301 -22.667 -4.33301 -56.667 -9 -102c-3.33301 -22 -11.666 -33 -24.999 -33c-26.667 0 -43 11.333 -49 34
c-1.33301 5.33301 -0.666016 12.333 2.00098 21c3.33301 12.667 5.33301 20 6 22c2.66699 24.667 6.66699 64.334 12 119.001c2.66699 19.333 15.334 103 38.001 251c2 11.333 2.33301 27 1 47c-1.33301 24 -2 39.333 -2 46c0.666992 14 4.83398 25.667 12.501 35
s17.167 13.333 28.5 12z" />
    <glyph glyph-name="cent" unicode="&#xa2;" horiz-adv-x="451" 
d="M312 578c-7.33301 -15.333 -12.333 -35.667 -15 -61c36.667 -2 64.667 -10.667 84 -26c29.333 -24 43 -50.667 41 -80l-2 -41c-3.33301 -13.333 -14.666 -20.333 -33.999 -21c-20 0 -30.667 12.667 -32 38c-0.666992 15.333 -1.33398 24.666 -2.00098 27.999
c-2 9.33301 -5.83301 17.166 -11.5 23.499s-13.334 10.333 -23.001 12s-19.167 3.16699 -28.5 4.5c-2.66699 -16 -6.66699 -41.333 -12 -76c-0.666992 -23.333 -2.66699 -61.333 -6 -114c-6 -24 -13.667 -62.667 -23 -116l33.5 26.5c11.667 9 22.5 13.5 32.5 13.5
c10.667 0 20.5 -4.5 29.5 -13.5s13.5 -18.833 13.5 -29.5c0 -16.667 -19.333 -34.667 -58 -54c-21.333 -11.333 -43.666 -16.333 -66.999 -15c6 -18.667 6.33301 -37 1 -55l-10 -36c-5.33301 -11.333 -17 -16 -35 -14c-15.333 0.666992 -23.666 7.16699 -24.999 19.5
s-2 24.5 -2 36.5c-1.33301 19.333 0.333984 34 5.00098 44c-41.333 8 -75 24.667 -101 50c-28 27.333 -41.667 59.333 -41 96c1.33301 46.667 16.666 95 45.999 145c26.667 46 57.667 82.667 93 110c9.33301 6.66699 27.333 14.334 54 23.001c7.33301 14 12 28.333 14 43
c4 20.667 6.66699 33.667 8 39c3.33301 11.333 7.16602 22.833 11.499 34.5s11.833 17.834 22.5 18.501c10 0 19.333 -4.16699 28 -12.5s13 -17.5 13 -27.5c0 -4.66699 -0.666992 -9 -2 -13zM128 324.999c-25.333 -46 -40 -85.334 -44 -118.001
c-0.666992 -8 3 -15.333 11 -22s16 -13 24 -19c19.333 -14 39 -22.333 59 -25c10.667 52 18 97.667 22 137c3.33301 30 7 79 11 147c-27.333 -17.333 -55 -50.666 -83 -99.999z" />
    <glyph glyph-name="sterling" unicode="&#xa3;" horiz-adv-x="502" 
d="M317 460c-11.333 -0.666992 -20.667 4.16699 -28 14.5s-11.333 21.833 -12 34.5c-0.666992 19.333 7 37 23 53c-4.66699 19.333 -14.5 35.833 -29.5 49.5s-31.167 20.5 -48.5 20.5c-36 -1.33301 -59.667 -7.66602 -71 -18.999c-4.66699 -4.66699 -7 -13.334 -7 -26.001
c0 -10 2 -28.333 6 -55s6.33301 -46.334 7 -59.001c1.33301 -29.333 4 -76 8 -140l61 10c17.333 5.33301 45.666 11 84.999 17c12.667 0.666992 24.5 -2.5 35.5 -9.5s16.5 -16.833 16.5 -29.5c0 -22 -13.333 -35 -40 -39c-13.333 -2 -25.333 -1.33301 -36 2
c-14 -2.66699 -37 -6.66699 -69 -12c-11.333 -3.33301 -29.666 -7.33301 -54.999 -12c0 -2 -3 -15 -9 -39c-4 -14 -6 -27 -6 -39c0 -8.66699 -0.333008 -23.667 -1 -45c-1.33301 -16.667 -1.66602 -31.667 -0.999023 -45c30.667 -1.33301 80 -4.66602 148 -9.99902
c22.667 -2 64.667 -8.33301 126 -19c33.333 -6.66699 48.666 -22.334 45.999 -47.001c-1.33301 -12 -6.33301 -21.667 -15 -29s-18.334 -10 -29.001 -8c-32.667 9.33301 -86 21.666 -160 36.999c-59.333 7.33301 -100.666 9.66602 -123.999 6.99902
c-5.33301 -28.667 -16 -44 -32 -46c-9.33301 -1.33301 -18.666 1 -27.999 7s-14.666 14 -15.999 24c-22 0 -33 9.66699 -33 29c0 22 15.333 38 46 48c2.66699 18 6 47 10 87c2 18 4.33301 47.333 7 88c-6 -0.666992 -12 -1 -18 -1c-30.667 0 -48 10.667 -52 32
c-2.66699 14 2.16602 25.667 14.499 35s27.166 14 44.499 14c4.66699 0 9.66699 -0.333008 15 -1c0 22.667 -1.33301 56.334 -4 101.001c-1.33301 18.667 -5 46 -11 82c-5.33301 31.333 -8 56.333 -8 75c0 29.333 16.333 55.333 49 78c30 20.667 59.667 30.667 89 30
c40.667 -0.666992 76.667 -18.167 108 -52.5s47.666 -73.166 48.999 -116.499c0.666992 -19.333 -3.66602 -36.666 -12.999 -51.999s-22 -23.333 -38 -24z" />
    <glyph glyph-name="currency" unicode="&#xa4;" horiz-adv-x="536" 
d="M485 512c1.33301 -9.33301 -1.99707 -18.0029 -9.99707 -26.0029c-13.333 -14 -20.333 -21.667 -21 -23c35.333 -32 55 -71.333 59 -118c0.666992 -14 -5 -36 -17 -66c-16 -38 -37 -70.667 -63 -98c19.333 -2.66699 29 -14 29 -34c0 -20.667 -13.333 -31.667 -40 -33
c-7.33301 -0.666992 -15 1.66602 -23 6.99902l-21 14c-41.333 -22.667 -81.333 -33.334 -120 -32.001c-44 2 -76.667 8.33301 -98 19l-47 32c-8.66699 -15.333 -22.667 -22.333 -42 -21c-12 0.666992 -22.333 4.5 -31 11.5s-12.667 15.833 -12 26.5
c1.33301 6.66699 5.83301 12.167 13.5 16.5l22.5 12.5c-22 36.667 -32.333 76 -31 118c0.666992 40.667 7.16699 70.834 19.5 90.501s24.5 34.5 36.5 44.5c-9.33301 6.66699 -17 15.334 -23 26.001c-8.66699 16.667 -11.334 28.334 -8.00098 35.001
c8.66699 17.333 24.667 24.333 48 21c8 -1.33301 14.667 -5.66602 20 -12.999c9.33301 -12.667 14.666 -19.667 15.999 -21c40 32.667 84.333 49.667 133 51c47.333 0.666992 90.666 -12.666 129.999 -39.999c6.66699 14.667 17.334 23.667 32.001 27
c19.333 4 32.666 2 39.999 -6c5.33301 -6.66699 8 -13.667 8 -21zM271.003 490.997c-44 0 -86.335 -22.3301 -127.002 -66.9971c-38 -41.333 -57 -76 -57 -104c0.666992 -45.333 17.167 -83.5 49.5 -114.5s71.5 -46.833 117.5 -47.5c68 -0.666992 122 35.666 162 108.999
c17.333 33.333 26 61.666 26 84.999c0 6 -0.333008 12.333 -1 19c-3.33301 27.333 -24.666 54.166 -63.999 80.499s-74.666 39.5 -105.999 39.5z" />
    <glyph glyph-name="yen" unicode="&#xa5;" horiz-adv-x="555" 
d="M224 288l1.00293 46.9971c-6.66699 16 -17 33.667 -31 53c-10 13.333 -35.667 53.666 -77 120.999c-7.33301 15.333 -21 38.333 -41 69l-26 23c-12 10.667 -18 22 -18 34c0 18.667 0.666992 30.334 2 35.001c4 11.333 13.667 17 29 17c16.667 0 29.167 -3.66699 37.5 -11
s19.833 -21.666 34.5 -42.999c10 -15.333 19.667 -33.333 29 -54c12.667 -28 21.667 -46.667 27 -56c16.667 -31.333 42 -72.333 76 -123c12 21.333 36.167 62.166 72.5 122.499s69.166 111.166 98.499 152.499c12.667 18 29.334 27 50.001 27c10 0 17 -2 21 -6
c0 -0.666992 1.83301 -5.5 5.5 -14.5s5.5 -16.833 5.5 -23.5c0 -9.33301 -3.66699 -18 -11 -26c-12.667 -14 -19.667 -21.667 -21 -23l-92 -129c-39.333 -55.333 -65 -100.666 -77 -135.999c-4 -11.333 -6 -25.666 -6 -42.999c7.33301 0 18.166 1 32.499 3
s25.166 3 32.499 3c41.333 0 62 -14.667 62 -44s-19 -44 -57 -44h-21c-10 0.666992 -17 1 -21 1c-4.66699 0 -10.667 -0.333008 -18 -1h-16v-42c5.33301 0.666992 9.66602 1 12.999 1s10.833 0.333008 22.5 1s20.834 1 27.501 1c42 0 63 -13.667 63 -41
c0 -19.333 -18.667 -32.666 -56 -39.999c-6.66699 0 -15.667 0.833008 -27 2.5s-20.666 2.5 -27.999 2.5h-14v-39l3.5 -14c2.33301 -9.33301 3.5 -17.333 3.5 -24c0 -7.33301 -1.16699 -13.833 -3.5 -19.5l-7.5 -18.5c-4 -4 -15.667 -8 -35 -12
c-4.66699 0 -12.334 1.5 -23.001 4.5s-17.334 5.5 -20.001 7.5c-4 4.66699 -6.33301 10.334 -7 17.001c-0.666992 4.66699 -0.666992 11 0 19c1.33301 9.33301 2 15.666 2 18.999c0 8.66699 0.333008 17.334 1 26.001v23v1c-8 0 -19.333 -1.33301 -34 -4s-25.667 -4 -33 -4
c-39.333 0 -59 14 -59 42c0 28.667 18 43 54 43c4.66699 0 11.5 -0.333008 20.5 -1s15.167 -1 18.5 -1c5.33301 0 11.666 0.333008 18.999 1s12.333 1 15 1l1 41h-20c-4 0 -12.167 -0.5 -24.5 -1.5s-22.166 -1.5 -29.499 -1.5c-43.333 0 -65 14.333 -65 43
c0 20 19.667 34 59 42c8 1.33301 17.333 1 28 -1c13.333 -3.33301 23 -5 29 -5h23z" />
    <glyph glyph-name="brokenbar" unicode="&#xa6;" horiz-adv-x="224" 
d="M107 317c11.333 0 22.334 -8 33.001 -24c8.66699 -14 13.667 -26 15 -36l6 -46c3.33301 -22.667 4.33301 -38 3 -46l-9 -82v-44l-2 -47c-6 -24.667 -21 -37 -45 -37c-17.333 0 -26 29 -26 87c0 6 1 14.667 3 26s3 20 3 26v74c0 19.333 -3 48 -9 86c-2 12 -1 24.667 3 38
c5.33301 16.667 13.666 25 24.999 25zM104.001 712c10.667 0 21.335 -8.33301 32.002 -25c9.33301 -13.333 14.666 -25 15.999 -35c2 -23.333 3 -40.333 3 -51v-82v-47l-2 -48c-6 -24.667 -21 -37 -45 -37c-17.333 0 -26 29.333 -26 88v54l3 72
c0.666992 6.66699 -0.333008 14.667 -3 24c-3.33301 12 -5.33301 19.667 -6 23c-2 12.667 -1 25.667 3 39c5.33301 16.667 13.666 25 24.999 25z" />
    <glyph glyph-name="section" unicode="&#xa7;" horiz-adv-x="423" 
d="M323 257l12.9941 -12.001c33.333 -30 50.333 -72.667 51 -128c1.33301 -45.333 -13.667 -81.166 -45 -107.499s-74.666 -38.166 -129.999 -35.499c-54 2 -97.667 14.333 -131 37c-39.333 27.333 -58.333 66.333 -57 117c0.666992 20 10.334 31.333 29.001 34
c19.333 2.66699 32 -15.333 38 -54c6.66699 -48 48 -71.333 124 -70c36.667 0.666992 62.167 6.16699 76.5 16.5s22.833 28.166 25.5 53.499c2 18.667 -2 38 -12 58c-12 24 -30 43.667 -54 59l-11 8c-12.667 -2 -44.667 1 -96 9c-70.667 10.667 -105 39.334 -103 86.001
c1.33301 29.333 17 55 47 77c26 20 58.333 34 97 42c14 3.33301 30 4.33301 48 3c27.333 -2.66699 43.333 -4 48 -4c-12 16.667 -28.333 31 -49 43c-8 4.66699 -25.333 7.66699 -52 9c-32 1.33301 -54.333 3.33301 -67 6c-54.667 12 -81.334 39 -80.001 81
c0.666992 31.333 16.334 59 47.001 83s64.334 35.333 101.001 34c44 -1.33301 83.333 -9.33301 118 -24c38 -16.667 57.667 -37 59 -61c0.666992 -23.333 -7 -35 -23 -35c-12 0 -20 1 -24 3c-8 4.66699 -18.333 16.667 -31 36c-8 12.667 -30.333 19.667 -67 21
c-31.333 1.33301 -57.5 -4 -78.5 -16s-31.5 -25.667 -31.5 -41c0 -16 30.333 -23 91 -21c34.667 1.33301 71.334 -13.334 110.001 -44.001c49.333 -38.667 74.333 -83 75 -133c0.666992 -32 -3.16602 -57 -11.499 -75s-23.166 -36.333 -44.499 -55zM308.994 366.999
c-2.66699 15.333 -27.667 23.001 -75 23.001c-10.667 0 -20.334 -0.666992 -29.001 -2c-17.333 -2.66699 -36 -10 -56 -22l-22.5 -14.5c-7.66699 -5 -12.5 -11.167 -14.5 -18.5c-4 -12.667 9 -22.334 39 -29.001c24 -4.66699 51.667 -7 83 -7c20.667 0 39.334 7 56.001 21
s23 30.333 19 49z" />
    <glyph glyph-name="dieresis" unicode="&#xa8;" horiz-adv-x="527" 
d="M244 682c0.666992 -14 -4.66797 -25.833 -16.001 -35.5s-24.333 -14.5 -39 -14.5c-14 0 -26.833 4.33301 -38.5 13s-17.5 19.667 -17.5 33c-1.33301 32 19.334 48 62.001 48c11.333 0 22.333 -4.5 33 -13.5s16 -19.167 16 -30.5zM406.998 691
c0 -14.667 -5.33203 -26.832 -15.999 -36.499s-23 -14.5 -37 -14.5c-13.333 0 -25.833 4.83301 -37.5 14.5s-17.834 20.5 -18.501 32.5c-0.666992 14 4 25.667 14 35s22 14 36 14c14.667 0 28.167 -4.33301 40.5 -13s18.5 -19.334 18.5 -32.001z" />
    <glyph glyph-name="copyright" unicode="&#xa9;" horiz-adv-x="623" 
d="M362 681c22.667 6 37.666 9 44.999 9c8.66699 0 23.667 -4 45 -12c55.333 -20.667 92 -56 110 -106c12.667 -34.667 19 -71.334 19 -110.001c0 -68.667 -17.333 -129.667 -52 -183c-37.333 -57.333 -87.333 -93 -150 -107c-26.667 -6 -53.667 -9 -81 -9
c-62 0 -115 14.333 -159 43c-49.333 32.667 -79.333 79.334 -90 140.001c-2.66699 17.333 -4 35 -4 53c0 72.667 20.167 140 60.5 202s86.833 96.333 139.5 103c18 2 33 3 45 3c20 0 34.833 -2.83301 44.5 -8.5s18.834 -11.5 27.501 -17.5zM258.999 652
c-44 -6 -82.501 -34.165 -115.501 -84.498s-49.5 -105.833 -49.5 -166.5c0 -16 1.33301 -31.333 4 -46c8 -45.333 32.333 -81 73 -107c38 -25.333 82 -38 132 -38c20 0 39.333 2.33301 58 7c52 11.333 93.333 41.333 124 90c28 45.333 42 96.666 42 153.999
c0 33.333 -5 64.666 -15 93.999c-9.33301 24 -21 41.667 -35 53c-8.66699 6.66699 -25.667 14.667 -51 24c-19.333 6.66699 -36.666 10 -51.999 10c-12.667 0 -27 -2 -43 -6c-4.66699 2 -8.66699 5.66699 -12 11s-10.333 8 -21 8c-8.66699 0 -21.667 -1 -39 -3z
M425.998 461.002c-18 -1.33301 -29.334 9.66504 -34.001 32.998c-3.33301 14.667 -12 24.334 -26 29.001c-6 2 -19.667 3.66699 -41 5c-34 2.66699 -60.333 -8.33301 -79 -33c-15.333 -21.333 -23.333 -48.666 -24 -81.999c-0.666992 -26 7 -45.833 23 -59.5
s35.667 -19.834 59 -18.501c32.667 1.33301 53.667 14.333 63 39c6 14 9.33301 21.333 10 22c4.66699 6.66699 13.334 10 26.001 10c18.667 0 27 -11 25 -33c-2 -26.667 -15.5 -49 -40.5 -67s-53.5 -27.333 -85.5 -28c-38 -0.666992 -69.667 9.66602 -95 30.999
c-27.333 22 -42 52.667 -44 92c-2.66699 56.667 12.5 102.834 45.5 138.501s74.167 50.834 123.5 45.501c73.333 -8 114 -37.333 122 -88c3.33301 -22.667 -6 -34.667 -28 -36z" />
    <glyph glyph-name="ordfeminine" unicode="&#xaa;" horiz-adv-x="309" 
d="M212 455c-23.333 -16.667 -49.333 -24.334 -78 -23.001c-29.333 1.33301 -54.333 12 -75 32s-32 44.667 -34 74c-2 40 7.5 74.333 28.5 103s49.167 43 84.5 43c11.333 0 23.333 -2.33301 36 -7c19.333 -8 31 -12.667 35 -14c0 8 2.83301 14.167 8.5 18.5
s13.5 6.5 23.5 6.5c7.33301 0 14 -2.5 20 -7.5s9 -11.167 9 -18.5c0 -3.33301 -1.66699 -9.33301 -5 -18s-5 -15.667 -5 -21c0 -4.66699 1 -11 3 -19s3 -13.667 3 -17c-1.33301 -16 -2 -42 -2 -78c0.666992 -3.33301 2 -9 4 -17s3 -14.667 3 -20
c-0.666992 -8 -1.5 -15.667 -2.5 -23s-4 -11.666 -9 -12.999s-9.16699 -2 -12.5 -2c-15.333 0 -27 7 -35 21zM283 376c0 -8.66699 -4.33203 -16.666 -12.999 -23.999s-17.334 -11 -26.001 -11c-4 0 -10.5 1.66699 -19.5 5s-16.167 5 -21.5 5
c-10 -3.33301 -26.667 -7.33301 -50 -12c-18.667 -2 -46 -3.66699 -82 -5c-28.667 -1.33301 -43 9.66699 -43 33c0 20 17 30.667 51 32c4.66699 0 10.5 -1 17.5 -3s12.5 -3 16.5 -3c8 -0.666992 17 -0.333984 27 0.999023c13.333 2 22.833 3 28.5 3s14.167 1.16699 25.5 3.5
s19.666 3.5 24.999 3.5c6.66699 0 13.334 -1 20.001 -3c10 -1.33301 19.833 -3 29.5 -5s14.5 -8.66699 14.5 -20zM145.001 622.001c-18 0 -32.5 -8 -43.5 -24s-15.167 -33.667 -12.5 -53c5.33301 -34.667 21 -52 47 -52c46.667 0 70 20 70 60c0 16.667 -5 31.667 -15 45
c-12.667 16 -28 24 -46 24z" />
    <glyph glyph-name="guillemotleft" unicode="&#xab;" horiz-adv-x="543" 
d="M477 427c0 -1.33301 -4.16602 -10.6689 -12.499 -28.002s-19.833 -33.666 -34.5 -48.999c-25.333 -26.667 -38.333 -40.667 -39 -42c-13.333 -16 -41 -47.333 -83 -94l76 -51c18.667 -10.667 49.667 -32.334 93 -65.001l26.5 -23.5c9 -8.33301 13.5 -16.833 13.5 -25.5
c0 -3.33301 -0.666992 -6.66602 -2 -9.99902c-6 -15.333 -20 -25.333 -42 -30c-13.333 -2 -26.333 2.16699 -39 12.5l-37 30.5c-12 7.33301 -26.5 19.5 -43.5 36.5s-31.167 29.167 -42.5 36.5c-16 10 -35.667 21.333 -59 34c-28 14.667 -40.667 30.667 -38 48
c0.666992 6 3.16699 11.333 7.5 16l14.5 15.5c5.33301 5.66699 14.666 16.5 27.999 32.5c17.333 18 44 48 80 90c8.66699 14 24.334 35 47.001 63c6 8 12.5 16 19.5 24s15.167 12 24.5 12s18.666 -3.16699 27.999 -9.5s14 -14.166 14 -23.499zM291.001 410.997
c0 -1.33301 -4.33203 -10.667 -12.999 -28s-20.334 -33.666 -35.001 -48.999l-39 -41c-13.333 -16.667 -40.666 -48.334 -81.999 -95.001l76 -51c18.667 -10.667 49.667 -32.334 93 -65.001l26 -22c8.66699 -9.33301 13 -18.333 13 -27
c0 -3.33301 -0.666992 -6.66602 -2 -9.99902c-5.33301 -15.333 -19.333 -25 -42 -29c-13.333 -2.66699 -26.333 1.16602 -39 11.499l-36 30.5c-12 7.33301 -26.5 19.5 -43.5 36.5s-31.5 29.167 -43.5 36.5c-15.333 10 -35 21.333 -59 34c-27.333 14.667 -40 31 -38 49
c1.33301 5.33301 4.16602 10.333 8.49902 15l12.5 14l30 34c17.333 18 44 48 80 90c8.66699 14 24 35 46 63l20.5 24c7 8 14.833 12 23.5 12c10 0 19.667 -3.16699 29 -9.5s14 -14.166 14 -23.499z" />
    <glyph glyph-name="logicalnot" unicode="&#xac;" horiz-adv-x="669" 
d="M551 52c4.66699 14 9.66602 37.001 14.999 69.001c1.33301 10.667 2.33301 21.667 3 33s-2.33301 20.333 -9 27c-10.667 11.333 -34.334 18.333 -71.001 21c-11.333 0.666992 -40.333 1 -87 1c-9.33301 0 -39.666 -1 -90.999 -3c-42.667 -2 -101.667 -7.33301 -177 -16
c-19.333 -2 -35.333 -3 -48 -3c-44 0 -65 12.667 -63 38c1.33301 15.333 12 24.666 32 27.999c2 0.666992 18.333 1.33398 49 2.00098c9.33301 0 17 0.666992 23 2c38.667 6 78 9.33301 118 10h113l65 4c23.333 1.33301 45 1 65 -1s40.5 -4.33301 61.5 -7
s38.333 -11.334 52 -26.001s21.834 -32.334 24.501 -53.001c1.33301 -9.33301 1.33301 -30.333 0 -63c-1.33301 -53.333 -2.33301 -81.666 -3 -84.999c-5.33301 -29.333 -19 -43.333 -41 -42c-23.333 2 -35 12.667 -35 32z" />
    <glyph glyph-name="minus" unicode="&#xad;" horiz-adv-x="416" 
d="M29 229c0 20.667 19.665 35.001 58.998 43.001c8 1.33301 17.333 0.666016 28 -2.00098c14 -2.66699 23.667 -4 29 -4c24.667 0 56 3.16699 94 9.5s65.667 9.5 83 9.5c41.333 0 62 -14.667 62 -44c0 -30 -18.667 -45 -56 -45c-5.33301 0 -12.666 0.333008 -21.999 1
s-16.333 1 -21 1c-22 0 -44.667 -1.5 -68 -4.5s-46.333 -4.5 -69 -4.5c-4 0 -12.167 -0.333008 -24.5 -1s-22.166 -1 -29.499 -1c-43.333 0 -65 14 -65 42z" />
    <glyph glyph-name="minus" unicode="&#x2212;" horiz-adv-x="416" 
d="M29 229c0 20.667 19.665 35.001 58.998 43.001c8 1.33301 17.333 0.666016 28 -2.00098c14 -2.66699 23.667 -4 29 -4c24.667 0 56 3.16699 94 9.5s65.667 9.5 83 9.5c41.333 0 62 -14.667 62 -44c0 -30 -18.667 -45 -56 -45c-5.33301 0 -12.666 0.333008 -21.999 1
s-16.333 1 -21 1c-22 0 -44.667 -1.5 -68 -4.5s-46.333 -4.5 -69 -4.5c-4 0 -12.167 -0.333008 -24.5 -1s-22.166 -1 -29.499 -1c-43.333 0 -65 14 -65 42z" />
    <glyph glyph-name="registered" unicode="&#xae;" horiz-adv-x="631" 
d="M425 666c23.333 0 38.832 -1.16602 46.499 -3.49902s20.834 -9.83301 39.501 -22.5c48 -33.333 74 -77 78 -131c0.666992 -8 1 -16 1 -24c0 -82 -26 -154.667 -78 -218c-56 -67.333 -123.667 -99.333 -203 -96c-72.667 2.66699 -134.667 23 -186 61
c-58 43.333 -87 99.666 -87 168.999c0 70 26 139.333 78 208c56 74 118 111 186 111c6 0 12 -0.333008 18 -1c39.333 -5.33301 66 -13.333 80 -24zM317.999 664.001c-5.33301 0.666992 -10.332 1 -14.999 1c-48.667 0 -95.834 -25 -141.501 -75s-71.167 -106.667 -76.5 -170
c-4.66699 -55.333 16.333 -102.666 63 -141.999c43.333 -37.333 95.333 -57.333 156 -60c69.333 -2.66699 127.666 27.666 174.999 90.999c44.667 60 64 125.333 58 196c-2 26 -8.33301 46.333 -19 61c-7.33301 9.33301 -21.666 21.333 -42.999 36
c-27.333 19.333 -58 29 -92 29c-3.33301 6 -7 12 -11 18s-22 11 -54 15zM233 282.001c-13.333 4 -20 14 -20 30c0 8 1.66699 16.667 5 26c0.666992 10.667 4 26.667 10 48c-6.66699 4 -10.334 11.667 -11.001 23c-1.33301 14.667 4.66699 24.334 18 29.001l24 121
c-6 10.667 -8.66699 17.334 -8 20.001c2.66699 22 14.334 35 35.001 39c8.66699 1.33301 18.334 -1.33398 29.001 -8.00098c14 -8 21.667 -12 23 -12c14 -5.33301 26.333 -12 37 -20c16 -12.667 25.667 -28.334 29 -47.001c4.66699 -26 0.333984 -48.333 -12.999 -67
c-6.66699 -11.333 -15 -20.333 -25 -27c9.33301 -7.33301 17.5 -16.833 24.5 -28.5s14.167 -37.167 21.5 -76.5c2 -12 0.166992 -23.167 -5.5 -33.5s-13.834 -15.5 -24.501 -15.5c-8.66699 0 -15 5 -19 15s-7.66699 20 -11 30l-17 49c-2.66699 5.33301 -8 14 -16 26l-38 -7
l-4 -56c0 -9.33301 0.333008 -18.333 1 -27c-0.666992 -10.667 -4 -18 -10 -22c-10.667 -10 -22.334 -13 -35.001 -9zM298 475.001c10 -2 19.168 -0.166992 27.501 5.5s13.166 13.167 14.499 22.5c2.66699 21.333 -6 34 -26 38z" />
    <glyph glyph-name="macron" unicode="&#xaf;" 
d="M328 519c-10.667 1.33301 -33.666 -2.33398 -68.999 -11.001c-41.333 -9.33301 -90 -14 -146 -14c-32.667 0 -49 11.333 -49 34c0 12.667 6 23.167 18 31.5s26 12.5 42 12.5c14 0 25.667 -3 35 -9s14.333 -9 15 -9c20 0 51.167 5.33301 93.5 16s69.166 16 80.499 16
c34.667 0 52 -13 52 -39c0 -25.333 -19.667 -35.666 -59 -30.999c-2 0 -4.33301 0.5 -7 1.5s-4.66699 1.5 -6 1.5z" />
    <glyph glyph-name="macron" unicode="&#x2c9;" 
d="M328 519c-10.667 1.33301 -33.666 -2.33398 -68.999 -11.001c-41.333 -9.33301 -90 -14 -146 -14c-32.667 0 -49 11.333 -49 34c0 12.667 6 23.167 18 31.5s26 12.5 42 12.5c14 0 25.667 -3 35 -9s14.333 -9 15 -9c20 0 51.167 5.33301 93.5 16s69.166 16 80.499 16
c34.667 0 52 -13 52 -39c0 -25.333 -19.667 -35.666 -59 -30.999c-2 0 -4.33301 0.5 -7 1.5s-4.66699 1.5 -6 1.5z" />
    <glyph glyph-name="degree" unicode="&#xb0;" horiz-adv-x="343" 
d="M256 665c0.666992 -21.333 -6.33301 -39.834 -21 -55.501s-32.334 -23.5 -53.001 -23.5c-20 0 -39.667 7.5 -59 22.5s-28.666 33.167 -27.999 54.5c0 18.667 9.66699 35.667 29 51c17.333 14 33.333 20.667 48 20c22.667 -1.33301 42.167 -8.16602 58.5 -20.499
s24.833 -28.5 25.5 -48.5zM139 666.999c-1.33301 -10 2.66699 -18.5 12 -25.5s19.666 -10.5 30.999 -10.5c8.66699 0 16.834 2.33301 24.501 7s11.5 11 11.5 19c0 8.66699 -5.83301 16.667 -17.5 24s-22.167 11.333 -31.5 12c-14.667 2.66699 -24.667 -6 -30 -26z" />
    <glyph glyph-name="plusminus" unicode="&#xb1;" horiz-adv-x="420" 
d="M29 49c0 12.667 6.16504 20.333 18.498 23s24.833 5 37.5 7c8 1.33301 17.333 1 28 -1c13.333 -2.66699 23 -4 29 -4c24.667 0 56 3.16699 94 9.5s65.667 9.5 83 9.5c43.333 0 65 -10.667 65 -32c0 -30 -18.667 -45 -56 -45c-5.33301 0 -12.666 0.333008 -21.999 1
s-16.333 1 -21 1c-22 0 -44.667 -1.5 -68 -4.5s-46.333 -4.5 -69 -4.5c-4 0 -12.167 -0.333008 -24.5 -1s-22.166 -1 -29.499 -1c-43.333 0 -65 14 -65 42zM239.998 464.999c0 -6 0.668945 -14.333 2.00195 -25s2 -18.667 2 -24c0 -7.33301 -1 -14.666 -3 -21.999
c24 -3.33301 40 -4 48 -2c8.66699 1.33301 22.667 5 42 11c15.333 4 29 6 41 6c8 0 15 -3.33301 21 -10s9 -14 9 -22c0 -19.333 -11 -32.333 -33 -39c-9.33301 -3.33301 -33.333 -6.66602 -72 -9.99902c-12.667 -1.33301 -32.334 -3 -59.001 -5
c-1.33301 -10 -3 -25.333 -5 -46c-4 -49.333 -6 -86 -6 -110c0 -27.333 -12.667 -41 -38 -41c-24 0 -36 15.667 -36 47c0 12 2.33301 26.667 7 44c5.33301 20 8.33301 35 9 45c2.66699 23.333 4 43.666 4 60.999c-17.333 -1.33301 -44 -7 -80 -17
c-14.667 -5.33301 -26.667 -8 -36 -8c-14.667 0 -23.334 7.66699 -26.001 23c-1.33301 5.33301 -2 10.333 -2 15c0 14 5.66699 23 17 27c4 1.33301 15 2.66602 33 3.99902c20 4.66699 51.667 9.66699 95 15c0 15.333 -1 32.333 -3 51c-3.33301 24.667 -5.33301 43 -6 55
c-0.666992 13.333 2.83301 25.5 10.5 36.5s18.5 16.5 32.5 16.5c24 0 36 -11.333 36 -34c0 -4.66699 -0.666992 -11.667 -2 -21s-2 -16.333 -2 -21z" />
    <glyph glyph-name="twosuperior" unicode="&#xb2;" horiz-adv-x="252" 
d="M92 537c-26.667 0 -40 16.001 -40 48.001c0 27.333 9.5 50.833 28.5 70.5s41.833 29.5 68.5 29.5c21.333 0 39.333 -7.66699 54 -23s22 -33.333 22 -54c0 -35.333 -8 -67.333 -24 -96c-12.667 -22 -35 -49 -67 -81l-15 -15h28c4 0 10 0.333008 18 1s14 1 18 1
c18.667 0 28.667 -8 30 -24s-7.83398 -24.833 -27.501 -26.5s-39.167 -2.83398 -58.5 -3.50098c-4 -0.666992 -15 -2.66699 -33 -6c-14 -3.33301 -25 -5 -33 -5c-15.333 0 -25.333 5.33301 -30 16c-2.66699 4.66699 -4 9 -4 13c0 11.333 8.66699 24 26 38
c22.667 19.333 36.334 32 41.001 38c26.667 36.667 43.334 60.667 50.001 72c14.667 26 22 51.333 22 76c0 11.333 -1 18.333 -3 21s-7.33301 4 -16 4c-18.667 0 -30.334 -9.33301 -35.001 -28c-1.33301 -4 -0.5 -9.5 2.5 -16.5s4.16699 -12.833 3.5 -17.5
c-3.33301 -21.333 -12 -32 -26 -32z" />
    <glyph glyph-name="threesuperior" unicode="&#xb3;" horiz-adv-x="243" 
d="M215 597c4.66699 -39.333 -10.001 -72.6641 -44.001 -99.9971c26.667 -20 40 -45 40 -75c0 -30.667 -10 -56.834 -30 -78.501s-45 -32.5 -75 -32.5c-23.333 0 -43 7.5 -59 22.5s-24 33.167 -24 54.5c0 13.333 4.33301 25.166 13 35.499s19.334 15.5 32.001 15.5
c16.667 0 27 -9 31 -27c1.33301 -6.66699 0 -13.334 -4 -20.001c-6 -10.667 -9.33301 -17 -10 -19c8.66699 -1.33301 15.334 -1.66602 20.001 -0.999023c27.333 3.33301 41 20.333 41 51c0 8 -4.66699 19.333 -14 34c-3.33301 4 -14.333 7 -33 9
c-14.667 1.33301 -22 11 -22 29c0 12 10.333 24.333 31 37c24 14.667 39.333 30 46 46c1.33301 3.33301 0.833008 8 -1.5 14s-3.83301 10 -4.5 12v9c-0.666992 3.33301 -1 6.33301 -1 9c-12 3.33301 -23.333 3.33301 -34 0c-3.33301 -0.666992 -7.33301 -12.334 -12 -35.001
s-14.334 -34 -29.001 -34c-21.333 0 -32 15.333 -32 46c0 23.333 9.16699 43.333 27.5 60s39.833 25 64.5 25c48 0 75.667 -29 83 -87z" />
    <glyph glyph-name="acute" unicode="&#xb4;" horiz-adv-x="514" 
d="M354 697c0 -8.66699 -2.66602 -17.001 -7.99902 -25.001c-8 -10.667 -33 -22 -75 -34c-12 -3.33301 -26.833 -10.166 -44.5 -20.499s-30.167 -16.166 -37.5 -17.499c-14.667 -2.66699 -24.334 3.66602 -29.001 18.999c-2.66699 4.66699 -4 11 -4 19
c0.666992 8 2.66699 14 6 18c17.333 13.333 46.333 29.333 87 48c4.66699 2 16.667 9.66699 36 23c14.667 9.33301 26 14 34 14c9.33301 0 17.5 -5 24.5 -15s10.5 -19.667 10.5 -29z" />
    <glyph glyph-name="mu" unicode="&#xb5;" horiz-adv-x="483" 
d="M426 464c2 -16.667 2.66992 -51.334 2.00293 -104.001c-0.666992 -43.333 1.66602 -78 6.99902 -104c0.666992 -4 3.33398 -12.333 8.00098 -25c3.33301 -10 4.66602 -17.667 3.99902 -23c-2.66699 -16.667 -5.66699 -44 -9 -82
c-0.666992 -8.66699 0.333008 -19.667 3 -33s4 -23 4 -29c0 -8 -1.33301 -15.667 -4 -23l-6 -31c-4 -10 -14.667 -15.333 -32 -16c-21.333 -1.33301 -34 9 -38 31c-34.667 -31.333 -82.667 -47 -144 -47c-42 0 -75.333 7 -100 21c-2 1.33301 -3 -2.33398 -3 -11.001
c0 -5.33301 0.666992 -19.666 2 -42.999s2 -42.333 2 -57c0 -17.333 -0.666992 -32 -2 -44c-2.66699 -18 -8.66699 -32 -18 -42c-6.66699 -7.33301 -13.667 -11 -21 -11c-2.66699 0 -4.33398 0.666992 -5.00098 2l-26 16c-14.667 11.333 -21 24.666 -19 39.999
c10.667 128.667 16 213.667 16 255v34c-0.666992 14 -1 22.667 -1 26c0 38.667 2.16699 70.5 6.5 95.5l12.5 75.5l2 52.5c0.666992 18.333 6.33398 33.5 17.001 45.5l11.5 14c3.66699 4.66699 10.5 7.33398 20.5 8.00098c12 0.666992 22.667 -3.5 32 -12.5
s12.666 -18.5 9.99902 -28.5c-6 -24 -14 -62.667 -24 -116c-4.66699 -27.333 -9.33398 -77.666 -14.001 -150.999c-0.666992 -32 3.33301 -54.667 12 -68c14 -20 42.667 -30 86 -30c77.333 0 123.333 35.667 138 107c3.33301 16 5.33301 39.667 6 71
c1.33301 41.333 -1.66699 100.333 -9 177c-0.666992 2.66699 -2.66699 11.667 -6 27c-2.66699 10 -3 19 -1 27c8.66699 31.333 23.667 46 45 44s33 -14.667 35 -38z" />
    <glyph glyph-name="mu" unicode="&#x3bc;" horiz-adv-x="483" 
d="M426 464c2 -16.667 2.66992 -51.334 2.00293 -104.001c-0.666992 -43.333 1.66602 -78 6.99902 -104c0.666992 -4 3.33398 -12.333 8.00098 -25c3.33301 -10 4.66602 -17.667 3.99902 -23c-2.66699 -16.667 -5.66699 -44 -9 -82
c-0.666992 -8.66699 0.333008 -19.667 3 -33s4 -23 4 -29c0 -8 -1.33301 -15.667 -4 -23l-6 -31c-4 -10 -14.667 -15.333 -32 -16c-21.333 -1.33301 -34 9 -38 31c-34.667 -31.333 -82.667 -47 -144 -47c-42 0 -75.333 7 -100 21c-2 1.33301 -3 -2.33398 -3 -11.001
c0 -5.33301 0.666992 -19.666 2 -42.999s2 -42.333 2 -57c0 -17.333 -0.666992 -32 -2 -44c-2.66699 -18 -8.66699 -32 -18 -42c-6.66699 -7.33301 -13.667 -11 -21 -11c-2.66699 0 -4.33398 0.666992 -5.00098 2l-26 16c-14.667 11.333 -21 24.666 -19 39.999
c10.667 128.667 16 213.667 16 255v34c-0.666992 14 -1 22.667 -1 26c0 38.667 2.16699 70.5 6.5 95.5l12.5 75.5l2 52.5c0.666992 18.333 6.33398 33.5 17.001 45.5l11.5 14c3.66699 4.66699 10.5 7.33398 20.5 8.00098c12 0.666992 22.667 -3.5 32 -12.5
s12.666 -18.5 9.99902 -28.5c-6 -24 -14 -62.667 -24 -116c-4.66699 -27.333 -9.33398 -77.666 -14.001 -150.999c-0.666992 -32 3.33301 -54.667 12 -68c14 -20 42.667 -30 86 -30c77.333 0 123.333 35.667 138 107c3.33301 16 5.33301 39.667 6 71
c1.33301 41.333 -1.66699 100.333 -9 177c-0.666992 2.66699 -2.66699 11.667 -6 27c-2.66699 10 -3 19 -1 27c8.66699 31.333 23.667 46 45 44s33 -14.667 35 -38z" />
    <glyph glyph-name="paragraph" unicode="&#xb6;" horiz-adv-x="558" 
d="M405 2c-3.33301 9.33301 -5 20.6689 -5 34.002c0 8 0.666992 18.167 2 30.5s2 19.5 2 21.5c-6.66699 122.667 -8.66699 210.667 -6 264c3.33301 67.333 11 134.666 23 201.999l-46 4c-16 -72.667 -26 -141.334 -30 -206.001c-3.33301 -58 -1 -146 7 -264
c1.33301 -13.333 3.33301 -35 6 -65c1.33301 -33.333 -1.33398 -55 -8.00098 -65c-4 -6 -12.667 -9.66699 -26 -11c-18 -0.666992 -29.667 7 -35 23c-1.33301 4.66699 -3 20.334 -5 47.001c-0.666992 14.667 -0.666992 31.667 0 51c1.33301 25.333 2 42.666 2 51.999
c0 18.667 -0.333008 40.334 -1 65.001l-3 66l-46 10c-66 15.333 -115.333 35.666 -148 60.999c-43.333 34 -64.333 81 -63 141c1.33301 55.333 22.333 101.833 63 139.5s89.334 57.167 146.001 58.5c29.333 0.666992 58 -4.33301 86 -15
c4.66699 18.667 17.334 27.667 38.001 27c10 -0.666992 18.333 -5.5 25 -14.5s8.66699 -18.833 6 -29.5l55 -4c4.66699 14 15 21 31 21c6.66699 0 13.667 -2.33301 21 -7c11.333 -6.66699 14.666 -18.334 9.99902 -35.001c16.667 -8.66699 22.667 -22.667 18 -42
c-4 -16 -14.333 -24.667 -31 -26c0 -2 -3.66699 -16.667 -11 -44c-8 -29.333 -13 -50.333 -15 -63c-4 -26 -6.66699 -69.333 -8 -130c-1.33301 -61.333 1.33398 -145.666 8.00098 -252.999c11.333 -26 15.666 -44.333 12.999 -55c-6 -23.333 -19.333 -34.333 -40 -33
c-9.33301 0.666992 -17 5.66699 -23 15zM303 575.003l-61.001 19.001c-35.333 4 -69.666 -6.66699 -102.999 -32s-51 -57 -53 -95c-2 -37.333 15.667 -71.333 53 -102c33.333 -27.333 66.333 -41 99 -41h44c0 25.333 1.66699 64.666 5 117.999c2 30 7.33301 74.333 16 133z
" />
    <glyph glyph-name="periodcentered" unicode="&#xb7;" horiz-adv-x="186" 
d="M148 366c0 -17.333 -5.33105 -32.501 -15.998 -45.501s-24 -19.5 -40 -19.5c-12 0 -21.667 6.33301 -29 19c-6.66699 10.667 -10 23.334 -10 38.001c-0.666992 18.667 5.16602 35 17.499 49s27.166 21 44.499 21c22 0 33 -20.667 33 -62z" />
    <glyph glyph-name="periodcentered" unicode="&#x2219;" horiz-adv-x="186" 
d="M148 366c0 -17.333 -5.33105 -32.501 -15.998 -45.501s-24 -19.5 -40 -19.5c-12 0 -21.667 6.33301 -29 19c-6.66699 10.667 -10 23.334 -10 38.001c-0.666992 18.667 5.16602 35 17.499 49s27.166 21 44.499 21c22 0 33 -20.667 33 -62z" />
    <glyph glyph-name="cedilla" unicode="&#xb8;" 
d="M263 -196c-10.667 -2 -21.334 -3 -32.001 -3c-44 0 -78.333 16.667 -103 50c-4 6 -6 12.333 -6 19c0 7.33301 3 13.833 9 19.5s13 8.5 21 8.5c9.33301 0 17.333 -4 24 -12c18.667 -22.667 40.334 -32.667 65.001 -30c19.333 2 30.333 10.333 33 25
c0.666992 6 -8.33301 13.667 -27 23c-21.333 10.667 -34 20.334 -38 29.001s-6.66699 17.667 -8 27c-0.666992 6.66699 -0.666992 14.667 0 24c0.666992 12 1 18.333 1 19c0 21.333 10.667 31.666 32 30.999c20 -0.666992 30 -11.167 30 -31.5s1.16699 -34.5 3.5 -42.5
s14.833 -17.333 37.5 -28c20.667 -10 32 -25 34 -45s-6 -38.333 -24 -55c-14.667 -14 -32 -23.333 -52 -28z" />
    <glyph glyph-name="onesuperior" unicode="&#xb9;" horiz-adv-x="214" 
d="M78 383l3 221c-9.33301 -4.66699 -18 -7 -26 -7c-14.667 0 -23.334 8.33301 -26.001 25c-2.66699 22 12 39.333 44 52c15.333 6 27.333 9 36 9c22 0 33 -17.333 33 -52l2 -238c12 0 23.5 -2.66699 34.5 -8s16.167 -13.333 15.5 -24c-1.33301 -21.333 -19 -35.333 -53 -42
c-19.333 -0.666992 -38.666 -1.66699 -57.999 -3c-36.667 -2.66699 -55 8.33301 -55 33c0 22.667 16.667 34 50 34z" />
    <glyph glyph-name="ordmasculine" unicode="&#xba;" horiz-adv-x="309" 
d="M138 432c-29.333 1.33301 -54.333 12 -75 32s-32 44.667 -34 74c-2 40 7.66699 74.333 29 103s49.333 43 84 43c36 0.666992 60 -6.33301 72 -21c2.66699 2 5.66699 3 9 3c11.333 0 25 -14.333 41 -43c4.66699 -8.66699 8 -20.334 10 -35.001
c2 -23.333 0 -49.666 -6 -78.999c-4 -22 -16.5 -40.833 -37.5 -56.5s-51.833 -22.5 -92.5 -20.5zM283 376c0 -8.66699 -4.33203 -16.666 -12.999 -23.999s-17.334 -11 -26.001 -11c-4 0 -10.5 1.66699 -19.5 5s-16.167 5 -21.5 5c-10 -3.33301 -26.667 -7.33301 -50 -12
c-18.667 -2 -46 -3.66699 -82 -5c-28.667 -1.33301 -43 9.66699 -43 33c0 20 17 30.667 51 32c4.66699 0 10.5 -1 17.5 -3s12.5 -3 16.5 -3c8 -0.666992 17 -0.333984 27 0.999023c13.333 2 22.833 3 28.5 3s14.167 1.16699 25.5 3.5s19.666 3.5 24.999 3.5
c6.66699 0 13.334 -1 20.001 -3c10 -1.33301 19.833 -3 29.5 -5s14.5 -8.66699 14.5 -20zM149.001 622.001c-18 -2.66699 -32.333 -11.5039 -43 -26.5039s-14.667 -31.833 -12 -50.5c4.66699 -33.333 20 -50.666 46 -51.999c17.333 -1.33301 32.833 2.83398 46.5 12.501
s20.834 24.834 21.501 45.501c1.33301 22 -2.33398 37 -11.001 45l-2 2c-4 3.33301 -11.5 5.83301 -22.5 7.5s-17.167 3.83398 -18.5 6.50098c-3.33301 4 -5 7.33301 -5 10z" />
    <glyph glyph-name="guillemotright" unicode="&#xbb;" horiz-adv-x="549" 
d="M68 24c0 1.33301 4.33301 10.501 13 27.501s20.334 33.167 35.001 48.5c25.333 27.333 38.333 41.333 39 42l82 95c-2 0.666992 -27.333 17.334 -76 50.001c-18.667 11.333 -49.667 33.333 -93 66c-8.66699 7.33301 -17.334 15.166 -26.001 23.499s-13 16.833 -13 25.5
c0 3.33301 0.666992 6.66602 2 9.99902c5.33301 15.333 19.333 25 42 29c13.333 2.66699 26.666 -1.33301 39.999 -12c11.333 -10 23 -19.5 35 -28.5s26.5 -21.833 43.5 -38.5s31.5 -29 43.5 -37c15.333 -10 35 -21 59 -33c27.333 -14.667 40 -31 38 -49
c-1.33301 -5.33301 -4.16602 -10.5 -8.49902 -15.5s-8.5 -9.5 -12.5 -13.5l-30 -34c-17.333 -18 -44 -48.333 -80 -91c-8.66699 -14 -24 -35 -46 -63c-6.66699 -7.33301 -13 -15 -19 -23c-8 -8 -16.333 -12 -25 -12c-10 0 -19.667 3 -29 9s-14 14 -14 24zM248 45.001
c0 1.33301 4.33301 10.501 13 27.501s20.334 33.167 35.001 48.5c25.333 27.333 38.333 41.333 39 42l82 95c-2 0.666992 -27.333 17.334 -76 50.001c-18.667 11.333 -49.667 33.333 -93 66c-8.66699 7.33301 -17.334 15.166 -26.001 23.499s-13 16.833 -13 25.5
c0 3.33301 0.666992 6.66602 2 9.99902c5.33301 15.333 19.333 25 42 29c13.333 2.66699 26.666 -1.33301 39.999 -12c11.333 -10 23 -19.5 35 -28.5s26.5 -21.833 43.5 -38.5s31.5 -29 43.5 -37c15.333 -10 35 -21 59 -33c27.333 -14.667 40 -31 38 -49
c-1.33301 -5.33301 -4.16602 -10.5 -8.49902 -15.5s-8.5 -9.5 -12.5 -13.5l-30 -34c-17.333 -18 -44 -48 -80 -90c-8.66699 -14 -24 -35.333 -46 -64c-6.66699 -7.33301 -13 -15 -19 -23c-8 -8 -16.333 -12 -25 -12c-10 0 -19.667 3 -29 9s-14 14 -14 24z" />
    <glyph glyph-name="onequarter" unicode="&#xbc;" horiz-adv-x="546" 
d="M477 219c18 0 28 -8.33301 30 -25c2 -10 -1 -18.5 -9 -25.5s-17 -10.833 -27 -11.5c-4.66699 -47.333 -7 -90.333 -7 -129c0 -18.667 -1 -32 -3 -40c-4.66699 -13.333 -14.334 -21 -29.001 -23c-21.333 -2.66699 -32 13 -32 47c0 11.333 1.33301 23 4 35
c4 18.667 7 47.667 9 87c-24 -14.667 -44.333 -20 -61 -16c-10 2 -17.833 7 -23.5 15s-7.83398 16.667 -6.50098 26c3.33301 17.333 8 45 14 83c1.33301 16.667 3.66602 42.334 6.99902 77.001c2.66699 24 13.667 36 33 36c20.667 0 30.334 -10 29.001 -30
c-2 -36.667 -6.33301 -68 -13 -94c-6 -22 -6 -36 0 -42c6.66699 0.666992 14.334 3.66699 23.001 9c6.66699 29.333 14.334 65.666 23.001 108.999c6 32.667 20 49 42 49c17.333 0 26 -12 26 -36c0 -12 -2.33301 -24.333 -7 -37s-12 -34 -22 -64zM78 383l3 221
c-9.33301 -4.66699 -18 -7 -26 -7c-14.667 0 -23.334 8.33301 -26.001 25c-2.66699 22 12 39.333 44 52c15.333 6 27.333 9 36 9c22 0 33 -17.333 33 -52l2 -238c12 0 23.5 -2.66699 34.5 -8s16.167 -13.333 15.5 -24c-1.33301 -21.333 -19 -35.333 -53 -42
c-19.333 -0.666992 -38.666 -1.66699 -57.999 -3c-36.667 -2.66699 -55 8.33301 -55 33c0 22.667 16.667 34 50 34zM389 646c-14.667 -36 -29.334 -85.001 -44.001 -147.001l-41 -173c-4 -16.667 -17.667 -64.667 -41 -144c-15.333 -52.667 -28 -103.667 -38 -153
c-4.66699 -24 -7.66699 -37.667 -9 -41c-6 -14.667 -17.333 -22 -34 -22c-23.333 0 -35 10.333 -35 31c0 5.33301 0.666992 12 2 20c10 47.333 24.667 101.333 44 162c22 70 37.333 123.333 46 160c4.66699 20.667 27.334 129 68.001 325
c2.66699 11.333 8.5 20.833 17.5 28.5s19.167 10.834 30.5 9.50098c25.333 -2 38 -15 38 -39c0 -5.33301 -1.33301 -11 -4 -17z" />
    <glyph glyph-name="onehalf" unicode="&#xbd;" horiz-adv-x="546" 
d="M78 383l3 221c-9.33301 -4.66699 -18 -7 -26 -7c-14.667 0 -23.334 8.33301 -26.001 25c-2.66699 22 12 39.333 44 52c15.333 6 27.333 9 36 9c22 0 33 -17.333 33 -52l2 -238c12 0 23.5 -2.66699 34.5 -8s16.167 -13.333 15.5 -24c-1.33301 -21.333 -19 -35.333 -53 -42
c-19.333 -0.666992 -38.666 -1.66699 -57.999 -3c-36.667 -2.66699 -55 8.33301 -55 33c0 22.667 16.667 34 50 34zM383 183c-26.667 0 -40 16.001 -40 48.001c0 27.333 9.5 50.833 28.5 70.5s41.833 29.5 68.5 29.5c21.333 0 39.333 -7.66699 54 -23s22 -33.333 22 -54
c0 -35.333 -8 -67.333 -24 -96c-12.667 -22 -35 -49 -67 -81l-15 -15h28c4 0 10 0.333008 18 1s14 1 18 1c18.667 0 28.667 -8 30 -24s-7.83398 -24.833 -27.501 -26.5s-39.167 -2.83398 -58.5 -3.50098c-4 -0.666992 -15 -2.66699 -33 -6c-14 -3.33301 -25 -5 -33 -5
c-15.333 0 -25.333 5.33301 -30 16c-2.66699 4.66699 -4 9 -4 13c0 11.333 8.66699 24 26 38c22.667 19.333 36.334 32 41.001 38c26.667 36.667 43.334 60.667 50.001 72c14.667 26 22 51.333 22 76c0 11.333 -1 18.333 -3 21s-7.33301 4 -16 4
c-18.667 0 -30.334 -9.33301 -35.001 -28c-1.33301 -4 -0.5 -9.5 2.5 -16.5s4.16699 -12.833 3.5 -17.5c-3.33301 -21.333 -12 -32 -26 -32zM394 646.001c-15.333 -36 -30.333 -85.001 -45 -147.001l-40 -173l-42 -144c-15.333 -52.667 -27.666 -103.667 -36.999 -153
c-4.66699 -24 -8 -37.667 -10 -41c-6 -14.667 -17.333 -22 -34 -22c-23.333 0 -35 10.333 -35 31c0 5.33301 1 12 3 20c9.33301 47.333 23.666 101.333 42.999 162c22 70 37.333 123.333 46 160c5.33301 20.667 28.333 129 69 325c2 11.333 7.5 20.833 16.5 28.5
s19.167 10.834 30.5 9.50098c25.333 -2 38 -15 38 -39c0 -5.33301 -1 -11 -3 -17z" />
    <glyph glyph-name="threequarters" unicode="&#xbe;" horiz-adv-x="540" 
d="M468 219c18 0 28.3359 -8.33301 31.0029 -25c1.33301 -10 -1.83398 -18.5 -9.50098 -25.5s-16.834 -10.833 -27.501 -11.5c-4 -47.333 -6 -90.333 -6 -129c0 -18.667 -1.33301 -32 -4 -40c-4.66699 -13.333 -14.334 -21 -29.001 -23c-20.667 -2.66699 -31 13 -31 47
c0 11.333 1.33301 23 4 35c4 18.667 6.66699 47.667 8 87c-24 -14.667 -44.333 -20 -61 -16c-9.33301 2 -17 7 -23 15s-8 16.667 -6 26c3.33301 17.333 7.66602 45 12.999 83c1.33301 16.667 4 42.334 8 77.001c2.66699 24 13.334 36 32.001 36c20.667 0 30.667 -10 30 -30
c-2 -36.667 -6.66699 -68 -14 -94c-6 -22 -6 -36 0 -42c7.33301 0.666992 15 3.66699 23 9c7.33301 29.333 15 65.666 23 108.999c6.66699 32.667 21 49 43 49c16.667 0 25 -12 25 -36c0 -12 -2.33301 -24.333 -7 -37s-12 -34 -22 -64zM215.003 597
c4.66699 -39.333 -10.001 -72.6641 -44.001 -99.9971c26.667 -20 40 -45 40 -75c0 -30.667 -10 -56.834 -30 -78.501s-45 -32.5 -75 -32.5c-23.333 0 -43 7.5 -59 22.5s-24 33.167 -24 54.5c0 13.333 4.33301 25.166 13 35.499s19.334 15.5 32.001 15.5
c16.667 0 27 -9 31 -27c1.33301 -6.66699 0 -13.334 -4 -20.001c-6 -10.667 -9.33301 -17 -10 -19c8.66699 -1.33301 15.334 -1.66602 20.001 -0.999023c27.333 3.33301 41 20.333 41 51c0 8 -4.66699 19.333 -14 34c-3.33301 4 -14.333 7 -33 9
c-14.667 1.33301 -22 11 -22 29c0 12 10.333 24.333 31 37c24 14.667 39.333 30 46 46c1.33301 3.33301 0.833008 8 -1.5 14s-3.83301 10 -4.5 12v9c-0.666992 3.33301 -1 6.33301 -1 9c-12 3.33301 -23.333 3.33301 -34 0c-3.33301 -0.666992 -7.33301 -12.334 -12 -35.001
s-14.334 -34 -29.001 -34c-21.333 0 -32 15.333 -32 46c0 23.333 9.16699 43.333 27.5 60s39.833 25 64.5 25c48 0 75.667 -29 83 -87zM381.002 646.002c-15.333 -36 -30.334 -85.001 -45.001 -147.001l-40 -173l-42 -144c-15.333 -52.667 -27.666 -103.667 -36.999 -153
c-4.66699 -24 -7.66699 -37.667 -9 -41c-6.66699 -14.667 -18 -22 -34 -22c-23.333 0 -35 10.333 -35 31c0 5.33301 0.666992 12 2 20c9.33301 47.333 23.666 101.333 42.999 162c22 70 37.667 123.333 47 160c4.66699 20.667 27.334 129 68.001 325
c2 11.333 7.66699 20.833 17 28.5s19.333 10.834 30 9.50098c26 -2 39 -15 39 -39c0 -5.33301 -1.33301 -11 -4 -17z" />
    <glyph glyph-name="questiondown" unicode="&#xbf;" horiz-adv-x="344" 
d="M20 -122c-1.33301 30 4.66504 61.998 17.998 95.998c9.33301 24.667 29 47.667 59 69c13.333 9.33301 39 24.333 77 45c26.667 14 41.334 25 44.001 33c1.33301 3.33301 2 7 2 11c0 -4 -3.66699 7.66699 -11 35c-2.66699 12.667 -9.16699 28 -19.5 46
s-17.5 33.333 -21.5 46c-7.33301 26 -4.33301 43.667 9 53c5.33301 4 12 6 20 6c17.333 0 28.666 -6.66699 33.999 -20c10 -26.667 19 -55.667 27 -87c2 -8 8 -24 18 -48c8 -18.667 12 -34 12 -46c0 -10 -2.33301 -19.667 -7 -29c-10 -20.667 -28 -35.667 -54 -45
c-17.333 -6.66699 -34.666 -13 -51.999 -19c-65.333 -48 -98 -101 -98 -159c0 -25.333 4 -46.666 12 -63.999c10 -22 24.667 -33 44 -33c24.667 0 50.167 5.66699 76.5 17s39.5 23.333 39.5 36c0 9.33301 -2.83301 21.333 -8.5 36s-8.5 27 -8.5 37
c0 14.667 1.33301 24.667 4 30c4.66699 9.33301 15.334 14 32.001 14c36.667 0 55 -37.333 55 -112c0 -39.333 -19.333 -70.666 -58 -93.999c-34 -20 -74 -30 -120 -30c-47.333 0 -81 18.667 -101 56c-14 26.667 -22 66.667 -24 120zM166.998 324.998
c-12 0 -22.832 3.99902 -32.499 11.999s-14.834 17.667 -15.501 29c-1.33301 14 2 25.833 10 35.5s18.333 15.167 31 16.5c13.333 1.33301 25.5 -2.16699 36.5 -10.5s16.833 -19.166 17.5 -32.499c0 -13.333 -4.66699 -25 -14 -35s-20.333 -15 -33 -15z" />
    <glyph glyph-name="Agrave" unicode="&#xc0;" horiz-adv-x="527" 
d="M467 -30c-20.667 0 -33.832 11.665 -39.499 34.998s-13.834 51.333 -24.501 84c-14 38.667 -23.333 67 -28 85c-7.33301 22 -18 58.333 -32 109c-2.66699 9.33301 -6 24 -10 44c-101.333 0 -124.666 0.333008 -69.999 1c-27.333 0 -50 -3 -68 -9
c-7.33301 -20.667 -16.333 -51.667 -27 -93c-13.333 -52 -23 -88.333 -29 -109c-8.66699 -30 -24 -76.333 -46 -139c-6 -14 -15.667 -21 -29 -21c-10 0 -18.833 3.16699 -26.5 9.5s-11.5 14.5 -11.5 24.5c0 7.33301 4 21 12 41l17 43
c8.66699 25.333 18.334 59.333 29.001 102s20.667 77.334 30 104.001l10 32c-2.66699 0 -7 -0.666992 -13 -2s-10.333 -2 -13 -2c-13.333 0 -20.666 11 -21.999 33c-1.33301 16.667 8 30 28 40c13.333 6.66699 27.333 7.33398 42 2.00098c19.333 52 35.333 99.333 48 142
c7.33301 26 17.666 68 30.999 126c-18.667 16 -26.667 31.667 -24 47c3.33301 21.333 15 33.333 35 36c19.333 2 34.666 -14 45.999 -48l57 -170l44 -121h28c4.66699 0.666992 8.66699 1 12 1c13.333 0 22 -8.66699 26 -26c4 -14.667 -0.333008 -27 -13 -37
c-10 -8 -21 -11 -33 -9c4 -22 12 -57.333 24 -106c6.66699 -18 21 -53.333 43 -106c16 -38.667 25.333 -65.667 28 -81c3.33301 -26 0.666016 -43.667 -8.00098 -53c-5.33301 -6 -13 -9 -23 -9zM263.002 520.998c-10.667 -29.333 -25.667 -74 -45 -134h44
c-3.33301 0 14 1.33301 52 4c-12 28.667 -29 72 -51 130zM257.002 856.998c40.667 -18.667 69.668 -34.668 87.001 -48.001c4 -4 6 -10 6 -18s-1.33301 -14.333 -4 -19c-4.66699 -15.333 -14.334 -21.666 -29.001 -18.999c-7.33301 1.33301 -19.333 7 -36 17
c-18.667 10.667 -33.667 17.667 -45 21c-42.667 12 -68 23.333 -76 34c-4.66699 8 -7 16.333 -7 25c0 9.33301 3.33301 19 10 29s14.667 15 24 15c8 0 19.333 -4.66699 34 -14c19.333 -13.333 31.333 -21 36 -23z" />
    <glyph glyph-name="Aacute" unicode="&#xc1;" horiz-adv-x="533" 
d="M467 -30c-20.667 0 -33.832 11.665 -39.499 34.998s-13.834 51.333 -24.501 84c-14 38.667 -23.333 67 -28 85c-7.33301 22 -18 58.333 -32 109c-2.66699 9.33301 -6 24 -10 44c-101.333 0 -124.666 0.333008 -69.999 1c-27.333 0 -50 -3 -68 -9
c-7.33301 -20.667 -16.333 -51.667 -27 -93c-13.333 -52 -23 -88.333 -29 -109c-8.66699 -30 -24 -76.333 -46 -139c-6 -14 -15.667 -21 -29 -21c-10 0 -18.833 3.16699 -26.5 9.5s-11.5 14.5 -11.5 24.5c0 7.33301 4 21 12 41l17 43
c8.66699 25.333 18.334 59.333 29.001 102s20.667 77.334 30 104.001l10 32c-2.66699 0 -7 -0.666992 -13 -2s-10.333 -2 -13 -2c-13.333 0 -20.666 11 -21.999 33c-1.33301 16.667 8 30 28 40c13.333 6.66699 27.333 7.33398 42 2.00098c19.333 52 35.333 99.333 48 142
c7.33301 26 17.666 68 30.999 126c-18.667 16 -26.667 31.667 -24 47c3.33301 21.333 15 33.333 35 36c19.333 2 34.666 -14 45.999 -48l57 -170l44 -121h28c4.66699 0.666992 8.66699 1 12 1c13.333 0 22 -8.66699 26 -26c4 -14.667 -0.333008 -27 -13 -37
c-10 -8 -21 -11 -33 -9c4 -22 12 -57.333 24 -106c6.66699 -18 21 -53.333 43 -106c16 -38.667 25.333 -65.667 28 -81c3.33301 -26 0.666016 -43.667 -8.00098 -53c-5.33301 -6 -13 -9 -23 -9zM263.002 520.998c-10.667 -29.333 -25.667 -74 -45 -134h44
c-3.33301 0 14 1.33301 52 4c-12 28.667 -29 72 -51 130zM358.002 847.998c0 -8.66699 -2.66602 -17.001 -7.99902 -25.001c-8 -10.667 -33 -22 -75 -34c-12 -3.33301 -26.833 -10.166 -44.5 -20.499s-30.167 -16.166 -37.5 -17.499
c-14.667 -2.66699 -24.334 3.66602 -29.001 18.999c-2.66699 4.66699 -4 11 -4 19c0.666992 8 2.66699 14 6 18c17.333 13.333 46.333 29.333 87 48c4.66699 2 16.667 9.66699 36 23c14.667 9.33301 26 14 34 14c9.33301 0 17.5 -5 24.5 -15s10.5 -19.667 10.5 -29z" />
    <glyph glyph-name="Acircumflex" unicode="&#xc2;" horiz-adv-x="530" 
d="M467 -30c-20.667 0 -33.832 11.665 -39.499 34.998s-13.834 51.333 -24.501 84c-14 38.667 -23.333 67 -28 85c-7.33301 22 -18 58.333 -32 109c-2.66699 9.33301 -6 24 -10 44c-101.333 0 -124.666 0.333008 -69.999 1c-27.333 0 -50 -3 -68 -9
c-7.33301 -20.667 -16.333 -51.667 -27 -93c-13.333 -52 -23 -88.333 -29 -109c-8.66699 -30 -24 -76.333 -46 -139c-6 -14 -15.667 -21 -29 -21c-10 0 -18.833 3.16699 -26.5 9.5s-11.5 14.5 -11.5 24.5c0 7.33301 4 21 12 41l17 43
c8.66699 25.333 18.334 59.333 29.001 102s20.667 77.334 30 104.001l10 32c-2.66699 0 -7 -0.666992 -13 -2s-10.333 -2 -13 -2c-13.333 0 -20.666 11 -21.999 33c-1.33301 16.667 8 30 28 40c13.333 6.66699 27.333 7.33398 42 2.00098c19.333 52 35.333 99.333 48 142
c7.33301 26 17.666 68 30.999 126c-18.667 16 -26.667 31.667 -24 47c3.33301 21.333 15 33.333 35 36c19.333 2 34.666 -14 45.999 -48l57 -170l44 -121h28c4.66699 0.666992 8.66699 1 12 1c13.333 0 22 -8.66699 26 -26c4 -14.667 -0.333008 -27 -13 -37
c-10 -8 -21 -11 -33 -9c4 -22 12 -57.333 24 -106c6.66699 -18 21 -53.333 43 -106c16 -38.667 25.333 -65.667 28 -81c3.33301 -26 0.666016 -43.667 -8.00098 -53c-5.33301 -6 -13 -9 -23 -9zM263.002 520.998c-10.667 -29.333 -25.667 -74 -45 -134h44
c-3.33301 0 14 1.33301 52 4c-12 28.667 -29 72 -51 130zM300.002 865.998l33.001 -31.998c12 -14 18 -26.333 18 -37c0 -11.333 -4.33301 -20.833 -13 -28.5s-19.334 -11.5 -32.001 -11.5c-16 0 -25.667 5.16699 -29 15.5s-6.33301 20.166 -9 29.499
c-6.66699 12.667 -14 23.667 -22 33c-8.66699 -8 -17.667 -19.333 -27 -34c-6 -10.667 -12.5 -21.334 -19.5 -32.001s-17.167 -16 -30.5 -16c-25.333 0 -37 13.333 -35 40c0 8 6.66699 18.333 20 31c12 10.667 23.667 21.667 35 33c2 2 14.667 16.667 38 44
c12 14 20.333 21 25 21s11 -5.66699 19 -17c12 -18 21.667 -31 29 -39z" />
    <glyph glyph-name="Atilde" unicode="&#xc3;" horiz-adv-x="527" 
d="M467 -30c-20.667 0 -33.832 11.665 -39.499 34.998s-13.834 51.333 -24.501 84c-14 38.667 -23.333 67 -28 85c-7.33301 22 -18 58.333 -32 109c-2.66699 9.33301 -6 24 -10 44c-101.333 0 -124.666 0.333008 -69.999 1c-27.333 0 -50 -3 -68 -9
c-7.33301 -20.667 -16.333 -51.667 -27 -93c-13.333 -52 -23 -88.333 -29 -109c-8.66699 -30 -24 -76.333 -46 -139c-6 -14 -15.667 -21 -29 -21c-10 0 -18.833 3.16699 -26.5 9.5s-11.5 14.5 -11.5 24.5c0 7.33301 4 21 12 41l17 43
c8.66699 25.333 18.334 59.333 29.001 102s20.667 77.334 30 104.001l10 32c-2.66699 0 -7 -0.666992 -13 -2s-10.333 -2 -13 -2c-13.333 0 -20.666 11 -21.999 33c-1.33301 16.667 8 30 28 40c13.333 6.66699 27.333 7.33398 42 2.00098c19.333 52 35.333 99.333 48 142
c7.33301 26 17.666 68 30.999 126c-18.667 16 -26.667 31.667 -24 47c3.33301 21.333 15 33.333 35 36c19.333 2 34.666 -14 45.999 -48l57 -170l44 -121h28c4.66699 0.666992 8.66699 1 12 1c13.333 0 22 -8.66699 26 -26c4 -14.667 -0.333008 -27 -13 -37
c-10 -8 -21 -11 -33 -9c4 -22 12 -57.333 24 -106c6.66699 -18 21 -53.333 43 -106c16 -38.667 25.333 -65.667 28 -81c3.33301 -26 0.666016 -43.667 -8.00098 -53c-5.33301 -6 -13 -9 -23 -9zM263.002 520.998c-10.667 -29.333 -25.667 -74 -45 -134h44
c-3.33301 0 14 1.33301 52 4c-12 28.667 -29 72 -51 130zM277.002 844.498c5.33301 -5.66699 9.66602 -10.501 12.999 -14.501c8.66699 6 16.334 14.333 23.001 25c2 6.66699 6.33301 16 13 28c9.33301 10.667 19.333 16 30 16s20 -3.66699 28 -11s11 -15.666 9 -24.999
c-2 -10 -12 -26.667 -30 -50c-14.667 -18.667 -30.334 -33.667 -47.001 -45c-14 -9.33301 -27.667 -11 -41 -5c-11.333 4.66699 -20.333 11.667 -27 21c-9.33301 12.667 -18.333 25.667 -27 39l-35 -25c-3.33301 -12 -10.166 -21.833 -20.499 -29.5
s-21.166 -10.5 -32.499 -8.5c-20 3.33301 -30 14.333 -30 33c0 5.33301 5 14.333 15 27c6.66699 4.66699 17.334 12.667 32.001 24c5.33301 8.66699 15.666 20.667 30.999 36c20 14 34.333 20.667 43 20c9.33301 -1.33301 16.666 -5.83301 21.999 -13.5l15.5 -22.5
c5 -7.33301 10.167 -13.833 15.5 -19.5z" />
    <glyph glyph-name="Adieresis" unicode="&#xc4;" horiz-adv-x="521" 
d="M467 -30c-20.667 0 -33.832 11.665 -39.499 34.998s-13.834 51.333 -24.501 84c-14 38.667 -23.333 67 -28 85c-7.33301 22 -18 58.333 -32 109c-2.66699 9.33301 -6 24 -10 44c-101.333 0 -124.666 0.333008 -69.999 1c-27.333 0 -50 -3 -68 -9
c-7.33301 -20.667 -16.333 -51.667 -27 -93c-13.333 -52 -23 -88.333 -29 -109c-8.66699 -30 -24 -76.333 -46 -139c-6 -14 -15.667 -21 -29 -21c-10 0 -18.833 3.16699 -26.5 9.5s-11.5 14.5 -11.5 24.5c0 7.33301 4 21 12 41l17 43
c8.66699 25.333 18.334 59.333 29.001 102s20.667 77.334 30 104.001l10 32c-2.66699 0 -7 -0.666992 -13 -2s-10.333 -2 -13 -2c-13.333 0 -20.666 11 -21.999 33c-1.33301 16.667 8 30 28 40c13.333 6.66699 27.333 7.33398 42 2.00098c19.333 52 35.333 99.333 48 142
c7.33301 26 17.666 68 30.999 126c-18.667 16 -26.667 31.667 -24 47c3.33301 21.333 15 33.333 35 36c19.333 2 34.666 -14 45.999 -48l57 -170l44 -121h28c4.66699 0.666992 8.66699 1 12 1c13.333 0 22 -8.66699 26 -26c4 -14.667 -0.333008 -27 -13 -37
c-10 -8 -21 -11 -33 -9c4 -22 12 -57.333 24 -106c6.66699 -18 21 -53.333 43 -106c16 -38.667 25.333 -65.667 28 -81c3.33301 -26 0.666016 -43.667 -8.00098 -53c-5.33301 -6 -13 -9 -23 -9zM263.002 520.998c-10.667 -29.333 -25.667 -74 -45 -134h44
c-3.33301 0 14 1.33301 52 4c-12 28.667 -29 72 -51 130zM218.002 809.998c0.666992 -14 -4.66797 -25.833 -16.001 -35.5s-24.333 -14.5 -39 -14.5c-14 0 -26.833 4.33301 -38.5 13s-17.5 19.667 -17.5 33c-1.33301 32 19.334 48 62.001 48c11.333 0 22.333 -4.5 33 -13.5
s16 -19.167 16 -30.5zM381 818.998c0 -14.667 -5.33203 -26.832 -15.999 -36.499s-23 -14.5 -37 -14.5c-13.333 0 -25.833 4.83301 -37.5 14.5s-17.834 20.5 -18.501 32.5c-0.666992 14 4 25.667 14 35s22 14 36 14c14.667 0 28.167 -4.33301 40.5 -13
s18.5 -19.334 18.5 -32.001z" />
    <glyph glyph-name="Aring" unicode="&#xc5;" horiz-adv-x="527" 
d="M467 -30c-20.667 0 -33.832 11.665 -39.499 34.998s-13.834 51.333 -24.501 84c-14 38.667 -23.333 67 -28 85c-7.33301 22 -18 58.333 -32 109c-2.66699 9.33301 -6 24 -10 44c-101.333 0 -124.666 0.333008 -69.999 1c-27.333 0 -50 -3 -68 -9
c-7.33301 -20.667 -16.333 -51.667 -27 -93c-13.333 -52 -23 -88.333 -29 -109c-8.66699 -30 -24 -76.333 -46 -139c-6 -14 -15.667 -21 -29 -21c-10 0 -18.833 3.16699 -26.5 9.5s-11.5 14.5 -11.5 24.5c0 7.33301 4 21 12 41l17 43
c8.66699 25.333 18.334 59.333 29.001 102s20.667 77.334 30 104.001l10 32c-2.66699 0 -7 -0.666992 -13 -2s-10.333 -2 -13 -2c-13.333 0 -20.666 11 -21.999 33c-1.33301 16.667 8 30 28 40c13.333 6.66699 27.333 7.33398 42 2.00098c19.333 52 35.333 99.333 48 142
c7.33301 26 17.666 68 30.999 126c-18.667 16 -26.667 31.667 -24 47c3.33301 21.333 15 33.333 35 36c19.333 2 34.666 -14 45.999 -48l57 -170l44 -121h28c4.66699 0.666992 8.66699 1 12 1c13.333 0 22 -8.66699 26 -26c4 -14.667 -0.333008 -27 -13 -37
c-10 -8 -21 -11 -33 -9c4 -22 12 -57.333 24 -106c6.66699 -18 21 -53.333 43 -106c16 -38.667 25.333 -65.667 28 -81c3.33301 -26 0.666016 -43.667 -8.00098 -53c-5.33301 -6 -13 -9 -23 -9zM263.002 520.998c-10.667 -29.333 -25.667 -74 -45 -134h44
c-3.33301 0 14 1.33301 52 4c-12 28.667 -29 72 -51 130zM318.002 844.998c0.666992 -21.333 -6.33301 -39.834 -21 -55.501s-32.334 -23.5 -53.001 -23.5c-20 0 -39.667 7.5 -59 22.5s-28.666 33.167 -27.999 54.5c0 18.667 9.66699 35.667 29 51
c17.333 14 33.333 20.667 48 20c22.667 -1.33301 42.167 -8.16602 58.5 -20.499s24.833 -28.5 25.5 -48.5zM201.002 846.997c-1.33301 -10 2.66699 -18.5 12 -25.5s19.666 -10.5 30.999 -10.5c8.66699 0 16.834 2.33301 24.501 7s11.5 11 11.5 19
c0 8.66699 -5.83301 16.667 -17.5 24s-22.167 11.333 -31.5 12c-14.667 2.66699 -24.667 -6 -30 -26z" />
    <glyph glyph-name="AE" unicode="&#xc6;" horiz-adv-x="811" 
d="M43 35c20 24 47.3262 63.6709 81.9932 119.004c28.667 45.333 57.334 94 86.001 146c-11.333 -0.666992 -21.166 2.66602 -29.499 9.99902s-12.5 16.666 -12.5 27.999c0 15.333 16 27 48 35c12.667 2.66699 26.334 2.66699 41.001 0l151 263
c4.66699 4.66699 7 22.334 7 53.001c0 12 4.33301 22 13 30s19 12 31 12c14 0 23.333 -6 28 -18c2 -6 4.33301 -24.333 7 -55l104 21c22 6.66699 56.667 13.667 104 21c29.333 0.666992 46.333 -10.333 51 -33c2 -12 -1.5 -22.5 -10.5 -31.5s-20.667 -14.333 -35 -16
s-46.5 -4.5 -96.5 -8.5l-124 -23l6 -209c30.667 -2.66699 81.334 -6 152.001 -10h73c24.667 2 37 -10.333 37 -37c0 -32.667 -16.667 -46.334 -50 -41.001c-8 0.666992 -32.667 5 -74 13c-21.333 4.66699 -43 7 -65 7c-29.333 0 -53.333 -0.666992 -72 -2
c-1.33301 -20.667 -3.33301 -54 -6 -100c-1.33301 -62 -1.66602 -111.667 -0.999023 -149h193c16 10.667 33 15 51 13c32.667 -4 49.334 -15.667 50.001 -35c0.666992 -20 -14 -34.667 -44 -44c-8 -2.66699 -17 -3 -27 -1c-15.333 2.66699 -24.333 4 -27 4
c-69.333 2 -138.666 0 -207.999 -6c1.33301 -8.66699 -0.5 -16.667 -5.5 -24s-11.5 -11 -19.5 -11c-14 0 -21.833 3.83301 -23.5 11.5s-3.5 15.5 -5.5 23.5c-13.333 0.666992 -20.666 8 -21.999 22c-0.666992 4.66699 1.66602 10.167 6.99902 16.5s8.33301 10.166 9 11.499
c4 67.333 6 111.666 6 132.999c0 20.667 -0.333008 43.667 -1 69c-1.33301 36 -2 59.333 -2 70c-21.333 0.666992 -42.333 0.666992 -63 0c-13.333 -1.33301 -34.333 -3.66602 -63 -6.99902l-57 -98l-108 -199c-2.66699 -10.667 -10.667 -26.334 -24 -47.001
c-17.333 -17.333 -33.333 -25.333 -48 -24c-25.333 2 -38 15.333 -38 40c0 17.333 8.33301 36.333 25 57zM422.993 532.004l-92 -156l97 9z" />
    <glyph glyph-name="Ccedilla" unicode="&#xc7;" horiz-adv-x="568" 
d="M202 -8c-73.333 9.33301 -123 48.335 -149 117.002c-16.667 43.333 -25.667 112.333 -27 207c-1.33301 98 26.667 183.667 84 257c59.333 76.667 134 115 224 115c70.667 0 124 -29.333 160 -88c8.66699 -14.667 13 -27.334 13 -38.001c0 -18.667 -14 -28 -42 -28
c-6.66699 0 -12.667 2.83301 -18 8.5s-10.333 11.5 -15 17.5l-28 41c-13.333 13.333 -38.333 20 -75 20c-58.667 0 -112.5 -32.5 -161.5 -97.5s-73.5 -135.5 -73.5 -211.5c0 -82.667 9.66699 -143.667 29 -183c23.333 -46 61.333 -69 114 -69c120 0 195 65 225 195
c0 22.667 10.667 34 32 34c23.333 0 35 -9.66699 35 -29c0 -64.667 -23.333 -123 -70 -175c-51.333 -57.333 -116.333 -88.666 -195 -93.999c0 -8.66699 0.5 -14.834 1.5 -18.501s1.5 -7.5 1.5 -11.5c2.66699 -8.66699 15.334 -18.334 38.001 -29.001
c20.667 -10 32 -25 34 -45s-6 -38.333 -24 -55c-14.667 -14 -32 -23.333 -52 -28c-10.667 -2 -21.334 -3 -32.001 -3c-44 0 -78.333 16.667 -103 50c-4 6 -6 12.333 -6 19c0 7.33301 3 13.833 9 19.5s13 8.5 21 8.5c9.33301 0 17.333 -4 24 -12
c16.667 -20 38.334 -30 65.001 -30c7.33301 0 14.666 2.5 21.999 7.5s11 10.833 11 17.5c0 6 -9.33301 13.667 -28 23c-20.667 10.667 -33.167 20.5 -37.5 29.5s-6.5 28.5 -6.5 58.5z" />
    <glyph glyph-name="Egrave" unicode="&#xc8;" horiz-adv-x="448" 
d="M381 634h-52.9971c-12.667 -2.66699 -33 -6.33398 -61 -11.001l-109 -20c-8 -73.333 -12 -141 -12 -203c21.333 0 51.666 -1 90.999 -3c13.333 -0.666992 33.333 -3 60 -7c24 -4 43 -6 57 -6c10.667 0 20.5 -3.5 29.5 -10.5s13.167 -15.833 12.5 -26.5
c-0.666992 -8.66699 -4.83398 -16.167 -12.501 -22.5s-16.167 -9.5 -25.5 -9.5c-18.667 0 -46.667 3.66699 -84 11c-33.333 6 -61.666 8.33301 -84.999 7c-9.33301 0 -24.333 -2.33301 -45 -7c-6 -18 -11.333 -56 -16 -114c2 -27.333 1.66699 -70 -1 -128
c-1.33301 -4 -3.66602 -10 -6.99902 -18c30.667 -2.66699 67 -3.66699 109 -3c16 0.666992 36.5 3.33398 61.5 8.00098s44.167 7 57.5 7c31.333 0 47.666 -10.333 48.999 -31c0.666992 -10.667 -3.33301 -20 -12 -28s-18 -12 -28 -12c-8.66699 0 -21.667 0.333008 -39 1h-42
c-56 0 -97.667 -0.666992 -125 -2c-8.66699 -2 -21.667 -5.33301 -39 -10c-1.33301 -20.667 -11.333 -31 -30 -31c-8.66699 0 -16.334 3.16699 -23.001 9.5s-10 13.833 -10 22.5c-12 2.66699 -19.333 11.334 -22 26.001c-1.33301 8.66699 1.66699 17.667 9 27
c6 7.33301 12 12 18 14l23 267c-14.667 6 -22 17 -22 33c0 14 9.33301 25.333 28 34l2 195c-14.667 5.33301 -22 15 -22 29c0 17.333 9.66699 30.666 29 39.999c-2 8 -3 13.333 -3 16c1.33301 19.333 8.66602 29 21.999 29c10 0 18.667 -4.33301 26 -13
c11.333 -14.667 17.666 -22.334 18.999 -23.001c20.667 2.66699 54 8.33398 100 17.001c22.667 6.66699 45.5 13 68.5 19s43.167 8.33301 60.5 7c22 -2.66699 35 -13 39 -31c2.66699 -11.333 -0.666016 -22 -9.99902 -32s-20.333 -15.667 -33 -17zM238.003 835
c40.667 -18.667 69.668 -34.668 87.001 -48.001c4 -4 6 -10 6 -18s-1.33301 -14.333 -4 -19c-4.66699 -15.333 -14.334 -21.666 -29.001 -18.999c-7.33301 1.33301 -19.333 7 -36 17c-18.667 10.667 -33.667 17.667 -45 21c-42.667 12 -68 23.333 -76 34
c-4.66699 8 -7 16.333 -7 25c0 9.33301 3.33301 19 10 29s14.667 15 24 15c8 0 19.333 -4.66699 34 -14c19.333 -13.333 31.333 -21 36 -23z" />
    <glyph glyph-name="Eacute" unicode="&#xc9;" horiz-adv-x="442" 
d="M381 634h-52.9971c-12.667 -2.66699 -33 -6.33398 -61 -11.001l-109 -20c-8 -73.333 -12 -141 -12 -203c21.333 0 51.666 -1 90.999 -3c13.333 -0.666992 33.333 -3 60 -7c24 -4 43 -6 57 -6c10.667 0 20.5 -3.5 29.5 -10.5s13.167 -15.833 12.5 -26.5
c-0.666992 -8.66699 -4.83398 -16.167 -12.501 -22.5s-16.167 -9.5 -25.5 -9.5c-18.667 0 -46.667 3.66699 -84 11c-33.333 6 -61.666 8.33301 -84.999 7c-9.33301 0 -24.333 -2.33301 -45 -7c-6 -18 -11.333 -56 -16 -114c2 -27.333 1.66699 -70 -1 -128
c-1.33301 -4 -3.66602 -10 -6.99902 -18c30.667 -2.66699 67 -3.66699 109 -3c16 0.666992 36.5 3.33398 61.5 8.00098s44.167 7 57.5 7c31.333 0 47.666 -10.333 48.999 -31c0.666992 -10.667 -3.33301 -20 -12 -28s-18 -12 -28 -12c-8.66699 0 -21.667 0.333008 -39 1h-42
c-56 0 -97.667 -0.666992 -125 -2c-8.66699 -2 -21.667 -5.33301 -39 -10c-1.33301 -20.667 -11.333 -31 -30 -31c-8.66699 0 -16.334 3.16699 -23.001 9.5s-10 13.833 -10 22.5c-12 2.66699 -19.333 11.334 -22 26.001c-1.33301 8.66699 1.66699 17.667 9 27
c6 7.33301 12 12 18 14l23 267c-14.667 6 -22 17 -22 33c0 14 9.33301 25.333 28 34l2 195c-14.667 5.33301 -22 15 -22 29c0 17.333 9.66699 30.666 29 39.999c-2 8 -3 13.333 -3 16c1.33301 19.333 8.66602 29 21.999 29c10 0 18.667 -4.33301 26 -13
c11.333 -14.667 17.666 -22.334 18.999 -23.001c20.667 2.66699 54 8.33398 100 17.001c22.667 6.66699 45.5 13 68.5 19s43.167 8.33301 60.5 7c22 -2.66699 35 -13 39 -31c2.66699 -11.333 -0.666016 -22 -9.99902 -32s-20.333 -15.667 -33 -17zM353.003 829
c0 -8.66699 -2.66602 -17.001 -7.99902 -25.001c-8 -10.667 -33 -22 -75 -34c-12 -3.33301 -26.833 -10.166 -44.5 -20.499s-30.167 -16.166 -37.5 -17.499c-14.667 -2.66699 -24.334 3.66602 -29.001 18.999c-2.66699 4.66699 -4 11 -4 19c0.666992 8 2.66699 14 6 18
c17.333 13.333 46.333 29.333 87 48c4.66699 2 16.667 9.66699 36 23c14.667 9.33301 26 14 34 14c9.33301 0 17.5 -5 24.5 -15s10.5 -19.667 10.5 -29z" />
    <glyph glyph-name="Ecircumflex" unicode="&#xca;" 
d="M381 634h-52.9971c-12.667 -2.66699 -33 -6.33398 -61 -11.001l-109 -20c-8 -73.333 -12 -141 -12 -203c21.333 0 51.666 -1 90.999 -3c13.333 -0.666992 33.333 -3 60 -7c24 -4 43 -6 57 -6c10.667 0 20.5 -3.5 29.5 -10.5s13.167 -15.833 12.5 -26.5
c-0.666992 -8.66699 -4.83398 -16.167 -12.501 -22.5s-16.167 -9.5 -25.5 -9.5c-18.667 0 -46.667 3.66699 -84 11c-33.333 6 -61.666 8.33301 -84.999 7c-9.33301 0 -24.333 -2.33301 -45 -7c-6 -18 -11.333 -56 -16 -114c2 -27.333 1.66699 -70 -1 -128
c-1.33301 -4 -3.66602 -10 -6.99902 -18c30.667 -2.66699 67 -3.66699 109 -3c16 0.666992 36.5 3.33398 61.5 8.00098s44.167 7 57.5 7c31.333 0 47.666 -10.333 48.999 -31c0.666992 -10.667 -3.33301 -20 -12 -28s-18 -12 -28 -12c-8.66699 0 -21.667 0.333008 -39 1h-42
c-56 0 -97.667 -0.666992 -125 -2c-8.66699 -2 -21.667 -5.33301 -39 -10c-1.33301 -20.667 -11.333 -31 -30 -31c-8.66699 0 -16.334 3.16699 -23.001 9.5s-10 13.833 -10 22.5c-12 2.66699 -19.333 11.334 -22 26.001c-1.33301 8.66699 1.66699 17.667 9 27
c6 7.33301 12 12 18 14l23 267c-14.667 6 -22 17 -22 33c0 14 9.33301 25.333 28 34l2 195c-14.667 5.33301 -22 15 -22 29c0 17.333 9.66699 30.666 29 39.999c-2 8 -3 13.333 -3 16c1.33301 19.333 8.66602 29 21.999 29c10 0 18.667 -4.33301 26 -13
c11.333 -14.667 17.666 -22.334 18.999 -23.001c20.667 2.66699 54 8.33398 100 17.001c22.667 6.66699 45.5 13 68.5 19s43.167 8.33301 60.5 7c22 -2.66699 35 -13 39 -31c2.66699 -11.333 -0.666016 -22 -9.99902 -32s-20.333 -15.667 -33 -17zM313.003 845
l33.001 -31.998c12 -14 18 -26.333 18 -37c0 -11.333 -4.33301 -20.833 -13 -28.5s-19.334 -11.5 -32.001 -11.5c-16 0 -25.667 5.16699 -29 15.5s-6.33301 20.166 -9 29.499c-6.66699 12.667 -14 23.667 -22 33c-8.66699 -8 -17.667 -19.333 -27 -34
c-6 -10.667 -12.5 -21.334 -19.5 -32.001s-17.167 -16 -30.5 -16c-25.333 0 -37 13.333 -35 40c0 8 6.66699 18.333 20 31c12 10.667 23.667 21.667 35 33c2 2 14.667 16.667 38 44c12 14 20.333 21 25 21s11 -5.66699 19 -17c12 -18 21.667 -31 29 -39z" />
    <glyph glyph-name="Edieresis" unicode="&#xcb;" 
d="M381 634h-52.9971c-12.667 -2.66699 -33 -6.33398 -61 -11.001l-109 -20c-8 -73.333 -12 -141 -12 -203c21.333 0 51.666 -1 90.999 -3c13.333 -0.666992 33.333 -3 60 -7c24 -4 43 -6 57 -6c10.667 0 20.5 -3.5 29.5 -10.5s13.167 -15.833 12.5 -26.5
c-0.666992 -8.66699 -4.83398 -16.167 -12.501 -22.5s-16.167 -9.5 -25.5 -9.5c-18.667 0 -46.667 3.66699 -84 11c-33.333 6 -61.666 8.33301 -84.999 7c-9.33301 0 -24.333 -2.33301 -45 -7c-6 -18 -11.333 -56 -16 -114c2 -27.333 1.66699 -70 -1 -128
c-1.33301 -4 -3.66602 -10 -6.99902 -18c30.667 -2.66699 67 -3.66699 109 -3c16 0.666992 36.5 3.33398 61.5 8.00098s44.167 7 57.5 7c31.333 0 47.666 -10.333 48.999 -31c0.666992 -10.667 -3.33301 -20 -12 -28s-18 -12 -28 -12c-8.66699 0 -21.667 0.333008 -39 1h-42
c-56 0 -97.667 -0.666992 -125 -2c-8.66699 -2 -21.667 -5.33301 -39 -10c-1.33301 -20.667 -11.333 -31 -30 -31c-8.66699 0 -16.334 3.16699 -23.001 9.5s-10 13.833 -10 22.5c-12 2.66699 -19.333 11.334 -22 26.001c-1.33301 8.66699 1.66699 17.667 9 27
c6 7.33301 12 12 18 14l23 267c-14.667 6 -22 17 -22 33c0 14 9.33301 25.333 28 34l2 195c-14.667 5.33301 -22 15 -22 29c0 17.333 9.66699 30.666 29 39.999c-2 8 -3 13.333 -3 16c1.33301 19.333 8.66602 29 21.999 29c10 0 18.667 -4.33301 26 -13
c11.333 -14.667 17.666 -22.334 18.999 -23.001c20.667 2.66699 54 8.33398 100 17.001c22.667 6.66699 45.5 13 68.5 19s43.167 8.33301 60.5 7c22 -2.66699 35 -13 39 -31c2.66699 -11.333 -0.666016 -22 -9.99902 -32s-20.333 -15.667 -33 -17zM210.003 786
c0.666992 -14 -4.66797 -25.833 -16.001 -35.5s-24.333 -14.5 -39 -14.5c-14 0 -26.833 4.33301 -38.5 13s-17.5 19.667 -17.5 33c-1.33301 32 19.334 48 62.001 48c11.333 0 22.333 -4.5 33 -13.5s16 -19.167 16 -30.5zM373.001 795
c0 -14.667 -5.33203 -26.832 -15.999 -36.499s-23 -14.5 -37 -14.5c-13.333 0 -25.833 4.83301 -37.5 14.5s-17.834 20.5 -18.501 32.5c-0.666992 14 4 25.667 14 35s22 14 36 14c14.667 0 28.167 -4.33301 40.5 -13s18.5 -19.334 18.5 -32.001z" />
    <glyph glyph-name="Igrave" unicode="&#xcc;" horiz-adv-x="363" 
d="M22 652c0 16 4.99707 25.3281 14.9971 27.9951c0.666992 0.666992 10.334 1 29.001 1c52 0.666992 81.667 0.666992 89 0c6 12 16 18.667 30 20c16.667 2 29.667 -2.66699 39 -14c18.667 -0.666992 38.334 -0.666992 59.001 0c14.667 0.666992 27.834 -2.33301 39.501 -9
s16.834 -16.667 15.501 -30s-16 -23.666 -44 -30.999c-12.667 -3.33301 -34.667 -1.33301 -66 6c-8 -68.667 -12 -105 -12 -109c0 -39.333 2 -90.166 6 -152.499s6 -113.5 6 -153.5v-140c3.33301 0.666992 12 3.33398 26 8.00098
c9.33301 2.66699 17.666 3.33398 24.999 2.00098c33.333 -6 50 -18.333 50 -37s-13.333 -31 -40 -37c-4 -0.666992 -20.667 1.66602 -50 6.99902c-2 -1.33301 -9.33301 -7 -22 -17c-8 -6 -16 -9 -24 -9c-15.333 0 -28.333 5 -39 15c-22.667 -11.333 -49 -17 -79 -17
c-29.333 0 -45 10.667 -47 32c-0.666992 11.333 4.16602 20.666 14.499 27.999s21.833 11 34.5 11c38 0 64 0.666992 78 2c2 30 4.66699 78.667 8 146c0.666992 20.667 1 41.334 1 62.001c0 28.667 -1.16699 69.834 -3.5 123.501s-3.5 97.834 -3.5 132.501v107
c-25.333 -7.33301 -50.666 -11.333 -75.999 -12c-20.667 -0.666992 -34 0 -40 2c-12.667 4 -19 15.667 -19 35zM199.997 838.995c40.667 -18.667 69.668 -34.668 87.001 -48.001c4 -4 6 -10 6 -18s-1.33301 -14.333 -4 -19
c-4.66699 -15.333 -14.334 -21.666 -29.001 -18.999c-7.33301 1.33301 -19.333 7 -36 17c-18.667 10.667 -33.667 17.667 -45 21c-42.667 12 -68 23.333 -76 34c-4.66699 8 -7 16.333 -7 25c0 9.33301 3.33301 19 10 29s14.667 15 24 15c8 0 19.333 -4.66699 34 -14
c19.333 -13.333 31.333 -21 36 -23z" />
    <glyph glyph-name="Iacute" unicode="&#xcd;" horiz-adv-x="363" 
d="M22 652c0 16 4.99707 25.3281 14.9971 27.9951c0.666992 0.666992 10.334 1 29.001 1c52 0.666992 81.667 0.666992 89 0c6 12 16 18.667 30 20c16.667 2 29.667 -2.66699 39 -14c18.667 -0.666992 38.334 -0.666992 59.001 0c14.667 0.666992 27.834 -2.33301 39.501 -9
s16.834 -16.667 15.501 -30s-16 -23.666 -44 -30.999c-12.667 -3.33301 -34.667 -1.33301 -66 6c-8 -68.667 -12 -105 -12 -109c0 -39.333 2 -90.166 6 -152.499s6 -113.5 6 -153.5v-140c3.33301 0.666992 12 3.33398 26 8.00098
c9.33301 2.66699 17.666 3.33398 24.999 2.00098c33.333 -6 50 -18.333 50 -37s-13.333 -31 -40 -37c-4 -0.666992 -20.667 1.66602 -50 6.99902c-2 -1.33301 -9.33301 -7 -22 -17c-8 -6 -16 -9 -24 -9c-15.333 0 -28.333 5 -39 15c-22.667 -11.333 -49 -17 -79 -17
c-29.333 0 -45 10.667 -47 32c-0.666992 11.333 4.16602 20.666 14.499 27.999s21.833 11 34.5 11c38 0 64 0.666992 78 2c2 30 4.66699 78.667 8 146c0.666992 20.667 1 41.334 1 62.001c0 28.667 -1.16699 69.834 -3.5 123.501s-3.5 97.834 -3.5 132.501v107
c-25.333 -7.33301 -50.666 -11.333 -75.999 -12c-20.667 -0.666992 -34 0 -40 2c-12.667 4 -19 15.667 -19 35zM291.997 825.995c0 -8.66699 -2.66602 -17.001 -7.99902 -25.001c-8 -10.667 -33 -22 -75 -34c-12 -3.33301 -26.833 -10.166 -44.5 -20.499
s-30.167 -16.166 -37.5 -17.499c-14.667 -2.66699 -24.334 3.66602 -29.001 18.999c-2.66699 4.66699 -4 11 -4 19c0.666992 8 2.66699 14 6 18c17.333 13.333 46.333 29.333 87 48c4.66699 2 16.667 9.66699 36 23c14.667 9.33301 26 14 34 14c9.33301 0 17.5 -5 24.5 -15
s10.5 -19.667 10.5 -29z" />
    <glyph glyph-name="Icircumflex" unicode="&#xce;" horiz-adv-x="363" 
d="M22 652c0 16 4.99707 25.3281 14.9971 27.9951c0.666992 0.666992 10.334 1 29.001 1c52 0.666992 81.667 0.666992 89 0c6 12 16 18.667 30 20c16.667 2 29.667 -2.66699 39 -14c18.667 -0.666992 38.334 -0.666992 59.001 0c14.667 0.666992 27.834 -2.33301 39.501 -9
s16.834 -16.667 15.501 -30s-16 -23.666 -44 -30.999c-12.667 -3.33301 -34.667 -1.33301 -66 6c-8 -68.667 -12 -105 -12 -109c0 -39.333 2 -90.166 6 -152.499s6 -113.5 6 -153.5v-140c3.33301 0.666992 12 3.33398 26 8.00098
c9.33301 2.66699 17.666 3.33398 24.999 2.00098c33.333 -6 50 -18.333 50 -37s-13.333 -31 -40 -37c-4 -0.666992 -20.667 1.66602 -50 6.99902c-2 -1.33301 -9.33301 -7 -22 -17c-8 -6 -16 -9 -24 -9c-15.333 0 -28.333 5 -39 15c-22.667 -11.333 -49 -17 -79 -17
c-29.333 0 -45 10.667 -47 32c-0.666992 11.333 4.16602 20.666 14.499 27.999s21.833 11 34.5 11c38 0 64 0.666992 78 2c2 30 4.66699 78.667 8 146c0.666992 20.667 1 41.334 1 62.001c0 28.667 -1.16699 69.834 -3.5 123.501s-3.5 97.834 -3.5 132.501v107
c-25.333 -7.33301 -50.666 -11.333 -75.999 -12c-20.667 -0.666992 -34 0 -40 2c-12.667 4 -19 15.667 -19 35zM241.997 835.995l33.001 -31.998c12 -14 18 -26.333 18 -37c0 -11.333 -4.33301 -20.833 -13 -28.5s-19.334 -11.5 -32.001 -11.5
c-16 0 -25.667 5.16699 -29 15.5s-6.33301 20.166 -9 29.499c-6.66699 12.667 -14 23.667 -22 33c-8.66699 -8 -17.667 -19.333 -27 -34c-6 -10.667 -12.5 -21.334 -19.5 -32.001s-17.167 -16 -30.5 -16c-25.333 0 -37 13.333 -35 40c0 8 6.66699 18.333 20 31
c12 10.667 23.667 21.667 35 33c2 2 14.667 16.667 38 44c12 14 20.333 21 25 21s11 -5.66699 19 -17c12 -18 21.667 -31 29 -39z" />
    <glyph glyph-name="Idieresis" unicode="&#xcf;" horiz-adv-x="363" 
d="M22 652c0 16 4.99707 25.3281 14.9971 27.9951c0.666992 0.666992 10.334 1 29.001 1c52 0.666992 81.667 0.666992 89 0c6 12 16 18.667 30 20c16.667 2 29.667 -2.66699 39 -14c18.667 -0.666992 38.334 -0.666992 59.001 0c14.667 0.666992 27.834 -2.33301 39.501 -9
s16.834 -16.667 15.501 -30s-16 -23.666 -44 -30.999c-12.667 -3.33301 -34.667 -1.33301 -66 6c-8 -68.667 -12 -105 -12 -109c0 -39.333 2 -90.166 6 -152.499s6 -113.5 6 -153.5v-140c3.33301 0.666992 12 3.33398 26 8.00098
c9.33301 2.66699 17.666 3.33398 24.999 2.00098c33.333 -6 50 -18.333 50 -37s-13.333 -31 -40 -37c-4 -0.666992 -20.667 1.66602 -50 6.99902c-2 -1.33301 -9.33301 -7 -22 -17c-8 -6 -16 -9 -24 -9c-15.333 0 -28.333 5 -39 15c-22.667 -11.333 -49 -17 -79 -17
c-29.333 0 -45 10.667 -47 32c-0.666992 11.333 4.16602 20.666 14.499 27.999s21.833 11 34.5 11c38 0 64 0.666992 78 2c2 30 4.66699 78.667 8 146c0.666992 20.667 1 41.334 1 62.001c0 28.667 -1.16699 69.834 -3.5 123.501s-3.5 97.834 -3.5 132.501v107
c-25.333 -7.33301 -50.666 -11.333 -75.999 -12c-20.667 -0.666992 -34 0 -40 2c-12.667 4 -19 15.667 -19 35zM158.997 778.995c0.666992 -14 -4.66797 -25.833 -16.001 -35.5s-24.333 -14.5 -39 -14.5c-14 0 -26.833 4.33301 -38.5 13s-17.5 19.667 -17.5 33
c-1.33301 32 19.334 48 62.001 48c11.333 0 22.333 -4.5 33 -13.5s16 -19.167 16 -30.5zM321.995 787.995c0 -14.667 -5.33203 -26.832 -15.999 -36.499s-23 -14.5 -37 -14.5c-13.333 0 -25.833 4.83301 -37.5 14.5s-17.834 20.5 -18.501 32.5c-0.666992 14 4 25.667 14 35
s22 14 36 14c14.667 0 28.167 -4.33301 40.5 -13s18.5 -19.334 18.5 -32.001z" />
    <glyph glyph-name="Eth" unicode="&#xd0;" horiz-adv-x="565" 
d="M107 272c-18.667 -8 -33.665 -11.9971 -44.998 -11.9971c-24.667 0 -37 12.333 -37 37c0 21.333 29 40.666 87 57.999c0 10 1 24.5 3 43.5s3 32.167 3 39.5c0 24 2.33301 76 7 156v31c-2.66699 0 -6 1 -10 3s-7 3 -9 3c-13.333 6.66699 -20 15.667 -20 27
c0 7.33301 4 13 12 17s15.667 7.33301 23 10c9.33301 12.667 19.333 19 30 19c15.333 0 26.666 -4 33.999 -12c4 0 8.33301 -0.333008 13 -1h14c6 0 32.667 -6.66699 80 -20c92 -26.667 157.667 -71.667 197 -135c29.333 -46 44 -100 44 -162c0 -70.667 -13 -135 -39 -193
c-28 -62.667 -68 -110.334 -120 -143.001c-40 -24.667 -103.333 -39.334 -190 -44.001l-20 -1c-6.66699 -10.667 -17.334 -16 -32.001 -16c-20.667 0 -31 18 -31 54c-14 0 -21 8.66699 -21 26c0 12 8.66699 21.333 26 28c0 18.667 0.333008 42.667 1 72v70v45z
M175.002 303.003c0 -2.66699 -0.333008 -7.66504 -1 -14.998v-16v-72c0 -10.667 -0.833008 -26.167 -2.5 -46.5s-2.5 -34.5 -2.5 -42.5c0 -22.667 6 -37.334 18 -44.001c7.33301 -3.33301 24.666 -5 51.999 -5c33.333 0 67 12 101 36c80 55.333 120 141.333 120 258
c0 47.333 -7 88 -21 122c-25.333 61.333 -83.333 105.666 -174 132.999c-25.333 7.33301 -44.666 11 -57.999 11c-1.33301 0 -3.5 0.333008 -6.5 1s-5.16699 1 -6.5 1c0 -26 -2 -65.167 -6 -117.5s-6 -91.833 -6 -118.5c22.667 10.667 38.667 16 48 16
c11.333 0 19 -6.33301 23 -19c1.33301 -4.66699 2 -9 2 -13c0 -22.667 -26.667 -45.667 -80 -69z" />
    <glyph glyph-name="Ntilde" unicode="&#xd1;" horiz-adv-x="508" 
d="M440 709c11.333 0 20.998 -5.33594 28.998 -16.0029s12.333 -22.667 13 -36c0.666992 -14 -1.83301 -31 -7.5 -51s-8.66699 -36.167 -9 -48.5s-2.33301 -29.166 -6 -50.499s-5.16699 -38 -4.5 -50c0.666992 -41.333 -2.66602 -92.333 -9.99902 -153
c-8 -64.667 -12 -115.334 -12 -152.001c0 -11.333 -2 -25.166 -6 -41.499s-6 -30.166 -6 -41.499c13.333 -16.667 20.333 -33.667 21 -51c-1.33301 -28 -8.33301 -43.667 -21 -47c-4.66699 -1.33301 -9.33398 -2 -14.001 -2c-23.333 0 -38.666 9.33301 -45.999 28l-44 105
c-8.66699 19.333 -18.167 46.666 -28.5 81.999s-20.166 63 -29.499 83c-2 5.33301 -28 67.666 -78 186.999l-37 -202c-6 -27.333 -15 -78 -27 -152l-2 -57c-1.33301 -25.333 -6 -43.333 -14 -54c-10.667 -13.333 -22.334 -19.333 -35.001 -18
c-9.33301 0 -17.5 4.83301 -24.5 14.5s-9.83301 19.834 -8.5 30.501c-0.666992 4.66699 1.83301 10.834 7.5 18.501s8.5 11.834 8.5 12.501c0.666992 38 5.33398 77.667 14.001 119c13.333 63.333 21 101.333 23 114c6.66699 53.333 17.667 136 33 248
c5.33301 13.333 11 32.333 17 57l-27 50c-6.66699 14 -10 25.667 -10 35c0 27.333 9.66699 41 29 41c6 0 12 -2.33301 18 -7c4 -4 8 -7.66699 12 -11c4.66699 4 13.334 8.33301 26.001 13c17.333 1.33301 27.333 -6 30 -22c6.66699 -22.667 2.66699 -56.667 -12 -102
l56 -137c21.333 -58.667 56.333 -148.667 105 -270c0 31.333 4.16699 72.166 12.5 122.499s12.166 91.5 11.499 123.5c0 26.667 2.66699 61.167 8 103.5s8 74.5 8 96.5c0 10.667 -0.333008 21.334 -1 32.001c-2.66699 37.333 10 56 38 56zM315.998 825.497
c5.33301 -5.66699 9.66602 -10.501 12.999 -14.501c8.66699 6 16.334 14.333 23.001 25c2 6.66699 6.33301 16 13 28c9.33301 10.667 19.333 16 30 16s20 -3.66699 28 -11s11 -15.666 9 -24.999c-2 -10 -12 -26.667 -30 -50c-14.667 -18.667 -30.334 -33.667 -47.001 -45
c-14 -9.33301 -27.667 -11 -41 -5c-11.333 4.66699 -20.333 11.667 -27 21c-9.33301 12.667 -18.333 25.667 -27 39l-35 -25c-3.33301 -12 -10.166 -21.833 -20.499 -29.5s-21.166 -10.5 -32.499 -8.5c-20 3.33301 -30 14.333 -30 33c0 5.33301 5 14.333 15 27
c6.66699 4.66699 17.334 12.667 32.001 24c5.33301 8.66699 15.666 20.667 30.999 36c20 14 34.333 20.667 43 20c9.33301 -1.33301 16.666 -5.83301 21.999 -13.5l15.5 -22.5c5 -7.33301 10.167 -13.833 15.5 -19.5z" />
    <glyph glyph-name="Ograve" unicode="&#xd2;" horiz-adv-x="625" 
d="M573 527c7.33301 -22.667 13.3369 -75.3311 18.0039 -157.998c4 -80 -16 -158.333 -60 -235c-36 -62 -72.333 -103.667 -109 -125c-31.333 -17.333 -69 -26.666 -113 -27.999c-36 -0.666992 -81.333 12.666 -136 39.999c-16.667 8 -33.334 16.5 -50.001 25.5
s-29.334 21.833 -38.001 38.5c-2 5.33301 -5.5 12.666 -10.5 21.999s-11.833 24.333 -20.5 45c-17.333 42.667 -26 84.667 -26 126c0 98 26 187.667 78 269c65.333 102.667 148.333 154 249 154c45.333 0 89.666 -18.833 132.999 -56.5s71.666 -76.834 84.999 -117.501z
M96.0039 312.003c-0.666992 -12.667 -1.00098 -27.3311 -1.00098 -43.998c0 -41.333 10.167 -79 30.5 -113s49.166 -58.333 86.499 -73c8 -3.33301 17.333 -5 28 -5c4.66699 0 11 0.333008 19 1s13.667 1 17 1c12.667 0 21.834 -2.66699 27.501 -8
s10.834 -15.333 15.501 -30c24 1.33301 41.333 5 52 11c46.667 25.333 85.334 76.333 116.001 153c26.667 67.333 40 133.666 40 198.999c0 43.333 -10 85.666 -30 126.999c-15.333 29.333 -38.333 53.333 -69 72c-30 16.667 -60.667 25 -92 25
c-60.667 0 -116.334 -37.667 -167.001 -113c-44.667 -67.333 -69 -135 -73 -203zM340.003 839.006c40.667 -18.667 69.668 -34.668 87.001 -48.001c4 -4 6 -10 6 -18s-1.33301 -14.333 -4 -19c-4.66699 -15.333 -14.334 -21.666 -29.001 -18.999
c-7.33301 1.33301 -19.333 7 -36 17c-18.667 10.667 -33.667 17.667 -45 21c-42.667 12 -68 23.333 -76 34c-4.66699 8 -7 16.333 -7 25c0 9.33301 3.33301 19 10 29s14.667 15 24 15c8 0 19.333 -4.66699 34 -14c19.333 -13.333 31.333 -21 36 -23z" />
    <glyph glyph-name="Oacute" unicode="&#xd3;" horiz-adv-x="628" 
d="M573 527c7.33301 -22.667 13.3369 -75.3311 18.0039 -157.998c4 -80 -16 -158.333 -60 -235c-36 -62 -72.333 -103.667 -109 -125c-31.333 -17.333 -69 -26.666 -113 -27.999c-36 -0.666992 -81.333 12.666 -136 39.999c-16.667 8 -33.334 16.5 -50.001 25.5
s-29.334 21.833 -38.001 38.5c-2 5.33301 -5.5 12.666 -10.5 21.999s-11.833 24.333 -20.5 45c-17.333 42.667 -26 84.667 -26 126c0 98 26 187.667 78 269c65.333 102.667 148.333 154 249 154c45.333 0 89.666 -18.833 132.999 -56.5s71.666 -76.834 84.999 -117.501z
M96.0039 312.003c-0.666992 -12.667 -1.00098 -27.3311 -1.00098 -43.998c0 -41.333 10.167 -79 30.5 -113s49.166 -58.333 86.499 -73c8 -3.33301 17.333 -5 28 -5c4.66699 0 11 0.333008 19 1s13.667 1 17 1c12.667 0 21.834 -2.66699 27.501 -8
s10.834 -15.333 15.501 -30c24 1.33301 41.333 5 52 11c46.667 25.333 85.334 76.333 116.001 153c26.667 67.333 40 133.666 40 198.999c0 43.333 -10 85.666 -30 126.999c-15.333 29.333 -38.333 53.333 -69 72c-30 16.667 -60.667 25 -92 25
c-60.667 0 -116.334 -37.667 -167.001 -113c-44.667 -67.333 -69 -135 -73 -203zM412.003 821.006c0 -8.66699 -2.66602 -17.001 -7.99902 -25.001c-8 -10.667 -33 -22 -75 -34c-12 -3.33301 -26.833 -10.166 -44.5 -20.499s-30.167 -16.166 -37.5 -17.499
c-14.667 -2.66699 -24.334 3.66602 -29.001 18.999c-2.66699 4.66699 -4 11 -4 19c0.666992 8 2.66699 14 6 18c17.333 13.333 46.333 29.333 87 48c4.66699 2 16.667 9.66699 36 23c14.667 9.33301 26 14 34 14c9.33301 0 17.5 -5 24.5 -15s10.5 -19.667 10.5 -29z" />
    <glyph glyph-name="Ocircumflex" unicode="&#xd4;" horiz-adv-x="628" 
d="M573 527c7.33301 -22.667 13.3369 -75.3311 18.0039 -157.998c4 -80 -16 -158.333 -60 -235c-36 -62 -72.333 -103.667 -109 -125c-31.333 -17.333 -69 -26.666 -113 -27.999c-36 -0.666992 -81.333 12.666 -136 39.999c-16.667 8 -33.334 16.5 -50.001 25.5
s-29.334 21.833 -38.001 38.5c-2 5.33301 -5.5 12.666 -10.5 21.999s-11.833 24.333 -20.5 45c-17.333 42.667 -26 84.667 -26 126c0 98 26 187.667 78 269c65.333 102.667 148.333 154 249 154c45.333 0 89.666 -18.833 132.999 -56.5s71.666 -76.834 84.999 -117.501z
M96.0039 312.003c-0.666992 -12.667 -1.00098 -27.3311 -1.00098 -43.998c0 -41.333 10.167 -79 30.5 -113s49.166 -58.333 86.499 -73c8 -3.33301 17.333 -5 28 -5c4.66699 0 11 0.333008 19 1s13.667 1 17 1c12.667 0 21.834 -2.66699 27.501 -8
s10.834 -15.333 15.501 -30c24 1.33301 41.333 5 52 11c46.667 25.333 85.334 76.333 116.001 153c26.667 67.333 40 133.666 40 198.999c0 43.333 -10 85.666 -30 126.999c-15.333 29.333 -38.333 53.333 -69 72c-30 16.667 -60.667 25 -92 25
c-60.667 0 -116.334 -37.667 -167.001 -113c-44.667 -67.333 -69 -135 -73 -203zM389.003 843.006l33.001 -31.998c12 -14 18 -26.333 18 -37c0 -11.333 -4.33301 -20.833 -13 -28.5s-19.334 -11.5 -32.001 -11.5c-16 0 -25.667 5.16699 -29 15.5s-6.33301 20.166 -9 29.499
c-6.66699 12.667 -14 23.667 -22 33c-8.66699 -8 -17.667 -19.333 -27 -34c-6 -10.667 -12.5 -21.334 -19.5 -32.001s-17.167 -16 -30.5 -16c-25.333 0 -37 13.333 -35 40c0 8 6.66699 18.333 20 31c12 10.667 23.667 21.667 35 33c2 2 14.667 16.667 38 44
c12 14 20.333 21 25 21s11 -5.66699 19 -17c12 -18 21.667 -31 29 -39z" />
    <glyph glyph-name="Otilde" unicode="&#xd5;" horiz-adv-x="628" 
d="M573 527c7.33301 -22.667 13.3369 -75.3311 18.0039 -157.998c4 -80 -16 -158.333 -60 -235c-36 -62 -72.333 -103.667 -109 -125c-31.333 -17.333 -69 -26.666 -113 -27.999c-36 -0.666992 -81.333 12.666 -136 39.999c-16.667 8 -33.334 16.5 -50.001 25.5
s-29.334 21.833 -38.001 38.5c-2 5.33301 -5.5 12.666 -10.5 21.999s-11.833 24.333 -20.5 45c-17.333 42.667 -26 84.667 -26 126c0 98 26 187.667 78 269c65.333 102.667 148.333 154 249 154c45.333 0 89.666 -18.833 132.999 -56.5s71.666 -76.834 84.999 -117.501z
M96.0039 312.003c-0.666992 -12.667 -1.00098 -27.3311 -1.00098 -43.998c0 -41.333 10.167 -79 30.5 -113s49.166 -58.333 86.499 -73c8 -3.33301 17.333 -5 28 -5c4.66699 0 11 0.333008 19 1s13.667 1 17 1c12.667 0 21.834 -2.66699 27.501 -8
s10.834 -15.333 15.501 -30c24 1.33301 41.333 5 52 11c46.667 25.333 85.334 76.333 116.001 153c26.667 67.333 40 133.666 40 198.999c0 43.333 -10 85.666 -30 126.999c-15.333 29.333 -38.333 53.333 -69 72c-30 16.667 -60.667 25 -92 25
c-60.667 0 -116.334 -37.667 -167.001 -113c-44.667 -67.333 -69 -135 -73 -203zM368.003 818.506c5.33301 -5.66699 9.66602 -10.501 12.999 -14.501c8.66699 6 16.334 14.333 23.001 25c2 6.66699 6.33301 16 13 28c9.33301 10.667 19.333 16 30 16s20 -3.66699 28 -11
s11 -15.666 9 -24.999c-2 -10 -12 -26.667 -30 -50c-14.667 -18.667 -30.334 -33.667 -47.001 -45c-14 -9.33301 -27.667 -11 -41 -5c-11.333 4.66699 -20.333 11.667 -27 21c-9.33301 12.667 -18.333 25.667 -27 39l-35 -25c-3.33301 -12 -10.166 -21.833 -20.499 -29.5
s-21.166 -10.5 -32.499 -8.5c-20 3.33301 -30 14.333 -30 33c0 5.33301 5 14.333 15 27c6.66699 4.66699 17.334 12.667 32.001 24c5.33301 8.66699 15.666 20.667 30.999 36c20 14 34.333 20.667 43 20c9.33301 -1.33301 16.666 -5.83301 21.999 -13.5l15.5 -22.5
c5 -7.33301 10.167 -13.833 15.5 -19.5z" />
    <glyph glyph-name="Odieresis" unicode="&#xd6;" horiz-adv-x="625" 
d="M573 531c7.33301 -22.667 13.3369 -75.3311 18.0039 -157.998c4 -80 -16 -158.333 -60 -235c-36 -62 -72.333 -103.667 -109 -125c-31.333 -17.333 -69 -26.666 -113 -27.999c-36 -0.666992 -81.333 12.666 -136 39.999c-16.667 8 -33.334 16.5 -50.001 25.5
s-29.334 21.833 -38.001 38.5c-2 5.33301 -5.5 12.666 -10.5 21.999s-11.833 24.333 -20.5 45c-17.333 42.667 -26 84.667 -26 126c0 98 26 187.667 78 269c65.333 102.667 148.333 154 249 154c45.333 0 89.666 -18.833 132.999 -56.5s71.666 -76.834 84.999 -117.501z
M96.0039 316.003c-0.666992 -12.667 -1.00098 -27.3311 -1.00098 -43.998c0 -41.333 10.167 -79 30.5 -113s49.166 -58.333 86.499 -73c8 -3.33301 17.333 -5 28 -5c4.66699 0 11 0.333008 19 1s13.667 1 17 1c12.667 0 21.834 -2.66699 27.501 -8
s10.834 -15.333 15.501 -30c24 1.33301 41.333 5 52 11c46.667 25.333 85.334 76.333 116.001 153c26.667 67.333 40 133.666 40 198.999c0 43.333 -10 85.666 -30 126.999c-15.333 29.333 -38.333 53.333 -69 72c-30 16.667 -60.667 25 -92 25
c-60.667 0 -116.334 -37.667 -167.001 -113c-44.667 -67.333 -69 -135 -73 -203zM304.003 780.006c0.666992 -14 -4.66797 -25.833 -16.001 -35.5s-24.333 -14.5 -39 -14.5c-14 0 -26.833 4.33301 -38.5 13s-17.5 19.667 -17.5 33c-1.33301 32 19.334 48 62.001 48
c11.333 0 22.333 -4.5 33 -13.5s16 -19.167 16 -30.5zM467.001 789.006c0 -14.667 -5.33203 -26.832 -15.999 -36.499s-23 -14.5 -37 -14.5c-13.333 0 -25.833 4.83301 -37.5 14.5s-17.834 20.5 -18.501 32.5c-0.666992 14 4 25.667 14 35s22 14 36 14
c14.667 0 28.167 -4.33301 40.5 -13s18.5 -19.334 18.5 -32.001z" />
    <glyph glyph-name="multiply" unicode="&#xd7;" horiz-adv-x="420" 
d="M141 329c7.33301 -9.33301 19.6689 -21.665 37.002 -36.998c14.667 19.333 36 54.666 64 105.999c10 23.333 23 34.666 39 33.999c22 -1.33301 33 -13 33 -35c0 -9.33301 -2.83301 -18.666 -8.5 -27.999l-16.5 -28c-12 -25.333 -34 -58.333 -66 -99l81 -90
c1.33301 -2 20.333 -19 57 -51c21.333 -18.667 32 -36.667 32 -54c0 -10 -4.66699 -18 -14 -24s-20 -9 -32 -9c-12.667 0 -23.334 4.66699 -32.001 14c-16 18 -56.333 67.667 -121 149l-81 -144c-14 -28.667 -29.333 -42.334 -46 -41.001
c-22.667 0.666992 -35.334 14 -38.001 40c-0.666992 8 18.833 42.333 58.5 103s59.167 92 58.5 94c0 0.666992 -19.5 24 -58.5 70s-58.5 76.667 -58.5 92c0 24 11.667 36 35 36c11.333 0 20.333 -5.5 27 -16.5l19.5 -32.5z" />
    <glyph glyph-name="Oslash" unicode="&#xd8;" horiz-adv-x="625" 
d="M487 729c2.66699 -4.66699 1.66504 -18 -3.00195 -40c-2 -8.66699 -7.33301 -21 -16 -37c14 -8.66699 26.667 -18.334 38 -29.001c32 -29.333 54.333 -65.666 67 -108.999c8 -27.333 12.333 -66.333 13 -117c1.33301 -50 0 -88.667 -4 -116
c-10.667 -75.333 -35 -139.333 -73 -192c-47.333 -66.667 -107.666 -100 -180.999 -100c-34 0 -66 4 -96 12c-0.666992 -8 -5 -18 -13 -30c-12.667 -21.333 -26.667 -32 -42 -32c-17.333 0 -30.333 9 -39 27c-2.66699 4.66699 -4 9.66699 -4 15c0 6.66699 2.66699 15 8 25
c8.66699 17.333 13.334 26.333 14.001 27c-86.667 44.667 -130 126 -130 244c0 86.667 22 166.667 66 240c37.333 63.333 80.666 108.333 129.999 135c52.667 28 100.334 42 143.001 42c14 0 25.333 -1.66699 34 -5c3.33301 14.667 9.66602 27 18.999 37
c7.33301 8.66699 12 13.667 14 15c5.33301 4.66699 11 7 17 7c18.667 1.33301 31.334 -5 38.001 -19zM382.998 617c-14.667 16 -31.334 22.333 -50.001 19c-63.333 -12 -119.166 -53.167 -167.499 -123.5s-72.5 -142.833 -72.5 -217.5c0 -41.333 1.66699 -70.333 5 -87
c5.33301 -26 18 -49.667 38 -71c4 -4.66699 9.33301 -7.33398 16 -8.00098s12.5 -3.16699 17.5 -7.5s10.833 -13.166 17.5 -26.499c10 35.333 23 73.333 39 114c30 74.667 45.333 112.667 46 114l64 166zM442.998 580l-117 -303l-72 -195
c7.33301 1.33301 17.666 0.333008 30.999 -3c10 -6.66699 14.333 -17 13 -31c28 -0.666992 53.667 3 77 11c42.667 14.667 75.667 47 99 97c7.33301 16.667 21.333 62 42 136c3.33301 11.333 5.33301 28 6 50c2.66699 54 -1.66602 98 -12.999 132
c-12.667 40.667 -34.667 76 -66 106z" />
    <glyph glyph-name="Ugrave" unicode="&#xd9;" horiz-adv-x="470" 
d="M383 695c10 0 18.998 -3.66406 26.998 -10.9971s11.667 -15.666 11 -24.999c-1.33301 -38.667 -0.333008 -93.334 3 -164.001c3.33301 -82 5 -142.333 5 -181c0 -138.667 -29.333 -235 -88 -289c-31.333 -28.667 -66.666 -42.334 -105.999 -41.001
c-58 2 -103.667 16.333 -137 43c-39.333 32 -60.666 85.333 -63.999 160c-3.33301 64.667 3.66699 130 21 196c8.66699 28.667 20.667 75.667 36 141c2.66699 17.333 7.33398 45.333 14.001 84c4 23.333 8.33301 43.666 13 60.999c5.33301 21.333 20.666 32 45.999 32
c26 0 40 -8.66699 42 -26c0.666992 -5.33301 -0.666016 -11 -3.99902 -17c-4.66699 -8.66699 -7.33398 -14 -8.00098 -16c-18.667 -57.333 -31 -97.666 -37 -120.999c-11.333 -40 -20.666 -81.667 -27.999 -125c-10 -64.667 -17 -127.334 -21 -188.001
c-5.33301 -98 36.667 -147 126 -147c40.667 0 73 25.667 97 77c19.333 42 27.666 83.667 24.999 125c0 33.333 -0.666992 87.333 -2 162c-0.666992 18.667 -2.66699 52.667 -6 102c-3.33301 43.333 -5 77.333 -5 102c0 21.333 1.33301 35.666 4 42.999c6 15.333 18 23 36 23
zM268.998 841.003c40.667 -18.667 69.668 -34.668 87.001 -48.001c4 -4 6 -10 6 -18s-1.33301 -14.333 -4 -19c-4.66699 -15.333 -14.334 -21.666 -29.001 -18.999c-7.33301 1.33301 -19.333 7 -36 17c-18.667 10.667 -33.667 17.667 -45 21c-42.667 12 -68 23.333 -76 34
c-4.66699 8 -7 16.333 -7 25c0 9.33301 3.33301 19 10 29s14.667 15 24 15c8 0 19.333 -4.66699 34 -14c19.333 -13.333 31.333 -21 36 -23z" />
    <glyph glyph-name="Uacute" unicode="&#xda;" horiz-adv-x="470" 
d="M383 695c10 0 18.998 -3.66406 26.998 -10.9971s11.667 -15.666 11 -24.999c-1.33301 -38.667 -0.333008 -93.334 3 -164.001c3.33301 -82 5 -142.333 5 -181c0 -138.667 -29.333 -235 -88 -289c-31.333 -28.667 -66.666 -42.334 -105.999 -41.001
c-58 2 -103.667 16.333 -137 43c-39.333 32 -60.666 85.333 -63.999 160c-3.33301 64.667 3.66699 130 21 196c8.66699 28.667 20.667 75.667 36 141c2.66699 17.333 7.33398 45.333 14.001 84c4 23.333 8.33301 43.666 13 60.999c5.33301 21.333 20.666 32 45.999 32
c26 0 40 -8.66699 42 -26c0.666992 -5.33301 -0.666016 -11 -3.99902 -17c-4.66699 -8.66699 -7.33398 -14 -8.00098 -16c-18.667 -57.333 -31 -97.666 -37 -120.999c-11.333 -40 -20.666 -81.667 -27.999 -125c-10 -64.667 -17 -127.334 -21 -188.001
c-5.33301 -98 36.667 -147 126 -147c40.667 0 73 25.667 97 77c19.333 42 27.666 83.667 24.999 125c0 33.333 -0.666992 87.333 -2 162c-0.666992 18.667 -2.66699 52.667 -6 102c-3.33301 43.333 -5 77.333 -5 102c0 21.333 1.33301 35.666 4 42.999c6 15.333 18 23 36 23
zM371.998 831.003c0 -8.66699 -2.66602 -17.001 -7.99902 -25.001c-8 -10.667 -33 -22 -75 -34c-12 -3.33301 -26.833 -10.166 -44.5 -20.499s-30.167 -16.166 -37.5 -17.499c-14.667 -2.66699 -24.334 3.66602 -29.001 18.999c-2.66699 4.66699 -4 11 -4 19
c0.666992 8 2.66699 14 6 18c17.333 13.333 46.333 29.333 87 48c4.66699 2 16.667 9.66699 36 23c14.667 9.33301 26 14 34 14c9.33301 0 17.5 -5 24.5 -15s10.5 -19.667 10.5 -29z" />
    <glyph glyph-name="Ucircumflex" unicode="&#xdb;" horiz-adv-x="470" 
d="M383 695c10 0 18.998 -3.66406 26.998 -10.9971s11.667 -15.666 11 -24.999c-1.33301 -38.667 -0.333008 -93.334 3 -164.001c3.33301 -82 5 -142.333 5 -181c0 -138.667 -29.333 -235 -88 -289c-31.333 -28.667 -66.666 -42.334 -105.999 -41.001
c-58 2 -103.667 16.333 -137 43c-39.333 32 -60.666 85.333 -63.999 160c-3.33301 64.667 3.66699 130 21 196c8.66699 28.667 20.667 75.667 36 141c2.66699 17.333 7.33398 45.333 14.001 84c4 23.333 8.33301 43.666 13 60.999c5.33301 21.333 20.666 32 45.999 32
c26 0 40 -8.66699 42 -26c0.666992 -5.33301 -0.666016 -11 -3.99902 -17c-4.66699 -8.66699 -7.33398 -14 -8.00098 -16c-18.667 -57.333 -31 -97.666 -37 -120.999c-11.333 -40 -20.666 -81.667 -27.999 -125c-10 -64.667 -17 -127.334 -21 -188.001
c-5.33301 -98 36.667 -147 126 -147c40.667 0 73 25.667 97 77c19.333 42 27.666 83.667 24.999 125c0 33.333 -0.666992 87.333 -2 162c-0.666992 18.667 -2.66699 52.667 -6 102c-3.33301 43.333 -5 77.333 -5 102c0 21.333 1.33301 35.666 4 42.999c6 15.333 18 23 36 23
zM319.998 845.003l33.001 -31.998c12 -14 18 -26.333 18 -37c0 -11.333 -4.33301 -20.833 -13 -28.5s-19.334 -11.5 -32.001 -11.5c-16 0 -25.667 5.16699 -29 15.5s-6.33301 20.166 -9 29.499c-6.66699 12.667 -14 23.667 -22 33c-8.66699 -8 -17.667 -19.333 -27 -34
c-6 -10.667 -12.5 -21.334 -19.5 -32.001s-17.167 -16 -30.5 -16c-25.333 0 -37 13.333 -35 40c0 8 6.66699 18.333 20 31c12 10.667 23.667 21.667 35 33c2 2 14.667 16.667 38 44c12 14 20.333 21 25 21s11 -5.66699 19 -17c12 -18 21.667 -31 29 -39z" />
    <glyph glyph-name="Udieresis" unicode="&#xdc;" horiz-adv-x="470" 
d="M383 695c10 0 18.998 -3.66406 26.998 -10.9971s11.667 -15.666 11 -24.999c-1.33301 -38.667 -0.333008 -93.334 3 -164.001c3.33301 -82 5 -142.333 5 -181c0 -138.667 -29.333 -235 -88 -289c-31.333 -28.667 -66.666 -42.334 -105.999 -41.001
c-58 2 -103.667 16.333 -137 43c-39.333 32 -60.666 85.333 -63.999 160c-3.33301 64.667 3.66699 130 21 196c8.66699 28.667 20.667 75.667 36 141c2.66699 17.333 7.33398 45.333 14.001 84c4 23.333 8.33301 43.666 13 60.999c5.33301 21.333 20.666 32 45.999 32
c26 0 40 -8.66699 42 -26c0.666992 -5.33301 -0.666016 -11 -3.99902 -17c-4.66699 -8.66699 -7.33398 -14 -8.00098 -16c-18.667 -57.333 -31 -97.666 -37 -120.999c-11.333 -40 -20.666 -81.667 -27.999 -125c-10 -64.667 -17 -127.334 -21 -188.001
c-5.33301 -98 36.667 -147 126 -147c40.667 0 73 25.667 97 77c19.333 42 27.666 83.667 24.999 125c0 33.333 -0.666992 87.333 -2 162c-0.666992 18.667 -2.66699 52.667 -6 102c-3.33301 43.333 -5 77.333 -5 102c0 21.333 1.33301 35.666 4 42.999c6 15.333 18 23 36 23
zM241.998 777.003c0.666992 -14 -4.66797 -25.833 -16.001 -35.5s-24.333 -14.5 -39 -14.5c-14 0 -26.833 4.33301 -38.5 13s-17.5 19.667 -17.5 33c-1.33301 32 19.334 48 62.001 48c11.333 0 22.333 -4.5 33 -13.5s16 -19.167 16 -30.5zM404.996 786.003
c0 -14.667 -5.33203 -26.832 -15.999 -36.499s-23 -14.5 -37 -14.5c-13.333 0 -25.833 4.83301 -37.5 14.5s-17.834 20.5 -18.501 32.5c-0.666992 14 4 25.667 14 35s22 14 36 14c14.667 0 28.167 -4.33301 40.5 -13s18.5 -19.334 18.5 -32.001z" />
    <glyph glyph-name="Yacute" unicode="&#xdd;" horiz-adv-x="442" 
d="M414 415c2 -14.667 2.66602 -31.999 1.99902 -51.999c-1.33301 -18.667 -2.33301 -37.334 -3 -56.001c-0.666992 -28.667 -3.66699 -75 -9 -139c-1.33301 -9.33301 -4 -25.333 -8 -48c6.66699 -9.33301 10 -19 10 -29c0 -6 -1.66699 -11.667 -5 -17
c-6 -9.33301 -9 -14.333 -9 -15l-5 -46c0 -9.33301 -1.33301 -23.333 -4 -42c-25.333 -156 -103.333 -233.333 -234 -232c-39.333 0 -72.5 10.667 -99.5 32s-40.5 48 -40.5 80c0 24 4.33301 45.333 13 64c11.333 24 28 35.333 50 34c11.333 0 18 -4.33301 20 -13
c0 -8 0.333008 -16 1 -24c0.666992 -7.33301 -1.83301 -15.666 -7.5 -24.999s-8.16699 -17.333 -7.5 -24c2.66699 -36.667 24.334 -55.667 65.001 -57c47.333 -0.666992 88 16.333 122 51s51 76 51 124v36c-36.667 -28.667 -78 -41.334 -124 -38.001
c-69.333 4.66699 -115.333 28.334 -138 71.001c-14 26.667 -21.333 73 -22 139c-1.33301 116 20.334 195.333 65.001 238c18.667 18 33.334 26.333 44.001 25c19.333 -3.33301 29.666 -15.333 30.999 -36c0 -12 -4 -21.333 -12 -28c-12 -9.33301 -19 -16 -21 -20
c-14 -26 -24 -66 -30 -120c-9.33301 -84 -6.33301 -141 9 -171c6 -12.667 26.333 -21.334 61 -26.001c9.33301 -1.33301 18.666 -2 27.999 -2c44.667 0 78 16 100 48c12.667 18 20.667 41 24 69l10 108c2 21.333 2.33301 49 1 83c0 4 -1.33301 12.333 -4 25
c-2.66699 9.33301 -3 17.333 -1 24c7.33301 31.333 20 47 38 47c22 0 35 -12.667 39 -38zM345.999 586.001c0 -8.66699 -2.66602 -17.001 -7.99902 -25.001c-8 -10.667 -33 -22 -75 -34c-12 -3.33301 -26.833 -10.166 -44.5 -20.499s-30.167 -16.166 -37.5 -17.499
c-14.667 -2.66699 -24.334 3.66602 -29.001 18.999c-2.66699 4.66699 -4 11 -4 19c0.666992 8 2.66699 14 6 18c17.333 13.333 46.333 29.333 87 48c4.66699 2 16.667 9.66699 36 23c14.667 9.33301 26 14 34 14c9.33301 0 17.5 -5 24.5 -15s10.5 -19.667 10.5 -29z" />
    <glyph glyph-name="Thorn" unicode="&#xde;" horiz-adv-x="498" 
d="M135 704c6.66699 -48.667 14.667 -99.667 24 -153l15 2c36 4.66699 64 6.33398 84 5.00098c54 -4.66699 103.333 -27.334 148 -68.001c48 -44 69.667 -92.333 65 -145c-6.66699 -62 -33 -107.667 -79 -137c-34 -21.333 -86 -37 -156 -47l-69 -9
c0 -12.667 -1 -34.334 -3 -65.001c0 -16.667 -1.66699 -45.334 -5 -86.001c-6 -39.333 -22 -58 -48 -56c-22.667 2 -34 17.333 -34 46c0 8 1 16 3 24c5.33301 22.667 10.666 77.334 15.999 164.001c4.66699 82 6.33398 135 5.00098 159
c-2 37.333 -5.33301 73.666 -10 108.999c-11.333 -5.33301 -22.333 -6.66602 -33 -3.99902c-18.667 4.66699 -28 15.334 -28 32.001c0 14 9.33301 26.333 28 37c1.33301 0.666992 8.66602 2.66699 21.999 6c-3.33301 6 -7.66602 34 -12.999 84s-7.33301 78.333 -6 85
c6 24.667 19 36.667 39 36c14 0 25.667 -6.33301 35 -19zM174 349c0.666992 -16 1 -58.666 1 -127.999h26c53.333 0 98.333 10.333 135 31c43.333 23.333 65 56.666 65 99.999c0 38 -15.667 70 -47 96c-28.667 24 -64 37.333 -106 40c-12.667 1.33301 -33 -1 -61 -7l-25 -5
c3.33301 -26 7.33301 -68.333 12 -127z" />
    <glyph glyph-name="germandbls" unicode="&#xdf;" horiz-adv-x="413" 
d="M127 579c0 -6 -0.668945 -12.6719 -2.00195 -20.0049l-4 -20c-4 -34.667 -5.66699 -71.667 -5 -111c2 -73.333 3 -110.666 3 -111.999c0 -20 -1.66699 -64.667 -5 -134c-2 -49.333 -1.66699 -94 1 -134c0 -2 1.33301 -10.333 4 -25c2 -9.33301 2 -17.666 0 -24.999
c-7.33301 -26.667 -18.666 -40.667 -33.999 -42c-12.667 -1.33301 -23.167 1.66699 -31.5 9s-11.833 20.333 -10.5 39c5.33301 90 8.66602 181.667 9.99902 275c0.666992 80 0 178.333 -2 295c-12 8 -18 20.333 -18 37c0 13.333 6.33301 24 19 32c-1.33301 11.333 0 21 4 29
c6 12.667 18.667 19.667 38 21c22 0.666992 37.667 -8 47 -26l30 1c58 2.66699 106.667 -13.833 146 -49.5s59.333 -80.5 60 -134.5c0.666992 -74.667 -23.666 -125 -72.999 -151l-13 -8l15 -17c46.667 -49.333 71 -110.333 73 -183
c0.666992 -33.333 -11.666 -63.666 -36.999 -90.999c-20.667 -22.667 -44 -38 -70 -46c-8 -2 -18.667 -3 -32 -3c-52.667 0 -79 12.667 -79 38c0 22.667 12.667 34 38 34c5.33301 0 13.833 -0.666992 25.5 -2s20.5 -2 26.5 -2c20 0 36.5 8.16699 49.5 24.5
s18.5 34.833 16.5 55.5c-6.66699 68.667 -30 118.334 -70 149.001c-18 14 -32.667 20.333 -44 19c-16.667 -2 -27.667 0 -33 6c-3.33301 3.33301 -5.66602 11.333 -6.99902 24c-2 16.667 15.667 28.334 53 35.001l37.5 6c12.333 2 22.833 7 31.5 15
c19.333 18 28.666 48.333 27.999 91c-1.33301 56.667 -21 93.667 -59 111c-7.33301 3.33301 -16.666 5.5 -27.999 6.5s-19.333 2.66699 -24 5s-11.334 4.83301 -20.001 7.5c-3.33301 0.666992 -7.83301 0.166992 -13.5 -1.5s-9.5 -2.5 -11.5 -2.5
c-4 -0.666992 -14.667 -1 -32 -1c1.33301 -11.333 2 -19.333 2 -24z" />
    <glyph glyph-name="agrave" unicode="&#xe0;" horiz-adv-x="540" 
d="M460 458c10 0.666992 19.833 -1.33496 29.5 -6.00195s14.167 -10.667 13.5 -18c0 -7.33301 -2.83301 -20.666 -8.5 -39.999s-8.5 -35.333 -8.5 -48c0 -12 2.16699 -26.833 6.5 -44.5s6.83301 -32.167 7.5 -43.5c0.666992 -18.667 -1.5 -41.334 -6.5 -68.001
s-7.5 -48.334 -7.5 -65.001c0 -15.333 3.33301 -48.666 10 -99.999c1.33301 -11.333 -0.5 -22.666 -5.5 -33.999s-12.833 -17 -23.5 -17c-20 -1.33301 -33 8.33398 -39 29.001c-1.33301 5.33301 -2 16.666 -2 33.999l-69 -34c-28.667 -11.333 -64 -17 -106 -17
c-42.667 3.33301 -79 11.333 -109 24c-72 30 -108 81.333 -108 154c0 78.667 18.667 144.667 56 198c40 57.333 93.667 86 161 86c68.667 0.666992 126 -24.333 172 -75c0 5.33301 -0.333008 13 -1 23s-1 17.333 -1 22c0.666992 6.66699 2.33398 13.334 5.00098 20.001
c5.33301 12 16.666 18.667 33.999 20zM404 321.998c-20 10.667 -38.333 16.334 -55 17.001s-28 2.33398 -34 5.00098c-12 5.33301 -19.333 19.666 -22 42.999c-18.667 1.33301 -36 0.333008 -52 -3c-84 -16 -129.333 -83.333 -136 -202c-2.66699 -49.333 11.333 -84 42 -104
c21.333 -14.667 56 -23.334 104 -26.001c40.667 -3.33301 77.167 7.5 109.5 32.5s51.833 57.5 58.5 97.5c2 12.667 2 30.667 0 54c0 47.333 0.333008 63 1 47c-0.666992 16 -6 29 -16 39zM280 588.998c40.667 -18.667 69.668 -34.668 87.001 -48.001c4 -4 6 -10 6 -18
s-1.33301 -14.333 -4 -19c-4.66699 -15.333 -14.334 -21.666 -29.001 -18.999c-7.33301 1.33301 -19.333 7 -36 17c-18.667 10.667 -33.667 17.667 -45 21c-42.667 12 -68 23.333 -76 34c-4.66699 8 -7 16.333 -7 25c0 9.33301 3.33301 19 10 29s14.667 15 24 15
c8 0 19.333 -4.66699 34 -14c19.333 -13.333 31.333 -21 36 -23z" />
    <glyph glyph-name="aacute" unicode="&#xe1;" horiz-adv-x="540" 
d="M460 458c10 0.666992 19.833 -1.33496 29.5 -6.00195s14.167 -10.667 13.5 -18c0 -7.33301 -2.83301 -20.666 -8.5 -39.999s-8.5 -35.333 -8.5 -48c0 -12 2.16699 -26.833 6.5 -44.5s6.83301 -32.167 7.5 -43.5c0.666992 -18.667 -1.5 -41.334 -6.5 -68.001
s-7.5 -48.334 -7.5 -65.001c0 -15.333 3.33301 -48.666 10 -99.999c1.33301 -11.333 -0.5 -22.666 -5.5 -33.999s-12.833 -17 -23.5 -17c-20 -1.33301 -33 8.33398 -39 29.001c-1.33301 5.33301 -2 16.666 -2 33.999l-69 -34c-28.667 -11.333 -64 -17 -106 -17
c-42.667 3.33301 -79 11.333 -109 24c-72 30 -108 81.333 -108 154c0 78.667 18.667 144.667 56 198c40 57.333 93.667 86 161 86c68.667 0.666992 126 -24.333 172 -75c0 5.33301 -0.333008 13 -1 23s-1 17.333 -1 22c0.666992 6.66699 2.33398 13.334 5.00098 20.001
c5.33301 12 16.666 18.667 33.999 20zM404 321.998c-20 10.667 -38.333 16.334 -55 17.001s-28 2.33398 -34 5.00098c-12 5.33301 -19.333 19.666 -22 42.999c-18.667 1.33301 -36 0.333008 -52 -3c-84 -16 -129.333 -83.333 -136 -202c-2.66699 -49.333 11.333 -84 42 -104
c21.333 -14.667 56 -23.334 104 -26.001c40.667 -3.33301 77.167 7.5 109.5 32.5s51.833 57.5 58.5 97.5c2 12.667 2 30.667 0 54c0 47.333 0.333008 63 1 47c-0.666992 16 -6 29 -16 39zM365 582.998c0 -8.66699 -2.66602 -17.001 -7.99902 -25.001
c-8 -10.667 -33 -22 -75 -34c-12 -3.33301 -26.833 -10.166 -44.5 -20.499s-30.167 -16.166 -37.5 -17.499c-14.667 -2.66699 -24.334 3.66602 -29.001 18.999c-2.66699 4.66699 -4 11 -4 19c0.666992 8 2.66699 14 6 18c17.333 13.333 46.333 29.333 87 48
c4.66699 2 16.667 9.66699 36 23c14.667 9.33301 26 14 34 14c9.33301 0 17.5 -5 24.5 -15s10.5 -19.667 10.5 -29z" />
    <glyph glyph-name="acircumflex" unicode="&#xe2;" horiz-adv-x="540" 
d="M460 458c10 0.666992 19.833 -1.33496 29.5 -6.00195s14.167 -10.667 13.5 -18c0 -7.33301 -2.83301 -20.666 -8.5 -39.999s-8.5 -35.333 -8.5 -48c0 -12 2.16699 -26.833 6.5 -44.5s6.83301 -32.167 7.5 -43.5c0.666992 -18.667 -1.5 -41.334 -6.5 -68.001
s-7.5 -48.334 -7.5 -65.001c0 -15.333 3.33301 -48.666 10 -99.999c1.33301 -11.333 -0.5 -22.666 -5.5 -33.999s-12.833 -17 -23.5 -17c-20 -1.33301 -33 8.33398 -39 29.001c-1.33301 5.33301 -2 16.666 -2 33.999l-69 -34c-28.667 -11.333 -64 -17 -106 -17
c-42.667 3.33301 -79 11.333 -109 24c-72 30 -108 81.333 -108 154c0 78.667 18.667 144.667 56 198c40 57.333 93.667 86 161 86c68.667 0.666992 126 -24.333 172 -75c0 5.33301 -0.333008 13 -1 23s-1 17.333 -1 22c0.666992 6.66699 2.33398 13.334 5.00098 20.001
c5.33301 12 16.666 18.667 33.999 20zM404 321.998c-20 10.667 -38.333 16.334 -55 17.001s-28 2.33398 -34 5.00098c-12 5.33301 -19.333 19.666 -22 42.999c-18.667 1.33301 -36 0.333008 -52 -3c-84 -16 -129.333 -83.333 -136 -202c-2.66699 -49.333 11.333 -84 42 -104
c21.333 -14.667 56 -23.334 104 -26.001c40.667 -3.33301 77.167 7.5 109.5 32.5s51.833 57.5 58.5 97.5c2 12.667 2 30.667 0 54c0 47.333 0.333008 63 1 47c-0.666992 16 -6 29 -16 39zM331 598.998l33.999 -33.001c12 -13.333 18 -25.666 18 -36.999
s-4.5 -20.833 -13.5 -28.5s-19.5 -11.5 -31.5 -11.5c-16 0 -25.667 5.16699 -29 15.5s-6.33301 20.5 -9 30.5c-7.33301 12 -14.666 22.667 -21.999 32c-8.66699 -8 -18 -19 -28 -33l-18 -32c-8 -11.333 -18.333 -17 -31 -17c-25.333 0 -37.333 13.333 -36 40
c0.666992 8 7.66699 18.667 21 32l35 32c1.33301 2 14 17 38 45c12 14 20.333 21 25 21c4 0 10.333 -6 19 -18c12 -18 21.333 -30.667 28 -38z" />
    <glyph glyph-name="atilde" unicode="&#xe3;" horiz-adv-x="540" 
d="M460 458c10 0.666992 19.833 -1.33496 29.5 -6.00195s14.167 -10.667 13.5 -18c0 -7.33301 -2.83301 -20.666 -8.5 -39.999s-8.5 -35.333 -8.5 -48c0 -12 2.16699 -26.833 6.5 -44.5s6.83301 -32.167 7.5 -43.5c0.666992 -18.667 -1.5 -41.334 -6.5 -68.001
s-7.5 -48.334 -7.5 -65.001c0 -15.333 3.33301 -48.666 10 -99.999c1.33301 -11.333 -0.5 -22.666 -5.5 -33.999s-12.833 -17 -23.5 -17c-20 -1.33301 -33 8.33398 -39 29.001c-1.33301 5.33301 -2 16.666 -2 33.999l-69 -34c-28.667 -11.333 -64 -17 -106 -17
c-42.667 3.33301 -79 11.333 -109 24c-72 30 -108 81.333 -108 154c0 78.667 18.667 144.667 56 198c40 57.333 93.667 86 161 86c68.667 0.666992 126 -24.333 172 -75c0 5.33301 -0.333008 13 -1 23s-1 17.333 -1 22c0.666992 6.66699 2.33398 13.334 5.00098 20.001
c5.33301 12 16.666 18.667 33.999 20zM404 321.998c-20 10.667 -38.333 16.334 -55 17.001s-28 2.33398 -34 5.00098c-12 5.33301 -19.333 19.666 -22 42.999c-18.667 1.33301 -36 0.333008 -52 -3c-84 -16 -129.333 -83.333 -136 -202c-2.66699 -49.333 11.333 -84 42 -104
c21.333 -14.667 56 -23.334 104 -26.001c40.667 -3.33301 77.167 7.5 109.5 32.5s51.833 57.5 58.5 97.5c2 12.667 2 30.667 0 54c0 47.333 0.333008 63 1 47c-0.666992 16 -6 29 -16 39zM318 581.498c5.33301 -5.66699 9.66406 -10.5029 12.9971 -14.5029
c8.66699 6 16.334 14 23.001 24c2 6.66699 6.33301 16.334 13 29.001c9.33301 10.667 19.333 16 30 16s20 -3.66699 28 -11s11 -15.666 9 -24.999c-2 -10 -12 -26.667 -30 -50c-14.667 -18.667 -30.334 -33.667 -47.001 -45c-14 -9.33301 -27.667 -11 -41 -5
c-11.333 4.66699 -20.333 11.334 -27 20.001l-27 40l-35 -26c-3.33301 -12 -10.166 -21.667 -20.499 -29s-21.166 -10 -32.499 -8c-20 3.33301 -30 14.333 -30 33c0 5.33301 5 14.333 15 27c6.66699 4.66699 17.334 12.667 32.001 24c5.33301 8 15.666 20 30.999 36
c20 14 34.333 20.667 43 20c8.66699 -1.33301 16.334 -6 23.001 -14c4.66699 -8 9.5 -15.5 14.5 -22.5s10.167 -13.333 15.5 -19z" />
    <glyph glyph-name="adieresis" unicode="&#xe4;" horiz-adv-x="540" 
d="M460 458c10 0.666992 19.833 -1.33496 29.5 -6.00195s14.167 -10.667 13.5 -18c0 -7.33301 -2.83301 -20.666 -8.5 -39.999s-8.5 -35.333 -8.5 -48c0 -12 2.16699 -26.833 6.5 -44.5s6.83301 -32.167 7.5 -43.5c0.666992 -18.667 -1.5 -41.334 -6.5 -68.001
s-7.5 -48.334 -7.5 -65.001c0 -15.333 3.33301 -48.666 10 -99.999c1.33301 -11.333 -0.5 -22.666 -5.5 -33.999s-12.833 -17 -23.5 -17c-20 -1.33301 -33 8.33398 -39 29.001c-1.33301 5.33301 -2 16.666 -2 33.999l-69 -34c-28.667 -11.333 -64 -17 -106 -17
c-42.667 3.33301 -79 11.333 -109 24c-72 30 -108 81.333 -108 154c0 78.667 18.667 144.667 56 198c40 57.333 93.667 86 161 86c68.667 0.666992 126 -24.333 172 -75c0 5.33301 -0.333008 13 -1 23s-1 17.333 -1 22c0.666992 6.66699 2.33398 13.334 5.00098 20.001
c5.33301 12 16.666 18.667 33.999 20zM404 321.998c-20 10.667 -38.333 16.334 -55 17.001s-28 2.33398 -34 5.00098c-12 5.33301 -19.333 19.666 -22 42.999c-18.667 1.33301 -36 0.333008 -52 -3c-84 -16 -129.333 -83.333 -136 -202c-2.66699 -49.333 11.333 -84 42 -104
c21.333 -14.667 56 -23.334 104 -26.001c40.667 -3.33301 77.167 7.5 109.5 32.5s51.833 57.5 58.5 97.5c2 12.667 2 30.667 0 54c0 47.333 0.333008 63 1 47c-0.666992 16 -6 29 -16 39zM246 557.998c0.666992 -14 -4.66797 -25.833 -16.001 -35.5s-24.333 -14.5 -39 -14.5
c-14 0 -26.833 4.33301 -38.5 13s-17.5 19.667 -17.5 33c-1.33301 32 19.334 48 62.001 48c11.333 0 22.333 -4.5 33 -13.5s16 -19.167 16 -30.5zM408.998 566.998c0 -14.667 -5.33203 -26.832 -15.999 -36.499s-23 -14.5 -37 -14.5c-13.333 0 -25.833 4.83301 -37.5 14.5
s-17.834 20.5 -18.501 32.5c-0.666992 14 4 25.667 14 35s22 14 36 14c14.667 0 28.167 -4.33301 40.5 -13s18.5 -19.334 18.5 -32.001z" />
    <glyph glyph-name="aring" unicode="&#xe5;" horiz-adv-x="540" 
d="M460 458c10 0.666992 19.833 -1.33496 29.5 -6.00195s14.167 -10.667 13.5 -18c0 -7.33301 -2.83301 -20.666 -8.5 -39.999s-8.5 -35.333 -8.5 -48c0 -12 2.16699 -26.833 6.5 -44.5s6.83301 -32.167 7.5 -43.5c0.666992 -18.667 -1.5 -41.334 -6.5 -68.001
s-7.5 -48.334 -7.5 -65.001c0 -15.333 3.33301 -48.666 10 -99.999c1.33301 -11.333 -0.5 -22.666 -5.5 -33.999s-12.833 -17 -23.5 -17c-20 -1.33301 -33 8.33398 -39 29.001c-1.33301 5.33301 -2 16.666 -2 33.999l-69 -34c-28.667 -11.333 -64 -17 -106 -17
c-42.667 3.33301 -79 11.333 -109 24c-72 30 -108 81.333 -108 154c0 78.667 18.667 144.667 56 198c40 57.333 93.667 86 161 86c68.667 0.666992 126 -24.333 172 -75c0 5.33301 -0.333008 13 -1 23s-1 17.333 -1 22c0.666992 6.66699 2.33398 13.334 5.00098 20.001
c5.33301 12 16.666 18.667 33.999 20zM404 321.998c-20 10.667 -38.333 16.334 -55 17.001s-28 2.33398 -34 5.00098c-12 5.33301 -19.333 19.666 -22 42.999c-18.667 1.33301 -36 0.333008 -52 -3c-84 -16 -129.333 -83.333 -136 -202c-2.66699 -49.333 11.333 -84 42 -104
c21.333 -14.667 56 -23.334 104 -26.001c40.667 -3.33301 77.167 7.5 109.5 32.5s51.833 57.5 58.5 97.5c2 12.667 2 30.667 0 54c0 47.333 0.333008 63 1 47c-0.666992 16 -6 29 -16 39zM197 559.998c0 14 7.66699 29.667 23 47s32 26 50 26c16 0 33.333 -6 52 -18
c22 -14 33 -30.333 33 -49s-6 -35.667 -18 -51c-14 -18.667 -32.333 -28 -55 -28c-17.333 0 -35.333 7 -54 21c-20.667 16 -31 33.333 -31 52zM279 535.998c7.33301 0 13.667 3 19 9s8 11.667 8 17c0 6 -4 12.333 -12 19s-14.333 10 -19 10c-6.66699 0 -13 -2.5 -19 -7.5
s-9 -11.167 -9 -18.5c0 -6 4 -12.333 12 -19s14.667 -10 20 -10z" />
    <glyph glyph-name="ae" unicode="&#xe6;" horiz-adv-x="887" 
d="M484 349c47.333 72.667 105.999 109.668 175.999 111.001c47.333 0.666992 87 -19.666 119 -60.999c28.667 -38 44.667 -83.333 48 -136c0.666992 -10.667 -1.83301 -20.667 -7.5 -30s-13.167 -14 -22.5 -14c-12.667 2 -32.334 3.66699 -59.001 5
c-28 -2.66699 -73 -5.33398 -135 -8.00098c-18 -1.33301 -48 -2.66602 -90 -3.99902l-1 -30c-1.33301 -30 14.167 -61 46.5 -93s66.5 -47.667 102.5 -47c44.667 0.666992 82.334 25 113.001 73c16 26 31.667 37.333 47 34c10 0.666992 18.333 -3.33301 25 -12
s10 -18.334 10 -29.001c-5.33301 -34 -29.166 -64.667 -71.499 -92s-85.833 -41.333 -130.5 -42c-59.333 -1.33301 -112 23.667 -158 75c0 -2 0.5 -5.33301 1.5 -10s1.5 -8.33398 1.5 -11.001c1.33301 -34 -7.66699 -51.333 -27 -52c-20.667 -0.666992 -33.667 9 -39 29
c-2.66699 23.333 -4 34.666 -4 33.999l-69 -36c-27.333 -11.333 -62.333 -17.333 -105 -18c-42.667 2.66699 -79 10 -109 22c-72.667 28.667 -109.667 79.334 -111 152.001c-1.33301 78.667 16.334 145 53.001 199c38.667 58 91.334 87.667 158.001 89
c70 1.33301 128 -22.667 174 -72c0 -4 -0.666992 7.33301 -2 34c-0.666992 12 0.666016 22.333 3.99902 31c5.33301 13.333 16.666 20 33.999 20c28 0 42.333 -7.66699 43 -23c0 -8 -2.5 -21.5 -7.5 -40.5s-7.5 -34.833 -7.5 -47.5zM401.999 323.001
c-20 10.667 -41.998 16.333 -65.998 17c-8.66699 0 -16.334 1.33301 -23.001 4c-14 6 -22 20 -24 42c-6.66699 0 -15.334 -0.5 -26.001 -1.5s-19 -1.5 -25 -1.5c-83.333 -18 -127.333 -86.333 -132 -205c-1.33301 -49.333 13.334 -84 44.001 -104
c22 -13.333 56.667 -21 104 -23c41.333 -2 77.833 9.5 109.5 34.5s50.5 57.833 56.5 98.5c2 12.667 1.66699 30.667 -1 54v47c-0.666992 15.333 -6.33398 28 -17.001 38zM533.001 277c20 -1.33301 37.666 -1.99902 52.999 -1.99902c14.667 0 32.834 1 54.501 3
s57.167 5.66699 106.5 11l-2 24c-2 21.333 -12.167 40 -30.5 56s-36.833 24 -55.5 24c-28.667 -0.666992 -56.167 -12.834 -82.5 -36.501s-40.833 -50.167 -43.5 -79.5z" />
    </font>
</defs>
</svg>
